<svg xmlns="http://www.w3.org/2000/svg" xmlns:xlink="http://www.w3.org/1999/xlink" width="31" height="16.711" viewBox="0 0 31 16.711">
  <defs>
    <clipPath id="clip-path">
      <rect id="Rectangle_10214" data-name="Rectangle 10214" width="16.576" height="16.711" fill="#bcbec0"/>
    </clipPath>
  </defs>
  <g id="Group_24841" data-name="Group 24841" transform="translate(3169 -550)">
    <g id="Group_24836" data-name="Group 24836" transform="translate(-3154.576 550)">
      <g id="Group_24832" data-name="Group 24832" transform="translate(0)" clip-path="url(#clip-path)">
        <path id="Path_3899" data-name="Path 3899" d="M16.288,0a.3.3,0,0,1,.288.277L9.242,16.092a1.069,1.069,0,0,1-.97.62H.8a.787.787,0,0,1-.8-.765V8.827A1.048,1.048,0,0,1,.578,7.89Z" transform="translate(0)" fill="#bcbec0" fill-rule="evenodd"/>
      </g>
    </g>
    <g id="Group_24840" data-name="Group 24840" transform="translate(-3169 550)">
      <g id="Group_24832-2" data-name="Group 24832" transform="translate(0)" clip-path="url(#clip-path)">
        <path id="Path_3899-2" data-name="Path 3899" d="M16.288,0a.3.3,0,0,1,.288.277L9.242,16.092a1.069,1.069,0,0,1-.97.62H.8a.787.787,0,0,1-.8-.765V8.827A1.048,1.048,0,0,1,.578,7.89Z" transform="translate(0)" fill="#bcbec0" fill-rule="evenodd"/>
      </g>
    </g>
  </g>
</svg>
