<svg xmlns="http://www.w3.org/2000/svg" xmlns:xlink="http://www.w3.org/1999/xlink" width="87.618" height="87.621" viewBox="0 0 87.618 87.621">
  <defs>
    <clipPath id="clip-path">
      <rect id="Rectangle_10293" data-name="Rectangle 10293" width="87.618" height="87.621" fill="none"/>
    </clipPath>
  </defs>
  <g id="Group_25212" data-name="Group 25212" transform="translate(0 0)">
    <g id="Group_25107" data-name="Group 25107" transform="translate(0 0)" clip-path="url(#clip-path)">
      <path id="Path_3989" data-name="Path 3989" d="M18.023,11.382a6.641,6.641,0,1,0,6.639,6.639,6.641,6.641,0,0,0-6.639-6.639" transform="translate(25.786 25.789)" fill="#bccf3b"/>
      <path id="Path_3990" data-name="Path 3990" d="M29.4,11.382a6.641,6.641,0,1,0,6.639,6.639A6.638,6.638,0,0,0,29.4,11.382" transform="translate(51.576 25.789)" fill="#bccf3b"/>
      <path id="Path_3991" data-name="Path 3991" d="M26.98,22.655a1.561,1.561,0,0,0,2.214,0L33.345,18.5a1.54,1.54,0,0,0,.46-1.107,1.715,1.715,0,0,0-.46-1.107L29.195,12.14a1.566,1.566,0,0,0-2.214,2.214l1.476,1.476H18.033a1.568,1.568,0,1,0,0,3.135H28.548l-1.476,1.476a1.442,1.442,0,0,0-.091,2.214" transform="translate(37.304 26.412)" fill="#818386"/>
      <path id="Path_3992" data-name="Path 3992" d="M30.774,14.672a6.641,6.641,0,1,0-9.392,0,6.642,6.642,0,0,0,9.392,0" transform="translate(44.039 7.558)" fill="#bccf3b"/>
      <path id="Path_3993" data-name="Path 3993" d="M15.842,20.035a1.561,1.561,0,0,0,2.214,0l7.377-7.377v2.119a1.569,1.569,0,0,0,3.138,0V8.968A1.556,1.556,0,0,0,27,7.4h-5.81a1.553,1.553,0,0,0-1.568,1.568,1.5,1.5,0,0,0,1.568,1.568h2.123l-7.38,7.377a1.48,1.48,0,0,0-.091,2.123" transform="translate(34.979 16.767)" fill="#818386"/>
      <path id="Path_3994" data-name="Path 3994" d="M18.023,13.281a6.641,6.641,0,1,0-6.642-6.642,6.639,6.639,0,0,0,6.642,6.642" transform="translate(25.786 0.001)" fill="#bccf3b"/>
      <path id="Path_3995" data-name="Path 3995" d="M17.4,22.347a1.555,1.555,0,0,0,1.568-1.568V10.355l1.476,1.476a1.553,1.553,0,0,0,2.214,0,1.506,1.506,0,0,0,0-2.214L18.506,5.561a1.506,1.506,0,0,0-2.214,0L12.141,9.712a1.566,1.566,0,0,0,2.214,2.214l1.476-1.476V20.962A1.6,1.6,0,0,0,17.4,22.347" transform="translate(26.41 11.502)" fill="#818386"/>
      <path id="Path_3996" data-name="Path 3996" d="M14.672,14.662a6.641,6.641,0,1,0-9.392,0,6.642,6.642,0,0,0,9.392,0" transform="translate(7.557 7.535)" fill="#bccf3b"/>
      <path id="Path_3997" data-name="Path 3997" d="M7.463,14.815H7.372a1.568,1.568,0,1,0,3.135,0V12.692l7.377,7.38a1.561,1.561,0,0,0,2.214,0,1.506,1.506,0,0,0,0-2.214l-7.377-7.377h2.119a1.557,1.557,0,0,0,1.571-1.571,1.5,1.5,0,0,0-1.571-1.568H9.031A1.555,1.555,0,0,0,7.463,8.911Z" transform="translate(16.703 16.638)" fill="#818386"/>
      <path id="Path_3998" data-name="Path 3998" d="M13.281,18.021a6.641,6.641,0,1,0-6.642,6.642,6.639,6.639,0,0,0,6.642-6.642" transform="translate(0 25.789)" fill="#bccf3b"/>
      <path id="Path_3999" data-name="Path 3999" d="M22.33,17.4a1.555,1.555,0,0,0-1.568-1.568H10.338l1.476-1.476A1.566,1.566,0,0,0,9.6,12.14L5.544,16.29a1.527,1.527,0,0,0-.46,1.107,1.7,1.7,0,0,0,.46,1.107L9.7,22.655a1.692,1.692,0,0,0,1.107.46,1.7,1.7,0,0,0,1.107-.46,1.511,1.511,0,0,0,0-2.214l-1.476-1.476H20.945A1.6,1.6,0,0,0,22.33,17.4" transform="translate(11.519 26.412)" fill="#818386"/>
      <path id="Path_4000" data-name="Path 4000" d="M5.271,21.373a6.641,6.641,0,1,0,9.392,0,6.642,6.642,0,0,0-9.392,0" transform="translate(7.537 44.019)" fill="#bccf3b"/>
      <path id="Path_4001" data-name="Path 4001" d="M20.1,15.9a1.506,1.506,0,0,0-2.214,0l-7.377,7.377V21.156a1.569,1.569,0,0,0-3.138,0v5.81a1.556,1.556,0,0,0,1.571,1.568h5.81a1.553,1.553,0,0,0,1.568-1.568,1.431,1.431,0,0,0-1.568-1.476H12.629l7.38-7.377A1.594,1.594,0,0,0,20.1,15.9" transform="translate(16.7 34.923)" fill="#818386"/>
      <path id="Path_4002" data-name="Path 4002" d="M18.023,22.764A6.641,6.641,0,1,0,24.663,29.4a6.641,6.641,0,0,0-6.639-6.639" transform="translate(25.786 51.576)" fill="#bccf3b"/>
      <path id="Path_4003" data-name="Path 4003" d="M17.4,16.466a1.555,1.555,0,0,0-1.568,1.568V28.549l-1.476-1.476a1.566,1.566,0,0,0-2.214,2.214l4.151,4.151a1.561,1.561,0,0,0,2.214,0l4.151-4.151a1.566,1.566,0,0,0-2.214-2.214l-1.476,1.476V18.034A1.616,1.616,0,0,0,17.4,16.466" transform="translate(26.41 37.307)" fill="#818386"/>
      <path id="Path_4004" data-name="Path 4004" d="M21.373,21.382a6.641,6.641,0,1,0,9.392,0,6.642,6.642,0,0,0-9.392,0" transform="translate(44.019 44.04)" fill="#bccf3b"/>
      <path id="Path_4005" data-name="Path 4005" d="M28.533,21.184h.091a1.568,1.568,0,1,0-3.135,0v2.123l-7.377-7.38A1.566,1.566,0,1,0,15.9,18.141l7.377,7.377H21.156a1.556,1.556,0,0,0-1.571,1.568,1.5,1.5,0,0,0,1.571,1.571h5.81a1.556,1.556,0,0,0,1.568-1.571Z" transform="translate(34.922 34.986)" fill="#818386"/>
    </g>
  </g>
</svg>
