<svg xmlns="http://www.w3.org/2000/svg" xmlns:xlink="http://www.w3.org/1999/xlink" width="87.923" height="78.099" viewBox="0 0 87.923 78.099">
  <defs>
    <clipPath id="clip-path">
      <rect id="Rectangle_10308" data-name="Rectangle 10308" width="87.923" height="78.099" fill="none"/>
    </clipPath>
  </defs>
  <g id="Group_25227" data-name="Group 25227" transform="translate(0 0)">
    <g id="Group_25132" data-name="Group 25132" transform="translate(0 0)" clip-path="url(#clip-path)">
      <path id="Path_4031" data-name="Path 4031" d="M82.472,21.7l-10.551,1.2v.462a6.137,6.137,0,0,1-4.167,5.555c-4.627,1.48-15.364,3.792-15.827,3.886h-.462l-12.218-.276a2.215,2.215,0,0,1-2.222-2.315,2.141,2.141,0,0,1,2.312-2.129l11.386.279a3.44,3.44,0,0,0,1.018-.093c2.591-.555,10.461-2.315,14.163-3.519a1.759,1.759,0,0,0,1.48-1.85c.186-2.129-1.2-4.813-2.405-5.462-1.573-.835-6.3-.462-10.461-.186a54.173,54.173,0,0,1-9.533.279,50.872,50.872,0,0,1-7.311-1.39c-6.759-1.387-11.2-.646-15.274.928-1.573.646-3.147,1.2-4.537,1.85A56.8,56.8,0,0,1,8.515,21.7L2.5,22.906A3.077,3.077,0,0,0,0,25.959v17.31a3.108,3.108,0,0,0,3.7,3.054l6.2-1.3a18.163,18.163,0,0,1,7.407.093l18.88,4.167a17.723,17.723,0,0,0,12.866-1.021L86.268,30.5a2.2,2.2,0,0,0,1.2-1.2c1.666-4.63-1.573-7.96-5-7.591" transform="translate(0 28.052)" fill="#bccf3b"/>
      <path id="Path_4032" data-name="Path 4032" d="M13.066,34.3c21.105-1.48,32.119-10.644,36.47-15.274a46.719,46.719,0,0,1-17.4,15.644.786.786,0,0,0,0,1.39,13.6,13.6,0,0,0,11.845.925c9.812-3.8,19.532-17.217,14.9-36.1A1.221,1.221,0,0,0,56.57.789c-4.072,10.734-9.443,7.96-19.9,9.9a13.891,13.891,0,0,0-11.29,15.92A61.184,61.184,0,0,1,12.6,28.741a2.857,2.857,0,0,0-2.315,1.573,3.13,3.13,0,0,0-.276,1.39A2.871,2.871,0,0,0,13.066,34.3" transform="translate(18.219 0.001)" fill="#818386"/>
    </g>
  </g>
</svg>
