<svg xmlns="http://www.w3.org/2000/svg" xmlns:xlink="http://www.w3.org/1999/xlink" width="86.108" height="87.621" viewBox="0 0 86.108 87.621">
  <defs>
    <clipPath id="clip-path">
      <rect id="Rectangle_10288" data-name="Rectangle 10288" width="86.108" height="87.621" fill="none"/>
    </clipPath>
  </defs>
  <g id="Group_25209" data-name="Group 25209" transform="translate(0 0)">
    <g id="Group_25094" data-name="Group 25094" transform="translate(0 0)" clip-path="url(#clip-path)">
      <path id="Path_3973" data-name="Path 3973" d="M21.149,10.825A15.107,15.107,0,1,1,6.042,25.932,15.123,15.123,0,0,1,21.149,10.825M3.822,31.273a18.025,18.025,0,0,0,1.3,3.121l.37.7L3.765,38.458l4.855,4.855,3.367-1.728.7.37a18.275,18.275,0,0,0,3.121,1.3l.752.231,1.159,3.594h6.863l1.159-3.591.752-.231a18.276,18.276,0,0,0,3.121-1.3l.695-.37,3.37,1.725,4.851-4.851L36.8,35.094l.366-.7a18.04,18.04,0,0,0,1.3-3.121l.231-.752L42.3,29.362v-1.92a10.528,10.528,0,0,1,1.068-4.6l-4.659-1.5-.231-.749a17.953,17.953,0,0,0-1.3-3.124l-.37-.7L38.533,13.4,33.678,8.551l-3.367,1.725-.7-.366a18.04,18.04,0,0,0-3.121-1.3l-.749-.231L24.579,4.783H17.716L16.557,8.374,15.8,8.6a18.144,18.144,0,0,0-3.121,1.3l-.695.366L8.623,8.551,3.768,13.4l1.725,3.367-.366.7a17.866,17.866,0,0,0-1.3,3.124l-.231.745L0,22.5v6.863l3.591,1.162Z" transform="translate(0 10.325)" fill="#bccf3b"/>
      <path id="Path_3974" data-name="Path 3974" d="M2.1,25.174H37.77V19.132H4.113Z" transform="translate(4.529 41.296)" fill="#bccf3b"/>
      <path id="Path_3975" data-name="Path 3975" d="M44.563,30.715V45.822h9.065V42.8H52.114a4.534,4.534,0,0,1-4.529-4.532V35.247a4.536,4.536,0,0,1,4.529-4.532h.306a7.56,7.56,0,0,0-2.969-2.666l-1.794-.894L46.77,16.489a7.6,7.6,0,0,0-7.527-6.923H21.9a7.563,7.563,0,0,0-7.555,7.552v28.7h3.023v-28.7A4.537,4.537,0,0,1,21.9,12.585H40.03a4.539,4.539,0,0,1,4.532,4.532v13.6Z" transform="translate(30.971 20.649)" fill="#bccf3b"/>
      <path id="Path_3976" data-name="Path 3976" d="M5.889,15.208a4.539,4.539,0,0,1,4.532-4.532h9.065a4.539,4.539,0,0,1,4.532,4.532v9.065A4.536,4.536,0,0,1,19.487,28.8H10.422a4.536,4.536,0,0,1-4.532-4.529Zm9.065,16.617A12.086,12.086,0,1,0,2.87,19.74,12.1,12.1,0,0,0,14.954,31.824" transform="translate(6.195 16.519)" fill="#818386"/>
      <path id="Path_3977" data-name="Path 3977" d="M6.293,21.65h9.065a1.51,1.51,0,0,0,1.51-1.51V11.076a1.51,1.51,0,0,0-1.51-1.51H12.335v3.019H9.315V9.566H6.293a1.51,1.51,0,0,0-1.51,1.51V20.14a1.51,1.51,0,0,0,1.51,1.51" transform="translate(10.324 20.649)" fill="#818386"/>
      <path id="Path_3978" data-name="Path 3978" d="M37.411,12.989a1.512,1.512,0,0,0-1.51-1.51H17.772a1.512,1.512,0,0,0-1.51,1.51V23.566H28.624a4.49,4.49,0,0,1,4.254-6.045H35.9a4.447,4.447,0,0,1,1.51.281Z" transform="translate(35.1 24.778)" fill="#bccf3b"/>
      <path id="Path_3979" data-name="Path 3979" d="M1.51,22A1.51,1.51,0,0,0,0,23.512v3.023a1.51,1.51,0,0,0,1.51,1.51H6.44A12.068,12.068,0,0,1,10.161,22Z" transform="translate(0 47.491)" fill="#818386"/>
      <path id="Path_3980" data-name="Path 3980" d="M16.262,22.3v9.065H37.411V16.262H16.262v3.019H22.3V22.3Z" transform="translate(35.1 35.102)" fill="#bccf3b"/>
      <path id="Path_3981" data-name="Path 3981" d="M29.153,35.6a4.532,4.532,0,1,1,4.532-4.532A4.539,4.539,0,0,1,29.153,35.6m0-13.6a9.065,9.065,0,1,0,9.065,9.065A9.073,9.073,0,0,0,29.153,22" transform="translate(43.359 47.491)" fill="#818386"/>
      <path id="Path_3982" data-name="Path 3982" d="M27.087,15.859a1.51,1.51,0,0,0-1.51-1.51H22.555a1.51,1.51,0,1,0,0,3.019h4.532Z" transform="translate(45.424 30.972)" fill="#bccf3b"/>
      <path id="Path_3983" data-name="Path 3983" d="M8.262,22a12.089,12.089,0,0,1,3.721,6.042H42.992A12.089,12.089,0,0,1,46.713,22Z" transform="translate(17.833 47.491)" fill="#818386"/>
      <path id="Path_3984" data-name="Path 3984" d="M23.99,24.393A1.511,1.511,0,1,0,25.5,25.9a1.51,1.51,0,0,0-1.51-1.51" transform="translate(48.522 52.652)" fill="#bccf3b"/>
      <path id="Path_3985" data-name="Path 3985" d="M6.771,24.393A1.511,1.511,0,1,0,8.28,25.9a1.51,1.51,0,0,0-1.51-1.51" transform="translate(11.356 52.652)" fill="#bccf3b"/>
      <path id="Path_3986" data-name="Path 3986" d="M11.934,35.6a4.532,4.532,0,1,1,4.532-4.532A4.539,4.539,0,0,1,11.934,35.6m0-13.6A9.065,9.065,0,1,0,21,31.067,9.073,9.073,0,0,0,11.934,22" transform="translate(6.193 47.491)" fill="#818386"/>
      <path id="Path_3987" data-name="Path 3987" d="M10.045,24.871l2.265,3.023H34.968l2.268-3.023Z" transform="translate(21.68 53.684)" fill="#818386"/>
      <path id="Path_3988" data-name="Path 3988" d="M49.322,15.107,64.429,7.555,49.322,0V3.023H10.044v9.062H49.322Z" transform="translate(21.679 0.001)" fill="#bccf3b"/>
    </g>
  </g>
</svg>
