<svg id="Group_25222" data-name="Group 25222" xmlns="http://www.w3.org/2000/svg" xmlns:xlink="http://www.w3.org/1999/xlink" width="81.551" height="88.634" viewBox="0 0 81.551 88.634">
  <defs>
    <clipPath id="clip-path">
      <rect id="Rectangle_10296" data-name="Rectangle 10296" width="81.551" height="88.634" fill="none"/>
    </clipPath>
  </defs>
  <g id="Group_25113" data-name="Group 25113" transform="translate(0 0)" clip-path="url(#clip-path)">
    <path id="Path_4024" data-name="Path 4024" d="M25.316,23.653a3.023,3.023,0,0,1,4.27-.163l1.253,1.23,5.238-5.238a3.016,3.016,0,0,1,4.267,0l.016.016a3.018,3.018,0,0,1-.016,4.274l-5.235,5.238-2.134,2.137a3.034,3.034,0,0,1-4.277,0l-2.13-2.137L25.316,27.76a3.022,3.022,0,0,1,0-4.107M8.8,29.733a5.43,5.43,0,0,1,2,6.154,5.43,5.43,0,0,0,5.2,7.157,5.425,5.425,0,0,1,5.238,3.8,5.317,5.317,0,0,0,.814,1.586,5.424,5.424,0,0,0,7.589,1.128,5.435,5.435,0,0,1,6.474,0,5.345,5.345,0,0,0,1.586.811,5.427,5.427,0,0,0,6.817-3.524,5.426,5.426,0,0,1,5.2-3.8,5.436,5.436,0,0,0,5.2-7.157,5.4,5.4,0,0,1,2.034-6.154,5.428,5.428,0,0,0,0-8.839,5.425,5.425,0,0,1-2-6.154,5.438,5.438,0,0,0-5.193-7.157,5.43,5.43,0,0,1-5.241-3.8,5.425,5.425,0,0,0-8.4-2.713,5.445,5.445,0,0,1-6.474,0,5.419,5.419,0,0,0-8.4,2.713,5.429,5.429,0,0,1-5.238,3.8,5.431,5.431,0,0,0-5.2,7.157,5.43,5.43,0,0,1-2,6.154,5.416,5.416,0,0,0,0,8.839" transform="translate(14.367 -0.001)" fill="#bccf3b"/>
    <path id="Path_4025" data-name="Path 4025" d="M79.523,16.251a5.756,5.756,0,0,0-7.9.769l-9.5,10.694v.128a9.769,9.769,0,0,1-9.8,9.246H42.047a2.094,2.094,0,1,1,0-4.187H52.324a5.542,5.542,0,0,0,5.648-5.231V27.54a5.428,5.428,0,0,0-5.43-5.427H35.416l-2.778-.977A19.32,19.32,0,0,0,12.657,25.66L0,38.327l17.681,17.19,4.95-4.956H44.87l6.269-.083a13.315,13.315,0,0,0,10.034-4.523l19-21.714.09-.1a5.6,5.6,0,0,0-.74-7.887" transform="translate(0 33.117)" fill="#818386"/>
  </g>
</svg>
