<svg xmlns="http://www.w3.org/2000/svg" xmlns:xlink="http://www.w3.org/1999/xlink" width="86.432" height="87.621" viewBox="0 0 86.432 87.621">
  <defs>
    <clipPath id="clip-path">
      <rect id="Rectangle_10295" data-name="Rectangle 10295" width="86.432" height="87.621" fill="none"/>
    </clipPath>
  </defs>
  <g id="Group_25221" data-name="Group 25221" transform="translate(0 0)">
    <g id="Group_25111" data-name="Group 25111" transform="translate(0 0)" clip-path="url(#clip-path)">
      <path id="Path_4019" data-name="Path 4019" d="M25.538,13.675A7.427,7.427,0,1,0,18.11,21.1a7.495,7.495,0,0,0,7.427-7.427" transform="translate(25.107 14.683)" fill="#818386"/>
      <path id="Path_4020" data-name="Path 4020" d="M7.942,23.726v4.861a1.351,1.351,0,0,0,1.35,1.35h30.52a1.354,1.354,0,0,0,1.353-1.35V23.726a12.685,12.685,0,0,0-12.831-12.56,1.423,1.423,0,0,0-1.216.677l-2.7,5.4-2.7-5.4a1.271,1.271,0,0,0-1.216-.677,12.623,12.623,0,0,0-12.56,12.56" transform="translate(18.665 26.241)" fill="#818386"/>
      <path id="Path_4021" data-name="Path 4021" d="M85.353,35.653l-7.561-1.484a30.76,30.76,0,0,0-3.511-8.781l4.456-6.211a1.415,1.415,0,0,0-.137-1.756L69.416,8.1a1.429,1.429,0,0,0-1.756-.137l-6.345,4.322a32.643,32.643,0,0,0-8.644-3.645l-1.35-7.565A1.457,1.457,0,0,0,49.972,0h-13.1a1.318,1.318,0,0,0-1.35,1.079l-1.35,7.565a35.062,35.062,0,0,0-8.778,3.511L19.18,7.7a1.23,1.23,0,0,0-1.621,0l-9.32,9.183A1.429,1.429,0,0,0,8.1,18.637l4.188,6.345a34.63,34.63,0,0,0-3.648,8.644l-7.561,1.35A1.461,1.461,0,0,0,0,36.33v7.022a1.476,1.476,0,0,0,.405.945,1.229,1.229,0,0,0,.948.405H16.882a1.217,1.217,0,0,0,.945-.405,1.355,1.355,0,0,0,.405-1.216,24.917,24.917,0,1,1,49.834,0,1.5,1.5,0,0,0,1.35,1.622H85.082a1.351,1.351,0,0,0,1.35-1.35V36.869a1.181,1.181,0,0,0-1.079-1.216" transform="translate(0 -0.001)" fill="#bccf3b"/>
      <path id="Path_4022" data-name="Path 4022" d="M16.549,16.447H3.044a1.275,1.275,0,0,0-1.35,1.35V44.944a1.277,1.277,0,0,0,1.35,1.35h13.5a1.277,1.277,0,0,0,1.35-1.35V17.8a1.354,1.354,0,0,0-1.35-1.35" transform="translate(3.981 38.653)" fill="#818386"/>
      <path id="Path_4023" data-name="Path 4023" d="M56.9,19.781,38.668,31.53a2.589,2.589,0,0,1-1.621.539H23.408a2.021,2.021,0,0,1,0-.945,2.728,2.728,0,0,1,.673-.134H36.913a4.681,4.681,0,0,0,4.456-4.861,4.682,4.682,0,0,0-4.456-4.865H23.542A1,1,0,0,1,22.731,21c-4.05-5.133-12.289-3.782-15.394-3.106V41.929a16.85,16.85,0,0,1,7.293.677l11.206,4.05a10.918,10.918,0,0,0,8.51-.811l10.533-6.617L61.088,28.7c2.295-1.216,3.106-4.054,2.024-6.754A4.374,4.374,0,0,0,56.9,19.781" transform="translate(17.243 40.452)" fill="#818386"/>
    </g>
  </g>
</svg>
