<svg id="Group_25228" data-name="Group 25228" xmlns="http://www.w3.org/2000/svg" xmlns:xlink="http://www.w3.org/1999/xlink" width="88.223" height="88.223" viewBox="0 0 88.223 88.223">
  <defs>
    <clipPath id="clip-path">
      <rect id="Rectangle_10309" data-name="Rectangle 10309" width="88.223" height="88.223" fill="none"/>
    </clipPath>
  </defs>
  <g id="Group_25134" data-name="Group 25134" transform="translate(0 0)" clip-path="url(#clip-path)">
    <path id="Path_4033" data-name="Path 4033" d="M33.169,13.349,22.278,24.4l-6.234-6.234a3.164,3.164,0,1,0-4.475,4.475l8.477,8.477a3.165,3.165,0,0,0,4.475,0C30.593,25.046,31.6,23.9,37.646,17.8a3.157,3.157,0,0,0-4.478-4.452" transform="translate(19.652 22.933)" fill="#818386"/>
    <path id="Path_4034" data-name="Path 4034" d="M44.11,65.619A21.507,21.507,0,1,1,65.619,44.113,21.508,21.508,0,0,1,44.11,65.619M88.223,50.074V38.149L75.38,36.094a32.087,32.087,0,0,0-3.49-8.42l7.629-10.538L71.087,8.7,60.549,16.334a32.094,32.094,0,0,0-8.42-3.493L50.074,0H38.147L36.091,12.841a32.115,32.115,0,0,0-8.417,3.493L17.136,8.7,8.7,17.136l7.632,10.538a31.991,31.991,0,0,0-3.49,8.42L0,38.149V50.074l12.844,2.055a32.013,32.013,0,0,0,3.49,8.417L8.7,71.087l8.434,8.431,10.538-7.632a32.02,32.02,0,0,0,8.417,3.493l2.055,12.844H50.074L52.129,75.38a32.128,32.128,0,0,0,8.42-3.49l10.538,7.629,8.431-8.431L71.89,60.549a32.031,32.031,0,0,0,3.49-8.42Z" transform="translate(0 0)" fill="#bccf3b"/>
  </g>
</svg>
