<svg xmlns="http://www.w3.org/2000/svg" xmlns:xlink="http://www.w3.org/1999/xlink" width="276" height="54.284" viewBox="0 0 276 54.284">
  <defs>
    <clipPath id="clip-path">
      <rect id="Rectangle_2" data-name="Rectangle 2" width="276" height="54.284" fill="none"/>
    </clipPath>
  </defs>
  <g id="Group_25048" data-name="Group 25048" transform="translate(0 10)">
    <g id="Group_1" data-name="Group 1" transform="translate(0 -10)" clip-path="url(#clip-path)">
      <path id="Path_1" data-name="Path 1" d="M94.1,14.9H81.054c-.343,0-.573-.22-.573-.658h-.343v3.07h.343c0-.437.23-.658.573-.658H86.43v12.4c0,.219,0,.329-.116.44h-.568v.329h3.662v-.329h-.574c-.116-.111-.116-.221-.116-.44v-12.4H94.1c.343,0,.569.221.569.658h.346v-3.07h-.346c0,.439-.226.658-.569.658" transform="translate(16.688 2.964)" fill="#009ce3" fill-rule="evenodd"/>
      <path id="Path_2" data-name="Path 2" d="M70.965,23.778H77.49l-3.318-7.351Zm11.217,5.04c.114.224.114.333.231.443a5.191,5.191,0,0,0,.57.111V29.7H79.439v-.327c.34,0,.457,0,.457-.221a9.777,9.777,0,0,0-.689-1.757,6.164,6.164,0,0,0-.455-.877c-.117-.327-.343-.655-.457-.985h-8.13c-1.029,2.3-1.485,3.509-1.485,3.509a.3.3,0,0,0,.341.331V29.7h-3.2v-.327a.772.772,0,0,0,.8-.441,34.668,34.668,0,0,0,1.489-3.292q1.029-1.972,2.059-4.277c.687-1.642,1.258-2.959,1.83-4.166.462-1.1.8-1.756.8-1.866s-.228-.217-.459-.327v-.221h4.008V15c-.346.11-.459.22-.459.327a6.656,6.656,0,0,0,.346,1.1c.343.658.685,1.537,1.257,2.633s1.144,2.414,1.949,3.952c.685,1.532,1.6,3.505,2.744,5.806" transform="translate(13.705 3.077)" fill="#009ce3" fill-rule="evenodd"/>
      <path id="Path_3" data-name="Path 3" d="M61.4,15c.459,0,.575.11.575.327a7.842,7.842,0,0,1-.686,1.537c-.348.658-.8,1.536-1.26,2.413s-.916,1.752-1.374,2.634-.8,1.532-1.029,2.082a7.291,7.291,0,0,1-.686,1.319c-.346-.77-.8-1.538-1.263-2.525-.456-.876-.915-1.758-1.258-2.41s-.687-1.319-1.028-1.977c-.231-.549-.574-1.1-.687-1.426a7.92,7.92,0,0,1-.8-1.537c0-.327.23-.437.575-.437v-.22H48.006V15c.228,0,.458,0,.458.11.231,0,.231.111.231.327V28.932c0,.216,0,.327-.115.44h-.574V29.7h3.32v-.326c-.348,0-.572-.112-.572-.44v-11.3h.114L56.82,29.478,63,17.633v11.3c0,.216,0,.327-.111.44h-.46V29.7h3.321v-.326h-.462a.586.586,0,0,1-.226-.44V15.439c0-.216.116-.327.226-.327.117-.11.23-.11.462-.11v-.22H61.4Z" transform="translate(9.997 3.078)" fill="#009ce3"/>
      <path id="Path_4" data-name="Path 4" d="M116.9,28.93l-5.722-7.239,4.924-6.033A1.782,1.782,0,0,1,117.359,15v-.22h-4V15c.342,0,.569.11.569.326s-1.257,1.867-3.891,4.828a59.806,59.806,0,0,1-3.778-4.828c0-.216.23-.326.689-.326v-.22h-4.236V15a1.2,1.2,0,0,1,.913.437l5.04,6.364-5.841,7.014a1.193,1.193,0,0,1-.911.555V29.7h3.775v-.327c-.344,0-.569-.111-.569-.333,0-.108.225-.327.684-.877a15.352,15.352,0,0,0,1.029-1.422c.346-.44,1.374-1.538,2.976-3.4a22.951,22.951,0,0,1,1.6,1.973c.458.55.8.987,1.142,1.319a3.809,3.809,0,0,0,.689.981c.23.221.342.441.458.549a4.852,4.852,0,0,1,.57.988c0,.111-.227.222-.57.222V29.7h4.118v-.327a1.062,1.062,0,0,1-.915-.441" transform="translate(21.221 3.078)" fill="#009ce3"/>
      <path id="Path_5" data-name="Path 5" d="M95.846,15a.41.41,0,0,1,.455.437V28.932c0,.327-.116.44-.455.44V29.7h3.2v-.326c-.346,0-.458-.112-.458-.44V15.439A.409.409,0,0,1,99.049,15v-.22h-3.2Z" transform="translate(19.959 3.078)" fill="#009ce3"/>
      <path id="Path_6" data-name="Path 6" d="M48.6,42.763V32.652h6.59v1.073H49.762v3.307h5.267v1.033H49.762v4.7Zm8.6,0V32.652h7.4v1.073H58.364v3.307h6.059v1.033H58.364V41.7H64.6v1.061Zm13.8-9.038H67.64v4.048h3.365a3.152,3.152,0,0,0,1.727-.314,1.328,1.328,0,0,0,.406-1.118V35.158a1.363,1.363,0,0,0-.393-1.126,3.194,3.194,0,0,0-1.74-.307m-4.527,9.038V32.652h4.76a4.255,4.255,0,0,1,2.448.507,2.124,2.124,0,0,1,.669,1.8v1.526a2.062,2.062,0,0,1-.333,1.247A1.527,1.527,0,0,1,73,38.3a1.627,1.627,0,0,1,1.058.62,2.55,2.55,0,0,1,.3,1.408v2.433H73.138V40.678a2.192,2.192,0,0,0-.359-1.47,1.925,1.925,0,0,0-1.4-.384H67.64v3.939Zm8.453-9.038V32.652h7.9v1.073H79.458v9.038h-1.17V33.725Zm9.012-1.073h1.176V42.761H83.943Zm3.726,10.111V32.652h1.151V41.7h5.972v1.061Zm8.663-10.111h1.174V42.761H96.332Zm3.434,6.814h1.179v.191a4.623,4.623,0,0,0,.143,1.336,1.014,1.014,0,0,0,.468.6,2.291,2.291,0,0,0,.784.192c.355.042,1.085.059,2.194.059a6.909,6.909,0,0,0,1.4-.11,1.528,1.528,0,0,0,.737-.362.978.978,0,0,0,.2-.465,5.083,5.083,0,0,0,.062-.881,2.664,2.664,0,0,0-.233-1.418,1.336,1.336,0,0,0-.944-.343l-3.251-.244a3.1,3.1,0,0,1-2.021-.7,2.868,2.868,0,0,1-.556-1.99,4.563,4.563,0,0,1,.181-1.422,2.059,2.059,0,0,1,.6-.889,1.954,1.954,0,0,1,.894-.382,12.142,12.142,0,0,1,2.027-.111H104a11.5,11.5,0,0,1,2.282.15,2.618,2.618,0,0,1,1.109.514,1.432,1.432,0,0,1,.451.7,3.713,3.713,0,0,1,.147,1.122c0,.133-.006.233-.01.3a1.781,1.781,0,0,1-.007.187h-1.179v-.251a3.959,3.959,0,0,0-.064-.852.828.828,0,0,0-.215-.437,1.475,1.475,0,0,0-.782-.3,17.068,17.068,0,0,0-2.139-.085,3.688,3.688,0,0,0-2.047.35,1.82,1.82,0,0,0-.417,1.415,1.974,1.974,0,0,0,.271,1.2,1.453,1.453,0,0,0,1.056.388l3.313.271a2.692,2.692,0,0,1,1.829.684,2.891,2.891,0,0,1,.521,1.942,6.21,6.21,0,0,1-.13,1.491,1.922,1.922,0,0,1-.449.829,2.039,2.039,0,0,1-1.029.582,11.2,11.2,0,0,1-2.362.166h-.524a10.236,10.236,0,0,1-2.066-.145,2.267,2.267,0,0,1-1.01-.494,1.861,1.861,0,0,1-.586-.88,4.523,4.523,0,0,1-.191-1.415Zm10.639,3.3V32.652h7.4v1.073h-6.237v3.307h6.059v1.033h-6.059V41.7H117.8v1.061Zm13.8-9.038H120.84v4.048H124.2a3.162,3.162,0,0,0,1.729-.314,1.339,1.339,0,0,0,.406-1.118V35.158a1.356,1.356,0,0,0-.4-1.126,3.194,3.194,0,0,0-1.74-.307m-4.527,9.038V32.652h4.764a4.249,4.249,0,0,1,2.444.507,2.128,2.128,0,0,1,.671,1.8v1.526a2.046,2.046,0,0,1-.335,1.247,1.518,1.518,0,0,1-1.027.568,1.621,1.621,0,0,1,1.057.62,2.537,2.537,0,0,1,.3,1.408v2.433h-1.217V40.678a2.213,2.213,0,0,0-.359-1.47,1.927,1.927,0,0,0-1.4-.384h-3.74v3.939Zm9.854-3.3h1.178v.191a4.58,4.58,0,0,0,.143,1.336,1,1,0,0,0,.465.6,2.308,2.308,0,0,0,.787.192c.356.042,1.086.059,2.191.059a6.916,6.916,0,0,0,1.4-.11,1.53,1.53,0,0,0,.735-.362.978.978,0,0,0,.2-.465,5.248,5.248,0,0,0,.059-.881,2.616,2.616,0,0,0-.237-1.418,1.323,1.323,0,0,0-.94-.343l-3.254-.244a3.1,3.1,0,0,1-2.018-.7,2.862,2.862,0,0,1-.558-1.99,4.378,4.378,0,0,1,.185-1.422,1.983,1.983,0,0,1,.593-.889,1.932,1.932,0,0,1,.892-.382,12.171,12.171,0,0,1,2.027-.111h.378a11.453,11.453,0,0,1,2.28.15,2.6,2.6,0,0,1,1.11.514,1.407,1.407,0,0,1,.451.7,3.681,3.681,0,0,1,.145,1.122c0,.133,0,.233,0,.3s-.006.13-.008.187h-1.176v-.251a3.741,3.741,0,0,0-.07-.852.818.818,0,0,0-.214-.437,1.455,1.455,0,0,0-.784-.3,17,17,0,0,0-2.134-.085,3.682,3.682,0,0,0-2.048.35,1.824,1.824,0,0,0-.419,1.415,1.938,1.938,0,0,0,.273,1.2,1.453,1.453,0,0,0,1.051.388l3.317.271a2.677,2.677,0,0,1,1.827.684,2.863,2.863,0,0,1,.528,1.942,6.075,6.075,0,0,1-.138,1.491,1.95,1.95,0,0,1-.442.829,2.061,2.061,0,0,1-1.038.582,11.093,11.093,0,0,1-2.36.166h-.524a10.278,10.278,0,0,1-2.066-.145,2.288,2.288,0,0,1-1.009-.494,1.886,1.886,0,0,1-.585-.88,4.456,4.456,0,0,1-.19-1.415Zm52.137-3.472a3.721,3.721,0,0,1,.773-2.7,3.858,3.858,0,0,1,2.739-.762h1.235a4.35,4.35,0,0,1,2.733.655,2.743,2.743,0,0,1,.789,2.221v.442h-1.209v-.275A2.013,2.013,0,0,0,188.241,34a3.087,3.087,0,0,0-1.911-.42h-.819a6.176,6.176,0,0,0-1.389.11,1.712,1.712,0,0,0-.727.377,1.394,1.394,0,0,0-.407.679,6.705,6.705,0,0,0-.117,1.524V39.15a6.731,6.731,0,0,0,.117,1.518,1.375,1.375,0,0,0,.407.673,1.7,1.7,0,0,0,.707.381,6.167,6.167,0,0,0,1.41.111h.819a3.017,3.017,0,0,0,1.942-.44,2.3,2.3,0,0,0,.478-1.694c0-.123,0-.222,0-.289s-.006-.133-.008-.193h1.2v.666a2.982,2.982,0,0,1-.765,2.343,4.311,4.311,0,0,1-2.757.658H185.18a3.894,3.894,0,0,1-2.739-.758,3.736,3.736,0,0,1-.773-2.7Zm10.242,6.769V32.652h1.159v4.364h6.082V32.652h1.162V42.763h-1.162V38.078h-6.082v4.684Zm10.95,0V32.652h7.4v1.073h-6.238v3.307h6.062v1.033h-6.062V41.7h6.238v1.061Zm9.278,0V32.652h1.92l3.611,9.007,3.58-9.007h1.932V42.763h-1.162V33.6l-3.64,9.167h-1.44L213.3,33.6v9.167Zm13.6-10.111h1.172V42.761h-1.172Zm3.4,3.342a3.715,3.715,0,0,1,.778-2.7,3.852,3.852,0,0,1,2.739-.762h1.229a4.346,4.346,0,0,1,2.735.655,2.731,2.731,0,0,1,.787,2.221v.442h-1.2v-.275A2.031,2.031,0,0,0,235.7,34a3.1,3.1,0,0,0-1.914-.42h-.816a6.134,6.134,0,0,0-1.389.11,1.728,1.728,0,0,0-.73.377,1.423,1.423,0,0,0-.408.679,6.623,6.623,0,0,0-.114,1.524V39.15a6.646,6.646,0,0,0,.114,1.518,1.4,1.4,0,0,0,.408.673,1.7,1.7,0,0,0,.706.381,6.2,6.2,0,0,0,1.414.111h.816a3.016,3.016,0,0,0,1.944-.44,2.294,2.294,0,0,0,.48-1.694c0-.123,0-.222-.006-.289s0-.133-.007-.193H237.4v.666a2.982,2.982,0,0,1-.76,2.343,4.32,4.32,0,0,1-2.762.658h-1.229a3.888,3.888,0,0,1-2.739-.758,3.73,3.73,0,0,1-.778-2.7Zm11.455,3.181h4.572l-2.107-5.45h-.377Zm-2.578,3.587L241.9,32.652h1.922l3.917,10.111h-1.2l-1.009-2.587h-5.332l-.986,2.587Zm11.154,0V32.652h1.145V41.7h5.977v1.061Zm8.369-3.3h1.178v.191a4.563,4.563,0,0,0,.145,1.336,1.017,1.017,0,0,0,.463.6,2.356,2.356,0,0,0,.789.192c.356.042,1.081.059,2.191.059a6.872,6.872,0,0,0,1.4-.11,1.523,1.523,0,0,0,.737-.362.966.966,0,0,0,.2-.465,5.082,5.082,0,0,0,.062-.881,2.637,2.637,0,0,0-.238-1.418,1.329,1.329,0,0,0-.941-.343l-3.254-.244a3.1,3.1,0,0,1-2.018-.7,2.862,2.862,0,0,1-.559-1.99,4.475,4.475,0,0,1,.186-1.422,2.015,2.015,0,0,1,.594-.889,1.938,1.938,0,0,1,.892-.382,12.151,12.151,0,0,1,2.027-.111h.377a11.467,11.467,0,0,1,2.281.15,2.644,2.644,0,0,1,1.11.514,1.423,1.423,0,0,1,.451.7,3.756,3.756,0,0,1,.146,1.122c0,.133-.006.233-.006.3a1.452,1.452,0,0,1-.012.187h-1.171v-.251a3.8,3.8,0,0,0-.071-.852.818.818,0,0,0-.214-.437,1.476,1.476,0,0,0-.784-.3,16.928,16.928,0,0,0-2.131-.085,3.71,3.71,0,0,0-2.054.35,1.838,1.838,0,0,0-.418,1.415,1.955,1.955,0,0,0,.273,1.2,1.455,1.455,0,0,0,1.051.388l3.315.271a2.686,2.686,0,0,1,1.832.684,2.877,2.877,0,0,1,.523,1.942,6.184,6.184,0,0,1-.133,1.491,1.922,1.922,0,0,1-.449.829,2.038,2.038,0,0,1-1.031.582,11.152,11.152,0,0,1-2.362.166h-.523a10.27,10.27,0,0,1-2.066-.145,2.268,2.268,0,0,1-1.014-.494,1.9,1.9,0,0,1-.582-.88,4.564,4.564,0,0,1-.19-1.415Zm-111.294-.474h4.559l-2.1-5.436h-.377Zm-2.571,3.579,3.884-10.083h1.919l3.909,10.083h-1.2l-1-2.58h-5.323l-.982,2.58Zm11.122,0V32.489h1.8l5.7,9v-9h1.157V42.572h-1.8l-5.705-9.011v9.011Zm11.22,0V32.489h5.082a4.033,4.033,0,0,1,2.779.749,3.5,3.5,0,0,1,.8,2.621V39.18a3.544,3.544,0,0,1-.8,2.638,4.029,4.029,0,0,1-2.778.754Zm1.16-1H170.9a3.012,3.012,0,0,0,2.033-.494,2.594,2.594,0,0,0,.517-1.884V35.939a2.741,2.741,0,0,0-.514-1.957,3,3,0,0,0-2.037-.494h-3.733Z" transform="translate(10.121 6.765)" fill="#686964"/>
      <path id="Path_7" data-name="Path 7" d="M39.167,48.387S16.624,39.559,16.539,39.48a.427.427,0,0,1-.152-.307V28.925a.627.627,0,0,1,.638-.607H27.831a.487.487,0,0,1,.365.185c.058.072.915,1.725.915,1.725Z" transform="translate(3.412 5.896)" fill="#686964"/>
      <path id="Path_8" data-name="Path 8" d="M17.024,32.792a.629.629,0,0,1-.639-.607V16.343c0-.33.348-.505.694-.661L48.324,0a.645.645,0,0,1,.686.658L36.42,27.708l-2.06,4.425c-.147.389-.343.658-.686.658Z" transform="translate(3.412 -0.001)" fill="#009ce3"/>
      <path id="Path_9" data-name="Path 9" d="M18.314,37.091a.333.333,0,0,1-.086.245c-.058.056-1.975.808-1.975.808L.342,44.879A.361.361,0,0,1,0,44.548L8.1,29.734s.643-1.271.723-1.327a.573.573,0,0,1,.329-.088h8.522a.626.626,0,0,1,.637.607Z" transform="translate(0 5.896)" fill="#9b9f9a"/>
      <path id="Path_10" data-name="Path 10" d="M17.319,22.561c-.036-.027-1.119-.541-1.119-.541L4.491,16.157a.239.239,0,0,0-.228.219l5.7,12.3s.274.637.317.673a.224.224,0,0,0,.163.079h6.346a.624.624,0,0,0,.634-.608V22.738a.228.228,0,0,0-.108-.178" transform="translate(0.888 3.364)" fill="#c1c0b7" fill-rule="evenodd"/>
    </g>
  </g>
</svg>
