<?xml version="1.0" encoding="utf-8"?>
<!-- Generator: Adobe Illustrator 28.0.0, SVG Export Plug-In . SVG Version: 6.00 Build 0)  -->
<svg version="1.1" id="Layer_1" xmlns="http://www.w3.org/2000/svg" xmlns:xlink="http://www.w3.org/1999/xlink" x="0px" y="0px"
	 viewBox="0 0 36 28.9" style="enable-background:new 0 0 36 28.9;" xml:space="preserve">
<style type="text/css">
	.st0{enable-background:new    ;}
	.st1{fill:#279AD6;}
	.st2{fill:none;stroke:#279AD6;stroke-width:5;stroke-linecap:round;}
</style>
<g id="Group_25292" transform="translate(-1184.49 58.562)">
	<g class="st0">
		<path class="st1" d="M1195.1-36.4l0.1-1.5h-0.1l-0.5,1.3l-2.5,4.4h-0.4l-2.7-4.4l-0.5-1.3h-0.1l0.2,1.5v6.6h-1.1v-9.8h0.9l3.1,5
			l0.5,1.1h0l0.4-1.1l2.9-5h0.9v9.8h-1.2V-36.4z"/>
		<path class="st1" d="M1203.6-30.4c-0.3,0.2-0.6,0.4-1.1,0.5c-0.4,0.1-0.9,0.2-1.4,0.2c-0.5,0-1-0.1-1.4-0.3s-0.7-0.4-1-0.7
			c-0.3-0.3-0.4-0.7-0.6-1.2c-0.1-0.4-0.2-1-0.2-1.5c0-1.2,0.3-2.1,0.8-2.7c0.5-0.6,1.3-0.9,2.3-0.9c0.3,0,0.6,0,1,0.1
			c0.3,0.1,0.6,0.2,0.9,0.4c0.3,0.2,0.5,0.5,0.6,0.8s0.2,0.8,0.2,1.4c0,0.3,0,0.6-0.1,1h-4.5c0,0.4,0,0.8,0.1,1.1s0.2,0.6,0.4,0.8
			c0.2,0.2,0.4,0.4,0.7,0.5c0.3,0.1,0.6,0.2,1,0.2c0.3,0,0.6-0.1,1-0.2c0.3-0.1,0.6-0.2,0.7-0.4L1203.6-30.4z M1201.2-36
			c-0.6,0-1,0.1-1.3,0.4c-0.3,0.3-0.5,0.8-0.6,1.5h3.5c0-0.7-0.1-1.2-0.4-1.5C1202.1-35.9,1201.7-36,1201.2-36z"/>
		<path class="st1" d="M1210.1-29.8v-4c0-0.7-0.1-1.3-0.3-1.6c-0.2-0.4-0.6-0.6-1.2-0.6c-0.5,0-0.9,0.1-1.2,0.4
			c-0.3,0.3-0.5,0.6-0.7,1v4.8h-1.1v-7h0.8l0.2,0.9h0.1c0.2-0.3,0.5-0.5,0.9-0.7c0.4-0.2,0.8-0.3,1.4-0.3c0.4,0,0.7,0,1,0.1
			c0.3,0.1,0.5,0.2,0.7,0.5c0.2,0.2,0.3,0.5,0.4,0.9s0.1,0.9,0.1,1.4v4.2H1210.1z"/>
		<path class="st1" d="M1214.3-36.8v4c0,0.4,0,0.7,0.1,1s0.1,0.5,0.2,0.7c0.1,0.2,0.2,0.3,0.4,0.4c0.2,0.1,0.4,0.1,0.7,0.1
			c0.3,0,0.5,0,0.7-0.1c0.2-0.1,0.4-0.2,0.5-0.3c0.2-0.1,0.3-0.3,0.4-0.5c0.1-0.2,0.2-0.4,0.3-0.6v-4.7h1.1v5c0,0.3,0,0.7,0,1
			c0,0.4,0.1,0.7,0.1,0.9h-0.8l-0.3-1.1h-0.1c-0.2,0.4-0.5,0.7-0.9,0.9c-0.4,0.2-0.8,0.4-1.4,0.4c-0.4,0-0.7,0-1-0.1
			c-0.3-0.1-0.5-0.2-0.7-0.5c-0.2-0.2-0.3-0.5-0.4-0.9c-0.1-0.4-0.1-0.9-0.1-1.4v-4.2H1214.3z"/>
	</g>
	<line id="Line_22" class="st2" x1="1187" y1="-55.9" x2="1218" y2="-55.9"/>
	<line id="Line_23" class="st2" x1="1187" y1="-45.9" x2="1218" y2="-45.9"/>
</g>
</svg>
