<svg xmlns="http://www.w3.org/2000/svg" xmlns:xlink="http://www.w3.org/1999/xlink" width="63.109" height="73.5" viewBox="0 0 63.109 73.5">
  <defs>
    <clipPath id="clip-path">
      <rect id="Rectangle_10278" data-name="Rectangle 10278" width="63.109" height="73.5" fill="none"/>
    </clipPath>
  </defs>
  <g id="Group_25057" data-name="Group 25057" transform="translate(0 0)">
    <g id="Group_25056" data-name="Group 25056" transform="translate(0 0)" clip-path="url(#clip-path)">
      <path id="Path_3949" data-name="Path 3949" d="M17.4,32.773H10.49a9.128,9.128,0,0,1-9.222-9.03v-6.77H8.18A9.128,9.128,0,0,1,17.4,26Z" transform="translate(1.342 17.964)" fill="#bccf3b"/>
      <path id="Path_3950" data-name="Path 3950" d="M13.681,29.881,8.792,25.1a8.9,8.9,0,0,1,0-12.77l4.889-4.788,4.889,4.788a8.9,8.9,0,0,1,0,12.77Z" transform="translate(6.448 7.977)" fill="#bccf3b"/>
      <path id="Path_3951" data-name="Path 3951" d="M10.244,32.773h6.912a9.128,9.128,0,0,0,9.222-9.03v-6.77H19.466A9.128,9.128,0,0,0,10.244,26Z" transform="translate(10.842 17.964)" fill="#bccf3b"/>
      <path id="Path_3952" data-name="Path 3952" d="M46.51,15.226A15.391,15.391,0,0,1,30.96,30.452,15.39,15.39,0,0,1,15.413,15.226,15.39,15.39,0,0,1,30.96,0,15.391,15.391,0,0,1,46.51,15.226" transform="translate(16.313 -0.001)" fill="#818386"/>
      <rect id="Rectangle_10277" data-name="Rectangle 10277" width="5.407" height="24.816" transform="translate(44.571 34.94)" fill="#818386"/>
      <path id="Path_3953" data-name="Path 3953" d="M31.558,35.6A10.841,10.841,0,0,1,23.95,32.52a6.283,6.283,0,0,0-8.715-.016A10.94,10.94,0,0,1,0,32.52l3.267-3.2a6.241,6.241,0,0,0,8.684,0,10.992,10.992,0,0,1,15.265,0,6.236,6.236,0,0,0,8.682,0l3.267,3.2A10.841,10.841,0,0,1,31.558,35.6" transform="translate(0 27.771)" fill="#818386"/>
      <path id="Path_3954" data-name="Path 3954" d="M31.558,40.521A10.841,10.841,0,0,1,23.95,37.44a6.283,6.283,0,0,0-8.715-.016A10.94,10.94,0,0,1,0,37.44l3.267-3.2a6.241,6.241,0,0,0,8.684,0,10.992,10.992,0,0,1,15.265,0,6.236,6.236,0,0,0,8.682,0l3.267,3.2a10.841,10.841,0,0,1-7.608,3.081" transform="translate(0 32.978)" fill="#818386"/>
      <path id="Path_3955" data-name="Path 3955" d="M44.652,37.438a10.99,10.99,0,0,1-15.265,0,6.241,6.241,0,0,0-8.684,0l-3.265-3.2a10.932,10.932,0,0,1,15.216,0,6.283,6.283,0,0,0,8.715.019" transform="translate(18.457 32.978)" fill="#818386"/>
    </g>
  </g>
</svg>
