<svg xmlns="http://www.w3.org/2000/svg" xmlns:xlink="http://www.w3.org/1999/xlink" width="47.385" height="48.008" viewBox="0 0 47.385 48.008">
  <defs>
    <clipPath id="clip-path">
      <path id="Path_5943" data-name="Path 5943" d="M0,7.823H47.385V-40.185H0Z" transform="translate(0 40.185)" fill="none"/>
    </clipPath>
  </defs>
  <g id="Group_25894" data-name="Group 25894" transform="translate(-143.338 -972.815)">
    <g id="Group_25893" data-name="Group 25893" transform="translate(143.338 972.815)">
      <g id="Group_25888" data-name="Group 25888" transform="translate(12.659 26.357)">
        <path id="Path_5939" data-name="Path 5939" d="M.29,0-1.491,19.212H25.35L17.319,0Z" transform="translate(1.491)" fill="#bad75e"/>
      </g>
      <g id="Group_25892" data-name="Group 25892" transform="translate(0 0)" clip-path="url(#clip-path)">
        <g id="Group_25889" data-name="Group 25889" transform="translate(10.823 2.402)">
          <path id="Path_5940" data-name="Path 5940" d="M.949.833A.808.808,0,0,1,.726-.279.805.805,0,0,1,1.837-.5l4.136,2.76s.08.063.112.1c.08.08.152.168.223.256A7.205,7.205,0,0,0-.875-4.279h-3.2a.8.8,0,0,0-.8.8,7.211,7.211,0,0,0,7.2,7.2h2.84c-.048-.063-.1-.119-.152-.184L.949.825Z" transform="translate(4.875 4.279)" fill="#bad75e"/>
        </g>
        <g id="Group_25890" data-name="Group 25890" transform="translate(24.292 0)">
          <path id="Path_5941" data-name="Path 5941" d="M.188,1.234,4.436-2.422a.8.8,0,0,1,1.128.088.8.8,0,0,1-.088,1.128L1.149,2.513c-.136.192-.257.4-.385.6L4.708,2.29A6.978,6.978,0,0,0,9.2-.775a6.384,6.384,0,0,0,.857-4.944.79.79,0,0,0-.944-.6l-4.56.952A6.98,6.98,0,0,0,.06-2.3,6.414,6.414,0,0,0-.8,2.634c.121-.216.24-.432.376-.649l.608-.76Z" transform="translate(0.966 6.337)" fill="#bad75e"/>
        </g>
        <g id="Group_25891" data-name="Group 25891" transform="translate(0 8.986)">
          <path id="Path_5942" data-name="Path 5942" d="M7.506,5.815c-.272-.312-.544-.632-.751-.912L6.01,3.872a1.08,1.08,0,0,1-.176-.9,2.586,2.586,0,0,0,.1-.719c0-2.233-2.712-3.865-4.32-4.632a.956.956,0,0,1-.336-.288l-2.32-3.192A3.489,3.489,0,0,1-1.693-7.5a4.853,4.853,0,0,0-2.5-3.768L-7.7-14a2.425,2.425,0,0,0-.88-.432,1.574,1.574,0,0,1-1-.888,1.509,1.509,0,0,1,.049-1.336.846.846,0,0,0,.087-.368c0-.329,0-.36-2.855-4.368a3.215,3.215,0,0,0-1.833-1.24v-1.024a11.264,11.264,0,0,1,1.6-5.744l-.625.128a1.133,1.133,0,0,1-.167.017.789.789,0,0,1-.777-.616,12.708,12.708,0,0,0-1.216,3l-.167-.671a4.808,4.808,0,0,0-1.064-2.017c0,.1.017.208.017.312a.8.8,0,0,1-.8.8h-.36a3.19,3.19,0,0,1,.656,1.288l1.143,4.576A3.181,3.181,0,0,0-17.557-21.4L-22.8-14.5a.83.83,0,0,1-.432.32,3.668,3.668,0,0,0-2.44,1.824c-.281.464-.465.768-1.632,1.024a4.018,4.018,0,0,0-2.976,2.312,4.05,4.05,0,0,0,.52,3.775l.2.3c.456.673.608.944.521,1.3v.016a5.284,5.284,0,0,0-4.056,1.824A10.228,10.228,0,0,0-35.524,1.5a3.2,3.2,0,0,0-.136,2.176,1.754,1.754,0,0,1-.5,1.664l-2.064,2.1a.975.975,0,0,0-.28,1.032.967.967,0,0,0,.927.68H7.467a1.236,1.236,0,0,0,1.263-.664c.369-.808-.336-1.624-1.223-2.663ZM-6.134-6.056a.8.8,0,0,1,.8.8.8.8,0,0,1-.8.8.8.8,0,0,1-.8-.8.8.8,0,0,1,.8-.8m-14.4-4a.8.8,0,0,1,.8.8.8.8,0,0,1-.8.8.8.8,0,0,1-.8-.8.8.8,0,0,1,.8-.8m-3.2,14.4a.8.8,0,0,1-.8-.8.8.8,0,0,1,.8-.8.8.8,0,0,1,.8.8.8.8,0,0,1-.8.8m8.655-6.736a.785.785,0,0,1-1.039.232,6.961,6.961,0,0,0-6.616-.4.784.784,0,0,1-1-.344.813.813,0,0,1,.376-1.135,8.469,8.469,0,0,1,8.023.479.817.817,0,0,1,.264,1.168Zm-1.952-7a.784.784,0,0,1-1-.344.815.815,0,0,1,.376-1.136,8.474,8.474,0,0,1,8.015.48.816.816,0,0,1,.264,1.168.794.794,0,0,1-1.039.232,6.959,6.959,0,0,0-6.616-.4m3.7,7.335a.8.8,0,0,1,.8-.8.8.8,0,0,1,.8.8.8.8,0,0,1-.8.8.8.8,0,0,1-.8-.8m9.456,6.432h0a.787.787,0,0,1-1.041.232A6.967,6.967,0,0,0-11.525,4.2a.789.789,0,0,1-1.007-.336.806.806,0,0,1,.383-1.136,8.478,8.478,0,0,1,8.015.48A.816.816,0,0,1-3.87,4.376Zm1.743,1.567a.8.8,0,0,1-.8-.8.8.8,0,0,1,.8-.8.8.8,0,0,1,.8.8.8.8,0,0,1-.8.8" transform="translate(38.555 29.871)" fill="#9a9b9f"/>
        </g>
      </g>
    </g>
  </g>
</svg>
