<svg xmlns="http://www.w3.org/2000/svg" width="78.507" height="50.537" viewBox="0 0 78.507 50.537">
  <g id="Group_25063" data-name="Group 25063" transform="translate(0 0)">
    <path id="Path_3957" data-name="Path 3957" d="M29.133,0,26.827,5.65,20.741,6.1,25.4,10.042l-1.456,5.926,5.191-3.214,5.188,3.214L32.87,10.042,37.529,6.1,31.441,5.65Z" transform="translate(10.121)" fill="#bccf3b"/>
    <path id="Path_3958" data-name="Path 3958" d="M32.907,23.855,28.392,40.267,41.936,23.855Z" transform="translate(13.784 10.27)" fill="#818386"/>
    <path id="Path_3959" data-name="Path 3959" d="M15.34,23.856,28.81,40.179,24.321,23.856Z" transform="translate(7.447 10.271)" fill="#818386"/>
    <path id="Path_3960" data-name="Path 3960" d="M23.471,23.855l4.438,16.133,4.438-16.133Z" transform="translate(11.321 10.27)" fill="#818386"/>
    <path id="Path_3961" data-name="Path 3961" d="M15.089,24.4l4.275-7.771L23.638,24.4Z" transform="translate(7.275 7.189)" fill="#818386"/>
    <path id="Path_3962" data-name="Path 3962" d="M19.623,15.676,23.872,23.4l4.249-7.725Z" transform="translate(9.46 6.778)" fill="#818386"/>
    <path id="Path_3963" data-name="Path 3963" d="M27.613,15.676h8.5L31.862,23.4Z" transform="translate(13.312 6.778)" fill="#818386"/>
    <path id="Path_3964" data-name="Path 3964" d="M36.388,16.625,32.113,24.4h8.55Z" transform="translate(15.483 7.189)" fill="#818386"/>
    <path id="Path_3965" data-name="Path 3965" d="M31.168,23.978H24.123l3.522-6.4Z" transform="translate(11.608 7.603)" fill="#818386"/>
    <path id="Path_3966" data-name="Path 3966" d="M47.975,25.4l-5.926-1.454,3.214,5.189-3.214,5.188,5.926-1.453,3.944,4.658.448-6.086,5.65-2.308-5.65-2.307-.448-6.086Z" transform="translate(20.491 8.9)" fill="#bccf3b"/>
    <path id="Path_3967" data-name="Path 3967" d="M49.927,8.278l-2.361,5.627,3.984,4.622-6.082-.508L42.3,23.238l-1.4-5.942-5.941-1.4,5.218-3.165-.507-6.082L44.3,10.64Z" transform="translate(17.376 2.864)" fill="#bccf3b"/>
    <path id="Path_3968" data-name="Path 3968" d="M5.65,26.825,0,29.133,5.65,31.44,6.1,37.526l3.942-4.659,5.926,1.454-3.214-5.189,3.214-5.188L10.041,25.4,6.1,20.74Z" transform="translate(0 8.9)" fill="#bccf3b"/>
    <path id="Path_3969" data-name="Path 3969" d="M8.277,8.278l2.361,5.627L6.655,18.527l6.082-.508L15.9,23.238,17.3,17.3l5.941-1.4-5.218-3.165.507-6.082L13.9,10.64Z" transform="translate(2.927 2.864)" fill="#bccf3b"/>
  </g>
</svg>
