<svg xmlns="http://www.w3.org/2000/svg" xmlns:xlink="http://www.w3.org/1999/xlink" width="57.686" height="77.812" viewBox="0 0 57.686 77.812">
  <defs>
    <clipPath id="clip-path">
      <rect id="Rectangle_10272" data-name="Rectangle 10272" width="57.686" height="77.812" fill="none"/>
    </clipPath>
  </defs>
  <g id="Group_25052" data-name="Group 25052" transform="translate(0 0)">
    <g id="Group_25051" data-name="Group 25051" transform="translate(0 0)" clip-path="url(#clip-path)">
      <path id="Path_3942" data-name="Path 3942" d="M38.875,16.794a3.786,3.786,0,1,0-7.572,0V29.122a4.7,4.7,0,0,1,1.53-.323,4.408,4.408,0,0,1,3.062,1.288,4.233,4.233,0,0,1,0,6.043l-9.185,9.1a.679.679,0,0,1-.482.161.694.694,0,0,1-.645-.645,1.146,1.146,0,0,1,.161-.484l9.183-9.024a2.965,2.965,0,0,0,0-4.269,3.11,3.11,0,0,0-4.35,0l-.161.161a.629.629,0,0,1-.323.323L16.4,43.14A3.785,3.785,0,0,0,15.269,45.8V58.688a3.784,3.784,0,0,0,3.787,3.787h5.317a3.784,3.784,0,0,0,3.787-3.787V54.5a3.531,3.531,0,0,1,1.127-2.659L38.553,40.8a3.785,3.785,0,0,0,1.129-2.659Z" transform="translate(18.004 15.336)" fill="#818386"/>
      <path id="Path_3943" data-name="Path 3943" d="M.806,16.794a3.786,3.786,0,1,1,7.572,0V29.122a4.7,4.7,0,0,0-1.53-.323,4.408,4.408,0,0,0-3.062,1.288,4.233,4.233,0,0,0,0,6.043l9.1,9.1a.679.679,0,0,0,.482.161.694.694,0,0,0,.645-.645,1.146,1.146,0,0,0-.161-.484l-9.1-9.024a2.965,2.965,0,0,1,0-4.269,3.11,3.11,0,0,1,4.35,0l.161.161a.63.63,0,0,0,.323.323L23.364,43.14A3.785,3.785,0,0,1,24.493,45.8V58.688a3.784,3.784,0,0,1-3.787,3.787H15.389A3.784,3.784,0,0,1,11.6,58.688V54.5a3.531,3.531,0,0,0-1.127-2.659L1.129,40.8A3.785,3.785,0,0,1,0,38.143Z" transform="translate(0 15.336)" fill="#818386"/>
      <path id="Path_3944" data-name="Path 3944" d="M20.488,22.006H14.461A8.041,8.041,0,0,1,6.42,13.965V7.938h6.027a8.041,8.041,0,0,1,8.041,8.041Z" transform="translate(7.57 9.359)" fill="#bccf3b"/>
      <path id="Path_3945" data-name="Path 3945" d="M17.012,19.9l-4.262-4.262a8.043,8.043,0,0,1,0-11.373L17.012,0l4.262,4.262a8.043,8.043,0,0,1,0,11.373Z" transform="translate(12.256 -0.001)" fill="#bccf3b"/>
      <path id="Path_3946" data-name="Path 3946" d="M20.488,29.292H14.461A8.041,8.041,0,0,1,6.42,21.251V15.224h6.027a8.041,8.041,0,0,1,8.041,8.041Z" transform="translate(7.57 17.95)" fill="#bccf3b"/>
      <path id="Path_3947" data-name="Path 3947" d="M13.814,22.006h6.027a8.041,8.041,0,0,0,8.041-8.041V7.938H21.855a8.041,8.041,0,0,0-8.041,8.041Z" transform="translate(16.288 9.359)" fill="#bccf3b"/>
      <path id="Path_3948" data-name="Path 3948" d="M13.814,29.292h6.027a8.041,8.041,0,0,0,8.041-8.041V15.224H21.855a8.041,8.041,0,0,0-8.041,8.041Z" transform="translate(16.288 17.95)" fill="#bccf3b"/>
    </g>
  </g>
</svg>
