<svg xmlns="http://www.w3.org/2000/svg" xmlns:xlink="http://www.w3.org/1999/xlink" width="119.637" height="56.887" viewBox="0 0 119.637 56.887">
  <defs>
    <clipPath id="clip-path">
      <path id="Path_5552" data-name="Path 5552" d="M0,9.928H119.637V-46.959H0Z" transform="translate(0 46.959)" fill="none"/>
    </clipPath>
  </defs>
  <g id="Group_25571" data-name="Group 25571" transform="translate(0 46.959)">
    <g id="Group_25500" data-name="Group 25500" transform="translate(0 -46.959)" clip-path="url(#clip-path)">
      <g id="Group_25499" data-name="Group 25499" transform="translate(0 0)">
        <path id="Path_5551" data-name="Path 5551" d="M9.928,8.73A6.867,6.867,0,0,1,3.061,15.6H-40.091A6.867,6.867,0,0,1-46.959,8.73V-34.421a6.868,6.868,0,0,1,6.868-6.869H3.061a6.868,6.868,0,0,1,6.868,6.869Z" transform="translate(46.959 41.29)" fill="#d3282a"/>
      </g>
    </g>
    <g id="Group_25501" data-name="Group 25501" transform="translate(4.347 -42.011)">
      <path id="Path_5553" data-name="Path 5553" d="M.57,1.171V-3.436L-1.077,1.171Zm0,1.568H-2.7V1.1L.128-5.538H2.445V1.171H3.53V2.738H2.445V5.309H.57Z" transform="translate(2.697 5.538)" fill="#fff"/>
    </g>
    <g id="Group_25504" data-name="Group 25504" transform="translate(0 -46.959)" clip-path="url(#clip-path)">
      <g id="Group_25502" data-name="Group 25502" transform="translate(14.9 4.895)">
        <path id="Path_5554" data-name="Path 5554" d="M.176.637A.489.489,0,0,0,.365.67.487.487,0,0,0,.552.637.36.36,0,0,0,.676.552.371.371,0,0,0,.747.414.769.769,0,0,0,.783.245a1.917,1.917,0,0,0,.01-.2V-1.842a1.762,1.762,0,0,0-.016-.25A.635.635,0,0,0,.718-2.28a.29.29,0,0,0-.132-.132.5.5,0,0,0-.222-.044.506.506,0,0,0-.224.044A.277.277,0,0,0,.01-2.28a.635.635,0,0,0-.058.189,1.785,1.785,0,0,0-.015.25V.042a1.951,1.951,0,0,0,.008.2.845.845,0,0,0,.035.17A.371.371,0,0,0,.052.552.328.328,0,0,0,.176.637M1.247,2.01a1.523,1.523,0,0,1-.413-.315,2.985,2.985,0,0,1-.384-.468c-.018,0-.047,0-.085,0A1.11,1.11,0,0,1-.554.882,1.607,1.607,0,0,1-.831-.136v-1.53a2.347,2.347,0,0,1,.063-.573,1.115,1.115,0,0,1,.2-.419A.833.833,0,0,1-.2-2.925a1.571,1.571,0,0,1,.561-.088,1.112,1.112,0,0,1,.916.343,1.556,1.556,0,0,1,.279,1v1.53c0,.644-.191,1.058-.574,1.243a1.931,1.931,0,0,0,.4.39Z" transform="translate(0.831 3.013)" fill="#fff"/>
      </g>
      <g id="Group_25503" data-name="Group 25503" transform="translate(17.785 4.942)">
        <path id="Path_5555" data-name="Path 5555" d="M.2.732A1.576,1.576,0,0,1-.277.667.9.9,0,0,1-.613.485a.846.846,0,0,1-.21-.3,1.587,1.587,0,0,1-.11-.4,3.507,3.507,0,0,1-.031-.5V-3.463h.733v2.83c0,.1,0,.179.007.248A1.442,1.442,0,0,0-.191-.17.488.488,0,0,0-.12.01.362.362,0,0,0,.008.123.412.412,0,0,0,.2.168.412.412,0,0,0,.4.123.343.343,0,0,0,.525.01.59.59,0,0,0,.6-.17,1.451,1.451,0,0,0,.628-.384c0-.068.006-.15.006-.25v-2.83h.733V-.711a3.507,3.507,0,0,1-.031.5,1.587,1.587,0,0,1-.11.4.875.875,0,0,1-.208.3A.9.9,0,0,1,.682.667,1.57,1.57,0,0,1,.2.732" transform="translate(0.964 3.463)" fill="#fff"/>
      </g>
    </g>
    <g id="Group_25505" data-name="Group 25505" transform="translate(20.462 -42.017)">
      <path id="Path_5557" data-name="Path 5557" d="M.168.47H.723l-.277-1.7ZM-.8,1.924.048-2.221H.836l.841,4.145h-.7L.805.961H.088l-.17.963Z" transform="translate(0.795 2.221)" fill="#fff"/>
    </g>
    <g id="Group_25506" data-name="Group 25506" transform="translate(23.314 -42.017)">
      <path id="Path_5558" data-name="Path 5558" d="M0,.723V-3.422H.755V.2h.993V.723Z" transform="translate(0 3.422)" fill="#fff"/>
    </g>
    <path id="Path_5559" data-name="Path 5559" d="M21.015-38.735h.746V-42.88h-.746Z" transform="translate(4.443 0.862)" fill="#fff"/>
    <g id="Group_25507" data-name="Group 25507" transform="translate(26.525 -42.017)">
      <path id="Path_5560" data-name="Path 5560" d="M.121.723V-2.865h-.7v-.557H1.548v.557H.876V.723Z" transform="translate(0.574 3.422)" fill="#fff"/>
    </g>
    <g id="Group_25508" data-name="Group 25508" transform="translate(28.691 -42.017)">
      <path id="Path_5561" data-name="Path 5561" d="M.147.723V-.854L-.7-3.422h.7l.512,1.65.491-1.65h.7L.867-.854V.723Z" transform="translate(0.697 3.422)" fill="#fff"/>
    </g>
    <g id="Group_25509" data-name="Group 25509" transform="translate(14.968 -35.243)">
      <path id="Path_5562" data-name="Path 5562" d="M0,.723V-3.422H1.735v.533H.755V-1.7H1.53v.533H.755V.2h.993V.723Z" transform="translate(0 3.422)" fill="#fff"/>
    </g>
    <g id="Group_25513" data-name="Group 25513" transform="translate(0 -46.959)" clip-path="url(#clip-path)">
      <g id="Group_25510" data-name="Group 25510" transform="translate(17.126 11.717)">
        <path id="Path_5563" data-name="Path 5563" d="M.132.631H.346a.858.858,0,0,0,.2-.019A.815.815,0,0,0,.687.563a.236.236,0,0,0,.1-.09A.733.733,0,0,0,.842.358.68.68,0,0,0,.872.2C.878.128.883.068.884.018s0-.124,0-.222V-1.719c0-.1,0-.178,0-.237a1.188,1.188,0,0,0-.024-.182A.354.354,0,0,0,.8-2.279a.387.387,0,0,0-.1-.092.409.409,0,0,0-.15-.057,1.245,1.245,0,0,0-.218-.017H.132Zm-.755.529V-2.984H.341a2.207,2.207,0,0,1,.628.075.872.872,0,0,1,.4.237.906.906,0,0,1,.217.4,2.262,2.262,0,0,1,.064.581V-.2a2.387,2.387,0,0,1-.065.6,1.046,1.046,0,0,1-.213.42.869.869,0,0,1-.4.254,1.992,1.992,0,0,1-.607.08Z" transform="translate(0.623 2.984)" fill="#fff"/>
      </g>
      <g id="Group_25511" data-name="Group 25511" transform="translate(19.899 11.717)">
        <path id="Path_5564" data-name="Path 5564" d="M.2.732A1.576,1.576,0,0,1-.277.667.9.9,0,0,1-.613.485a.846.846,0,0,1-.21-.3,1.587,1.587,0,0,1-.11-.4,3.507,3.507,0,0,1-.031-.5V-3.463h.733v2.83c0,.1,0,.179.007.248A1.442,1.442,0,0,0-.191-.17.488.488,0,0,0-.12.01.362.362,0,0,0,.008.123.412.412,0,0,0,.2.166.412.412,0,0,0,.4.123.343.343,0,0,0,.525.01.59.59,0,0,0,.6-.17,1.451,1.451,0,0,0,.628-.384c0-.068.006-.15.006-.25v-2.83h.733V-.711a3.507,3.507,0,0,1-.031.5,1.587,1.587,0,0,1-.11.4.875.875,0,0,1-.208.3A.9.9,0,0,1,.682.667,1.57,1.57,0,0,1,.2.732" transform="translate(0.964 3.463)" fill="#fff"/>
      </g>
      <g id="Group_25512" data-name="Group 25512" transform="translate(22.724 11.669)">
        <path id="Path_5565" data-name="Path 5565" d="M.206.74A1.482,1.482,0,0,1-.267.673.925.925,0,0,1-.606.485a.91.91,0,0,1-.217-.3A1.427,1.427,0,0,1-.94-.194,2.758,2.758,0,0,1-.974-.652V-2.1a2.975,2.975,0,0,1,.035-.48,1.479,1.479,0,0,1,.118-.386.844.844,0,0,1,.216-.294.976.976,0,0,1,.338-.181A1.589,1.589,0,0,1,.206-3.5a1.523,1.523,0,0,1,.529.082.78.78,0,0,1,.348.242,1,1,0,0,1,.185.374,1.9,1.9,0,0,1,.058.5v.355H.6V-2.3a1.71,1.71,0,0,0-.033-.417.315.315,0,0,0-.317-.225H.208a.528.528,0,0,0-.166.023.251.251,0,0,0-.116.07.45.45,0,0,0-.073.1A.515.515,0,0,0-.188-2.6C-.2-2.544-.2-2.489-.2-2.44s0,.114,0,.19V-.494a1.09,1.09,0,0,0,.092.52A.347.347,0,0,0,.208.181.461.461,0,0,0,.35.161a.36.36,0,0,0,.1-.047A.237.237,0,0,0,.522.032a.575.575,0,0,0,.044-.1A.6.6,0,0,0,.589-.2C.594-.252.6-.3.6-.337s0-.091,0-.157V-.865h.728v.34a2.394,2.394,0,0,1-.033.417A1.327,1.327,0,0,1,1.182.24a.807.807,0,0,1-.2.27.91.91,0,0,1-.32.17A1.548,1.548,0,0,1,.206.74" transform="translate(0.974 3.502)" fill="#fff"/>
      </g>
    </g>
    <g id="Group_25514" data-name="Group 25514" transform="translate(25.306 -35.243)">
      <path id="Path_5567" data-name="Path 5567" d="M.168.47H.723l-.277-1.7ZM-.8,1.924.048-2.221H.836l.841,4.145h-.7L.805.963H.088l-.17.962Z" transform="translate(0.795 2.221)" fill="#fff"/>
    </g>
    <g id="Group_25515" data-name="Group 25515" transform="translate(27.723 -35.243)">
      <path id="Path_5568" data-name="Path 5568" d="M.121.723V-2.865h-.7v-.557H1.548v.557H.876V.723Z" transform="translate(0.574 3.422)" fill="#fff"/>
    </g>
    <path id="Path_5569" data-name="Path 5569" d="M24.907-33.142h.746v-4.145h-.746Z" transform="translate(5.266 2.045)" fill="#fff"/>
    <g id="Group_25517" data-name="Group 25517" transform="translate(0 -46.959)" clip-path="url(#clip-path)">
      <g id="Group_25516" data-name="Group 25516" transform="translate(31.463 11.67)">
        <path id="Path_5570" data-name="Path 5570" d="M.175.637A.493.493,0,0,0,.364.67.487.487,0,0,0,.552.637.347.347,0,0,0,.676.551.375.375,0,0,0,.748.414.842.842,0,0,0,.782.245a1.934,1.934,0,0,0,.01-.2V-1.842a1.785,1.785,0,0,0-.015-.25A.674.674,0,0,0,.718-2.28a.288.288,0,0,0-.131-.132.5.5,0,0,0-.223-.044.506.506,0,0,0-.224.044A.277.277,0,0,0,.01-2.28a.635.635,0,0,0-.058.189,1.785,1.785,0,0,0-.015.25V.042a1.967,1.967,0,0,0,.008.2A.939.939,0,0,0-.02.414.356.356,0,0,0,.052.551.317.317,0,0,0,.175.637m.189.592A1.11,1.11,0,0,1-.554.882,1.607,1.607,0,0,1-.83-.136v-1.53a2.344,2.344,0,0,1,.062-.573,1.124,1.124,0,0,1,.2-.419A.83.83,0,0,1-.2-2.925a1.564,1.564,0,0,1,.56-.088,1.115,1.115,0,0,1,.916.342,1.559,1.559,0,0,1,.28,1.005v1.53A2.3,2.3,0,0,1,1.5.436a1.2,1.2,0,0,1-.2.426.857.857,0,0,1-.372.274,1.478,1.478,0,0,1-.557.093" transform="translate(0.83 3.013)" fill="#fff"/>
      </g>
    </g>
    <g id="Group_25518" data-name="Group 25518" transform="translate(34.379 -35.243)">
      <path id="Path_5572" data-name="Path 5572" d="M0,.723V-3.422H.52L1.535-1.074V-3.422H2.16V.723h-.5L.64-1.744V.723Z" transform="translate(0 3.422)" fill="#fff"/>
    </g>
    <g id="Group_25519" data-name="Group 25519" transform="translate(14.961 -22.365)">
      <path id="Path_5573" data-name="Path 5573" d="M1.789,1.033-8.461-4.885V14.26l10.25,3.093Z" transform="translate(8.461 4.885)" fill="#fff"/>
    </g>
    <g id="Group_25520" data-name="Group 25520" transform="translate(26.338 -22.365)">
      <path id="Path_5574" data-name="Path 5574" d="M0,1.04V17.327l10.316-3.1V-4.917Z" transform="translate(0 4.917)" fill="#fff"/>
    </g>
    <g id="Group_25521" data-name="Group 25521" transform="translate(42.274 -20.594)">
      <path id="Path_5575" data-name="Path 5575" d="M.053,2.973h-.3L.965,7.212,2.176,2.973h0V-14.061H-.249V2.973Z" transform="translate(0.249 14.061)" fill="#fff"/>
    </g>
    <g id="Group_25522" data-name="Group 25522" transform="translate(12.774 -22.412)">
      <path id="Path_5576" data-name="Path 5576" d="M4.552.152l-1.1-.869V18.994l-11.389,3.68H-9.094L-20.43,19.507V-.717l-1.1.869V20.277l12.384,3.428h1.261L3.543,20.078l1.009-.3Z" transform="translate(21.53 0.717)" fill="#fff"/>
    </g>
    <g id="Group_25526" data-name="Group 25526" transform="translate(0 -46.959)" clip-path="url(#clip-path)">
      <g id="Group_25523" data-name="Group 25523" transform="translate(42.275 22.896)">
        <path id="Path_5577" data-name="Path 5577" d="M.423.212A1.211,1.211,0,0,0-.788-1,1.212,1.212,0,0,0-2,.212V1.519H.423Z" transform="translate(2.002 1.001)" fill="#fff"/>
      </g>
      <g id="Group_25524" data-name="Group 25524" transform="translate(62.749 0)">
        <path id="Path_5578" data-name="Path 5578" d="M9.928,8.73A6.867,6.867,0,0,1,3.061,15.6H-40.091A6.867,6.867,0,0,1-46.959,8.73V-34.421a6.868,6.868,0,0,1,6.868-6.869H3.061a6.868,6.868,0,0,1,6.868,6.869Z" transform="translate(46.959 41.29)" fill="#ff6722"/>
      </g>
      <g id="Group_25525" data-name="Group 25525" transform="translate(67.203 4.815)">
        <path id="Path_5579" data-name="Path 5579" d="M.65.839V-.889A2.99,2.99,0,0,0,.476-2.013a.631.631,0,0,0-.63-.416A.624.624,0,0,0-.8-1.98,4.57,4.57,0,0,0-.957-.553,10.581,10.581,0,0,0-.917.511a1.137,1.137,0,0,0,.22.6.666.666,0,0,0,.556.228.888.888,0,0,0,.79-.5m-2.9,5.632A3.026,3.026,0,0,1-2.9,4.388V4.227H-.943A2.522,2.522,0,0,0-.789,5.272a.64.64,0,0,0,.636.309.622.622,0,0,0,.5-.2,1.359,1.359,0,0,0,.234-.663A9.962,9.962,0,0,0,.65,3.383v-1.1A1.172,1.172,0,0,1,.1,2.748a2.12,2.12,0,0,1-.871.167,1.912,1.912,0,0,1-1.754-.884A4.4,4.4,0,0,1-3.073-.312q0-3.656,2.92-3.656a2.612,2.612,0,0,1,2.21.923A4.092,4.092,0,0,1,2.766-.5v3.95a4.911,4.911,0,0,1-.649,2.732A2.538,2.538,0,0,1-.167,7.16a2.723,2.723,0,0,1-2.082-.689" transform="translate(3.073 3.968)" fill="#fff"/>
      </g>
    </g>
    <path id="Path_5581" data-name="Path 5581" d="M62.285-38.8h.746v-4.145h-.746Z" transform="translate(13.169 0.85)" fill="#fff"/>
    <g id="Group_25527" data-name="Group 25527" transform="translate(76.57 -42.092)">
      <path id="Path_5582" data-name="Path 5582" d="M0,.723V-3.422H.52L1.535-1.074V-3.422H2.16V.723h-.5L.64-1.744V.723Z" transform="translate(0 3.422)" fill="#fff"/>
    </g>
    <g id="Group_25531" data-name="Group 25531" transform="translate(0 -46.959)" clip-path="url(#clip-path)">
      <g id="Group_25528" data-name="Group 25528" transform="translate(79.084 4.868)">
        <path id="Path_5583" data-name="Path 5583" d="M.132.631H.347a.872.872,0,0,0,.2-.019A.835.835,0,0,0,.687.563a.236.236,0,0,0,.1-.09A.733.733,0,0,0,.842.358.68.68,0,0,0,.872.2C.879.128.883.068.884.018s0-.124,0-.223V-1.719c0-.1,0-.178,0-.237a1.184,1.184,0,0,0-.023-.182A.373.373,0,0,0,.8-2.279a.387.387,0,0,0-.1-.092.4.4,0,0,0-.15-.057,1.245,1.245,0,0,0-.218-.017H.132Zm-.755.529V-2.984H.341a2.21,2.21,0,0,1,.629.075.885.885,0,0,1,.4.237.916.916,0,0,1,.216.4,2.262,2.262,0,0,1,.064.581V-.2a2.387,2.387,0,0,1-.065.6,1.031,1.031,0,0,1-.213.42.871.871,0,0,1-.4.254,2.006,2.006,0,0,1-.608.08Z" transform="translate(0.623 2.984)" fill="#fff"/>
      </g>
      <g id="Group_25529" data-name="Group 25529" transform="translate(81.617 4.868)">
        <path id="Path_5584" data-name="Path 5584" d="M.2.732A1.581,1.581,0,0,1-.277.667.9.9,0,0,1-.613.485a.846.846,0,0,1-.21-.3,1.587,1.587,0,0,1-.11-.4,3.507,3.507,0,0,1-.031-.5V-3.463h.733v2.83c0,.1,0,.179.007.248A1.442,1.442,0,0,0-.191-.17.51.51,0,0,0-.12.01.362.362,0,0,0,.008.123.412.412,0,0,0,.2.166.412.412,0,0,0,.4.123.343.343,0,0,0,.525.01.561.561,0,0,0,.6-.17,1.451,1.451,0,0,0,.628-.384c0-.068.006-.151.006-.25v-2.83h.733V-.711a3.507,3.507,0,0,1-.031.5,1.537,1.537,0,0,1-.11.4.859.859,0,0,1-.208.3A.9.9,0,0,1,.682.667,1.57,1.57,0,0,1,.2.732" transform="translate(0.964 3.463)" fill="#fff"/>
      </g>
      <g id="Group_25530" data-name="Group 25530" transform="translate(84.165 4.82)">
        <path id="Path_5585" data-name="Path 5585" d="M.2.74Q-.893.74-.949-.524l.657-.138c.017.549.174.823.47.823a.311.311,0,0,0,.257-.1A.442.442,0,0,0,.518-.226.8.8,0,0,0,.456-.544.886.886,0,0,0,.311-.779C.255-.839.178-.914.076-1.005l-.545-.472a1.493,1.493,0,0,1-.357-.436A1.212,1.212,0,0,1-.944-2.48a.982.982,0,0,1,.283-.75A1.108,1.108,0,0,1,.118-3.5a1.21,1.21,0,0,1,.4.056.849.849,0,0,1,.288.157A.815.815,0,0,1,1-3.042a1.291,1.291,0,0,1,.114.305,2.388,2.388,0,0,1,.053.355L.52-2.254c0-.084-.008-.156-.016-.218A1.327,1.327,0,0,0,.466-2.66a.491.491,0,0,0-.071-.154.3.3,0,0,0-.118-.093.34.34,0,0,0-.171-.028.358.358,0,0,0-.257.111.4.4,0,0,0-.088.271.61.61,0,0,0,.079.328,1.282,1.282,0,0,0,.246.277l.54.469a2.873,2.873,0,0,1,.235.239,2.088,2.088,0,0,1,.191.262,1.206,1.206,0,0,1,.138.326,1.44,1.44,0,0,1,.048.374A.987.987,0,0,1,.952.458,1.019,1.019,0,0,1,.2.74" transform="translate(0.949 3.502)" fill="#fff"/>
      </g>
    </g>
    <g id="Group_25532" data-name="Group 25532" transform="translate(86.238 -42.092)">
      <path id="Path_5587" data-name="Path 5587" d="M.121.723V-2.865h-.7v-.557H1.548v.557H.876V.723Z" transform="translate(0.574 3.422)" fill="#fff"/>
    </g>
    <g id="Group_25534" data-name="Group 25534" transform="translate(0 -46.959)" clip-path="url(#clip-path)">
      <g id="Group_25533" data-name="Group 25533" transform="translate(88.425 4.868)">
        <path id="Path_5588" data-name="Path 5588" d="M.132.309H.315A.652.652,0,0,0,.791.166.682.682,0,0,0,.932-.321.729.729,0,0,0,.809-.8.57.57,0,0,0,.359-.941H.132ZM-.623,2.684V-1.461h.95a2.516,2.516,0,0,1,.562.055,1.093,1.093,0,0,1,.409.179.764.764,0,0,1,.259.343,1.413,1.413,0,0,1,.087.528,1.5,1.5,0,0,1-.116.637.711.711,0,0,1-.384.361L1.72,2.684H.962L.467.792H.132V2.684Z" transform="translate(0.623 1.461)" fill="#fff"/>
      </g>
    </g>
    <g id="Group_25535" data-name="Group 25535" transform="translate(90.729 -42.092)">
      <path id="Path_5590" data-name="Path 5590" d="M.147.723V-.854L-.7-3.422h.7l.512,1.65.491-1.65h.7L.867-.854V.723Z" transform="translate(0.697 3.422)" fill="#fff"/>
    </g>
    <g id="Group_25537" data-name="Group 25537" transform="translate(0 -46.959)" clip-path="url(#clip-path)">
      <g id="Group_25536" data-name="Group 25536" transform="translate(93.052 8.336)">
        <path id="Path_5591" data-name="Path 5591" d="M.019.241-.056-.022A.438.438,0,0,0,.185-.173.433.433,0,0,0,.279-.462H-.089v-.677H.6v.63a.676.676,0,0,1-.58.75" transform="translate(0.089 1.139)" fill="#fff"/>
      </g>
    </g>
    <path id="Path_5593" data-name="Path 5593" d="M78.4-38.8h.746v-4.145H78.4Z" transform="translate(16.576 0.85)" fill="#fff"/>
    <g id="Group_25538" data-name="Group 25538" transform="translate(96.091 -42.092)">
      <path id="Path_5594" data-name="Path 5594" d="M0,.723V-3.422H.52L1.535-1.074V-3.422H2.16V.723h-.5L.64-1.744V.723Z" transform="translate(0 3.422)" fill="#fff"/>
    </g>
    <g id="Group_25539" data-name="Group 25539" transform="translate(98.605 -42.092)">
      <path id="Path_5595" data-name="Path 5595" d="M0,.723V-3.422H.52L1.535-1.074V-3.422H2.16V.723h-.5L.64-1.744V.723Z" transform="translate(0 3.422)" fill="#fff"/>
    </g>
    <g id="Group_25541" data-name="Group 25541" transform="translate(0 -46.959)" clip-path="url(#clip-path)">
      <g id="Group_25540" data-name="Group 25540" transform="translate(101.051 4.821)">
        <path id="Path_5596" data-name="Path 5596" d="M.176.637A.517.517,0,0,0,.365.67.511.511,0,0,0,.552.637.347.347,0,0,0,.676.551.375.375,0,0,0,.749.414.842.842,0,0,0,.783.245a1.934,1.934,0,0,0,.01-.2V-1.842a1.785,1.785,0,0,0-.015-.25A.674.674,0,0,0,.718-2.28a.288.288,0,0,0-.131-.132.5.5,0,0,0-.223-.044.51.51,0,0,0-.224.044A.277.277,0,0,0,.01-2.28a.635.635,0,0,0-.058.189,1.785,1.785,0,0,0-.015.25V.042a1.967,1.967,0,0,0,.008.2.939.939,0,0,0,.035.17A.356.356,0,0,0,.052.551.327.327,0,0,0,.176.637m.189.592A1.11,1.11,0,0,1-.554.882,1.607,1.607,0,0,1-.831-.136v-1.53a2.34,2.34,0,0,1,.063-.573,1.124,1.124,0,0,1,.2-.419A.83.83,0,0,1-.2-2.925a1.564,1.564,0,0,1,.56-.088,1.115,1.115,0,0,1,.916.342,1.559,1.559,0,0,1,.28,1.005v1.53A2.3,2.3,0,0,1,1.5.436a1.181,1.181,0,0,1-.2.426.847.847,0,0,1-.371.274,1.5,1.5,0,0,1-.557.093" transform="translate(0.831 3.013)" fill="#fff"/>
      </g>
    </g>
    <g id="Group_25542" data-name="Group 25542" transform="translate(103.536 -42.092)">
      <path id="Path_5598" data-name="Path 5598" d="M.147.723l-.84-4.145h.67L.522-.536l.515-2.886h.684L.876.723Z" transform="translate(0.693 3.422)" fill="#fff"/>
    </g>
    <g id="Group_25543" data-name="Group 25543" transform="translate(105.759 -42.092)">
      <path id="Path_5599" data-name="Path 5599" d="M.168.47H.723l-.277-1.7ZM-.8,1.924.048-2.221H.836l.84,4.145h-.7L.805.963H.088l-.171.962Z" transform="translate(0.795 2.221)" fill="#fff"/>
    </g>
    <g id="Group_25544" data-name="Group 25544" transform="translate(107.935 -42.092)">
      <path id="Path_5600" data-name="Path 5600" d="M.121.723V-2.865h-.7v-.557H1.548v.557H.876V.723Z" transform="translate(0.574 3.422)" fill="#fff"/>
    </g>
    <path id="Path_5601" data-name="Path 5601" d="M90.922-38.8h.745v-4.145h-.745Z" transform="translate(19.223 0.85)" fill="#fff"/>
    <g id="Group_25546" data-name="Group 25546" transform="translate(0 -46.959)" clip-path="url(#clip-path)">
      <g id="Group_25545" data-name="Group 25545" transform="translate(111.194 4.821)">
        <path id="Path_5602" data-name="Path 5602" d="M.175.637A.517.517,0,0,0,.364.67.511.511,0,0,0,.552.637.347.347,0,0,0,.676.551.375.375,0,0,0,.748.414.842.842,0,0,0,.782.245a1.934,1.934,0,0,0,.01-.2V-1.842a1.785,1.785,0,0,0-.015-.25A.674.674,0,0,0,.718-2.28a.288.288,0,0,0-.131-.132.5.5,0,0,0-.223-.044.51.51,0,0,0-.224.044A.277.277,0,0,0,.01-2.28a.635.635,0,0,0-.058.189,1.785,1.785,0,0,0-.015.25V.042a1.967,1.967,0,0,0,.008.2A.939.939,0,0,0-.02.414.356.356,0,0,0,.052.551.327.327,0,0,0,.175.637m.189.592A1.11,1.11,0,0,1-.554.882,1.607,1.607,0,0,1-.83-.136v-1.53a2.344,2.344,0,0,1,.062-.573,1.124,1.124,0,0,1,.2-.419A.83.83,0,0,1-.2-2.925a1.564,1.564,0,0,1,.56-.088,1.115,1.115,0,0,1,.916.342,1.559,1.559,0,0,1,.28,1.005v1.53A2.3,2.3,0,0,1,1.5.436a1.181,1.181,0,0,1-.2.426.847.847,0,0,1-.371.274,1.5,1.5,0,0,1-.557.093" transform="translate(0.83 3.013)" fill="#fff"/>
      </g>
    </g>
    <g id="Group_25547" data-name="Group 25547" transform="translate(113.87 -42.092)">
      <path id="Path_5604" data-name="Path 5604" d="M0,.723V-3.422H.52L1.535-1.074V-3.422H2.16V.723h-.5L.64-1.744V.723Z" transform="translate(0 3.422)" fill="#fff"/>
    </g>
    <g id="Group_25548" data-name="Group 25548" transform="translate(75.216 -35.317)">
      <path id="Path_5605" data-name="Path 5605" d="M.168.47H.723l-.277-1.7ZM-.8,1.924.048-2.221H.836l.84,4.145h-.7L.805.963H.088l-.171.962Z" transform="translate(0.795 2.221)" fill="#fff"/>
    </g>
    <g id="Group_25549" data-name="Group 25549" transform="translate(77.894 -35.317)">
      <path id="Path_5606" data-name="Path 5606" d="M0,.723V-3.422H.52L1.535-1.074V-3.422H2.16V.723h-.5L.64-1.744V.723Z" transform="translate(0 3.422)" fill="#fff"/>
    </g>
    <g id="Group_25551" data-name="Group 25551" transform="translate(0 -46.959)" clip-path="url(#clip-path)">
      <g id="Group_25550" data-name="Group 25550" transform="translate(80.475 11.643)">
        <path id="Path_5607" data-name="Path 5607" d="M.132.631H.347a.872.872,0,0,0,.2-.019A.835.835,0,0,0,.687.563a.228.228,0,0,0,.1-.09A.733.733,0,0,0,.842.358.68.68,0,0,0,.872.2C.879.128.883.068.884.018s0-.124,0-.222V-1.719c0-.1,0-.177,0-.237a1.2,1.2,0,0,0-.023-.182A.373.373,0,0,0,.8-2.279a.387.387,0,0,0-.1-.092.4.4,0,0,0-.15-.057,1.245,1.245,0,0,0-.218-.017H.132Zm-.755.529V-2.984H.341a2.21,2.21,0,0,1,.629.075.885.885,0,0,1,.4.237.916.916,0,0,1,.216.4,2.269,2.269,0,0,1,.064.581V-.2a2.387,2.387,0,0,1-.065.6,1.031,1.031,0,0,1-.213.42.871.871,0,0,1-.4.254,2.006,2.006,0,0,1-.608.08Z" transform="translate(0.623 2.984)" fill="#fff"/>
      </g>
    </g>
    <path id="Path_5609" data-name="Path 5609" d="M69.489-33.2h.745v-4.146h-.745Z" transform="translate(14.692 2.032)" fill="#fff"/>
    <g id="Group_25552" data-name="Group 25552" transform="translate(85.363 -35.317)">
      <path id="Path_5610" data-name="Path 5610" d="M0,.723V-3.422H.52L1.535-1.074V-3.422H2.16V.723h-.5L.64-1.744V.723Z" transform="translate(0 3.422)" fill="#fff"/>
    </g>
    <g id="Group_25553" data-name="Group 25553" transform="translate(87.944 -35.317)">
      <path id="Path_5611" data-name="Path 5611" d="M0,.723V-3.422H1.7V-2.9H.755v1.2h.758v.533H.755V.723Z" transform="translate(0 3.422)" fill="#fff"/>
    </g>
    <g id="Group_25555" data-name="Group 25555" transform="translate(0 -46.959)" clip-path="url(#clip-path)">
      <g id="Group_25554" data-name="Group 25554" transform="translate(89.844 11.643)">
        <path id="Path_5612" data-name="Path 5612" d="M.132.309H.313A.654.654,0,0,0,.791.166.684.684,0,0,0,.932-.321.729.729,0,0,0,.809-.8.566.566,0,0,0,.359-.941H.132ZM-.623,2.683V-1.461h.95a2.6,2.6,0,0,1,.562.053,1.114,1.114,0,0,1,.409.181.754.754,0,0,1,.259.342,1.42,1.42,0,0,1,.087.529,1.5,1.5,0,0,1-.116.637.713.713,0,0,1-.384.36l.574,2.042H.962L.467.791H.132V2.683Z" transform="translate(0.623 1.461)" fill="#fff"/>
      </g>
    </g>
    <g id="Group_25556" data-name="Group 25556" transform="translate(92.269 -35.317)">
      <path id="Path_5614" data-name="Path 5614" d="M.168.47H.723l-.277-1.7ZM-.8,1.924.048-2.221H.836l.84,4.145h-.7L.805.963H.088l-.171.962Z" transform="translate(0.795 2.221)" fill="#fff"/>
    </g>
    <g id="Group_25558" data-name="Group 25558" transform="translate(0 -46.959)" clip-path="url(#clip-path)">
      <g id="Group_25557" data-name="Group 25557" transform="translate(94.843 11.595)">
        <path id="Path_5615" data-name="Path 5615" d="M.2.74Q-.893.74-.949-.524l.657-.138Q-.267.161.179.16A.307.307,0,0,0,.434.055.436.436,0,0,0,.518-.226.8.8,0,0,0,.456-.544.886.886,0,0,0,.311-.779C.255-.839.178-.914.076-1.005l-.545-.472a1.513,1.513,0,0,1-.357-.436A1.212,1.212,0,0,1-.944-2.48a.982.982,0,0,1,.283-.75A1.108,1.108,0,0,1,.118-3.5a1.21,1.21,0,0,1,.4.056.849.849,0,0,1,.288.157A.815.815,0,0,1,1-3.042a1.272,1.272,0,0,1,.114.305,2.388,2.388,0,0,1,.053.355L.52-2.254c0-.084-.008-.156-.016-.218A1.327,1.327,0,0,0,.466-2.66a.491.491,0,0,0-.071-.154.3.3,0,0,0-.118-.093.34.34,0,0,0-.171-.028.358.358,0,0,0-.257.111.4.4,0,0,0-.088.271.61.61,0,0,0,.079.328,1.282,1.282,0,0,0,.246.277l.54.469a2.873,2.873,0,0,1,.235.239,2.088,2.088,0,0,1,.191.262,1.206,1.206,0,0,1,.138.326,1.39,1.39,0,0,1,.048.374A.987.987,0,0,1,.952.458,1.019,1.019,0,0,1,.2.74" transform="translate(0.949 3.502)" fill="#fff"/>
      </g>
    </g>
    <g id="Group_25559" data-name="Group 25559" transform="translate(96.983 -35.317)">
      <path id="Path_5617" data-name="Path 5617" d="M.121.723V-2.865h-.7v-.557H1.548v.557H.876V.723Z" transform="translate(0.574 3.422)" fill="#fff"/>
    </g>
    <g id="Group_25563" data-name="Group 25563" transform="translate(0 -46.959)" clip-path="url(#clip-path)">
      <g id="Group_25560" data-name="Group 25560" transform="translate(99.236 11.643)">
        <path id="Path_5618" data-name="Path 5618" d="M.132.309H.315A.652.652,0,0,0,.791.166.684.684,0,0,0,.932-.321.729.729,0,0,0,.809-.8.566.566,0,0,0,.359-.941H.132ZM-.623,2.683V-1.461h.95a2.6,2.6,0,0,1,.562.053,1.114,1.114,0,0,1,.409.181.754.754,0,0,1,.259.342,1.42,1.42,0,0,1,.087.529,1.5,1.5,0,0,1-.116.637.713.713,0,0,1-.384.36L1.72,2.683H.962L.466.791H.132V2.683Z" transform="translate(0.623 1.461)" fill="#fff"/>
      </g>
      <g id="Group_25561" data-name="Group 25561" transform="translate(101.844 11.642)">
        <path id="Path_5619" data-name="Path 5619" d="M.2.732A1.581,1.581,0,0,1-.277.667.9.9,0,0,1-.613.485a.846.846,0,0,1-.21-.3,1.587,1.587,0,0,1-.11-.4,3.507,3.507,0,0,1-.031-.5V-3.463h.733v2.83c0,.1,0,.179.007.248A1.442,1.442,0,0,0-.191-.17.51.51,0,0,0-.12.01.348.348,0,0,0,.008.122.4.4,0,0,0,.2.166.4.4,0,0,0,.4.122.33.33,0,0,0,.525.01.561.561,0,0,0,.6-.17,1.451,1.451,0,0,0,.628-.384c0-.068.006-.151.006-.25v-2.83h.733V-.711a3.507,3.507,0,0,1-.031.5,1.537,1.537,0,0,1-.11.4.859.859,0,0,1-.208.3A.9.9,0,0,1,.682.667,1.57,1.57,0,0,1,.2.732" transform="translate(0.964 3.463)" fill="#fff"/>
      </g>
      <g id="Group_25562" data-name="Group 25562" transform="translate(104.495 11.595)">
        <path id="Path_5620" data-name="Path 5620" d="M.206.74A1.482,1.482,0,0,1-.267.673.925.925,0,0,1-.606.485a.923.923,0,0,1-.217-.3A1.427,1.427,0,0,1-.94-.194,2.758,2.758,0,0,1-.974-.652V-2.1a2.964,2.964,0,0,1,.035-.48,1.479,1.479,0,0,1,.118-.386.844.844,0,0,1,.216-.294.976.976,0,0,1,.338-.181A1.589,1.589,0,0,1,.206-3.5a1.519,1.519,0,0,1,.529.082.78.78,0,0,1,.348.242,1,1,0,0,1,.185.374,1.9,1.9,0,0,1,.058.5v.355H.6V-2.3a1.71,1.71,0,0,0-.033-.417.315.315,0,0,0-.317-.225H.208a.528.528,0,0,0-.166.023.257.257,0,0,0-.116.07.45.45,0,0,0-.073.1A.515.515,0,0,0-.188-2.6q-.013.089-.018.164c0,.05,0,.114,0,.19V-.494a1.09,1.09,0,0,0,.092.52A.347.347,0,0,0,.208.181.461.461,0,0,0,.35.161a.345.345,0,0,0,.1-.047A.237.237,0,0,0,.522.032a.575.575,0,0,0,.044-.1A.6.6,0,0,0,.589-.2C.594-.252.6-.3.6-.337s0-.091,0-.157V-.865h.728v.34a2.394,2.394,0,0,1-.033.417A1.327,1.327,0,0,1,1.182.24a.807.807,0,0,1-.2.27.91.91,0,0,1-.32.17A1.548,1.548,0,0,1,.206.74" transform="translate(0.974 3.502)" fill="#fff"/>
      </g>
    </g>
    <g id="Group_25564" data-name="Group 25564" transform="translate(106.827 -35.317)">
      <path id="Path_5622" data-name="Path 5622" d="M.121.723V-2.865h-.7v-.557H1.548v.557H.876V.723Z" transform="translate(0.574 3.422)" fill="#fff"/>
    </g>
    <g id="Group_25567" data-name="Group 25567" transform="translate(0 -46.959)" clip-path="url(#clip-path)">
      <g id="Group_25565" data-name="Group 25565" transform="translate(109.048 11.642)">
        <path id="Path_5623" data-name="Path 5623" d="M.2.732A1.576,1.576,0,0,1-.277.667.9.9,0,0,1-.613.485a.846.846,0,0,1-.21-.3,1.587,1.587,0,0,1-.11-.4,3.507,3.507,0,0,1-.031-.5V-3.463h.733v2.83c0,.1,0,.179.007.248A1.442,1.442,0,0,0-.191-.17.51.51,0,0,0-.12.01.348.348,0,0,0,.008.122.4.4,0,0,0,.2.166.4.4,0,0,0,.4.122.33.33,0,0,0,.525.01.561.561,0,0,0,.6-.17,1.451,1.451,0,0,0,.628-.384c0-.068.006-.151.006-.25v-2.83h.733V-.711a3.507,3.507,0,0,1-.031.5,1.537,1.537,0,0,1-.11.4.859.859,0,0,1-.208.3A.9.9,0,0,1,.682.667,1.57,1.57,0,0,1,.2.732" transform="translate(0.964 3.463)" fill="#fff"/>
      </g>
      <g id="Group_25566" data-name="Group 25566" transform="translate(111.766 11.643)">
        <path id="Path_5624" data-name="Path 5624" d="M.132.309H.313A.654.654,0,0,0,.791.166.684.684,0,0,0,.932-.321.729.729,0,0,0,.809-.8.566.566,0,0,0,.359-.941H.132ZM-.623,2.683V-1.461h.95a2.6,2.6,0,0,1,.562.053,1.114,1.114,0,0,1,.409.181.754.754,0,0,1,.259.342,1.42,1.42,0,0,1,.087.529,1.5,1.5,0,0,1-.116.637.713.713,0,0,1-.384.36l.574,2.042H.962L.467.791H.132V2.683Z" transform="translate(0.623 1.461)" fill="#fff"/>
      </g>
    </g>
    <g id="Group_25568" data-name="Group 25568" transform="translate(114.406 -35.317)">
      <path id="Path_5626" data-name="Path 5626" d="M0,.723V-3.422H1.735v.533H.755V-1.7H1.53v.533H.755V.2h.993V.723Z" transform="translate(0 3.422)" fill="#fff"/>
    </g>
    <g id="Group_25570" data-name="Group 25570" transform="translate(0 -46.959)" clip-path="url(#clip-path)">
      <g id="Group_25569" data-name="Group 25569" transform="translate(77 21.149)">
        <path id="Path_5627" data-name="Path 5627" d="M4.9,4.281-1.195,7.8V.759l6.1-3.52ZM-15.242,7.8V1.295l5.634,3.254Zm-.927,0-6.1-3.519V-2.761l6.1,3.52Zm6.561-19.475-5.634,3.254v-6.507Zm7.487,3.254-5.633-3.254,5.633-3.253ZM-7.755-3.564l6.1-3.519,6.1,3.519-6.1,3.522Zm-1.39-.8L-14.78-7.618l5.636-3.254Zm6.559-3.251L-8.219-4.366v-6.505ZM-9.144,3.745-14.78.493l5.636-3.254ZM5.6-3.965-1.195-7.887v-7.843a.466.466,0,0,0-.231-.4L-8.45-20.186a.464.464,0,0,0-.463,0l-7.025,4.055a.466.466,0,0,0-.231.4v7.843l-6.792,3.921a.461.461,0,0,0-.231.4V4.549a.463.463,0,0,0,.231.4L-15.938,9a.467.467,0,0,0,.231.062A.46.46,0,0,0-15.475,9l6.794-3.921L-1.89,9a.47.47,0,0,0,.231.062A.468.468,0,0,0-1.426,9L5.6,4.95a.461.461,0,0,0,.231-.4V-3.564a.461.461,0,0,0-.231-.4" transform="translate(23.193 20.248)" fill="#fff"/>
      </g>
    </g>
  </g>
</svg>
