<svg xmlns="http://www.w3.org/2000/svg" xmlns:xlink="http://www.w3.org/1999/xlink" width="318.5" height="58.06" viewBox="0 0 318.5 58.06">
  <defs>
    <clipPath id="clip-path">
      <path id="Path_5787" data-name="Path 5787" d="M0,10.927H318.5v-58.06H0Z" transform="translate(0 47.133)" fill="none"/>
    </clipPath>
  </defs>
  <g id="Group_25745" data-name="Group 25745" transform="translate(0 47.133)">
    <g id="Group_25748" data-name="Group 25748" transform="translate(0 -47.133)" clip-path="url(#clip-path)">
      <g id="Group_25745-2" data-name="Group 25745" transform="translate(0 0.214)">
        <path id="Path_5784" data-name="Path 5784" d="M10.887,9.573A6.983,6.983,0,0,1,3.9,16.556H-39.976a6.983,6.983,0,0,1-6.983-6.983V-34.305a6.984,6.984,0,0,1,6.983-6.985H3.9a6.984,6.984,0,0,1,6.983,6.985Z" transform="translate(46.959 41.29)" fill="#17b8dd"/>
      </g>
      <g id="Group_25746" data-name="Group 25746" transform="translate(4.651 5.109)">
        <path id="Path_5785" data-name="Path 5785" d="M.686,1.749A4.492,4.492,0,0,0,.856.3Q.856-.4.815-.777A1.166,1.166,0,0,0,.591-1.39a.681.681,0,0,0-.565-.232.887.887,0,0,0-.51.15,1.12,1.12,0,0,0-.349.354V.639Q-.833,2.2.039,2.2a.638.638,0,0,0,.647-.456M-2.228,2.79A4.323,4.323,0,0,1-2.957.149V-3.773A5.019,5.019,0,0,1-2.3-6.557,2.549,2.549,0,0,1,0-7.545a2.805,2.805,0,0,1,2.124.695,3,3,0,0,1,.668,2.1l.014.191H.8a2.65,2.65,0,0,0-.15-1.069.625.625,0,0,0-.626-.305.67.67,0,0,0-.525.2,1.336,1.336,0,0,0-.259.68A9.332,9.332,0,0,0-.833-3.705v1.117a1.177,1.177,0,0,1,.573-.469,2.25,2.25,0,0,1,.9-.17,1.96,1.96,0,0,1,1.778.85A4.241,4.241,0,0,1,2.967-.055,5,5,0,0,1,2.286,2.77a2.55,2.55,0,0,1-2.274,1A2.606,2.606,0,0,1-2.228,2.79" transform="translate(2.957 7.545)" fill="#fff"/>
      </g>
      <g id="Group_25747" data-name="Group 25747" transform="translate(15.152 5.192)">
        <path id="Path_5786" data-name="Path 5786" d="M.226.812A1.507,1.507,0,0,1-.255.743.957.957,0,0,1-.6.553.944.944,0,0,1-.82.25,1.451,1.451,0,0,1-.94-.138,2.8,2.8,0,0,1-.974-.6v-1.47a3.025,3.025,0,0,1,.036-.488,1.5,1.5,0,0,1,.119-.393.859.859,0,0,1,.219-.3.992.992,0,0,1,.344-.184A1.615,1.615,0,0,1,.226-3.5a1.549,1.549,0,0,1,.538.084.8.8,0,0,1,.354.246,1.022,1.022,0,0,1,.188.381,1.937,1.937,0,0,1,.059.506v.361H.625v-.358a1.739,1.739,0,0,0-.033-.424.321.321,0,0,0-.323-.229H.228a.537.537,0,0,0-.169.023.262.262,0,0,0-.118.071.485.485,0,0,0-.074.106.524.524,0,0,0-.042.147c-.009.06-.015.116-.017.166s0,.116,0,.193V-.443A1.105,1.105,0,0,0-.1.085.353.353,0,0,0,.228.243.469.469,0,0,0,.372.223a.351.351,0,0,0,.1-.048A.241.241,0,0,0,.547.091a.618.618,0,0,0,.044-.1A.643.643,0,0,0,.615-.142c0-.055.007-.1.009-.142s0-.092,0-.16V-.82h.74v.346a2.435,2.435,0,0,1-.033.424A1.349,1.349,0,0,1,1.219.3a.821.821,0,0,1-.207.275A.926.926,0,0,1,.687.75,1.574,1.574,0,0,1,.226.812" transform="translate(0.974 3.502)" fill="#fff"/>
      </g>
    </g>
    <g id="Group_25749" data-name="Group 25749" transform="translate(17.996 -41.894)">
      <path id="Path_5788" data-name="Path 5788" d="M0,.793V-3.422H.767V.262h1.01V.793Z" transform="translate(0 3.422)" fill="#fff"/>
    </g>
    <g id="Group_25750" data-name="Group 25750" transform="translate(20.154 -41.894)">
      <path id="Path_5789" data-name="Path 5789" d="M0,.793V-3.422H1.764v.542h-1v1.21h.788v.542H.767V.262h1.01V.793Z" transform="translate(0 3.422)" fill="#fff"/>
    </g>
    <g id="Group_25751" data-name="Group 25751" transform="translate(22.128 -41.894)">
      <path id="Path_5790" data-name="Path 5790" d="M.184.515H.748L.466-1.216ZM-.8,1.994.062-2.221h.8l.855,4.215H1l-.17-.979H.1l-.172.979Z" transform="translate(0.795 2.221)" fill="#fff"/>
    </g>
    <g id="Group_25752" data-name="Group 25752" transform="translate(25.028 -41.894)">
      <path id="Path_5791" data-name="Path 5791" d="M0,.793V-3.422H.528L1.561-1.035V-3.422H2.2V.793h-.5L.65-1.716V.793Z" transform="translate(0 3.422)" fill="#fff"/>
    </g>
    <g id="Group_25753" data-name="Group 25753" transform="translate(28.93 -41.894)">
      <path id="Path_5792" data-name="Path 5792" d="M.113.793l-.6-4.215H.156L.5-.7l.45-2.717h.516L1.929-.7l.345-2.72h.633L2.3.793H1.691L1.217-2.021.743.793Z" transform="translate(0.489 3.422)" fill="#fff"/>
    </g>
    <g id="Group_25754" data-name="Group 25754" transform="translate(32.434 -41.894)">
      <path id="Path_5793" data-name="Path 5793" d="M.184.515H.748L.466-1.216ZM-.8,1.994.062-2.221h.8l.855,4.215H1l-.17-.979H.1l-.172.979Z" transform="translate(0.795 2.221)" fill="#fff"/>
    </g>
    <g id="Group_25755" data-name="Group 25755" transform="translate(34.892 -41.894)">
      <path id="Path_5794" data-name="Path 5794" d="M.133.793V-2.855H-.574v-.567H1.584v.567H.9V.793Z" transform="translate(0.574 3.422)" fill="#fff"/>
    </g>
    <g id="Group_25756" data-name="Group 25756" transform="translate(37.36 -41.894)">
      <path id="Path_5795" data-name="Path 5795" d="M0,.793V-3.422H1.764v.542h-1v1.21h.788v.542H.767V.262h1.01V.793Z" transform="translate(0 3.422)" fill="#fff"/>
    </g>
    <g id="Group_25758" data-name="Group 25758" transform="translate(0 -47.133)" clip-path="url(#clip-path)">
      <g id="Group_25757" data-name="Group 25757" transform="translate(39.554 5.239)">
        <path id="Path_5796" data-name="Path 5796" d="M.144.339H.329A.659.659,0,0,0,.813.193.687.687,0,0,0,.957-.3.741.741,0,0,0,.833-.786.58.58,0,0,0,.376-.933H.144ZM-.623,2.754V-1.461H.343a2.558,2.558,0,0,1,.572.055,1.111,1.111,0,0,1,.416.182.777.777,0,0,1,.264.349,1.437,1.437,0,0,1,.089.537A1.507,1.507,0,0,1,1.564.31a.72.72,0,0,1-.389.367l.584,2.077H.988L.484.83H.144V2.754Z" transform="translate(0.623 1.461)" fill="#fff"/>
      </g>
    </g>
    <g id="Group_25759" data-name="Group 25759" transform="translate(15.001 -35.005)">
      <path id="Path_5798" data-name="Path 5798" d="M.184.515H.748L.466-1.216ZM-.8,1.994.062-2.221h.8l.855,4.215H1l-.17-.978H.1l-.174.978Z" transform="translate(0.795 2.221)" fill="#fff"/>
    </g>
    <g id="Group_25760" data-name="Group 25760" transform="translate(17.902 -35.005)">
      <path id="Path_5799" data-name="Path 5799" d="M0,.793V-3.422H.528L1.561-1.035V-3.422H2.2V.793h-.5L.65-1.716V.793Z" transform="translate(0 3.422)" fill="#fff"/>
    </g>
    <g id="Group_25763" data-name="Group 25763" transform="translate(0 -47.133)" clip-path="url(#clip-path)">
      <g id="Group_25761" data-name="Group 25761" transform="translate(20.703 12.129)">
        <path id="Path_5800" data-name="Path 5800" d="M.144.692H.362a.879.879,0,0,0,.2-.02A.829.829,0,0,0,.709.623a.24.24,0,0,0,.1-.091A.746.746,0,0,0,.866.415.691.691,0,0,0,.9.253C.9.181.908.119.909.068s0-.126,0-.225V-1.7c0-.1,0-.181,0-.241a1.208,1.208,0,0,0-.025-.185.36.36,0,0,0-.055-.143.379.379,0,0,0-.1-.094.4.4,0,0,0-.152-.058,1.246,1.246,0,0,0-.222-.017H.144Zm-.767.538V-2.984H.358A2.244,2.244,0,0,1,1-2.908a.9.9,0,0,1,.413.241.932.932,0,0,1,.219.405,2.3,2.3,0,0,1,.065.591V-.15a2.427,2.427,0,0,1-.067.612A1.064,1.064,0,0,1,1.41.89a.883.883,0,0,1-.4.259,2.026,2.026,0,0,1-.617.081Z" transform="translate(0.623 2.984)" fill="#fff"/>
      </g>
      <g id="Group_25762" data-name="Group 25762" transform="translate(24.696 12.08)">
        <path id="Path_5801" data-name="Path 5801" d="M.22.812Q-.894.812-.949-.474l.668-.14Q-.255.222.2.222A.316.316,0,0,0,.458.116.45.45,0,0,0,.543-.171.811.811,0,0,0,.48-.494.9.9,0,0,0,.332-.733C.275-.794.2-.871.093-.963l-.554-.48a1.518,1.518,0,0,1-.363-.443,1.233,1.233,0,0,1-.119-.575,1,1,0,0,1,.288-.763A1.127,1.127,0,0,1,.136-3.5a1.23,1.23,0,0,1,.409.057.882.882,0,0,1,.294.16.846.846,0,0,1,.192.251,1.313,1.313,0,0,1,.116.31,2.428,2.428,0,0,1,.054.361l-.657.129c0-.085-.009-.159-.016-.222A1.349,1.349,0,0,0,.49-2.646.5.5,0,0,0,.417-2.8.308.308,0,0,0,.3-2.9a.345.345,0,0,0-.174-.028.364.364,0,0,0-.261.113.4.4,0,0,0-.09.276.62.62,0,0,0,.08.334A1.3,1.3,0,0,0,.1-1.92l.549.477A2.922,2.922,0,0,1,.891-1.2a2.123,2.123,0,0,1,.195.266,1.226,1.226,0,0,1,.14.331,1.465,1.465,0,0,1,.049.381A1,1,0,0,1,.984.525,1.036,1.036,0,0,1,.22.812" transform="translate(0.949 3.502)" fill="#fff"/>
      </g>
    </g>
    <g id="Group_25764" data-name="Group 25764" transform="translate(27.125 -35.005)">
      <path id="Path_5803" data-name="Path 5803" d="M.184.515H.748L.466-1.216ZM-.8,1.994.062-2.221h.8l.855,4.215H1l-.17-.978H.1l-.172.978Z" transform="translate(0.795 2.221)" fill="#fff"/>
    </g>
    <g id="Group_25765" data-name="Group 25765" transform="translate(30.025 -35.005)">
      <path id="Path_5804" data-name="Path 5804" d="M0,.793V-3.422H.528L1.561-1.035V-3.422H2.2V.793h-.5L.65-1.716V.793Z" transform="translate(0 3.422)" fill="#fff"/>
    </g>
    <path id="Path_5805" data-name="Path 5805" d="M26.667-33.072h.758v-4.215h-.758Z" transform="translate(6.182 2.283)" fill="#fff"/>
    <g id="Group_25766" data-name="Group 25766" transform="translate(33.934 -35.005)">
      <path id="Path_5806" data-name="Path 5806" d="M.133.793V-2.855H-.574v-.567H1.584v.567H.9V.793Z" transform="translate(0.574 3.422)" fill="#fff"/>
    </g>
    <g id="Group_25767" data-name="Group 25767" transform="translate(36.163 -35.005)">
      <path id="Path_5807" data-name="Path 5807" d="M.184.515H.748L.466-1.216ZM-.8,1.994.062-2.221h.8l.855,4.215H1l-.17-.978H.1l-.172.978Z" transform="translate(0.795 2.221)" fill="#fff"/>
    </g>
    <g id="Group_25768" data-name="Group 25768" transform="translate(38.621 -35.005)">
      <path id="Path_5808" data-name="Path 5808" d="M.133.793V-2.855H-.574v-.567H1.584v.567H.9V.793Z" transform="translate(0.574 3.422)" fill="#fff"/>
    </g>
    <path id="Path_5809" data-name="Path 5809" d="M33.374-33.072h.759v-4.215h-.759Z" transform="translate(7.737 2.283)" fill="#fff"/>
    <g id="Group_25770" data-name="Group 25770" transform="translate(0 -47.133)" clip-path="url(#clip-path)">
      <g id="Group_25769" data-name="Group 25769" transform="translate(42.424 12.081)">
        <path id="Path_5810" data-name="Path 5810" d="M.192.7A.5.5,0,0,0,.385.732.5.5,0,0,0,.576.7.353.353,0,0,0,.7.611.381.381,0,0,0,.775.472.856.856,0,0,0,.81.3,1.967,1.967,0,0,0,.819.094V-1.822A1.815,1.815,0,0,0,.8-2.076a.685.685,0,0,0-.06-.192A.293.293,0,0,0,.611-2.4a.512.512,0,0,0-.227-.044A.514.514,0,0,0,.157-2.4a.282.282,0,0,0-.133.134.645.645,0,0,0-.059.192,1.815,1.815,0,0,0-.015.254V.094A2,2,0,0,0-.042.3.954.954,0,0,0-.006.472.362.362,0,0,0,.067.611.332.332,0,0,0,.192.7m.192.6A1.127,1.127,0,0,1-.549.947,1.634,1.634,0,0,1-.83-.087V-1.643a2.325,2.325,0,0,1,.063-.583,1.143,1.143,0,0,1,.2-.426.844.844,0,0,1,.378-.271,1.59,1.59,0,0,1,.569-.09,1.134,1.134,0,0,1,.931.347A1.585,1.585,0,0,1,1.6-1.643V-.087a2.341,2.341,0,0,1-.065.581,1.2,1.2,0,0,1-.206.434.872.872,0,0,1-.378.278A1.5,1.5,0,0,1,.385,1.3" transform="translate(0.83 3.013)" fill="#fff"/>
      </g>
    </g>
    <g id="Group_25771" data-name="Group 25771" transform="translate(45.389 -35.005)">
      <path id="Path_5812" data-name="Path 5812" d="M0,.793V-3.422H.528L1.561-1.035V-3.422H2.2V.793h-.5L.65-1.716V.793Z" transform="translate(0 3.422)" fill="#fff"/>
    </g>
    <g id="Group_25775" data-name="Group 25775" transform="translate(0 -47.133)" clip-path="url(#clip-path)">
      <g id="Group_25772" data-name="Group 25772" transform="translate(18.107 23.495)">
        <path id="Path_5813" data-name="Path 5813" d="M3.775.864A2.616,2.616,0,0,0,1.784.985c-2.616,1.061-4.4,1.441-7.148.58C-7.1,1.023-8.717-.114-10.634.578a10.837,10.837,0,0,1-3.894.882l-.83-4.257H4.372ZM-2.913,13.506a3.384,3.384,0,0,1-2.515.878,3.388,3.388,0,0,1-2.519-.878,3.735,3.735,0,0,1-.466-4.555c.34-.636,2.765-4.279,2.975-4.59V4.337l.01.012.009-.012v.025c.2.31,2.634,3.954,2.972,4.59a3.735,3.735,0,0,1-.466,4.555M5.236-3.643a.255.255,0,0,0-.191-.084H-16.037a.252.252,0,0,0-.19.084.25.25,0,0,0-.053.2l3.542,21.422a.247.247,0,0,0,.244.207h4.346l.3,3.489-1.829,0,4.256,4.256,4.267-4.266-1.829,0,.3-3.484H1.735a.244.244,0,0,0,.243-.211L5.291-3.444a.256.256,0,0,0-.055-.2" transform="translate(16.283 3.727)" fill="#fff"/>
      </g>
      <g id="Group_25773" data-name="Group 25773" transform="translate(65.044 -0.001)">
        <path id="Path_5814" data-name="Path 5814" d="M10.887,9.573A6.983,6.983,0,0,1,3.9,16.556H-39.976a6.983,6.983,0,0,1-6.983-6.983V-34.305a6.984,6.984,0,0,1,6.983-6.985H3.9a6.984,6.984,0,0,1,6.983,6.985Z" transform="translate(46.959 41.29)" fill="#ff6722"/>
      </g>
      <g id="Group_25774" data-name="Group 25774" transform="translate(69.572 4.895)">
        <path id="Path_5815" data-name="Path 5815" d="M.712.92V-.837A3.04,3.04,0,0,0,.536-1.98.641.641,0,0,0-.1-2.4a.635.635,0,0,0-.653.456A4.647,4.647,0,0,0-.921-.5,10.76,10.76,0,0,0-.88.586a1.156,1.156,0,0,0,.224.606.677.677,0,0,0,.565.232.9.9,0,0,0,.8-.5M-2.235,6.647A3.077,3.077,0,0,1-2.9,4.529V4.365H-.907A2.565,2.565,0,0,0-.751,5.427.651.651,0,0,0-.1,5.741a.632.632,0,0,0,.511-.2,1.382,1.382,0,0,0,.238-.674A10.13,10.13,0,0,0,.712,3.507V2.391a1.192,1.192,0,0,1-.558.471,2.156,2.156,0,0,1-.886.17,1.944,1.944,0,0,1-1.784-.9A4.475,4.475,0,0,1-3.073-.25q0-3.718,2.969-3.718a2.656,2.656,0,0,1,2.247.939A4.161,4.161,0,0,1,2.864-.441V3.576A4.993,4.993,0,0,1,2.2,6.354a2.58,2.58,0,0,1-2.322.994,2.769,2.769,0,0,1-2.118-.7" transform="translate(3.073 3.968)" fill="#fff"/>
      </g>
    </g>
    <path id="Path_5817" data-name="Path 5817" d="M63.289-38.9h.759v-4.215h-.759Z" transform="translate(14.673 0.931)" fill="#fff"/>
    <g id="Group_25776" data-name="Group 25776" transform="translate(79.097 -42.184)">
      <path id="Path_5818" data-name="Path 5818" d="M0,.793V-3.422H.528L1.561-1.035V-3.422H2.2V.793h-.5L.65-1.716V.793Z" transform="translate(0 3.422)" fill="#fff"/>
    </g>
    <g id="Group_25780" data-name="Group 25780" transform="translate(0 -47.133)" clip-path="url(#clip-path)">
      <g id="Group_25777" data-name="Group 25777" transform="translate(81.654 4.95)">
        <path id="Path_5819" data-name="Path 5819" d="M.144.692H.364a.887.887,0,0,0,.2-.02A.849.849,0,0,0,.709.623a.24.24,0,0,0,.1-.091A.746.746,0,0,0,.866.415.691.691,0,0,0,.9.253C.9.181.908.119.909.068s0-.126,0-.227V-1.7c0-.1,0-.181,0-.241a1.2,1.2,0,0,0-.023-.185.379.379,0,0,0-.057-.143.393.393,0,0,0-.1-.094.408.408,0,0,0-.153-.058,1.266,1.266,0,0,0-.222-.017H.144Zm-.767.538V-2.984H.358A2.248,2.248,0,0,1,1-2.908a.9.9,0,0,1,.411.241.932.932,0,0,1,.219.405,2.3,2.3,0,0,1,.065.591V-.15a2.427,2.427,0,0,1-.067.612A1.048,1.048,0,0,1,1.41.89a.886.886,0,0,1-.4.259,2.04,2.04,0,0,1-.618.081Z" transform="translate(0.623 2.984)" fill="#fff"/>
      </g>
      <g id="Group_25778" data-name="Group 25778" transform="translate(84.23 4.949)">
        <path id="Path_5820" data-name="Path 5820" d="M.223.8A1.608,1.608,0,0,1-.266.736.913.913,0,0,1-.607.552.86.86,0,0,1-.82.245a1.614,1.614,0,0,1-.112-.4A3.566,3.566,0,0,1-.964-.664v-2.8h.745V-.585c0,.1,0,.182.007.253a1.466,1.466,0,0,0,.033.218A.519.519,0,0,0-.105.069.368.368,0,0,0,.024.183a.419.419,0,0,0,.2.044.419.419,0,0,0,.2-.044A.349.349,0,0,0,.55.069.57.57,0,0,0,.621-.115,1.476,1.476,0,0,0,.655-.332c0-.069.006-.154.006-.254V-3.463h.745v2.8a3.566,3.566,0,0,1-.032.505,1.563,1.563,0,0,1-.112.4A.874.874,0,0,1,1.05.552.917.917,0,0,1,.71.736,1.6,1.6,0,0,1,.223.8" transform="translate(0.964 3.463)" fill="#fff"/>
      </g>
      <g id="Group_25779" data-name="Group 25779" transform="translate(86.82 4.901)">
        <path id="Path_5821" data-name="Path 5821" d="M.22.812Q-.892.812-.949-.474l.668-.14C-.264-.057-.1.222.2.222A.316.316,0,0,0,.458.116.45.45,0,0,0,.543-.171.811.811,0,0,0,.48-.494.9.9,0,0,0,.332-.733C.275-.794.2-.871.093-.963l-.554-.48a1.518,1.518,0,0,1-.363-.443,1.233,1.233,0,0,1-.119-.575,1,1,0,0,1,.288-.763A1.127,1.127,0,0,1,.136-3.5a1.23,1.23,0,0,1,.409.057.863.863,0,0,1,.293.16.829.829,0,0,1,.193.251,1.313,1.313,0,0,1,.116.31,2.428,2.428,0,0,1,.054.361l-.657.129c0-.085-.009-.159-.016-.222A1.349,1.349,0,0,0,.49-2.646.5.5,0,0,0,.417-2.8.308.308,0,0,0,.3-2.9a.345.345,0,0,0-.174-.028.364.364,0,0,0-.261.113.4.4,0,0,0-.09.276.62.62,0,0,0,.08.334A1.3,1.3,0,0,0,.1-1.92l.549.477A2.922,2.922,0,0,1,.891-1.2a2.123,2.123,0,0,1,.195.266,1.226,1.226,0,0,1,.14.331,1.465,1.465,0,0,1,.049.381A1,1,0,0,1,.984.525,1.036,1.036,0,0,1,.22.812" transform="translate(0.949 3.502)" fill="#fff"/>
      </g>
    </g>
    <g id="Group_25781" data-name="Group 25781" transform="translate(88.928 -42.184)">
      <path id="Path_5823" data-name="Path 5823" d="M.133.793V-2.855H-.574v-.567H1.584v.567H.9V.793Z" transform="translate(0.574 3.422)" fill="#fff"/>
    </g>
    <g id="Group_25783" data-name="Group 25783" transform="translate(0 -47.133)" clip-path="url(#clip-path)">
      <g id="Group_25782" data-name="Group 25782" transform="translate(91.152 4.949)">
        <path id="Path_5824" data-name="Path 5824" d="M.144.339H.33A.663.663,0,0,0,.815.193.693.693,0,0,0,.959-.3.741.741,0,0,0,.833-.786.58.58,0,0,0,.376-.933H.144ZM-.623,2.754V-1.461H.343a2.558,2.558,0,0,1,.572.055,1.111,1.111,0,0,1,.416.182.777.777,0,0,1,.264.349,1.437,1.437,0,0,1,.089.537A1.527,1.527,0,0,1,1.565.31a.723.723,0,0,1-.39.367l.585,2.077H.988L.486.83H.144V2.754Z" transform="translate(0.623 1.461)" fill="#fff"/>
      </g>
    </g>
    <g id="Group_25784" data-name="Group 25784" transform="translate(93.495 -42.184)">
      <path id="Path_5826" data-name="Path 5826" d="M.162.793v-1.6L-.7-3.422H.019L.54-1.744l.5-1.678h.71L.893-.811v1.6Z" transform="translate(0.697 3.422)" fill="#fff"/>
    </g>
    <g id="Group_25786" data-name="Group 25786" transform="translate(0 -47.133)" clip-path="url(#clip-path)">
      <g id="Group_25785" data-name="Group 25785" transform="translate(95.857 8.476)">
        <path id="Path_5827" data-name="Path 5827" d="M.021.264-.056,0A.445.445,0,0,0,.189-.157a.44.44,0,0,0,.1-.293H-.089v-.689h.7V-.5a.687.687,0,0,1-.59.763" transform="translate(0.089 1.139)" fill="#fff"/>
      </g>
    </g>
    <path id="Path_5829" data-name="Path 5829" d="M79.4-38.9h.759v-4.215H79.4Z" transform="translate(18.409 0.931)" fill="#fff"/>
    <g id="Group_25787" data-name="Group 25787" transform="translate(98.947 -42.184)">
      <path id="Path_5830" data-name="Path 5830" d="M0,.793V-3.422H.528L1.561-1.035V-3.422H2.2V.793h-.5L.65-1.716V.793Z" transform="translate(0 3.422)" fill="#fff"/>
    </g>
    <g id="Group_25788" data-name="Group 25788" transform="translate(101.503 -42.184)">
      <path id="Path_5831" data-name="Path 5831" d="M0,.793V-3.422H.528L1.561-1.035V-3.422H2.2V.793h-.5L.65-1.716V.793Z" transform="translate(0 3.422)" fill="#fff"/>
    </g>
    <g id="Group_25790" data-name="Group 25790" transform="translate(0 -47.133)" clip-path="url(#clip-path)">
      <g id="Group_25789" data-name="Group 25789" transform="translate(103.991 4.902)">
        <path id="Path_5832" data-name="Path 5832" d="M.193.7A.526.526,0,0,0,.385.732.519.519,0,0,0,.576.7.353.353,0,0,0,.7.611.381.381,0,0,0,.775.472.856.856,0,0,0,.81.3,1.967,1.967,0,0,0,.82.094V-1.822A1.815,1.815,0,0,0,.8-2.076a.685.685,0,0,0-.06-.192A.293.293,0,0,0,.611-2.4a.512.512,0,0,0-.227-.044A.518.518,0,0,0,.157-2.4a.282.282,0,0,0-.133.134.645.645,0,0,0-.059.192,1.815,1.815,0,0,0-.015.254V.094A2,2,0,0,0-.041.3.954.954,0,0,0-.006.472.362.362,0,0,0,.067.611.332.332,0,0,0,.193.7m.192.6A1.129,1.129,0,0,1-.549.947,1.634,1.634,0,0,1-.831-.087V-1.643a2.379,2.379,0,0,1,.064-.583,1.143,1.143,0,0,1,.2-.426.844.844,0,0,1,.378-.271,1.59,1.59,0,0,1,.569-.09,1.134,1.134,0,0,1,.931.347A1.585,1.585,0,0,1,1.6-1.643V-.087a2.341,2.341,0,0,1-.065.581,1.2,1.2,0,0,1-.207.434.861.861,0,0,1-.377.278A1.528,1.528,0,0,1,.385,1.3" transform="translate(0.831 3.013)" fill="#fff"/>
      </g>
    </g>
    <g id="Group_25791" data-name="Group 25791" transform="translate(106.517 -42.184)">
      <path id="Path_5834" data-name="Path 5834" d="M.161.793-.693-3.422h.681L.543-.488l.524-2.934h.7L.9.793Z" transform="translate(0.693 3.422)" fill="#fff"/>
    </g>
    <g id="Group_25792" data-name="Group 25792" transform="translate(108.778 -42.184)">
      <path id="Path_5835" data-name="Path 5835" d="M.184.515H.748L.466-1.216ZM-.8,1.994.062-2.221h.8l.854,4.215H1l-.17-.978H.1l-.174.978Z" transform="translate(0.795 2.221)" fill="#fff"/>
    </g>
    <g id="Group_25793" data-name="Group 25793" transform="translate(110.991 -42.184)">
      <path id="Path_5836" data-name="Path 5836" d="M.133.793V-2.855H-.574v-.567H1.584v.567H.9V.793Z" transform="translate(0.574 3.422)" fill="#fff"/>
    </g>
    <path id="Path_5837" data-name="Path 5837" d="M91.926-38.9h.758v-4.215h-.758Z" transform="translate(21.312 0.931)" fill="#fff"/>
    <g id="Group_25795" data-name="Group 25795" transform="translate(0 -47.133)" clip-path="url(#clip-path)">
      <g id="Group_25794" data-name="Group 25794" transform="translate(114.305 4.902)">
        <path id="Path_5838" data-name="Path 5838" d="M.192.7A.526.526,0,0,0,.385.732.519.519,0,0,0,.576.7.353.353,0,0,0,.7.611.381.381,0,0,0,.775.472.856.856,0,0,0,.81.3,1.967,1.967,0,0,0,.819.094V-1.822A1.815,1.815,0,0,0,.8-2.076a.685.685,0,0,0-.06-.192A.293.293,0,0,0,.611-2.4a.512.512,0,0,0-.227-.044A.518.518,0,0,0,.157-2.4a.282.282,0,0,0-.133.134.645.645,0,0,0-.059.192,1.815,1.815,0,0,0-.015.254V.094A2,2,0,0,0-.042.3.954.954,0,0,0-.006.472.362.362,0,0,0,.067.611.332.332,0,0,0,.192.7m.192.6A1.129,1.129,0,0,1-.549.947,1.634,1.634,0,0,1-.83-.087V-1.643a2.384,2.384,0,0,1,.063-.583,1.143,1.143,0,0,1,.2-.426.844.844,0,0,1,.378-.271,1.59,1.59,0,0,1,.569-.09,1.134,1.134,0,0,1,.931.347A1.585,1.585,0,0,1,1.6-1.643V-.087a2.341,2.341,0,0,1-.065.581,1.2,1.2,0,0,1-.207.434.861.861,0,0,1-.377.278A1.528,1.528,0,0,1,.385,1.3" transform="translate(0.83 3.013)" fill="#fff"/>
      </g>
    </g>
    <g id="Group_25796" data-name="Group 25796" transform="translate(117.025 -42.184)">
      <path id="Path_5840" data-name="Path 5840" d="M0,.793V-3.422H.528L1.561-1.035V-3.422H2.2V.793h-.5L.65-1.716V.793Z" transform="translate(0 3.422)" fill="#fff"/>
    </g>
    <g id="Group_25797" data-name="Group 25797" transform="translate(77.72 -35.295)">
      <path id="Path_5841" data-name="Path 5841" d="M.184.515H.748L.466-1.216ZM-.8,1.994.062-2.221h.8l.854,4.215H1l-.17-.978H.1l-.174.978Z" transform="translate(0.795 2.221)" fill="#fff"/>
    </g>
    <g id="Group_25798" data-name="Group 25798" transform="translate(80.443 -35.295)">
      <path id="Path_5842" data-name="Path 5842" d="M0,.793V-3.422H.528L1.561-1.035V-3.422H2.2V.793h-.5L.65-1.716V.793Z" transform="translate(0 3.422)" fill="#fff"/>
    </g>
    <g id="Group_25800" data-name="Group 25800" transform="translate(0 -47.133)" clip-path="url(#clip-path)">
      <g id="Group_25799" data-name="Group 25799" transform="translate(83.068 11.839)">
        <path id="Path_5843" data-name="Path 5843" d="M.144.692H.364a.887.887,0,0,0,.2-.02A.849.849,0,0,0,.709.623a.232.232,0,0,0,.1-.091A.746.746,0,0,0,.866.415.691.691,0,0,0,.9.253C.9.181.908.119.909.068s0-.126,0-.225V-1.7c0-.1,0-.18,0-.241a1.223,1.223,0,0,0-.023-.185.379.379,0,0,0-.057-.143.393.393,0,0,0-.1-.094.408.408,0,0,0-.153-.058,1.266,1.266,0,0,0-.222-.017H.144Zm-.767.538V-2.984H.358A2.248,2.248,0,0,1,1-2.908a.9.9,0,0,1,.411.241.932.932,0,0,1,.219.405,2.307,2.307,0,0,1,.065.591V-.15a2.427,2.427,0,0,1-.067.612A1.048,1.048,0,0,1,1.41.89a.886.886,0,0,1-.4.259,2.04,2.04,0,0,1-.618.081Z" transform="translate(0.623 2.984)" fill="#fff"/>
      </g>
    </g>
    <path id="Path_5845" data-name="Path 5845" d="M70.493-33.308h.759v-4.215h-.759Z" transform="translate(16.343 2.228)" fill="#fff"/>
    <g id="Group_25801" data-name="Group 25801" transform="translate(88.039 -35.295)">
      <path id="Path_5846" data-name="Path 5846" d="M0,.793V-3.422H.528L1.561-1.035V-3.422H2.2V.793h-.5L.65-1.716V.793Z" transform="translate(0 3.422)" fill="#fff"/>
    </g>
    <g id="Group_25802" data-name="Group 25802" transform="translate(90.663 -35.295)">
      <path id="Path_5847" data-name="Path 5847" d="M0,.793V-3.422H1.731v.532H.767v1.224h.771v.542H.767V.793Z" transform="translate(0 3.422)" fill="#fff"/>
    </g>
    <g id="Group_25804" data-name="Group 25804" transform="translate(0 -47.133)" clip-path="url(#clip-path)">
      <g id="Group_25803" data-name="Group 25803" transform="translate(92.595 11.839)">
        <path id="Path_5848" data-name="Path 5848" d="M.144.339H.329A.665.665,0,0,0,.815.193.7.7,0,0,0,.959-.3.741.741,0,0,0,.833-.786.576.576,0,0,0,.376-.933H.144ZM-.623,2.753V-1.461H.343a2.64,2.64,0,0,1,.572.054,1.133,1.133,0,0,1,.416.184.767.767,0,0,1,.264.347,1.444,1.444,0,0,1,.089.538A1.527,1.527,0,0,1,1.565.31a.725.725,0,0,1-.39.366l.584,2.077H.988L.486.829H.144V2.753Z" transform="translate(0.623 1.461)" fill="#fff"/>
      </g>
    </g>
    <g id="Group_25805" data-name="Group 25805" transform="translate(95.061 -35.295)">
      <path id="Path_5850" data-name="Path 5850" d="M.184.515H.748L.466-1.216ZM-.8,1.994.062-2.221h.8l.854,4.215H1l-.17-.978H.1l-.174.978Z" transform="translate(0.795 2.221)" fill="#fff"/>
    </g>
    <g id="Group_25807" data-name="Group 25807" transform="translate(0 -47.133)" clip-path="url(#clip-path)">
      <g id="Group_25806" data-name="Group 25806" transform="translate(97.678 11.79)">
        <path id="Path_5851" data-name="Path 5851" d="M.22.812Q-.892.812-.949-.474l.668-.14Q-.255.222.2.222A.313.313,0,0,0,.458.115.444.444,0,0,0,.543-.171.811.811,0,0,0,.48-.494.9.9,0,0,0,.332-.733C.275-.794.2-.871.093-.963l-.554-.48a1.538,1.538,0,0,1-.363-.443,1.233,1.233,0,0,1-.119-.575,1,1,0,0,1,.288-.763A1.127,1.127,0,0,1,.136-3.5a1.23,1.23,0,0,1,.409.057.863.863,0,0,1,.293.16.829.829,0,0,1,.193.251,1.293,1.293,0,0,1,.116.31,2.428,2.428,0,0,1,.054.361l-.657.129c0-.085-.009-.159-.016-.222A1.349,1.349,0,0,0,.49-2.646.5.5,0,0,0,.417-2.8.308.308,0,0,0,.3-2.9a.345.345,0,0,0-.174-.028.364.364,0,0,0-.261.113.4.4,0,0,0-.09.276.62.62,0,0,0,.08.334A1.3,1.3,0,0,0,.1-1.92l.549.477A2.922,2.922,0,0,1,.891-1.2a2.123,2.123,0,0,1,.195.266,1.226,1.226,0,0,1,.14.331,1.414,1.414,0,0,1,.049.381A1,1,0,0,1,.984.525,1.036,1.036,0,0,1,.22.812" transform="translate(0.949 3.502)" fill="#fff"/>
      </g>
    </g>
    <g id="Group_25808" data-name="Group 25808" transform="translate(99.854 -35.295)">
      <path id="Path_5853" data-name="Path 5853" d="M.133.793V-2.855H-.574v-.567H1.584v.567H.9V.793Z" transform="translate(0.574 3.422)" fill="#fff"/>
    </g>
    <g id="Group_25812" data-name="Group 25812" transform="translate(0 -47.133)" clip-path="url(#clip-path)">
      <g id="Group_25809" data-name="Group 25809" transform="translate(102.145 11.839)">
        <path id="Path_5854" data-name="Path 5854" d="M.144.339H.33A.663.663,0,0,0,.815.193.7.7,0,0,0,.959-.3.741.741,0,0,0,.833-.786.576.576,0,0,0,.376-.933H.144ZM-.623,2.753V-1.461H.343a2.64,2.64,0,0,1,.572.054,1.133,1.133,0,0,1,.416.184.767.767,0,0,1,.264.347,1.444,1.444,0,0,1,.089.538A1.527,1.527,0,0,1,1.565.31a.725.725,0,0,1-.39.366l.585,2.077H.988L.484.829H.144V2.753Z" transform="translate(0.623 1.461)" fill="#fff"/>
      </g>
      <g id="Group_25810" data-name="Group 25810" transform="translate(104.797 11.838)">
        <path id="Path_5855" data-name="Path 5855" d="M.223.8A1.608,1.608,0,0,1-.266.736.913.913,0,0,1-.607.552.86.86,0,0,1-.82.245a1.614,1.614,0,0,1-.112-.4A3.566,3.566,0,0,1-.964-.664v-2.8h.745V-.585c0,.1,0,.182.007.253a1.466,1.466,0,0,0,.033.218A.519.519,0,0,0-.105.069.353.353,0,0,0,.024.182a.4.4,0,0,0,.2.046.4.4,0,0,0,.2-.046A.336.336,0,0,0,.55.069.57.57,0,0,0,.621-.115,1.476,1.476,0,0,0,.655-.332c0-.069.006-.154.006-.254V-3.463h.745v2.8a3.566,3.566,0,0,1-.032.505,1.563,1.563,0,0,1-.112.4A.874.874,0,0,1,1.05.552.917.917,0,0,1,.71.736,1.6,1.6,0,0,1,.223.8" transform="translate(0.964 3.463)" fill="#fff"/>
      </g>
      <g id="Group_25811" data-name="Group 25811" transform="translate(107.492 11.79)">
        <path id="Path_5856" data-name="Path 5856" d="M.226.812A1.507,1.507,0,0,1-.255.743.94.94,0,0,1-.6.552.938.938,0,0,1-.82.25,1.451,1.451,0,0,1-.94-.138,2.8,2.8,0,0,1-.974-.6v-1.47a3.014,3.014,0,0,1,.036-.488,1.5,1.5,0,0,1,.119-.393.859.859,0,0,1,.219-.3.992.992,0,0,1,.344-.184A1.615,1.615,0,0,1,.226-3.5a1.544,1.544,0,0,1,.538.084.794.794,0,0,1,.354.246,1.022,1.022,0,0,1,.188.381,1.937,1.937,0,0,1,.059.506v.361H.625v-.358a1.739,1.739,0,0,0-.033-.424.321.321,0,0,0-.323-.229H.228a.537.537,0,0,0-.169.023.262.262,0,0,0-.118.071.457.457,0,0,0-.074.106.524.524,0,0,0-.042.147q-.013.091-.018.166c0,.051,0,.116,0,.193V-.443A1.109,1.109,0,0,0-.1.085.353.353,0,0,0,.228.243.469.469,0,0,0,.372.223a.351.351,0,0,0,.1-.048A.241.241,0,0,0,.547.091a.584.584,0,0,0,.044-.1A.613.613,0,0,0,.615-.142c0-.055.007-.1.009-.142s0-.092,0-.16V-.82h.74v.346a2.435,2.435,0,0,1-.033.424A1.349,1.349,0,0,1,1.219.3a.821.821,0,0,1-.207.275A.926.926,0,0,1,.687.75,1.574,1.574,0,0,1,.226.812" transform="translate(0.974 3.502)" fill="#fff"/>
      </g>
    </g>
    <g id="Group_25813" data-name="Group 25813" transform="translate(109.864 -35.295)">
      <path id="Path_5858" data-name="Path 5858" d="M.133.793V-2.855H-.574v-.567H1.584v.567H.9V.793Z" transform="translate(0.574 3.422)" fill="#fff"/>
    </g>
    <g id="Group_25816" data-name="Group 25816" transform="translate(0 -47.133)" clip-path="url(#clip-path)">
      <g id="Group_25814" data-name="Group 25814" transform="translate(112.122 11.838)">
        <path id="Path_5859" data-name="Path 5859" d="M.223.8A1.6,1.6,0,0,1-.266.736.913.913,0,0,1-.607.552.86.86,0,0,1-.82.245a1.614,1.614,0,0,1-.112-.4A3.566,3.566,0,0,1-.964-.664v-2.8h.745V-.585c0,.1,0,.182.007.253a1.466,1.466,0,0,0,.033.218A.519.519,0,0,0-.105.069.353.353,0,0,0,.024.182a.4.4,0,0,0,.2.046.4.4,0,0,0,.2-.046A.336.336,0,0,0,.55.069.57.57,0,0,0,.621-.115,1.476,1.476,0,0,0,.655-.332c0-.069.006-.154.006-.254V-3.463h.745v2.8a3.566,3.566,0,0,1-.032.505,1.563,1.563,0,0,1-.112.4A.874.874,0,0,1,1.05.552.917.917,0,0,1,.71.736,1.6,1.6,0,0,1,.223.8" transform="translate(0.964 3.463)" fill="#fff"/>
      </g>
      <g id="Group_25815" data-name="Group 25815" transform="translate(114.886 11.839)">
        <path id="Path_5860" data-name="Path 5860" d="M.144.339H.329A.665.665,0,0,0,.815.193.7.7,0,0,0,.959-.3.741.741,0,0,0,.833-.786.576.576,0,0,0,.376-.933H.144ZM-.623,2.753V-1.461H.343a2.64,2.64,0,0,1,.572.054,1.133,1.133,0,0,1,.416.184.767.767,0,0,1,.264.347,1.444,1.444,0,0,1,.089.538A1.527,1.527,0,0,1,1.565.31a.725.725,0,0,1-.39.366l.584,2.077H.988L.486.829H.144V2.753Z" transform="translate(0.623 1.461)" fill="#fff"/>
      </g>
    </g>
    <g id="Group_25817" data-name="Group 25817" transform="translate(117.571 -35.295)">
      <path id="Path_5862" data-name="Path 5862" d="M0,.793V-3.422H1.764v.542h-1v1.21h.788v.542H.767V.262h1.01V.793Z" transform="translate(0 3.422)" fill="#fff"/>
    </g>
    <g id="Group_25823" data-name="Group 25823" transform="translate(0 -47.133)" clip-path="url(#clip-path)">
      <g id="Group_25818" data-name="Group 25818" transform="translate(79.534 21.505)">
        <path id="Path_5863" data-name="Path 5863" d="M5.377,4.694l-6.2,3.578V1.113l6.2-3.58ZM-15.108,8.273V1.658l5.729,3.309Zm-.942,0-6.2-3.578V-2.466l6.2,3.58Zm6.672-19.8-5.729,3.309v-6.616Zm7.613,3.309L-7.494-11.53l5.728-3.307ZM-7.494-3.283l6.2-3.578,6.2,3.578L-1.3.3ZM-8.907-4.1-14.638-7.4l5.731-3.309ZM-2.238-7.4-7.966-4.1v-6.615ZM-8.907,4.15-14.638.842l5.731-3.309ZM6.084-3.691-.824-7.678v-7.975a.474.474,0,0,0-.235-.409L-8.2-20.185a.472.472,0,0,0-.471,0l-7.143,4.123a.474.474,0,0,0-.235.409v7.975l-6.907,3.987a.469.469,0,0,0-.235.408v8.25a.471.471,0,0,0,.235.408L-15.816,9.5a.474.474,0,0,0,.235.063.468.468,0,0,0,.235-.063L-8.437,5.51-1.531,9.5A.478.478,0,0,0-1.3,9.56.476.476,0,0,0-1.059,9.5L6.084,5.374a.469.469,0,0,0,.235-.408v-8.25a.469.469,0,0,0-.235-.408" transform="translate(23.193 20.248)" fill="#fff"/>
      </g>
      <g id="Group_25819" data-name="Group 25819" transform="translate(130.087 0.214)">
        <path id="Path_5864" data-name="Path 5864" d="M10.887,9.573A6.983,6.983,0,0,1,3.9,16.556H-39.976a6.983,6.983,0,0,1-6.983-6.983V-34.305a6.984,6.984,0,0,1,6.983-6.985H3.9a6.984,6.984,0,0,1,6.983,6.985Z" transform="translate(46.959 41.29)" fill="#ee338f"/>
      </g>
      <g id="Group_25820" data-name="Group 25820" transform="translate(133.535 5.246)">
        <path id="Path_5865" data-name="Path 5865" d="M.3.41A9.2,9.2,0,0,1-.572.75q-.571.192-.721.259V-.557A9.16,9.16,0,0,0-.17-1.1a3.816,3.816,0,0,0,.933-.668H2.411V9.261H.3Z" transform="translate(1.293 1.769)" fill="#fff"/>
      </g>
      <g id="Group_25821" data-name="Group 25821" transform="translate(138.328 5.096)">
        <path id="Path_5866" data-name="Path 5866" d="M.707,1.533V-3.328A2.894,2.894,0,0,0,.551-4.349.623.623,0,0,0-.1-4.758a.631.631,0,0,0-.668.4A2.993,2.993,0,0,0-.913-3.328V1.533c0,.916.271,1.375.817,1.375s.8-.458.8-1.375M-2.3,3.9a3.409,3.409,0,0,1-.755-2.322V-3.37a3.549,3.549,0,0,1,.735-2.375A2.748,2.748,0,0,1-.1-6.611a2.734,2.734,0,0,1,2.206.866A3.555,3.555,0,0,1,2.845-3.37V1.573a3.391,3.391,0,0,1-.763,2.316A2.74,2.74,0,0,1-.1,4.76,2.766,2.766,0,0,1-2.3,3.9" transform="translate(3.051 6.611)" fill="#fff"/>
      </g>
      <g id="Group_25822" data-name="Group 25822" transform="translate(148.574 5.24)">
        <path id="Path_5867" data-name="Path 5867" d="M.144.339H.33A.658.658,0,0,0,.813.193.685.685,0,0,0,.957-.3.741.741,0,0,0,.833-.786.58.58,0,0,0,.376-.933H.144ZM-.623,2.754V-1.461H.343a2.558,2.558,0,0,1,.572.055,1.111,1.111,0,0,1,.416.182.777.777,0,0,1,.264.349,1.437,1.437,0,0,1,.089.537A1.507,1.507,0,0,1,1.564.31a.72.72,0,0,1-.389.367l.585,2.077H.988L.484.83H.144V2.754Z" transform="translate(0.623 1.461)" fill="#fff"/>
      </g>
    </g>
    <g id="Group_25824" data-name="Group 25824" transform="translate(151.326 -41.893)">
      <path id="Path_5869" data-name="Path 5869" d="M0,.793V-3.422H1.764v.542h-1v1.21h.788v.542H.767V.262h1.01V.793Z" transform="translate(0 3.422)" fill="#fff"/>
    </g>
    <g id="Group_25828" data-name="Group 25828" transform="translate(0 -47.133)" clip-path="url(#clip-path)">
      <g id="Group_25825" data-name="Group 25825" transform="translate(153.41 5.24)">
        <path id="Path_5870" data-name="Path 5870" d="M.144.692H.362a.872.872,0,0,0,.2-.02A.829.829,0,0,0,.709.623a.24.24,0,0,0,.1-.091A.746.746,0,0,0,.866.415.691.691,0,0,0,.9.253C.9.181.908.119.909.068s0-.126,0-.225V-1.7c0-.1,0-.181,0-.241a1.378,1.378,0,0,0-.023-.185.379.379,0,0,0-.057-.143.393.393,0,0,0-.1-.094.416.416,0,0,0-.153-.058,1.266,1.266,0,0,0-.222-.017H.144Zm-.767.538V-2.984H.358A2.244,2.244,0,0,1,1-2.908a.887.887,0,0,1,.411.241.921.921,0,0,1,.22.405,2.3,2.3,0,0,1,.065.591V-.15a2.427,2.427,0,0,1-.067.612A1.064,1.064,0,0,1,1.41.89a.883.883,0,0,1-.4.259,2.026,2.026,0,0,1-.617.081Z" transform="translate(0.623 2.984)" fill="#fff"/>
      </g>
      <g id="Group_25826" data-name="Group 25826" transform="translate(156.121 5.24)">
        <path id="Path_5871" data-name="Path 5871" d="M.223.8A1.6,1.6,0,0,1-.266.736.913.913,0,0,1-.607.552.86.86,0,0,1-.82.245a1.614,1.614,0,0,1-.112-.4A3.566,3.566,0,0,1-.964-.664v-2.8h.745V-.585c0,.1,0,.182.007.253a1.466,1.466,0,0,0,.033.218A.5.5,0,0,0-.105.069.368.368,0,0,0,.024.183a.419.419,0,0,0,.2.044.419.419,0,0,0,.2-.044A.349.349,0,0,0,.55.069.6.6,0,0,0,.621-.115,1.476,1.476,0,0,0,.655-.332c0-.069.006-.153.006-.254V-3.463h.745v2.8a3.566,3.566,0,0,1-.032.505,1.614,1.614,0,0,1-.112.4A.89.89,0,0,1,1.05.552.917.917,0,0,1,.71.736,1.6,1.6,0,0,1,.223.8" transform="translate(0.964 3.463)" fill="#fff"/>
      </g>
      <g id="Group_25827" data-name="Group 25827" transform="translate(158.885 5.192)">
        <path id="Path_5872" data-name="Path 5872" d="M.226.812A1.507,1.507,0,0,1-.255.743.94.94,0,0,1-.6.552.938.938,0,0,1-.82.25,1.451,1.451,0,0,1-.94-.138,2.8,2.8,0,0,1-.974-.6v-1.47a3.025,3.025,0,0,1,.036-.488,1.5,1.5,0,0,1,.119-.393.859.859,0,0,1,.219-.3.992.992,0,0,1,.344-.184A1.615,1.615,0,0,1,.226-3.5a1.549,1.549,0,0,1,.538.084.794.794,0,0,1,.354.246,1.022,1.022,0,0,1,.188.381,1.937,1.937,0,0,1,.059.506v.361H.625v-.358a1.739,1.739,0,0,0-.033-.424.321.321,0,0,0-.323-.229H.228a.537.537,0,0,0-.169.023.262.262,0,0,0-.118.071.457.457,0,0,0-.074.106.524.524,0,0,0-.042.147c-.009.06-.015.116-.017.166s0,.116,0,.193V-.443A1.109,1.109,0,0,0-.1.085.353.353,0,0,0,.228.243.469.469,0,0,0,.372.223a.351.351,0,0,0,.1-.048A.241.241,0,0,0,.547.091a.584.584,0,0,0,.044-.1A.613.613,0,0,0,.615-.142c0-.055.007-.1.009-.142s0-.092,0-.16V-.82h.74v.346a2.435,2.435,0,0,1-.033.424A1.349,1.349,0,0,1,1.219.3a.821.821,0,0,1-.207.275A.926.926,0,0,1,.687.75,1.574,1.574,0,0,1,.226.812" transform="translate(0.974 3.502)" fill="#fff"/>
      </g>
    </g>
    <g id="Group_25829" data-name="Group 25829" transform="translate(161.619 -41.893)">
      <path id="Path_5874" data-name="Path 5874" d="M0,.793V-3.422H1.764v.542h-1v1.21h.788v.542H.767V.262h1.01V.793Z" transform="translate(0 3.422)" fill="#fff"/>
    </g>
    <g id="Group_25831" data-name="Group 25831" transform="translate(0 -47.133)" clip-path="url(#clip-path)">
      <g id="Group_25830" data-name="Group 25830" transform="translate(163.704 5.24)">
        <path id="Path_5875" data-name="Path 5875" d="M.144.692H.362a.872.872,0,0,0,.2-.02A.829.829,0,0,0,.709.623a.24.24,0,0,0,.1-.091A.746.746,0,0,0,.866.415.691.691,0,0,0,.9.253C.9.181.908.119.909.068s0-.126,0-.225V-1.7c0-.1,0-.181,0-.241a1.378,1.378,0,0,0-.023-.185.379.379,0,0,0-.057-.143.393.393,0,0,0-.1-.094.416.416,0,0,0-.153-.058,1.266,1.266,0,0,0-.222-.017H.144Zm-.767.538V-2.984H.358A2.244,2.244,0,0,1,1-2.908a.887.887,0,0,1,.411.241.921.921,0,0,1,.22.405,2.3,2.3,0,0,1,.065.591V-.15a2.427,2.427,0,0,1-.067.612A1.064,1.064,0,0,1,1.41.89a.883.883,0,0,1-.4.259,2.026,2.026,0,0,1-.617.081Z" transform="translate(0.623 2.984)" fill="#fff"/>
      </g>
    </g>
    <path id="Path_5877" data-name="Path 5877" d="M120.63-33.072h.758v-4.215h-.758Z" transform="translate(27.966 2.283)" fill="#fff"/>
    <g id="Group_25832" data-name="Group 25832" transform="translate(149.867 -35.005)">
      <path id="Path_5878" data-name="Path 5878" d="M0,.793V-3.422H.528L1.561-1.035V-3.422H2.2V.793h-.5L.65-1.716V.793Z" transform="translate(0 3.422)" fill="#fff"/>
    </g>
    <g id="Group_25833" data-name="Group 25833" transform="translate(152.558 -35.005)">
      <path id="Path_5879" data-name="Path 5879" d="M0,.793V-3.422H1.764v.542h-1v1.21h.788v.542H.767V.262h1.01V.793Z" transform="translate(0 3.422)" fill="#fff"/>
    </g>
    <g id="Group_25836" data-name="Group 25836" transform="translate(0 -47.133)" clip-path="url(#clip-path)">
      <g id="Group_25834" data-name="Group 25834" transform="translate(154.573 12.081)">
        <path id="Path_5880" data-name="Path 5880" d="M.193.7A.5.5,0,0,0,.385.732.484.484,0,0,0,.575.7.36.36,0,0,0,.7.612.378.378,0,0,0,.774.472.767.767,0,0,0,.81.3,1.949,1.949,0,0,0,.82.094V-1.822A1.792,1.792,0,0,0,.8-2.076a.645.645,0,0,0-.059-.192A.3.3,0,0,0,.61-2.4a.5.5,0,0,0-.225-.044A.514.514,0,0,0,.157-2.4a.282.282,0,0,0-.133.134.645.645,0,0,0-.059.192,1.815,1.815,0,0,0-.015.254V.094A1.984,1.984,0,0,0-.041.3.842.842,0,0,0-.006.472a.378.378,0,0,0,.073.14A.334.334,0,0,0,.193.7m1.089,1.4a1.549,1.549,0,0,1-.42-.32A3.035,3.035,0,0,1,.471,1.3c-.018,0-.048,0-.086,0A1.129,1.129,0,0,1-.549.947,1.634,1.634,0,0,1-.831-.087V-1.643a2.386,2.386,0,0,1,.064-.583,1.133,1.133,0,0,1,.2-.426.847.847,0,0,1,.377-.271,1.6,1.6,0,0,1,.57-.09,1.131,1.131,0,0,1,.931.349A1.582,1.582,0,0,1,1.6-1.643V-.087C1.6.568,1.4.988,1.014,1.176a1.993,1.993,0,0,0,.41.4Z" transform="translate(0.831 3.013)" fill="#fff"/>
      </g>
      <g id="Group_25835" data-name="Group 25835" transform="translate(157.397 12.129)">
        <path id="Path_5881" data-name="Path 5881" d="M.223.8A1.6,1.6,0,0,1-.266.736.913.913,0,0,1-.607.552.86.86,0,0,1-.82.245a1.614,1.614,0,0,1-.112-.4A3.566,3.566,0,0,1-.964-.664v-2.8h.745V-.585c0,.1,0,.182.007.253a1.466,1.466,0,0,0,.033.218A.5.5,0,0,0-.105.069.368.368,0,0,0,.024.183a.419.419,0,0,0,.2.044.419.419,0,0,0,.2-.044A.349.349,0,0,0,.55.069.6.6,0,0,0,.621-.115,1.476,1.476,0,0,0,.655-.332c0-.069.006-.154.006-.254V-3.463h.745v2.8a3.566,3.566,0,0,1-.032.505,1.614,1.614,0,0,1-.112.4A.89.89,0,0,1,1.05.552.917.917,0,0,1,.71.736,1.6,1.6,0,0,1,.223.8" transform="translate(0.964 3.463)" fill="#fff"/>
      </g>
    </g>
    <g id="Group_25837" data-name="Group 25837" transform="translate(160.01 -35.005)">
      <path id="Path_5883" data-name="Path 5883" d="M.184.515H.748L.466-1.216ZM-.8,1.994.062-2.221h.8l.855,4.215H1l-.17-.978H.1l-.172.978Z" transform="translate(0.795 2.221)" fill="#fff"/>
    </g>
    <g id="Group_25838" data-name="Group 25838" transform="translate(162.801 -35.005)">
      <path id="Path_5884" data-name="Path 5884" d="M0,.793V-3.422H.767V.262h1.01V.793Z" transform="translate(0 3.422)" fill="#fff"/>
    </g>
    <path id="Path_5885" data-name="Path 5885" d="M133.843-33.072h.759v-4.215h-.759Z" transform="translate(31.03 2.283)" fill="#fff"/>
    <g id="Group_25839" data-name="Group 25839" transform="translate(165.848 -35.005)">
      <path id="Path_5886" data-name="Path 5886" d="M.133.793V-2.855H-.574v-.567H1.584v.567H.9V.793Z" transform="translate(0.574 3.422)" fill="#fff"/>
    </g>
    <path id="Path_5887" data-name="Path 5887" d="M136.568-33.072h.758v-4.215h-.758Z" transform="translate(31.661 2.283)" fill="#fff"/>
    <g id="Group_25840" data-name="Group 25840" transform="translate(169.5 -35.005)">
      <path id="Path_5888" data-name="Path 5888" d="M0,.793V-3.422H1.764v.542h-1v1.21h.788v.542H.767V.262h1.01V.793Z" transform="translate(0 3.422)" fill="#fff"/>
    </g>
    <g id="Group_25851" data-name="Group 25851" transform="translate(0 -47.133)" clip-path="url(#clip-path)">
      <g id="Group_25841" data-name="Group 25841" transform="translate(171.477 12.08)">
        <path id="Path_5889" data-name="Path 5889" d="M.22.812Q-.892.812-.949-.474l.669-.14C-.264-.057-.1.222.2.222A.314.314,0,0,0,.458.115.444.444,0,0,0,.543-.171.811.811,0,0,0,.48-.494.9.9,0,0,0,.332-.733a3.238,3.238,0,0,0-.239-.23l-.554-.48a1.538,1.538,0,0,1-.363-.443,1.233,1.233,0,0,1-.119-.575,1,1,0,0,1,.288-.763A1.127,1.127,0,0,1,.136-3.5a1.23,1.23,0,0,1,.409.057.882.882,0,0,1,.294.16.846.846,0,0,1,.192.251,1.293,1.293,0,0,1,.116.31,2.428,2.428,0,0,1,.054.361l-.657.129c0-.085-.009-.159-.016-.222A1.349,1.349,0,0,0,.49-2.646.5.5,0,0,0,.417-2.8.308.308,0,0,0,.3-2.9a.345.345,0,0,0-.174-.028.364.364,0,0,0-.261.113.4.4,0,0,0-.09.276.62.62,0,0,0,.08.334A1.3,1.3,0,0,0,.1-1.92l.549.477A2.922,2.922,0,0,1,.891-1.2a2.123,2.123,0,0,1,.195.266,1.226,1.226,0,0,1,.14.331,1.414,1.414,0,0,1,.049.381A1,1,0,0,1,.984.525,1.036,1.036,0,0,1,.22.812" transform="translate(0.949 3.502)" fill="#fff"/>
      </g>
      <g id="Group_25842" data-name="Group 25842" transform="translate(153.609 38.173)">
        <path id="Path_5890" data-name="Path 5890" d="M2.027,0H-8.626a.123.123,0,0,0-.116.129v3.2a.123.123,0,0,0,.116.131H2.027a.124.124,0,0,0,.117-.131V.129A.123.123,0,0,0,2.027,0" transform="translate(8.742)" fill="#fff"/>
      </g>
      <g id="Group_25843" data-name="Group 25843" transform="translate(153.609 31.36)">
        <path id="Path_5891" data-name="Path 5891" d="M2.027,0H-8.626a.123.123,0,0,0-.116.129v3.2a.123.123,0,0,0,.116.131H2.027a.124.124,0,0,0,.117-.131V.129A.123.123,0,0,0,2.027,0" transform="translate(8.742)" fill="#fff"/>
      </g>
      <g id="Group_25844" data-name="Group 25844" transform="translate(153.85 21.381)">
        <path id="Path_5892" data-name="Path 5892" d="M1.953.967-3.16-4.146a.089.089,0,0,0-.126,0L-8.4.967a.088.088,0,0,0,.062.15H1.89a.088.088,0,0,0,.063-.15" transform="translate(8.425 4.172)" fill="#fff"/>
      </g>
      <g id="Group_25845" data-name="Group 25845" transform="translate(168.878 31.295)">
        <path id="Path_5893" data-name="Path 5893" d="M.028,1.953,5.142-3.16a.089.089,0,0,0,0-.126L.028-8.4a.088.088,0,0,0-.15.062V1.89a.088.088,0,0,0,.15.063" transform="translate(0.122 8.425)" fill="#fff"/>
      </g>
      <g id="Group_25846" data-name="Group 25846" transform="translate(153.85 46.323)">
        <path id="Path_5894" data-name="Path 5894" d="M0,.028,5.118,5.142a.088.088,0,0,0,.124,0L10.356.028a.088.088,0,0,0-.062-.15H.068A.088.088,0,0,0,0,.028" transform="translate(0.021 0.122)" fill="#fff"/>
      </g>
      <g id="Group_25847" data-name="Group 25847" transform="translate(143.936 31.295)">
        <path id="Path_5895" data-name="Path 5895" d="M.967,0-4.146,5.118a.088.088,0,0,0,0,.124L.967,10.356a.088.088,0,0,0,.15-.062V.068A.088.088,0,0,0,.967,0" transform="translate(4.172 0.021)" fill="#fff"/>
      </g>
      <g id="Group_25848" data-name="Group 25848" transform="translate(195.131 0.214)">
        <path id="Path_5896" data-name="Path 5896" d="M10.887,9.573A6.983,6.983,0,0,1,3.9,16.556H-39.976a6.983,6.983,0,0,1-6.983-6.983V-34.305a6.984,6.984,0,0,1,6.983-6.985H3.9a6.984,6.984,0,0,1,6.983,6.985Z" transform="translate(46.959 41.29)" fill="#44b448"/>
      </g>
      <g id="Group_25849" data-name="Group 25849" transform="translate(198.47 5.246)">
        <path id="Path_5897" data-name="Path 5897" d="M.3.41A9.2,9.2,0,0,1-.572.75q-.571.192-.722.259V-.557A9.079,9.079,0,0,0-.169-1.1a3.816,3.816,0,0,0,.933-.668H2.411V9.261H.3Z" transform="translate(1.294 1.769)" fill="#fff"/>
      </g>
      <g id="Group_25850" data-name="Group 25850" transform="translate(203.386 5.246)">
        <path id="Path_5898" data-name="Path 5898" d="M.205,2.034A2.025,2.025,0,0,1-.652.9,6.181,6.181,0,0,1-.885-.941H1.159A3.892,3.892,0,0,0,1.336.44.677.677,0,0,0,2.03.87.684.684,0,0,0,2.629.6a1.56,1.56,0,0,0,.238-.743c.032-.313.048-.764.048-1.355A4.589,4.589,0,0,0,2.73-3a.728.728,0,0,0-.755-.5c-.49,0-.8.333-.94.994H-.775l.149-6.264h5.08v1.811H1.1L.981-4.523a1.428,1.428,0,0,1,.653-.388,3.081,3.081,0,0,1,1-.156,1.878,1.878,0,0,1,1.7.913A4.809,4.809,0,0,1,4.9-1.6,8.583,8.583,0,0,1,4.672.576a2.468,2.468,0,0,1-.878,1.362,2.98,2.98,0,0,1-1.845.5,3.222,3.222,0,0,1-1.743-.4" transform="translate(0.885 8.772)" fill="#fff"/>
      </g>
    </g>
    <g id="Group_25852" data-name="Group 25852" transform="translate(213.589 -41.894)">
      <path id="Path_5900" data-name="Path 5900" d="M0,.793V-3.422H.767V.262h1.01V.793Z" transform="translate(0 3.422)" fill="#fff"/>
    </g>
    <path id="Path_5901" data-name="Path 5901" d="M175.055-38.665h.759V-42.88h-.759Z" transform="translate(40.584 0.986)" fill="#fff"/>
    <g id="Group_25853" data-name="Group 25853" transform="translate(216.889 -41.894)">
      <path id="Path_5902" data-name="Path 5902" d="M0,.793V-3.422H1.731v.532H.767v1.224h.771v.542H.767V.793Z" transform="translate(0 3.422)" fill="#fff"/>
    </g>
    <g id="Group_25854" data-name="Group 25854" transform="translate(218.869 -41.894)">
      <path id="Path_5903" data-name="Path 5903" d="M0,.793V-3.422H1.764v.542h-1v1.21h.788v.542H.767V.262h1.01V.793Z" transform="translate(0 3.422)" fill="#fff"/>
    </g>
    <g id="Group_25856" data-name="Group 25856" transform="translate(0 -47.133)" clip-path="url(#clip-path)">
      <g id="Group_25855" data-name="Group 25855" transform="translate(213.52 12.081)">
        <path id="Path_5904" data-name="Path 5904" d="M.193.7A.5.5,0,0,0,.385.732.5.5,0,0,0,.576.7.353.353,0,0,0,.7.611.381.381,0,0,0,.775.472.856.856,0,0,0,.81.3,1.967,1.967,0,0,0,.82.094V-1.822A1.815,1.815,0,0,0,.8-2.076a.685.685,0,0,0-.06-.192A.293.293,0,0,0,.611-2.4a.512.512,0,0,0-.227-.044A.518.518,0,0,0,.157-2.4a.282.282,0,0,0-.133.134.645.645,0,0,0-.059.192,1.815,1.815,0,0,0-.015.254V.094A2,2,0,0,0-.041.3.954.954,0,0,0-.006.472.362.362,0,0,0,.067.611.332.332,0,0,0,.193.7m.192.6A1.129,1.129,0,0,1-.549.947,1.634,1.634,0,0,1-.831-.087V-1.643a2.379,2.379,0,0,1,.064-.583,1.143,1.143,0,0,1,.2-.426.844.844,0,0,1,.378-.271,1.59,1.59,0,0,1,.569-.09,1.134,1.134,0,0,1,.931.347A1.588,1.588,0,0,1,1.6-1.643V-.087a2.344,2.344,0,0,1-.064.581,1.181,1.181,0,0,1-.207.434.861.861,0,0,1-.377.278A1.5,1.5,0,0,1,.385,1.3" transform="translate(0.831 3.013)" fill="#fff"/>
      </g>
    </g>
    <g id="Group_25857" data-name="Group 25857" transform="translate(216.357 -35.005)">
      <path id="Path_5906" data-name="Path 5906" d="M0,.793V-3.422H.528L1.561-1.035V-3.422H2.2V.793h-.5L.65-1.716V.793Z" transform="translate(0 3.422)" fill="#fff"/>
    </g>
    <g id="Group_25858" data-name="Group 25858" transform="translate(220.143 -35.005)">
      <path id="Path_5907" data-name="Path 5907" d="M0,.793V-3.422H.767V.262h1.01V.793Z" transform="translate(0 3.422)" fill="#fff"/>
    </g>
    <g id="Group_25859" data-name="Group 25859" transform="translate(221.951 -35.005)">
      <path id="Path_5908" data-name="Path 5908" d="M.184.515H.748L.466-1.216ZM-.8,1.994.062-2.221h.8l.854,4.215H1l-.17-.979H.1l-.174.979Z" transform="translate(0.795 2.221)" fill="#fff"/>
    </g>
    <g id="Group_25860" data-name="Group 25860" transform="translate(224.721 -35.005)">
      <path id="Path_5909" data-name="Path 5909" d="M0,.793V-3.422H.528L1.561-1.035V-3.422H2.2V.793h-.5L.65-1.716V.793Z" transform="translate(0 3.422)" fill="#fff"/>
    </g>
    <g id="Group_25873" data-name="Group 25873" transform="translate(0 -47.133)" clip-path="url(#clip-path)">
      <g id="Group_25861" data-name="Group 25861" transform="translate(227.393 12.129)">
        <path id="Path_5910" data-name="Path 5910" d="M.144.692H.364a.887.887,0,0,0,.2-.02A.849.849,0,0,0,.709.623a.24.24,0,0,0,.1-.091A.746.746,0,0,0,.866.415.691.691,0,0,0,.9.253C.9.181.908.119.909.068s0-.126,0-.225V-1.7c0-.1,0-.181,0-.241a1.223,1.223,0,0,0-.023-.185.379.379,0,0,0-.057-.143.393.393,0,0,0-.1-.094.408.408,0,0,0-.153-.058,1.266,1.266,0,0,0-.222-.017H.144Zm-.767.538V-2.984H.358A2.248,2.248,0,0,1,1-2.908a.9.9,0,0,1,.411.241.932.932,0,0,1,.219.405,2.307,2.307,0,0,1,.065.591V-.15a2.427,2.427,0,0,1-.067.612A1.048,1.048,0,0,1,1.41.89a.886.886,0,0,1-.4.259,2.04,2.04,0,0,1-.618.081Z" transform="translate(0.623 2.984)" fill="#fff"/>
      </g>
      <g id="Group_25862" data-name="Group 25862" transform="translate(217.222 39.372)">
        <path id="Path_5911" data-name="Path 5911" d="M.346,0A.128.128,0,0,1,.474.129v4.23a.128.128,0,0,1-.128.129H-1.366a.128.128,0,0,1-.128-.129V.129A.128.128,0,0,1-1.366,0Z" transform="translate(1.494)" fill="#fff"/>
      </g>
      <g id="Group_25863" data-name="Group 25863" transform="translate(209.519 45.678)">
        <path id="Path_5912" data-name="Path 5912" d="M5.335,0H-22.884a.131.131,0,0,0-.129.132V1.858a.128.128,0,0,0,.129.127H5.335a.129.129,0,0,0,.129-.127V.132A.132.132,0,0,0,5.335,0" transform="translate(23.013 0)" fill="#fff"/>
      </g>
      <g id="Group_25864" data-name="Group 25864" transform="translate(209.519 49.106)">
        <path id="Path_5913" data-name="Path 5913" d="M5.335,0H-22.884a.128.128,0,0,0-.129.127V1.856a.129.129,0,0,0,.129.128H5.335a.13.13,0,0,0,.129-.128V.127A.129.129,0,0,0,5.335,0" transform="translate(23.013)" fill="#fff"/>
      </g>
      <g id="Group_25865" data-name="Group 25865" transform="translate(227.714 33.767)">
        <path id="Path_5914" data-name="Path 5914" d="M.9.173a4.174,4.174,0,0,0-2.442-.92A3.261,3.261,0,0,0-3.807.217a.247.247,0,0,0-.076.177V.547A.246.246,0,0,0-3.8.74a.225.225,0,0,0,.2.047A.279.279,0,0,0-3.55.773a.375.375,0,0,0,.142-.09A2.276,2.276,0,0,1-2.279.449,4.26,4.26,0,0,1,.628,1.668l.027.023a.343.343,0,0,0,.484,0l.022-.025A4.281,4.281,0,0,1,4.073.449,2.282,2.282,0,0,1,5.207.683a.4.4,0,0,0,.156.1.342.342,0,0,0,.165,0A.243.243,0,0,0,5.706.552V.415A.24.24,0,0,0,5.63.241,3.273,3.273,0,0,0,3.337-.748,4.14,4.14,0,0,0,.9.173" transform="translate(3.883 0.748)" fill="#fff"/>
      </g>
      <g id="Group_25866" data-name="Group 25866" transform="translate(230.585 23.174)">
        <path id="Path_5915" data-name="Path 5915" d="M.03.05A.235.235,0,0,0-.093.2L-.121.293A.243.243,0,0,0-.084.5.227.227,0,0,0,.089.6.093.093,0,0,0,.125.6.309.309,0,0,0,.262.566.746.746,0,0,1,.433.548,2.448,2.448,0,0,1,2.448,1.865l.01.018a.288.288,0,0,0,.181.144.344.344,0,0,0,.09.014.3.3,0,0,0,.142-.034L2.889,2a2.8,2.8,0,0,1,1.259-.313A1.918,1.918,0,0,1,5.436,2.1a.334.334,0,0,0,.095.1.519.519,0,0,0,.091.044.229.229,0,0,0,.042.006h.025A.226.226,0,0,0,5.8,2.226a.235.235,0,0,0,.121-.144L5.944,2a.23.23,0,0,0,.01-.068.222.222,0,0,0-.033-.121A2.12,2.12,0,0,0,4.007.659a3.017,3.017,0,0,0-1.015.19,2.466,2.466,0,0,0-1.9-1.066A2.339,2.339,0,0,0,.03.05" transform="translate(0.131 0.217)" fill="#fff"/>
      </g>
      <g id="Group_25867" data-name="Group 25867" transform="translate(224.784 26.429)">
        <path id="Path_5916" data-name="Path 5916" d="M0,.255.009.382a.236.236,0,0,0,.112.19A.235.235,0,0,0,.31.6L.352.589A.321.321,0,0,0,.474.5,2.069,2.069,0,0,1,1.55.254,3.492,3.492,0,0,1,3.782,1.1l.02.02a.33.33,0,0,0,.217.083h.021a.331.331,0,0,0,.222-.107l.02-.021A3.386,3.386,0,0,1,6.754-.072,1.683,1.683,0,0,1,7.49.063a.369.369,0,0,0,.147.076.3.3,0,0,0,.1.006A.256.256,0,0,0,7.8.132a.24.24,0,0,0,.16-.243L7.953-.222a.242.242,0,0,0-.085-.168,2.77,2.77,0,0,0-1.8-.71,3.365,3.365,0,0,0-2.113.872A3.537,3.537,0,0,0,2.067-.851a2.693,2.693,0,0,0-2,.925A.252.252,0,0,0,0,.255" transform="translate(0 1.099)" fill="#fff"/>
      </g>
      <g id="Group_25868" data-name="Group 25868" transform="translate(210.503 23.173)">
        <path id="Path_5917" data-name="Path 5917" d="M0,1.294a3.06,3.06,0,0,1,3.06-3.06c.065,0,.131.006.2.01A4.135,4.135,0,0,1,7.379-5.581a4.14,4.14,0,0,1,4.14,4.139A4.126,4.126,0,0,1,11.1.363a4.624,4.624,0,0,1-1,9.138c-.186,0-6.173-.036-6.173-.036A3.272,3.272,0,0,1,1.54,3.947,3.058,3.058,0,0,1,0,1.294" transform="translate(0 5.581)" fill="#fff"/>
      </g>
      <g id="Group_25869" data-name="Group 25869" transform="translate(260.673 0.224)">
        <path id="Path_5918" data-name="Path 5918" d="M10.872,9.571a6.984,6.984,0,0,1-6.993,6.975l-43.8-.06A6.983,6.983,0,0,1-46.9,9.492l.059-43.8a6.985,6.985,0,0,1,6.993-6.975l43.8.06a6.982,6.982,0,0,1,6.973,6.993Z" transform="translate(46.895 41.282)" fill="#427939"/>
      </g>
      <g id="Group_25870" data-name="Group 25870" transform="translate(264.191 5.245)">
        <path id="Path_5919" data-name="Path 5919" d="M.3.41A9.267,9.267,0,0,1-.571.75c-.382.128-.622.214-.723.259V-.557A9.079,9.079,0,0,0-.169-1.1a3.816,3.816,0,0,0,.933-.668H2.411V9.261H.3Z" transform="translate(1.294 1.769)" fill="#fff"/>
      </g>
      <g id="Group_25871" data-name="Group 25871" transform="translate(268.984 5.096)">
        <path id="Path_5920" data-name="Path 5920" d="M.131,1.976A3.865,3.865,0,0,1-.564-.489V-.87h2.1V-.5A2.914,2.914,0,0,0,1.737.71a.713.713,0,0,0,.695.367A.665.665,0,0,0,3.106.7,3.162,3.162,0,0,0,3.277-.516a2.6,2.6,0,0,0-.259-1.313,1.049,1.049,0,0,0-.953-.443,2.618,2.618,0,0,0-.382-.014V-3.825h.34A1.13,1.13,0,0,0,3-4.205a2.218,2.218,0,0,0,.272-1.254,2.155,2.155,0,0,0-.2-1.048.741.741,0,0,0-.7-.34.656.656,0,0,0-.653.367,2.694,2.694,0,0,0-.191,1.09V-4.9h-2.1v-.6a3.066,3.066,0,0,1,.77-2.233,2.894,2.894,0,0,1,2.172-.79,3.019,3.019,0,0,1,2.206.763A2.938,2.938,0,0,1,5.36-5.568a3.016,3.016,0,0,1-.4,1.6,1.692,1.692,0,0,1-1.008.811q1.4.517,1.4,2.6a3.961,3.961,0,0,1-.708,2.5A2.673,2.673,0,0,1,2.4,2.848,2.737,2.737,0,0,1,.131,1.976" transform="translate(0.564 8.523)" fill="#fff"/>
      </g>
      <g id="Group_25872" data-name="Group 25872" transform="translate(279.241 5.191)">
        <path id="Path_5921" data-name="Path 5921" d="M.226.812A1.507,1.507,0,0,1-.255.743.94.94,0,0,1-.6.552.938.938,0,0,1-.82.25,1.451,1.451,0,0,1-.94-.138,2.8,2.8,0,0,1-.974-.6v-1.47a3.014,3.014,0,0,1,.036-.488,1.5,1.5,0,0,1,.119-.393.859.859,0,0,1,.219-.3.992.992,0,0,1,.344-.184A1.615,1.615,0,0,1,.226-3.5a1.544,1.544,0,0,1,.538.084.794.794,0,0,1,.354.246,1.022,1.022,0,0,1,.188.381,1.937,1.937,0,0,1,.059.506v.361H.625v-.358a1.739,1.739,0,0,0-.033-.424.321.321,0,0,0-.323-.229H.228a.578.578,0,0,0-.169.022.275.275,0,0,0-.118.073.457.457,0,0,0-.074.106.524.524,0,0,0-.042.147q-.013.091-.018.166c0,.051,0,.116,0,.193V-.443A1.109,1.109,0,0,0-.1.085.353.353,0,0,0,.228.243.469.469,0,0,0,.372.223a.351.351,0,0,0,.1-.048A.241.241,0,0,0,.547.091a.584.584,0,0,0,.044-.1A.613.613,0,0,0,.615-.142c0-.055.007-.1.009-.142s0-.092,0-.16V-.82h.74v.346a2.435,2.435,0,0,1-.033.424A1.349,1.349,0,0,1,1.219.3a.821.821,0,0,1-.207.275A.926.926,0,0,1,.687.75,1.574,1.574,0,0,1,.226.812" transform="translate(0.974 3.502)" fill="#fff"/>
      </g>
    </g>
    <g id="Group_25874" data-name="Group 25874" transform="translate(281.955 -41.894)">
      <path id="Path_5923" data-name="Path 5923" d="M0,.793V-3.422H.767V.262h1.01V.793Z" transform="translate(0 3.422)" fill="#fff"/>
    </g>
    <path id="Path_5924" data-name="Path 5924" d="M230.555-38.665h.758V-42.88h-.758Z" transform="translate(53.451 0.986)" fill="#fff"/>
    <g id="Group_25875" data-name="Group 25875" transform="translate(285.248 -41.894)">
      <path id="Path_5925" data-name="Path 5925" d="M0,.793.069-3.422H.856L1.467-.459,2.1-3.422h.77L2.937.793h-.58l-.051-2.9L1.7.793H1.248L.633-2.12.588.793Z" transform="translate(0 3.422)" fill="#fff"/>
    </g>
    <g id="Group_25876" data-name="Group 25876" transform="translate(288.432 -41.894)">
      <path id="Path_5926" data-name="Path 5926" d="M.184.515H.748L.466-1.216ZM-.8,1.994.062-2.221h.8l.854,4.215H1l-.17-.978H.1l-.174.978Z" transform="translate(0.795 2.221)" fill="#fff"/>
    </g>
    <g id="Group_25877" data-name="Group 25877" transform="translate(290.759 -41.894)">
      <path id="Path_5927" data-name="Path 5927" d="M.133.793V-2.855H-.574v-.567H1.584v.567H.9V.793Z" transform="translate(0.574 3.422)" fill="#fff"/>
    </g>
    <g id="Group_25878" data-name="Group 25878" transform="translate(293.097 -41.894)">
      <path id="Path_5928" data-name="Path 5928" d="M0,.793V-3.422H1.764v.542h-1v1.21h.788v.542H.767V.262h1.01V.793Z" transform="translate(0 3.422)" fill="#fff"/>
    </g>
    <g id="Group_25879" data-name="Group 25879" transform="translate(279.091 -35.005)">
      <path id="Path_5929" data-name="Path 5929" d="M.184.515H.748L.466-1.216ZM-.8,1.994.062-2.221h.8l.854,4.215H1l-.17-.979H.1l-.174.979Z" transform="translate(0.795 2.221)" fill="#fff"/>
    </g>
    <g id="Group_25881" data-name="Group 25881" transform="translate(0 -47.133)" clip-path="url(#clip-path)">
      <g id="Group_25880" data-name="Group 25880" transform="translate(281.793 12.08)">
        <path id="Path_5930" data-name="Path 5930" d="M.226.812A1.507,1.507,0,0,1-.255.743.94.94,0,0,1-.6.552.925.925,0,0,1-.82.25,1.451,1.451,0,0,1-.94-.138,2.8,2.8,0,0,1-.974-.6v-1.47a3.025,3.025,0,0,1,.036-.488,1.5,1.5,0,0,1,.119-.393.859.859,0,0,1,.219-.3.992.992,0,0,1,.344-.184A1.615,1.615,0,0,1,.226-3.5a1.544,1.544,0,0,1,.538.084.794.794,0,0,1,.354.246,1.022,1.022,0,0,1,.188.381,1.937,1.937,0,0,1,.059.506v.361H.625v-.358a1.739,1.739,0,0,0-.033-.424.321.321,0,0,0-.323-.229H.228a.537.537,0,0,0-.169.023.262.262,0,0,0-.118.071.485.485,0,0,0-.074.106.537.537,0,0,0-.042.147q-.013.091-.018.166c0,.051,0,.116,0,.193V-.443A1.105,1.105,0,0,0-.1.085.353.353,0,0,0,.228.243.469.469,0,0,0,.372.223a.351.351,0,0,0,.1-.048A.241.241,0,0,0,.547.091a.618.618,0,0,0,.044-.1A.643.643,0,0,0,.615-.142c0-.055.007-.1.009-.142s0-.092,0-.16V-.82h.74v.346a2.435,2.435,0,0,1-.033.424A1.349,1.349,0,0,1,1.219.3a.821.821,0,0,1-.207.275A.926.926,0,0,1,.687.75,1.574,1.574,0,0,1,.226.812" transform="translate(0.974 3.502)" fill="#fff"/>
      </g>
    </g>
    <g id="Group_25882" data-name="Group 25882" transform="translate(284.211 -35.005)">
      <path id="Path_5932" data-name="Path 5932" d="M.133.793V-2.855H-.574v-.567H1.584v.567H.9V.793Z" transform="translate(0.574 3.422)" fill="#fff"/>
    </g>
    <path id="Path_5933" data-name="Path 5933" d="M232.638-33.072h.759v-4.215h-.759Z" transform="translate(53.934 2.283)" fill="#fff"/>
    <g id="Group_25884" data-name="Group 25884" transform="translate(0 -47.133)" clip-path="url(#clip-path)">
      <g id="Group_25883" data-name="Group 25883" transform="translate(287.753 12.08)">
        <path id="Path_5934" data-name="Path 5934" d="M.193.7A.5.5,0,0,0,.385.732.5.5,0,0,0,.576.7.353.353,0,0,0,.7.611.381.381,0,0,0,.775.472.856.856,0,0,0,.81.3,1.967,1.967,0,0,0,.82.094V-1.822A1.815,1.815,0,0,0,.8-2.076a.685.685,0,0,0-.06-.192A.293.293,0,0,0,.611-2.4a.512.512,0,0,0-.227-.044A.518.518,0,0,0,.157-2.4a.282.282,0,0,0-.133.134.645.645,0,0,0-.059.192,1.815,1.815,0,0,0-.015.254V.094A2,2,0,0,0-.041.3.954.954,0,0,0-.006.472.362.362,0,0,0,.067.611.332.332,0,0,0,.193.7m.192.6A1.129,1.129,0,0,1-.549.947,1.634,1.634,0,0,1-.831-.087V-1.643a2.379,2.379,0,0,1,.064-.583,1.143,1.143,0,0,1,.2-.426.844.844,0,0,1,.378-.271,1.59,1.59,0,0,1,.569-.09,1.134,1.134,0,0,1,.931.347A1.588,1.588,0,0,1,1.6-1.643V-.087a2.341,2.341,0,0,1-.065.581,1.2,1.2,0,0,1-.207.434.852.852,0,0,1-.377.278A1.5,1.5,0,0,1,.385,1.3" transform="translate(0.831 3.013)" fill="#fff"/>
      </g>
    </g>
    <g id="Group_25885" data-name="Group 25885" transform="translate(290.589 -35.005)">
      <path id="Path_5936" data-name="Path 5936" d="M0,.793V-3.422H.528L1.561-1.035V-3.422H2.2V.793h-.5L.65-1.716V.793Z" transform="translate(0 3.422)" fill="#fff"/>
    </g>
    <g id="Group_25887" data-name="Group 25887" transform="translate(0 -47.133)" clip-path="url(#clip-path)">
      <g id="Group_25886" data-name="Group 25886" transform="translate(268.511 25.741)">
        <path id="Path_5937" data-name="Path 5937" d="M5.7,2.419C5.461,2.352,4.456.959,5.253.044c.133-.15-.266-.594-.156-.6a.727.727,0,0,1,.78.627c.01.171.016.345.015.52A8.968,8.968,0,0,1,5.7,2.419M3.239,6.944a1.535,1.535,0,0,1-.282-.1c-.489-.25-.431.148-.671.06s.272-.648-.451-.176S1.309,6.649,1,5.851a1.629,1.629,0,0,1,.931-1.916,11.371,11.371,0,0,1,1.628-.427c1.078-.269,1.306-.907,1.5-.517.037.073.073.142.106.208a1.417,1.417,0,0,1,.137.584,8.982,8.982,0,0,1-2.06,3.161m-6.329,2.6a9,9,0,0,1-2.52-.365.369.369,0,0,1-.107-.439A2,2,0,0,1-3.961,7.675c1.455-.14,3.365.949,3.67.774s.92-.973,1.823-.939a1.42,1.42,0,0,1,.817.206A8.927,8.927,0,0,1-3.09,9.545M-4.3,3.7c-.124.2-.463,1.71-.689,1.534s.094-1.749.159-1.867c.355-.65,1.122-.617.53.334M-.636,1.923a.812.812,0,0,1-.857-.078c-.224-.176.144-.467.278-.478.3-.026.755.4.579.556m3.958.021c-.1-.037-.181-.128-.254-.349s.112-.345.293-.256a.868.868,0,0,1,.421.515c0,.147-.362.128-.461.09m.381.276c.3-.023.755.394.576.554A.8.8,0,0,1,3.424,2.7c-.225-.176.144-.466.278-.477M-5.924,5.782A2.531,2.531,0,0,1-6.475,6.93,1.855,1.855,0,0,1-7.7,7.4c-.408-.031-.463-1.12-.463-1.679,0-.195-.273.379-.415-.786-.09-.746-.57.076-.6-.421s-.273-.4-.525-.708-.563.03-.913.186-.2.235-.7.08l-.032-.014a8.926,8.926,0,0,1-.7-3.491c0-.3.017-.6.046-.894a.52.52,0,0,1,.055-.084c.475-.56.464-.692.464-.692l.525-.181a8.861,8.861,0,0,1,1.47.368c.519.2,1.338.638,1.813.445.345-.142.615-.329.583-.616-.038-.36-.322-.445-.664-.2-.127.089-.4-.542-.607-.511s.261.743.081.772-.541-.74-.6-.866-.34-.434-.59-.2c-.53.5-1.39.471-1.561.6-.526.392-.664-.131-.652-.448.021-.073.042-.147.065-.218a1.072,1.072,0,0,1,1-.11c.232.155.4-.039.489-.133a.322.322,0,0,0,0-.365c-.059-.126.116-.216.235-.248a6.252,6.252,0,0,0,.681-.405,2.241,2.241,0,0,1,1.362,0,.719.719,0,0,0,.894-.18A2.411,2.411,0,0,1-6.3-4.149c.131-.06-.319-.482-.69-.023s-.56.5-.735.5-1.208-.26-1.335-.588.324-.57.706-.755a9.324,9.324,0,0,1,1.7-.239c.543-.118,1.238-.39,1.588-.152s-1.462.644-.868.966c.212.117,1.17-.548,1.5-.718.772-.4-.746-.53-.549-1.339.224-.913-1.863-.563-2.9-.485A8.929,8.929,0,0,1-3.066-8.394,8.973,8.973,0,0,1,5.646-1.509a1.48,1.48,0,0,1-.044.415.587.587,0,0,1-1.051.079c-.091-.131-.474-.5-.463.127s.6.686.03,1.058a2.209,2.209,0,0,1-.942.376,1.213,1.213,0,0,0-.459,1.075c.064.342.88,1.279.273,1.239A3.51,3.51,0,0,1,1.6,1.645c-.186-.5-.389-.982-.535-1.355A.534.534,0,0,0,.222.04C-.1.258.311.478.08.944s-.394.882-.73.5C-1.523.436-2.8.93-2.994-.186c-.107-.606-.628-.548-1.063-.892s-.681-.527-.755-.281C-4.878-1.142-3.444,0-3.342.289c.152.434-.431.815-.857.918S-4.811.967-5.228.531s-.6-.745-.629-.4a1.964,1.964,0,0,0,.82,1.489c.363.23.77.335.652.708s0,.163-.41.563A1.1,1.1,0,0,0-5.251,3.98c.028.56-.118.591-.206,1.057s-.289.063-.467.745m-4.8-9.89c.021-.023.039-.043.047-.054a1.2,1.2,0,0,1,.707-.257c.223-.038.521.075.557.223s-.559.418-.669.519c-.31.286-.8.866-1.08.928a.333.333,0,0,1-.232-.025,9.052,9.052,0,0,1,.67-1.333m.461-.913c.117-.171.5-.657.551-.718a.688.688,0,0,1,.434-.177c.137-.027.319.051.341.154a1.19,1.19,0,0,1-.122.569,1.49,1.49,0,0,1-.951.429c-.209-.033-.292-.2-.253-.256M18.238.316A26.381,26.381,0,0,0-3.077-10.434,26.393,26.393,0,0,0-24.424.258c-.065.091-.121.171-.168.238.047.07.1.149.168.243A26.389,26.389,0,0,0-3.108,11.488,26.384,26.384,0,0,0,18.236.8C18.3.7,18.358.624,18.4.555c-.044-.067-.1-.147-.165-.239" transform="translate(24.592 10.434)" fill="#fff"/>
      </g>
    </g>
  </g>
</svg>
