<svg xmlns="http://www.w3.org/2000/svg" xmlns:xlink="http://www.w3.org/1999/xlink" width="120.793" height="57.889" viewBox="0 0 120.793 57.889">
  <defs>
    <clipPath id="clip-path">
      <path id="Path_5725" data-name="Path 5725" d="M0,10.612H120.793V-47.277H0Z" transform="translate(0 47.277)" fill="none"/>
    </clipPath>
  </defs>
  <g id="Group_25739" data-name="Group 25739" transform="translate(0 47.277)">
    <g id="Group_25682" data-name="Group 25682" transform="translate(0 -47.277)" clip-path="url(#clip-path)">
      <g id="Group_25680" data-name="Group 25680" transform="translate(0 -0.001)">
        <path id="Path_5723" data-name="Path 5723" d="M10.512,9.268a6.941,6.941,0,0,1-6.941,6.941H-39.89a6.942,6.942,0,0,1-6.943-6.941V-34.347A6.943,6.943,0,0,1-39.89-41.29H3.571a6.942,6.942,0,0,1,6.941,6.943Z" transform="translate(46.833 41.29)" fill="#ff2d21"/>
      </g>
      <g id="Group_25681" data-name="Group 25681" transform="translate(3.417 5)">
        <path id="Path_5724" data-name="Path 5724" d="M.29.4A9.148,9.148,0,0,1-.577.735q-.568.191-.716.257V-.564A9.105,9.105,0,0,0-.176-1.105a3.793,3.793,0,0,0,.927-.664H2.389V9.195H.29Z" transform="translate(1.293 1.769)" fill="#fff"/>
      </g>
    </g>
    <g id="Group_25683" data-name="Group 25683" transform="translate(11.694 -42.283)">
      <path id="Path_5726" data-name="Path 5726" d="M0,.768v-4.19H.525L1.551-1.049V-3.422h.632V.768h-.5L.647-1.726V.768Z" transform="translate(0 3.422)" fill="#fff"/>
    </g>
    <g id="Group_25687" data-name="Group 25687" transform="translate(0 -47.277)" clip-path="url(#clip-path)">
      <g id="Group_25684" data-name="Group 25684" transform="translate(14.332 4.947)">
        <path id="Path_5727" data-name="Path 5727" d="M.187.676A.5.5,0,0,0,.378.709.492.492,0,0,0,.567.676.351.351,0,0,0,.692.589.379.379,0,0,0,.766.451.851.851,0,0,0,.8.28a1.955,1.955,0,0,0,.01-.2v-1.9A1.8,1.8,0,0,0,.8-2.081a.681.681,0,0,0-.06-.191A.291.291,0,0,0,.6-2.406.509.509,0,0,0,.378-2.45a.515.515,0,0,0-.227.044.28.28,0,0,0-.132.133.641.641,0,0,0-.059.191,1.8,1.8,0,0,0-.015.252v1.9a1.988,1.988,0,0,0,.009.2A.949.949,0,0,0-.011.451.36.36,0,0,0,.062.589.33.33,0,0,0,.187.676m.191.6A1.122,1.122,0,0,1-.551.924,1.624,1.624,0,0,1-.831-.1V-1.651a2.365,2.365,0,0,1,.064-.579,1.136,1.136,0,0,1,.2-.424.839.839,0,0,1,.376-.269,1.581,1.581,0,0,1,.566-.089,1.127,1.127,0,0,1,.926.345,1.576,1.576,0,0,1,.282,1.016V-.1a2.33,2.33,0,0,1-.064.578A1.174,1.174,0,0,1,1.315.9a.856.856,0,0,1-.375.277,1.494,1.494,0,0,1-.563.094" transform="translate(0.831 3.013)" fill="#fff"/>
      </g>
      <g id="Group_25685" data-name="Group 25685" transform="translate(11.694 11.842)">
        <path id="Path_5728" data-name="Path 5728" d="M.14.327H.385A.575.575,0,0,0,.822.2.714.714,0,0,0,.936-.27a2.349,2.349,0,0,0-.015-.3A.473.473,0,0,0,.85-.763.282.282,0,0,0,.685-.884a1.079,1.079,0,0,0-.3-.032H.14ZM-.623,2.735v-4.19h1.2q1.073,0,1.071,1.19a1.114,1.114,0,0,1-.293.856A1.177,1.177,0,0,1,.534.862H.14V2.735Z" transform="translate(0.623 1.455)" fill="#fff"/>
      </g>
      <g id="Group_25686" data-name="Group 25686" transform="translate(14.283 11.795)">
        <path id="Path_5729" data-name="Path 5729" d="M.187.676A.5.5,0,0,0,.378.709.492.492,0,0,0,.567.676.351.351,0,0,0,.692.589.379.379,0,0,0,.766.451.851.851,0,0,0,.8.28a1.955,1.955,0,0,0,.01-.2v-1.9A1.8,1.8,0,0,0,.8-2.081a.681.681,0,0,0-.06-.191A.291.291,0,0,0,.6-2.406.509.509,0,0,0,.378-2.45a.515.515,0,0,0-.227.044.28.28,0,0,0-.132.133.641.641,0,0,0-.059.191,1.8,1.8,0,0,0-.015.252v1.9a1.988,1.988,0,0,0,.009.2A.949.949,0,0,0-.011.451.36.36,0,0,0,.062.589.33.33,0,0,0,.187.676m.191.6A1.122,1.122,0,0,1-.551.924,1.624,1.624,0,0,1-.831-.1V-1.651a2.365,2.365,0,0,1,.064-.579,1.136,1.136,0,0,1,.2-.424.839.839,0,0,1,.376-.269,1.581,1.581,0,0,1,.566-.089,1.127,1.127,0,0,1,.926.345,1.576,1.576,0,0,1,.283,1.016V-.1a2.327,2.327,0,0,1-.065.578A1.194,1.194,0,0,1,1.315.9a.856.856,0,0,1-.375.277,1.494,1.494,0,0,1-.563.094" transform="translate(0.831 3.013)" fill="#fff"/>
      </g>
    </g>
    <g id="Group_25688" data-name="Group 25688" transform="translate(17.038 -35.435)">
      <path id="Path_5731" data-name="Path 5731" d="M.156.768l-.849-4.19h.677L.535-.505l.52-2.917h.692L.893.768Z" transform="translate(0.693 3.422)" fill="#fff"/>
    </g>
    <g id="Group_25689" data-name="Group 25689" transform="translate(19.882 -35.435)">
      <path id="Path_5732" data-name="Path 5732" d="M0,.768v-4.19H1.753v.539H.763v1.2h.784v.539H.763V.24h1V.768Z" transform="translate(0 3.422)" fill="#fff"/>
    </g>
    <g id="Group_25691" data-name="Group 25691" transform="translate(0 -47.277)" clip-path="url(#clip-path)">
      <g id="Group_25690" data-name="Group 25690" transform="translate(22.063 11.842)">
        <path id="Path_5733" data-name="Path 5733" d="M.14.328H.324A.661.661,0,0,0,.806.183.689.689,0,0,0,.949-.309.736.736,0,0,0,.824-.79.576.576,0,0,0,.37-.936H.14Zm-.763,2.4v-4.19h.96a2.543,2.543,0,0,1,.568.055,1.1,1.1,0,0,1,.414.181.773.773,0,0,1,.262.347,1.428,1.428,0,0,1,.088.534A1.518,1.518,0,0,1,1.552.3a.718.718,0,0,1-.388.365l.58,2.064H.979L.479.816H.14V2.729Z" transform="translate(0.623 1.461)" fill="#fff"/>
      </g>
    </g>
    <g id="Group_25692" data-name="Group 25692" transform="translate(24.614 -35.435)">
      <path id="Path_5735" data-name="Path 5735" d="M.129.768V-2.859h-.7v-.563H1.571v.563H.892V.768Z" transform="translate(0.574 3.422)" fill="#fff"/>
    </g>
    <g id="Group_25693" data-name="Group 25693" transform="translate(26.803 -35.435)">
      <path id="Path_5736" data-name="Path 5736" d="M.156.768V-.826L-.7-3.422H.014L.532-1.754l.5-1.668h.705l-.85,2.6V.768Z" transform="translate(0.697 3.422)" fill="#fff"/>
    </g>
    <g id="Group_25704" data-name="Group 25704" transform="translate(0 -47.277)" clip-path="url(#clip-path)">
      <g id="Group_25694" data-name="Group 25694" transform="translate(44.276 25.825)">
        <path id="Path_5737" data-name="Path 5737" d="M0,.293a1.6,1.6,0,1,1,1.6,1.6A1.6,1.6,0,0,1,0,.293" transform="translate(0 1.307)" fill="#fff"/>
      </g>
      <g id="Group_25695" data-name="Group 25695" transform="translate(42.071 29.632)">
        <path id="Path_5738" data-name="Path 5738" d="M1.04,0A2.132,2.132,0,0,1,2.976,2.125V6.559a.62.62,0,0,1-1.24,0V2.751c0-.142-.042-.336-.3-.336-.18,0-.218.191-.225.313V14.139a.891.891,0,0,1-1.782,0V7.563A.241.241,0,0,0-.826,7.3h0a.244.244,0,0,0-.257.26v6.577a.89.89,0,0,1-.89.89.89.89,0,0,1-.891-.89V2.729c0-.122-.044-.313-.224-.313-.262,0-.3.193-.3.336V6.559a.621.621,0,0,1-.621.62.62.62,0,0,1-.62-.62V2.125A2.132,2.132,0,0,1-2.694,0a.844.844,0,0,1,.118-.01H.918A.9.9,0,0,1,1.04,0" transform="translate(4.632 0.008)" fill="#fff"/>
      </g>
      <g id="Group_25696" data-name="Group 25696" transform="translate(31.738 26.75)">
        <path id="Path_5739" data-name="Path 5739" d="M.555.278A1.514,1.514,0,0,0-.957-1.238,1.516,1.516,0,0,0-2.473.278,1.515,1.515,0,0,0-.957,1.793,1.513,1.513,0,0,0,.555.278" transform="translate(2.473 1.238)" fill="#fff"/>
      </g>
      <g id="Group_25697" data-name="Group 25697" transform="translate(28.905 30.512)">
        <path id="Path_5740" data-name="Path 5740" d="M.238.217l-1.259,4.1s-.224.751.413.938.827-.545.827-.545L1.233,1.287s.055-.262.253-.206.124.338.124.338L-.157,7.83H1.487v4.59a.789.789,0,0,0,1.577,0V7.83h.448v4.59a.789.789,0,0,0,1.578,0V7.83H6.732L4.968,1.419s-.075-.28.122-.338.253.206.253.206L6.359,4.708s.192.733.827.545.413-.938.413-.938L6.339.217S5.89-.967,4.893-.967H1.684C.688-.967.238.217.238.217" transform="translate(1.059 0.967)" fill="#fff"/>
      </g>
      <g id="Group_25698" data-name="Group 25698" transform="translate(22.669 26.75)">
        <path id="Path_5741" data-name="Path 5741" d="M.555.278A1.515,1.515,0,0,0-.958-1.238,1.515,1.515,0,0,0-2.473.278,1.514,1.514,0,0,0-.958,1.793,1.514,1.514,0,0,0,.555.278" transform="translate(2.473 1.238)" fill="#fff"/>
      </g>
      <g id="Group_25699" data-name="Group 25699" transform="translate(19.835 30.512)">
        <path id="Path_5742" data-name="Path 5742" d="M.238.217l-1.258,4.1s-.225.751.411.938.827-.545.827-.545L1.233,1.287s.056-.262.253-.206.122.338.122.338L-.157,7.83H1.487v4.59a.789.789,0,0,0,1.577,0V7.83h.449v4.59a.789.789,0,0,0,1.577,0V7.83H6.733L4.969,1.419s-.076-.28.121-.338.253.206.253.206L6.359,4.708s.192.733.827.545.413-.938.413-.938L6.339.217S5.89-.967,4.893-.967H1.685C.689-.967.238.217.238.217" transform="translate(1.059 0.967)" fill="#fff"/>
      </g>
      <g id="Group_25700" data-name="Group 25700" transform="translate(38.592 34.22)">
        <path id="Path_5743" data-name="Path 5743" d="M.231.462A1.259,1.259,0,0,0,1.491-.8a1.258,1.258,0,0,0-1.26-1.26A1.258,1.258,0,0,0-1.029-.8,1.259,1.259,0,0,0,.231.462" transform="translate(1.029 2.059)" fill="#fff"/>
      </g>
      <g id="Group_25701" data-name="Group 25701" transform="translate(36.783 37.233)">
        <path id="Path_5744" data-name="Path 5744" d="M.009.628a.439.439,0,0,0,.184.6.42.42,0,0,0,.54-.176l.686-2.184s.119-.147.119,0V4.012h0a.646.646,0,1,0,1.292,0V1.982S2.8,1.7,3.027,1.7s.2.287.2.287v2.03a.648.648,0,0,0,1.3,0V-1.132c0-.152.08-.044.08-.044L5.135.32a3.52,3.52,0,0,0,.3.7A.476.476,0,0,0,6.065.76.47.47,0,0,0,6.013.3l0,0c-.016-.048-.8-1.979-.9-2.249-.284-.83-.8-.823-1.3-.838s-.8,0-.8,0-.318-.012-.976.007S1.187-2.426.462-.563C.359-.294.009.574,0,.626Z" transform="translate(0.038 2.796)" fill="#fff"/>
      </g>
      <g id="Group_25702" data-name="Group 25702" transform="translate(8.976 25.825)">
        <path id="Path_5745" data-name="Path 5745" d="M.586.293a1.6,1.6,0,0,0-1.6-1.6,1.6,1.6,0,0,0-1.6,1.6,1.6,1.6,0,0,0,1.6,1.6,1.6,1.6,0,0,0,1.6-1.6" transform="translate(2.611 1.307)" fill="#fff"/>
      </g>
      <g id="Group_25703" data-name="Group 25703" transform="translate(6.77 29.632)">
        <path id="Path_5746" data-name="Path 5746" d="M.355,0A2.132,2.132,0,0,0-1.581,2.125V6.559a.621.621,0,0,0,.621.62.621.621,0,0,0,.62-.62V2.751c0-.142.042-.336.3-.336.18,0,.218.191.225.313V14.139a.89.89,0,1,0,1.78,0V7.563a.243.243,0,0,1,.255-.26h0a.244.244,0,0,1,.257.26v6.577a.891.891,0,0,0,1.782,0V2.729c0-.122.045-.313.224-.313.262,0,.3.193.3.336V6.559a.62.62,0,0,0,1.24,0V2.125A2.132,2.132,0,0,0,4.089,0a.86.86,0,0,0-.118-.01H.477A.9.9,0,0,0,.355,0" transform="translate(1.581 0.008)" fill="#fff"/>
      </g>
    </g>
    <g id="Group_25705" data-name="Group 25705" transform="translate(5.891 -10.435)">
      <path id="Path_5748" data-name="Path 5748" d="M.26,0-1.16,7.527" transform="translate(1.16)" fill="none" stroke="#fff" stroke-linecap="round" stroke-width="0.556"/>
    </g>
    <g id="Group_25708" data-name="Group 25708" transform="translate(0 -47.277)" clip-path="url(#clip-path)">
      <g id="Group_25706" data-name="Group 25706" transform="translate(14.288 35.865)">
        <path id="Path_5749" data-name="Path 5749" d="M.156.04A.464.464,0,0,0-.234-.176.459.459,0,0,0-.693.282a.832.832,0,0,0,.045.2l1.271,2.3a.815.815,0,0,1,.077.3V8.024h0a.621.621,0,1,0,1.242,0V6.076S1.909,5.8,2.132,5.8s.187.276.187.276V8.024a.622.622,0,1,0,1.244,0V3.086a.815.815,0,0,1,.077-.3L4.815.66A2.068,2.068,0,0,0,4.958.282.459.459,0,0,0,4.109.04l0,0c-.037.032-.626,1.079-.819,1.273a.509.509,0,0,1-.389.184H1.369A.507.507,0,0,1,.98,1.31C.782,1.116.2.069.159.037Z" transform="translate(0.693 0.176)" fill="#fff"/>
      </g>
      <g id="Group_25707" data-name="Group 25707" transform="translate(15.853 34.22)">
        <path id="Path_5750" data-name="Path 5750" d="M.231.462A1.259,1.259,0,0,0,1.491-.8a1.258,1.258,0,0,0-1.26-1.26A1.259,1.259,0,0,0-1.029-.8,1.26,1.26,0,0,0,.231.462" transform="translate(1.029 2.059)" fill="#fff"/>
      </g>
    </g>
    <g id="Group_25709" data-name="Group 25709" transform="translate(15.012 -8.767)">
      <path id="Path_5752" data-name="Path 5752" d="M.385,0,1.809,1.038l.677,2.493h-4.2l.678-2.493Z" transform="translate(1.717)" fill="#fff"/>
    </g>
    <g id="Group_25716" data-name="Group 25716" transform="translate(0 -47.277)" clip-path="url(#clip-path)">
      <g id="Group_25710" data-name="Group 25710" transform="translate(63.294 0.389)">
        <path id="Path_5753" data-name="Path 5753" d="M10.54,9.268A6.941,6.941,0,0,1,3.6,16.209H-40.018a6.941,6.941,0,0,1-6.941-6.941V-34.347a6.942,6.942,0,0,1,6.941-6.943H3.6a6.942,6.942,0,0,1,6.941,6.943Z" transform="translate(46.959 41.29)" fill="#379f44"/>
      </g>
      <g id="Group_25711" data-name="Group 25711" transform="translate(67.85 5.242)">
        <path id="Path_5754" data-name="Path 5754" d="M.127,1.913A3.842,3.842,0,0,1-.564-.537V-.915H1.521v.365a2.9,2.9,0,0,0,.2,1.2.709.709,0,0,0,.691.365.661.661,0,0,0,.67-.372,3.119,3.119,0,0,0,.17-1.211A2.587,2.587,0,0,0,3-1.869a1.043,1.043,0,0,0-.948-.441,2.6,2.6,0,0,0-.38-.013V-3.853h.338a1.123,1.123,0,0,0,.976-.378,2.2,2.2,0,0,0,.271-1.246,2.158,2.158,0,0,0-.2-1.042.74.74,0,0,0-.7-.338.652.652,0,0,0-.649.365,2.7,2.7,0,0,0-.19,1.084v.486H-.564v-.6A3.048,3.048,0,0,1,.2-7.738,2.877,2.877,0,0,1,2.36-8.523a3,3,0,0,1,2.193.758,2.92,2.92,0,0,1,.771,2.18,3,3,0,0,1-.393,1.591,1.675,1.675,0,0,1-1,.8Q5.324-2.674,5.324-.6a3.937,3.937,0,0,1-.7,2.483,2.657,2.657,0,0,1-2.233.9,2.721,2.721,0,0,1-2.26-.867" transform="translate(0.564 8.523)" fill="#fff"/>
      </g>
      <g id="Group_25712" data-name="Group 25712" transform="translate(78.355 5.337)">
        <path id="Path_5755" data-name="Path 5755" d="M.2.787A.975.975,0,0,1-.651.416,1.879,1.879,0,0,1-.912-.666V-2.031a2.975,2.975,0,0,1,.056-.623,1.294,1.294,0,0,1,.191-.458.81.81,0,0,1,.37-.3,1.5,1.5,0,0,1,.575-.1,1.143,1.143,0,0,1,.891.3,1.36,1.36,0,0,1,.271.924v.2H.713v-.218c0-.093,0-.168-.007-.227A.923.923,0,0,0,.676-2.7a.314.314,0,0,0-.07-.137.326.326,0,0,0-.124-.078A.523.523,0,0,0,.29-2.943a.491.491,0,0,0-.153.022.418.418,0,0,0-.113.053.267.267,0,0,0-.077.089A.658.658,0,0,0-.1-2.666a.93.93,0,0,0-.026.14c0,.058-.009.108-.011.152s0,.1,0,.17v1.69A1.237,1.237,0,0,0-.045.04.364.364,0,0,0,.311.215.461.461,0,0,0,.539.164.343.343,0,0,0,.683.008.858.858,0,0,0,.757-.233,2.073,2.073,0,0,0,.778-.56V-.9H.326V-1.4h1.14V.731H.97L.915.307A.7.7,0,0,1,.2.787" transform="translate(0.912 3.506)" fill="#fff"/>
      </g>
      <g id="Group_25713" data-name="Group 25713" transform="translate(81.216 5.337)">
        <path id="Path_5756" data-name="Path 5756" d="M.186.676A.5.5,0,0,0,.377.709.492.492,0,0,0,.567.676.351.351,0,0,0,.692.589.379.379,0,0,0,.765.451.851.851,0,0,0,.8.28a1.955,1.955,0,0,0,.01-.2v-1.9a1.8,1.8,0,0,0-.015-.252.681.681,0,0,0-.06-.191A.291.291,0,0,0,.6-2.406.509.509,0,0,0,.377-2.45a.515.515,0,0,0-.227.044.28.28,0,0,0-.132.133.641.641,0,0,0-.059.191,1.8,1.8,0,0,0-.015.252v1.9a1.988,1.988,0,0,0,.009.2A.949.949,0,0,0-.011.451.36.36,0,0,0,.061.589.33.33,0,0,0,.186.676m.191.6A1.122,1.122,0,0,1-.551.924,1.624,1.624,0,0,1-.83-.1V-1.651a2.369,2.369,0,0,1,.062-.579,1.136,1.136,0,0,1,.2-.424.839.839,0,0,1,.376-.269,1.581,1.581,0,0,1,.566-.089,1.127,1.127,0,0,1,.926.345,1.576,1.576,0,0,1,.283,1.016V-.1a2.327,2.327,0,0,1-.065.578A1.174,1.174,0,0,1,1.315.9a.856.856,0,0,1-.375.277,1.494,1.494,0,0,1-.563.094" transform="translate(0.83 3.013)" fill="#fff"/>
      </g>
      <g id="Group_25714" data-name="Group 25714" transform="translate(84.095 5.337)">
        <path id="Path_5757" data-name="Path 5757" d="M.187.676A.5.5,0,0,0,.378.709.492.492,0,0,0,.567.676.351.351,0,0,0,.692.589.379.379,0,0,0,.766.451.851.851,0,0,0,.8.28a1.955,1.955,0,0,0,.01-.2v-1.9A1.8,1.8,0,0,0,.8-2.081a.681.681,0,0,0-.06-.191A.291.291,0,0,0,.6-2.406.509.509,0,0,0,.378-2.45a.515.515,0,0,0-.227.044.28.28,0,0,0-.132.133.641.641,0,0,0-.059.191,1.8,1.8,0,0,0-.015.252v1.9a1.988,1.988,0,0,0,.009.2A.949.949,0,0,0-.011.451.36.36,0,0,0,.062.589.33.33,0,0,0,.187.676m.191.6A1.122,1.122,0,0,1-.551.924,1.624,1.624,0,0,1-.831-.1V-1.651a2.365,2.365,0,0,1,.064-.579,1.136,1.136,0,0,1,.2-.424.839.839,0,0,1,.376-.269,1.581,1.581,0,0,1,.566-.089,1.127,1.127,0,0,1,.926.345,1.576,1.576,0,0,1,.283,1.016V-.1a2.327,2.327,0,0,1-.065.578A1.174,1.174,0,0,1,1.315.9a.856.856,0,0,1-.375.277,1.494,1.494,0,0,1-.563.094" transform="translate(0.831 3.013)" fill="#fff"/>
      </g>
      <g id="Group_25715" data-name="Group 25715" transform="translate(87.044 5.385)">
        <path id="Path_5758" data-name="Path 5758" d="M.14.67H.358a.881.881,0,0,0,.2-.02A.844.844,0,0,0,.7.6.238.238,0,0,0,.8.511.741.741,0,0,0,.857.394.687.687,0,0,0,.888.234C.9.162.9.1.9.05s0-.125,0-.224V-1.706c0-.1,0-.18,0-.24a1.216,1.216,0,0,0-.023-.184.377.377,0,0,0-.056-.142.391.391,0,0,0-.1-.093A.405.405,0,0,0,.57-2.422a1.259,1.259,0,0,0-.22-.017H.14ZM-.623,1.2V-2.984H.352a2.234,2.234,0,0,1,.635.076.894.894,0,0,1,.409.24.926.926,0,0,1,.218.4,2.293,2.293,0,0,1,.065.588V-.167a2.413,2.413,0,0,1-.066.609A1.042,1.042,0,0,1,1.4.867a.88.88,0,0,1-.4.257A2.027,2.027,0,0,1,.382,1.2Z" transform="translate(0.623 2.984)" fill="#fff"/>
      </g>
    </g>
    <g id="Group_25717" data-name="Group 25717" transform="translate(91.126 -41.893)">
      <path id="Path_5760" data-name="Path 5760" d="M0,.768v-4.19H.763V-1.67h.852V-3.422h.763V.768H1.615v-1.9H.763v1.9Z" transform="translate(0 3.422)" fill="#fff"/>
    </g>
    <g id="Group_25718" data-name="Group 25718" transform="translate(94.112 -41.893)">
      <path id="Path_5761" data-name="Path 5761" d="M0,.768v-4.19H1.753v.539H.763v1.2h.784v.539H.763V.24h1V.768Z" transform="translate(0 3.422)" fill="#fff"/>
    </g>
    <g id="Group_25719" data-name="Group 25719" transform="translate(96.075 -41.893)">
      <path id="Path_5762" data-name="Path 5762" d="M.178.5H.739l-.28-1.72ZM-.8,1.969l.852-4.19h.8L1.7,1.969H.991L.823,1H.1l-.173.973Z" transform="translate(0.795 2.221)" fill="#fff"/>
    </g>
    <g id="Group_25720" data-name="Group 25720" transform="translate(98.958 -41.893)">
      <path id="Path_5763" data-name="Path 5763" d="M0,.768v-4.19H.763V.24h1V.768Z" transform="translate(0 3.422)" fill="#fff"/>
    </g>
    <g id="Group_25721" data-name="Group 25721" transform="translate(100.701 -41.893)">
      <path id="Path_5764" data-name="Path 5764" d="M.129.768V-2.859h-.7v-.563H1.571v.563H.892V.768Z" transform="translate(0.574 3.422)" fill="#fff"/>
    </g>
    <g id="Group_25722" data-name="Group 25722" transform="translate(103.162 -41.893)">
      <path id="Path_5765" data-name="Path 5765" d="M0,.768v-4.19H.763V-1.67h.852V-3.422h.763V.768H1.615v-1.9H.763v1.9Z" transform="translate(0 3.422)" fill="#fff"/>
    </g>
    <g id="Group_25723" data-name="Group 25723" transform="translate(78.205 -35.045)">
      <path id="Path_5766" data-name="Path 5766" d="M.178.5H.739l-.28-1.72ZM-.8,1.969l.852-4.19h.8L1.7,1.969H.991L.823,1H.1l-.173.972Z" transform="translate(0.795 2.221)" fill="#fff"/>
    </g>
    <g id="Group_25724" data-name="Group 25724" transform="translate(81.088 -35.045)">
      <path id="Path_5767" data-name="Path 5767" d="M0,.768v-4.19H.525L1.551-1.049V-3.422h.632V.768h-.5L.647-1.726V.768Z" transform="translate(0 3.422)" fill="#fff"/>
    </g>
    <g id="Group_25726" data-name="Group 25726" transform="translate(0 -47.277)" clip-path="url(#clip-path)">
      <g id="Group_25725" data-name="Group 25725" transform="translate(83.873 12.232)">
        <path id="Path_5768" data-name="Path 5768" d="M.14.67H.358a.881.881,0,0,0,.2-.02A.844.844,0,0,0,.7.6.238.238,0,0,0,.8.511.741.741,0,0,0,.857.394.687.687,0,0,0,.888.234C.9.162.9.1.9.05s0-.125,0-.224V-1.706c0-.1,0-.18,0-.24a1.2,1.2,0,0,0-.023-.184.377.377,0,0,0-.056-.142.391.391,0,0,0-.1-.093A.405.405,0,0,0,.57-2.422a1.259,1.259,0,0,0-.22-.017H.14ZM-.623,1.2V-2.984H.352a2.234,2.234,0,0,1,.635.076.894.894,0,0,1,.409.24.926.926,0,0,1,.218.4,2.286,2.286,0,0,1,.065.588V-.167a2.413,2.413,0,0,1-.066.609A1.042,1.042,0,0,1,1.4.867a.88.88,0,0,1-.4.257A2.027,2.027,0,0,1,.382,1.2Z" transform="translate(0.623 2.984)" fill="#fff"/>
      </g>
    </g>
    <g id="Group_25727" data-name="Group 25727" transform="translate(87.804 -35.045)">
      <path id="Path_5770" data-name="Path 5770" d="M.11.768l-.6-4.19H.153L.5-.721l.447-2.7h.513l.458,2.7.343-2.7h.629l-.6,4.19h-.61l-.471-2.8L.737.768Z" transform="translate(0.489 3.422)" fill="#fff"/>
    </g>
    <g id="Group_25728" data-name="Group 25728" transform="translate(91.636 -35.045)">
      <path id="Path_5771" data-name="Path 5771" d="M0,.768v-4.19H1.753v.539H.763v1.2h.784v.539H.763V.24h1V.768Z" transform="translate(0 3.422)" fill="#fff"/>
    </g>
    <g id="Group_25729" data-name="Group 25729" transform="translate(93.817 -35.045)">
      <path id="Path_5772" data-name="Path 5772" d="M0,.768v-4.19H.763V.24h1V.768Z" transform="translate(0 3.422)" fill="#fff"/>
    </g>
    <g id="Group_25730" data-name="Group 25730" transform="translate(95.961 -35.045)">
      <path id="Path_5773" data-name="Path 5773" d="M0,.768v-4.19H.763V.24h1V.768Z" transform="translate(0 3.422)" fill="#fff"/>
    </g>
    <path id="Path_5774" data-name="Path 5774" d="M80.1-34.923h1.249v-.49H80.1Z" transform="translate(17.98 2.663)" fill="#fff"/>
    <g id="Group_25732" data-name="Group 25732" transform="translate(0 -47.277)" clip-path="url(#clip-path)">
      <g id="Group_25731" data-name="Group 25731" transform="translate(99.908 12.233)">
        <path id="Path_5775" data-name="Path 5775" d="M.14.669H.42A.59.59,0,0,0,.893.51a.826.826,0,0,0,.132-.525A.838.838,0,0,0,.877-.566a.633.633,0,0,0-.5-.169H.14Zm0-1.943H.377A.6.6,0,0,0,.84-1.418.738.738,0,0,0,.966-1.9.839.839,0,0,0,.925-2.19a.308.308,0,0,0-.141-.165.589.589,0,0,0-.218-.073,2.2,2.2,0,0,0-.32-.018H.14ZM-.623,1.207V-2.982H.4a2.217,2.217,0,0,1,.508.051,1.091,1.091,0,0,1,.383.171.731.731,0,0,1,.253.332,1.347,1.347,0,0,1,.084.514q0,.775-.617.867a.84.84,0,0,1,.555.324,1.217,1.217,0,0,1,.186.714,1.243,1.243,0,0,1-.3.906,1.169,1.169,0,0,1-.877.309Z" transform="translate(0.623 2.982)" fill="#fff"/>
      </g>
    </g>
    <g id="Group_25733" data-name="Group 25733" transform="translate(102.755 -35.045)">
      <path id="Path_5777" data-name="Path 5777" d="M0,.768v-4.19H1.753v.539H.763v1.2h.784v.539H.763V.24h1V.768Z" transform="translate(0 3.422)" fill="#fff"/>
    </g>
    <path id="Path_5778" data-name="Path 5778" d="M85.718-33.1h.753v-4.19h-.753Z" transform="translate(19.24 2.242)" fill="#fff"/>
    <g id="Group_25734" data-name="Group 25734" transform="translate(106.329 -35.045)">
      <path id="Path_5779" data-name="Path 5779" d="M0,.768v-4.19H.525L1.551-1.049V-3.422h.632V.768h-.5L.647-1.726V.768Z" transform="translate(0 3.422)" fill="#fff"/>
    </g>
    <g id="Group_25738" data-name="Group 25738" transform="translate(0 -47.277)" clip-path="url(#clip-path)">
      <g id="Group_25735" data-name="Group 25735" transform="translate(109.046 12.184)">
        <path id="Path_5780" data-name="Path 5780" d="M.2.787A.975.975,0,0,1-.651.416,1.879,1.879,0,0,1-.912-.666V-2.031a2.975,2.975,0,0,1,.056-.623,1.294,1.294,0,0,1,.191-.458.81.81,0,0,1,.37-.3,1.5,1.5,0,0,1,.575-.1,1.143,1.143,0,0,1,.891.3,1.36,1.36,0,0,1,.271.924v.2H.713v-.218c0-.093,0-.168-.007-.227A.923.923,0,0,0,.676-2.7a.314.314,0,0,0-.07-.137.326.326,0,0,0-.124-.078A.523.523,0,0,0,.29-2.943a.491.491,0,0,0-.153.022.418.418,0,0,0-.113.053.267.267,0,0,0-.077.089A.658.658,0,0,0-.1-2.666a.93.93,0,0,0-.026.14c0,.058-.009.108-.011.152s0,.1,0,.17v1.69A1.237,1.237,0,0,0-.045.04.364.364,0,0,0,.311.215.461.461,0,0,0,.539.164.343.343,0,0,0,.683.008.87.87,0,0,0,.757-.233,2.073,2.073,0,0,0,.778-.56V-.9H.326V-1.4h1.14V.731H.97L.915.307A.7.7,0,0,1,.2.787" transform="translate(0.912 3.506)" fill="#fff"/>
      </g>
      <g id="Group_25736" data-name="Group 25736" transform="translate(101.678 33.413)">
        <path id="Path_5781" data-name="Path 5781" d="M1.79.54A2.715,2.715,0,0,0-.833-2.4c-.789,0-1.742.866-2.26,1.4C-3.61-1.539-4.5-2.4-5.29-2.4A2.764,2.764,0,0,0-7.976.54a2.976,2.976,0,0,0,.839,2.08l4.048,4.057L.955,2.625l0,0A2.982,2.982,0,0,0,1.79.54" transform="translate(7.976 2.405)" fill="#fff"/>
      </g>
      <g id="Group_25737" data-name="Group 25737" transform="translate(72.715 22.025)">
        <path id="Path_5782" data-name="Path 5782" d="M3.939,4.966H3.9a.663.663,0,0,1-.613-.551L1.227-7.565-1.888-1.788a.666.666,0,0,1-.7.338.666.666,0,0,1-.542-.56l-1.322-9.245-2.42,5.435a.665.665,0,0,1-.607.394h-9.405a.665.665,0,0,1-.665-.665.665.665,0,0,1,.665-.665h8.973L-4.73-13.9a.662.662,0,0,1,.7-.388.664.664,0,0,1,.566.563L-2.1-4.2l3.072-5.7a.662.662,0,0,1,.693-.34.662.662,0,0,1,.547.544L4.117,1.406l6.941-23.059a.663.663,0,0,1,.584-.47.664.664,0,0,1,.651.373l3.653,7.572a.665.665,0,0,1-.31.888.665.665,0,0,1-.888-.31l-2.911-6.033L4.576,4.492a.665.665,0,0,1-.637.474" transform="translate(17.551 22.126)" fill="#fff"/>
      </g>
    </g>
  </g>
</svg>
