<svg xmlns="http://www.w3.org/2000/svg" xmlns:xlink="http://www.w3.org/1999/xlink" width="183.529" height="56.887" viewBox="0 0 183.529 56.887">
  <defs>
    <clipPath id="clip-path">
      <path id="Path_5631" data-name="Path 5631" d="M0,9.928H183.529V-46.959H0Z" transform="translate(0 46.959)" fill="none"/>
    </clipPath>
  </defs>
  <g id="Group_25579" data-name="Group 25579" transform="translate(0 46.959)">
    <g id="Group_25581" data-name="Group 25581" transform="translate(0 -46.959)" clip-path="url(#clip-path)">
      <g id="Group_25579-2" data-name="Group 25579" transform="translate(0 0)">
        <path id="Path_5629" data-name="Path 5629" d="M9.9,8.73A6.867,6.867,0,0,1,3.034,15.6h-43A6.868,6.868,0,0,1-46.833,8.73V-34.421a6.869,6.869,0,0,1,6.869-6.869h43A6.868,6.868,0,0,1,9.9-34.421Z" transform="translate(46.833 41.29)" fill="#ff2d21"/>
      </g>
      <g id="Group_25580" data-name="Group 25580" transform="translate(3.381 4.947)">
        <path id="Path_5630" data-name="Path 5630" d="M.273.374A9.05,9.05,0,0,1-.584.708Q-1.146.9-1.293.963V-.577a9.008,9.008,0,0,0,1.1-.535,3.753,3.753,0,0,0,.917-.657H2.35V9.078H.273Z" transform="translate(1.293 1.769)" fill="#fff"/>
      </g>
    </g>
    <g id="Group_25582" data-name="Group 25582" transform="translate(11.57 -42.017)">
      <path id="Path_5632" data-name="Path 5632" d="M0,.723V-3.422H.52L1.535-1.074V-3.422H2.16V.723h-.5L.64-1.744V.723Z" transform="translate(0 3.422)" fill="#fff"/>
    </g>
    <g id="Group_25586" data-name="Group 25586" transform="translate(0 -46.959)" clip-path="url(#clip-path)">
      <g id="Group_25583" data-name="Group 25583" transform="translate(14.179 4.895)">
        <path id="Path_5633" data-name="Path 5633" d="M.176.637A.493.493,0,0,0,.365.67.487.487,0,0,0,.552.637.347.347,0,0,0,.676.551.375.375,0,0,0,.749.414.842.842,0,0,0,.783.245a1.934,1.934,0,0,0,.01-.2V-1.842a1.785,1.785,0,0,0-.015-.25A.674.674,0,0,0,.718-2.28a.288.288,0,0,0-.131-.132.5.5,0,0,0-.223-.044.51.51,0,0,0-.224.044A.277.277,0,0,0,.01-2.28a.635.635,0,0,0-.058.189,1.785,1.785,0,0,0-.015.25V.042a1.967,1.967,0,0,0,.008.2.939.939,0,0,0,.035.17A.356.356,0,0,0,.052.551.327.327,0,0,0,.176.637m.189.592A1.11,1.11,0,0,1-.554.882,1.607,1.607,0,0,1-.831-.136v-1.53a2.34,2.34,0,0,1,.063-.573,1.124,1.124,0,0,1,.2-.419A.83.83,0,0,1-.2-2.925a1.564,1.564,0,0,1,.56-.088,1.115,1.115,0,0,1,.916.342,1.559,1.559,0,0,1,.279,1.005v1.53A2.306,2.306,0,0,1,1.5.436a1.161,1.161,0,0,1-.2.426.847.847,0,0,1-.371.274,1.478,1.478,0,0,1-.557.093" transform="translate(0.831 3.013)" fill="#fff"/>
      </g>
      <g id="Group_25584" data-name="Group 25584" transform="translate(11.57 11.717)">
        <path id="Path_5634" data-name="Path 5634" d="M.132.308H.374A.569.569,0,0,0,.806.18.706.706,0,0,0,.919-.282,2.324,2.324,0,0,0,.9-.58a.468.468,0,0,0-.07-.19A.279.279,0,0,0,.671-.89,1.067,1.067,0,0,0,.376-.922H.132ZM-.623,2.69V-1.455H.569q1.061,0,1.06,1.178a1.1,1.1,0,0,1-.29.847A1.165,1.165,0,0,1,.522.837H.132V2.69Z" transform="translate(0.623 1.455)" fill="#fff"/>
      </g>
      <g id="Group_25585" data-name="Group 25585" transform="translate(14.131 11.67)">
        <path id="Path_5635" data-name="Path 5635" d="M.176.637A.493.493,0,0,0,.365.67.487.487,0,0,0,.552.637.347.347,0,0,0,.676.551.375.375,0,0,0,.749.414.842.842,0,0,0,.783.245a1.934,1.934,0,0,0,.01-.2V-1.842a1.785,1.785,0,0,0-.015-.25A.674.674,0,0,0,.718-2.28a.288.288,0,0,0-.131-.132.5.5,0,0,0-.223-.044.51.51,0,0,0-.224.044A.277.277,0,0,0,.01-2.28a.635.635,0,0,0-.058.189,1.785,1.785,0,0,0-.015.25V.042a1.967,1.967,0,0,0,.008.2.939.939,0,0,0,.035.17A.356.356,0,0,0,.052.551.327.327,0,0,0,.176.637m.189.592A1.11,1.11,0,0,1-.554.882,1.607,1.607,0,0,1-.831-.136v-1.53a2.34,2.34,0,0,1,.063-.573,1.124,1.124,0,0,1,.2-.419A.83.83,0,0,1-.2-2.925a1.564,1.564,0,0,1,.56-.088,1.115,1.115,0,0,1,.916.342,1.559,1.559,0,0,1,.28,1.005v1.53A2.3,2.3,0,0,1,1.5.436a1.181,1.181,0,0,1-.2.426.847.847,0,0,1-.371.274,1.478,1.478,0,0,1-.557.093" transform="translate(0.831 3.013)" fill="#fff"/>
      </g>
    </g>
    <g id="Group_25587" data-name="Group 25587" transform="translate(16.857 -35.243)">
      <path id="Path_5637" data-name="Path 5637" d="M.147.723l-.84-4.145h.67L.522-.536l.515-2.886h.684L.876.723Z" transform="translate(0.693 3.422)" fill="#fff"/>
    </g>
    <g id="Group_25588" data-name="Group 25588" transform="translate(19.671 -35.243)">
      <path id="Path_5638" data-name="Path 5638" d="M0,.723V-3.422H1.735v.533H.755V-1.7H1.53v.533H.755V.2h.993V.723Z" transform="translate(0 3.422)" fill="#fff"/>
    </g>
    <g id="Group_25590" data-name="Group 25590" transform="translate(0 -46.959)" clip-path="url(#clip-path)">
      <g id="Group_25589" data-name="Group 25589" transform="translate(21.828 11.717)">
        <path id="Path_5639" data-name="Path 5639" d="M.132.309H.313A.654.654,0,0,0,.791.166.682.682,0,0,0,.932-.321.729.729,0,0,0,.809-.8.57.57,0,0,0,.359-.941H.132ZM-.623,2.684V-1.461h.95a2.516,2.516,0,0,1,.562.055,1.093,1.093,0,0,1,.409.179.764.764,0,0,1,.259.343,1.413,1.413,0,0,1,.087.528,1.5,1.5,0,0,1-.116.637.711.711,0,0,1-.384.361l.574,2.042H.962L.467.792H.132V2.684Z" transform="translate(0.623 1.461)" fill="#fff"/>
      </g>
    </g>
    <g id="Group_25591" data-name="Group 25591" transform="translate(24.352 -35.243)">
      <path id="Path_5641" data-name="Path 5641" d="M.121.723V-2.865h-.7v-.557H1.548v.557H.876V.723Z" transform="translate(0.574 3.422)" fill="#fff"/>
    </g>
    <g id="Group_25592" data-name="Group 25592" transform="translate(26.517 -35.243)">
      <path id="Path_5642" data-name="Path 5642" d="M.147.723V-.854L-.7-3.422h.7l.512,1.65.491-1.65h.7L.867-.854V.723Z" transform="translate(0.697 3.422)" fill="#fff"/>
    </g>
    <g id="Group_25603" data-name="Group 25603" transform="translate(0 -46.959)" clip-path="url(#clip-path)">
      <g id="Group_25593" data-name="Group 25593" transform="translate(43.804 25.551)">
        <path id="Path_5643" data-name="Path 5643" d="M0,.276A1.582,1.582,0,1,1,1.583,1.858,1.584,1.584,0,0,1,0,.276" transform="translate(0 1.307)" fill="#fff"/>
      </g>
      <g id="Group_25594" data-name="Group 25594" transform="translate(41.623 29.317)">
        <path id="Path_5644" data-name="Path 5644" d="M.979,0A2.109,2.109,0,0,1,2.895,2.1V6.489a.614.614,0,0,1-1.227,0V2.721c0-.141-.041-.332-.3-.332-.178,0-.216.189-.223.31V13.989a.881.881,0,0,1-1.763,0V7.482a.238.238,0,0,0-.25-.257h0a.241.241,0,0,0-.254.257v6.507A.881.881,0,0,1-2,14.869a.881.881,0,0,1-.882-.881V2.7c0-.121-.044-.31-.222-.31-.259,0-.3.191-.3.332V6.489a.615.615,0,0,1-.614.613.614.614,0,0,1-.613-.613V2.1A2.109,2.109,0,0,1-2.714,0,.835.835,0,0,1-2.6-.008H.859A.891.891,0,0,1,.979,0" transform="translate(4.632 0.008)" fill="#fff"/>
      </g>
      <g id="Group_25595" data-name="Group 25595" transform="translate(31.4 26.465)">
        <path id="Path_5645" data-name="Path 5645" d="M.523.262a1.5,1.5,0,0,0-1.5-1.5,1.5,1.5,0,0,0-1.5,1.5,1.5,1.5,0,0,0,1.5,1.5,1.5,1.5,0,0,0,1.5-1.5" transform="translate(2.473 1.238)" fill="#fff"/>
      </g>
      <g id="Group_25596" data-name="Group 25596" transform="translate(28.597 30.187)">
        <path id="Path_5646" data-name="Path 5646" d="M.224.2-1.021,4.259s-.222.743.408.928S.2,4.648.2,4.648l1-3.385s.055-.259.251-.2.122.334.122.334L-.166,7.736H1.46v4.542a.78.78,0,0,0,1.56,0V7.736h.443v4.542a.781.781,0,0,0,1.562,0V7.736H6.649L4.9,1.394s-.074-.277.121-.334.251.2.251.2l1,3.385s.19.726.818.539.408-.928.408-.928L6.26.2S5.816-.967,4.83-.967H1.655C.67-.967.224.2.224.2" transform="translate(1.059 0.967)" fill="#fff"/>
      </g>
      <g id="Group_25597" data-name="Group 25597" transform="translate(22.427 26.465)">
        <path id="Path_5647" data-name="Path 5647" d="M.523.262a1.5,1.5,0,0,0-1.5-1.5,1.5,1.5,0,0,0-1.5,1.5,1.5,1.5,0,0,0,1.5,1.5,1.5,1.5,0,0,0,1.5-1.5" transform="translate(2.473 1.238)" fill="#fff"/>
      </g>
      <g id="Group_25598" data-name="Group 25598" transform="translate(19.624 30.187)">
        <path id="Path_5648" data-name="Path 5648" d="M.224.2-1.02,4.259s-.223.743.407.928S.2,4.648.2,4.648l1-3.385s.056-.259.251-.2.121.334.121.334L-.166,7.736H1.459v4.542a.78.78,0,0,0,1.56,0V7.736h.445v4.542a.78.78,0,0,0,1.56,0V7.736H6.65L4.9,1.394s-.075-.277.12-.334.251.2.251.2l1,3.385s.19.726.818.539.408-.928.408-.928L6.26.2S5.816-.967,4.83-.967H1.656C.671-.967.224.2.224.2" transform="translate(1.059 0.967)" fill="#fff"/>
      </g>
      <g id="Group_25599" data-name="Group 25599" transform="translate(38.181 33.856)">
        <path id="Path_5649" data-name="Path 5649" d="M.218.435A1.246,1.246,0,0,0,1.464-.812,1.245,1.245,0,0,0,.218-2.059,1.245,1.245,0,0,0-1.029-.812,1.246,1.246,0,0,0,.218.435" transform="translate(1.029 2.059)" fill="#fff"/>
      </g>
      <g id="Group_25600" data-name="Group 25600" transform="translate(36.391 36.837)">
        <path id="Path_5650" data-name="Path 5650" d="M.008.591a.434.434,0,0,0,.182.59.415.415,0,0,0,.534-.174L1.4-1.155s.118-.145.118,0V3.94h0a.639.639,0,1,0,1.278,0V1.931s-.036-.283.193-.283.194.283.194.283V3.94a.641.641,0,0,0,1.282,0V-1.15c0-.15.079-.044.079-.044L5.08.287a3.483,3.483,0,0,0,.3.691A.471.471,0,0,0,6,.722.465.465,0,0,0,5.949.268l0,0c-.016-.047-.795-1.958-.886-2.225-.281-.821-.793-.814-1.287-.829s-.787,0-.787,0-.315-.012-.966.007S1.173-2.43.456-.586C.355-.321.008.538,0,.59Z" transform="translate(0.038 2.796)" fill="#fff"/>
      </g>
      <g id="Group_25601" data-name="Group 25601" transform="translate(8.88 25.551)">
        <path id="Path_5651" data-name="Path 5651" d="M.552.276A1.584,1.584,0,0,0-1.031-1.307,1.581,1.581,0,0,0-2.611.276a1.58,1.58,0,0,0,1.58,1.582A1.583,1.583,0,0,0,.552.276" transform="translate(2.611 1.307)" fill="#fff"/>
      </g>
      <g id="Group_25602" data-name="Group 25602" transform="translate(6.697 29.317)">
        <path id="Path_5652" data-name="Path 5652" d="M.334,0A2.109,2.109,0,0,0-1.581,2.1V6.489A.615.615,0,0,0-.967,7.1a.614.614,0,0,0,.613-.613V2.721c0-.141.041-.332.3-.332.178,0,.216.189.223.31V13.989a.881.881,0,1,0,1.761,0V7.482a.24.24,0,0,1,.252-.257h0a.241.241,0,0,1,.254.257v6.507a.881.881,0,0,0,1.763,0V2.7c0-.121.045-.31.222-.31.259,0,.3.191.3.332V6.489a.614.614,0,0,0,1.227,0V2.1A2.109,2.109,0,0,0,4.029,0a.851.851,0,0,0-.116-.01H.455A.893.893,0,0,0,.334,0" transform="translate(1.581 0.008)" fill="#fff"/>
      </g>
    </g>
    <g id="Group_25604" data-name="Group 25604" transform="translate(5.828 -10.508)">
      <path id="Path_5654" data-name="Path 5654" d="M.245,0-1.16,7.447" transform="translate(1.16)" fill="none" stroke="#fff" stroke-linecap="round" stroke-width="0.556"/>
    </g>
    <g id="Group_25607" data-name="Group 25607" transform="translate(0 -46.959)" clip-path="url(#clip-path)">
      <g id="Group_25605" data-name="Group 25605" transform="translate(14.136 35.483)">
        <path id="Path_5655" data-name="Path 5655" d="M.147.037A.459.459,0,0,0-.239-.176.454.454,0,0,0-.693.277a.824.824,0,0,0,.045.2L.609,2.752a.806.806,0,0,1,.076.3V7.937h0a.614.614,0,1,0,1.228,0V6.01s-.035-.273.185-.273.185.273.185.273V7.937a.615.615,0,1,0,1.231,0V3.051a.806.806,0,0,1,.076-.3L4.756.651A2.046,2.046,0,0,0,4.9.277a.454.454,0,0,0-.84-.24l0,0c-.036.031-.619,1.067-.81,1.26a.5.5,0,0,1-.385.182H1.347a.5.5,0,0,1-.385-.182C.767,1.1.188.066.15.035Z" transform="translate(0.693 0.176)" fill="#fff"/>
      </g>
      <g id="Group_25606" data-name="Group 25606" transform="translate(15.684 33.856)">
        <path id="Path_5656" data-name="Path 5656" d="M.218.435A1.246,1.246,0,0,0,1.464-.812,1.245,1.245,0,0,0,.218-2.059,1.245,1.245,0,0,0-1.029-.812,1.247,1.247,0,0,0,.218.435" transform="translate(1.029 2.059)" fill="#fff"/>
      </g>
    </g>
    <g id="Group_25608" data-name="Group 25608" transform="translate(14.852 -8.859)">
      <path id="Path_5658" data-name="Path 5658" d="M.363,0,1.772,1.027l.67,2.466H-1.717l.671-2.466Z" transform="translate(1.717)" fill="#fff"/>
    </g>
    <g id="Group_25612" data-name="Group 25612" transform="translate(0 -46.959)" clip-path="url(#clip-path)">
      <g id="Group_25609" data-name="Group 25609" transform="translate(63.283 0)">
        <path id="Path_5659" data-name="Path 5659" d="M9.928,8.73A6.867,6.867,0,0,1,3.061,15.6H-40.091A6.867,6.867,0,0,1-46.959,8.73V-34.421a6.868,6.868,0,0,1,6.868-6.869H3.061a6.868,6.868,0,0,1,6.868,6.869Z" transform="translate(46.959 41.29)" fill="#ff4221"/>
      </g>
      <g id="Group_25610" data-name="Group 25610" transform="translate(67.912 4.947)">
        <path id="Path_5660" data-name="Path 5660" d="M.187,1.855A1.992,1.992,0,0,1-.656.736,6.082,6.082,0,0,1-.884-1.071H1.125A3.827,3.827,0,0,0,1.3.287.666.666,0,0,0,1.981.71a.672.672,0,0,0,.59-.268A1.534,1.534,0,0,0,2.8-.288c.031-.308.047-.751.047-1.333A4.513,4.513,0,0,0,2.67-3.1a.716.716,0,0,0-.743-.489c-.482,0-.79.327-.923.978H-.777l.148-6.16H4.365v1.781H1.071L.95-4.594a1.4,1.4,0,0,1,.642-.382,3.03,3.03,0,0,1,.979-.154,1.847,1.847,0,0,1,1.673.9,4.73,4.73,0,0,1,.563,2.517A8.441,8.441,0,0,1,4.58.421a2.427,2.427,0,0,1-.864,1.34A2.928,2.928,0,0,1,1.9,2.25,3.169,3.169,0,0,1,.187,1.855" transform="translate(0.884 8.772)" fill="#fff"/>
      </g>
      <g id="Group_25611" data-name="Group 25611" transform="translate(78.184 4.895)">
        <path id="Path_5661" data-name="Path 5661" d="M.193.741A.961.961,0,0,1-.653.374,1.849,1.849,0,0,1-.912-.7v-1.35a2.943,2.943,0,0,1,.056-.617,1.28,1.28,0,0,1,.189-.453A.8.8,0,0,1-.3-3.409a1.482,1.482,0,0,1,.569-.1,1.129,1.129,0,0,1,.882.3,1.339,1.339,0,0,1,.268.915v.2H.7V-2.3c0-.092,0-.166-.006-.224a1.02,1.02,0,0,0-.03-.177A.311.311,0,0,0,.59-2.841a.322.322,0,0,0-.122-.078.518.518,0,0,0-.19-.03.491.491,0,0,0-.151.022.432.432,0,0,0-.111.052.264.264,0,0,0-.076.088.764.764,0,0,0-.047.111.938.938,0,0,0-.024.138c-.006.057-.01.107-.012.15s0,.1,0,.168V-.546A1.224,1.224,0,0,0-.054,0,.36.36,0,0,0,.3.176.453.453,0,0,0,.524.125.34.34,0,0,0,.666-.029.811.811,0,0,0,.739-.268,2.051,2.051,0,0,0,.76-.591v-.34H.313v-.487H1.441v2.1H.95L.9.266a.7.7,0,0,1-.7.475" transform="translate(0.912 3.506)" fill="#fff"/>
      </g>
    </g>
    <g id="Group_25613" data-name="Group 25613" transform="translate(81.081 -42.017)">
      <path id="Path_5663" data-name="Path 5663" d="M0,.723V-3.422H1.735v.533H.755V-1.7H1.53v.533H.755V.2h.993V.723Z" transform="translate(0 3.422)" fill="#fff"/>
    </g>
    <g id="Group_25614" data-name="Group 25614" transform="translate(83.238 -42.017)">
      <path id="Path_5664" data-name="Path 5664" d="M0,.723V-3.422H.52L1.535-1.074V-3.422H2.16V.723h-.5L.64-1.744V.723Z" transform="translate(0 3.422)" fill="#fff"/>
    </g>
    <g id="Group_25616" data-name="Group 25616" transform="translate(0 -46.959)" clip-path="url(#clip-path)">
      <g id="Group_25615" data-name="Group 25615" transform="translate(85.993 4.942)">
        <path id="Path_5665" data-name="Path 5665" d="M.132.631H.346a.865.865,0,0,0,.2-.019A.815.815,0,0,0,.687.563a.236.236,0,0,0,.1-.09A.733.733,0,0,0,.842.358.68.68,0,0,0,.872.2C.878.128.883.068.884.018s0-.124,0-.222V-1.719c0-.1,0-.178,0-.237a1.208,1.208,0,0,0-.024-.182A.354.354,0,0,0,.8-2.279a.387.387,0,0,0-.1-.092.409.409,0,0,0-.15-.057,1.225,1.225,0,0,0-.218-.017H.132Zm-.755.529V-2.984H.341a2.207,2.207,0,0,1,.628.075.882.882,0,0,1,.406.237.916.916,0,0,1,.216.4,2.269,2.269,0,0,1,.064.581V-.2a2.387,2.387,0,0,1-.065.6,1.046,1.046,0,0,1-.213.42.869.869,0,0,1-.4.254,1.992,1.992,0,0,1-.607.08Z" transform="translate(0.623 2.984)" fill="#fff"/>
      </g>
    </g>
    <g id="Group_25617" data-name="Group 25617" transform="translate(88.8 -42.017)">
      <path id="Path_5667" data-name="Path 5667" d="M0,.723V-3.422H1.735v.533H.755V-1.7H1.53v.533H.755V.2h.993V.723Z" transform="translate(0 3.422)" fill="#fff"/>
    </g>
    <g id="Group_25619" data-name="Group 25619" transform="translate(0 -46.959)" clip-path="url(#clip-path)">
      <g id="Group_25618" data-name="Group 25618" transform="translate(90.957 4.942)">
        <path id="Path_5668" data-name="Path 5668" d="M.132.309H.315A.647.647,0,0,0,.79.166.676.676,0,0,0,.931-.321.729.729,0,0,0,.809-.8.57.57,0,0,0,.359-.941H.132ZM-.623,2.684V-1.461h.95a2.516,2.516,0,0,1,.562.055,1.085,1.085,0,0,1,.409.179.764.764,0,0,1,.259.343,1.413,1.413,0,0,1,.087.528,1.5,1.5,0,0,1-.116.637.715.715,0,0,1-.384.361l.574,2.042H.962L.466.792H.132V2.684Z" transform="translate(0.623 1.461)" fill="#fff"/>
      </g>
    </g>
    <g id="Group_25620" data-name="Group 25620" transform="translate(78.252 -35.243)">
      <path id="Path_5670" data-name="Path 5670" d="M0,.723V-3.422H1.735v.533H.755V-1.7H1.53v.533H.755V.2h.993V.723Z" transform="translate(0 3.422)" fill="#fff"/>
    </g>
    <g id="Group_25623" data-name="Group 25623" transform="translate(0 -46.959)" clip-path="url(#clip-path)">
      <g id="Group_25621" data-name="Group 25621" transform="translate(80.341 11.669)">
        <path id="Path_5671" data-name="Path 5671" d="M.176.637A.489.489,0,0,0,.365.67.476.476,0,0,0,.551.637.354.354,0,0,0,.676.552.371.371,0,0,0,.747.414.845.845,0,0,0,.783.245a1.917,1.917,0,0,0,.01-.2V-1.842a1.762,1.762,0,0,0-.016-.25A.635.635,0,0,0,.718-2.28a.29.29,0,0,0-.132-.132.5.5,0,0,0-.222-.044.506.506,0,0,0-.224.044A.277.277,0,0,0,.01-2.28a.635.635,0,0,0-.058.189,1.785,1.785,0,0,0-.015.25V.042a1.951,1.951,0,0,0,.008.2.845.845,0,0,0,.035.17A.371.371,0,0,0,.052.552.328.328,0,0,0,.176.637M1.247,2.01a1.545,1.545,0,0,1-.414-.315,3.044,3.044,0,0,1-.383-.468c-.018,0-.047,0-.085,0A1.11,1.11,0,0,1-.554.882,1.6,1.6,0,0,1-.831-.136v-1.53a2.289,2.289,0,0,1,.063-.573,1.115,1.115,0,0,1,.2-.419A.833.833,0,0,1-.2-2.925a1.571,1.571,0,0,1,.561-.088,1.114,1.114,0,0,1,.916.343,1.556,1.556,0,0,1,.279,1v1.53c0,.644-.191,1.058-.575,1.243a1.93,1.93,0,0,0,.4.39Z" transform="translate(0.831 3.013)" fill="#fff"/>
      </g>
      <g id="Group_25622" data-name="Group 25622" transform="translate(83.225 11.717)">
        <path id="Path_5672" data-name="Path 5672" d="M.2.732A1.576,1.576,0,0,1-.277.667.9.9,0,0,1-.613.485a.846.846,0,0,1-.21-.3,1.587,1.587,0,0,1-.11-.4,3.507,3.507,0,0,1-.031-.5V-3.463h.733v2.83c0,.1,0,.179.007.248A1.442,1.442,0,0,0-.191-.17.488.488,0,0,0-.12.01.362.362,0,0,0,.008.123.412.412,0,0,0,.2.166.412.412,0,0,0,.4.123.343.343,0,0,0,.525.01.59.59,0,0,0,.6-.17,1.451,1.451,0,0,0,.628-.384c0-.068.006-.15.006-.25v-2.83h.733V-.711a3.507,3.507,0,0,1-.031.5,1.587,1.587,0,0,1-.11.4.875.875,0,0,1-.208.3A.9.9,0,0,1,.682.667,1.57,1.57,0,0,1,.2.732" transform="translate(0.964 3.463)" fill="#fff"/>
      </g>
    </g>
    <g id="Group_25624" data-name="Group 25624" transform="translate(85.902 -35.243)">
      <path id="Path_5674" data-name="Path 5674" d="M.168.47H.723l-.277-1.7ZM-.8,1.924.048-2.221H.836l.841,4.145h-.7L.805.963H.088l-.17.962Z" transform="translate(0.795 2.221)" fill="#fff"/>
    </g>
    <g id="Group_25625" data-name="Group 25625" transform="translate(88.755 -35.243)">
      <path id="Path_5675" data-name="Path 5675" d="M0,.723V-3.422H.755V.2h.993V.723Z" transform="translate(0 3.422)" fill="#fff"/>
    </g>
    <path id="Path_5676" data-name="Path 5676" d="M75.035-33.142h.745v-4.145h-.745Z" transform="translate(15.864 2.045)" fill="#fff"/>
    <g id="Group_25626" data-name="Group 25626" transform="translate(91.966 -35.243)">
      <path id="Path_5677" data-name="Path 5677" d="M.121.723V-2.865h-.7v-.557H1.548v.557H.876V.723Z" transform="translate(0.574 3.422)" fill="#fff"/>
    </g>
    <g id="Group_25627" data-name="Group 25627" transform="translate(94.131 -35.243)">
      <path id="Path_5678" data-name="Path 5678" d="M.147.723V-.854L-.7-3.422h.7L.52-1.772l.489-1.65h.7L.868-.854V.723Z" transform="translate(0.697 3.422)" fill="#fff"/>
    </g>
    <g id="Group_25634" data-name="Group 25634" transform="translate(0 -46.959)" clip-path="url(#clip-path)">
      <g id="Group_25628" data-name="Group 25628" transform="translate(82.324 21.492)">
        <path id="Path_5679" data-name="Path 5679" d="M1.624,3.464A6.855,6.855,0,0,1-5.223-3.383a6.855,6.855,0,0,1,6.847-6.848A6.855,6.855,0,0,1,8.471-3.383,6.855,6.855,0,0,1,1.624,3.464m13.15-19.847h-7.1a.091.091,0,0,0-.09.091v2.361a.091.091,0,0,0,.09.091H10.5L7.359-10.7a9.246,9.246,0,0,0-5.735-1.986,9.314,9.314,0,0,0-9.3,9.3,9.315,9.315,0,0,0,8.1,9.223v2.72h-2.8a.089.089,0,0,0-.091.09v2.529a.089.089,0,0,0,.091.091h2.8v2.676a.089.089,0,0,0,.09.09H3.042a.09.09,0,0,0,.091-.09V11.269h2.8a.091.091,0,0,0,.091-.091V8.649a.09.09,0,0,0-.091-.09h-2.8V5.795a9.316,9.316,0,0,0,7.793-9.178,9.242,9.242,0,0,0-1.7-5.351l3.1-3.1v2.642a.09.09,0,0,0,.091.09h2.36a.091.091,0,0,0,.092-.09v-7.1a.092.092,0,0,0-.092-.091" transform="translate(7.68 16.383)" fill="#fff"/>
      </g>
      <g id="Group_25629" data-name="Group 25629" transform="translate(87.415 31.681)">
        <path id="Path_5680" data-name="Path 5680" d="M1.465,0H-6.84a.086.086,0,0,0-.09.081V2.092a.085.085,0,0,0,.09.081H1.465a.086.086,0,0,0,.092-.081V.081A.087.087,0,0,0,1.465,0" transform="translate(6.93)" fill="#fff"/>
      </g>
      <g id="Group_25630" data-name="Group 25630" transform="translate(87.415 35.271)">
        <path id="Path_5681" data-name="Path 5681" d="M1.465,0H-6.84a.087.087,0,0,0-.09.084V2.095a.086.086,0,0,0,.09.081H1.465a.086.086,0,0,0,.092-.081V.084A.087.087,0,0,0,1.465,0" transform="translate(6.93)" fill="#fff"/>
      </g>
      <g id="Group_25631" data-name="Group 25631" transform="translate(126.642 0)">
        <path id="Path_5682" data-name="Path 5682" d="M9.928,8.73A6.867,6.867,0,0,1,3.061,15.6H-40.091A6.867,6.867,0,0,1-46.959,8.73V-34.421a6.868,6.868,0,0,1,6.868-6.869H3.061a6.868,6.868,0,0,1,6.868,6.869Z" transform="translate(46.959 41.29)" fill="#951d33"/>
      </g>
      <g id="Group_25632" data-name="Group 25632" transform="translate(131.096 4.814)">
        <path id="Path_5683" data-name="Path 5683" d="M.64.493a1.942,1.942,0,0,0-.188-.93A.615.615,0,0,0-.123-.779a.642.642,0,0,0-.589.342,1.826,1.826,0,0,0-.2.93q0,1.674.79,1.674Q.64,2.167.64.493M.58,6.794A3.4,3.4,0,0,0,.76,5.6,3.606,3.606,0,0,0,.58,4.324a.69.69,0,0,0-.7-.47.688.688,0,0,0-.7.476A3.626,3.626,0,0,0-1.007,5.6a3.393,3.393,0,0,0,.182,1.2.686.686,0,0,0,.7.475.688.688,0,0,0,.7-.475M-3.029,5.515a3.629,3.629,0,0,1,.321-1.58,2.094,2.094,0,0,1,.951-.991,2.659,2.659,0,0,1-.8-.972A3.24,3.24,0,0,1-2.868.493a2.892,2.892,0,0,1,.71-2.082A2.68,2.68,0,0,1-.123-2.333,2.652,2.652,0,0,1,1.9-1.6,2.869,2.869,0,0,1,2.6.453,3.51,3.51,0,0,1,2.3,1.98a2.434,2.434,0,0,1-.789.964,2.078,2.078,0,0,1,.95,1.018,3.9,3.9,0,0,1,.322,1.648,3.6,3.6,0,0,1-.7,2.356,2.7,2.7,0,0,1-2.21.844q-2.906,0-2.906-3.3" transform="translate(3.029 2.333)" fill="#fff"/>
      </g>
      <g id="Group_25633" data-name="Group 25633" transform="translate(140.98 4.943)">
        <path id="Path_5684" data-name="Path 5684" d="M.132.631H.347a.872.872,0,0,0,.2-.019A.835.835,0,0,0,.687.563a.236.236,0,0,0,.1-.09A.733.733,0,0,0,.842.358.68.68,0,0,0,.872.2C.879.128.883.068.884.018s0-.124,0-.222V-1.719c0-.1,0-.178,0-.237a1.184,1.184,0,0,0-.023-.182A.373.373,0,0,0,.8-2.279a.387.387,0,0,0-.1-.092.4.4,0,0,0-.15-.057,1.245,1.245,0,0,0-.218-.017H.132Zm-.755.529V-2.984H.341a2.21,2.21,0,0,1,.629.075.885.885,0,0,1,.4.237.916.916,0,0,1,.216.4,2.262,2.262,0,0,1,.064.581V-.2a2.387,2.387,0,0,1-.065.6,1.031,1.031,0,0,1-.213.42.871.871,0,0,1-.4.254,2.006,2.006,0,0,1-.608.08Z" transform="translate(0.623 2.984)" fill="#fff"/>
      </g>
    </g>
    <g id="Group_25635" data-name="Group 25635" transform="translate(143.679 -42.017)">
      <path id="Path_5686" data-name="Path 5686" d="M0,.723V-3.422H1.735v.533H.755V-1.7H1.53v.533H.755V.2h.993V.723Z" transform="translate(0 3.422)" fill="#fff"/>
    </g>
    <g id="Group_25637" data-name="Group 25637" transform="translate(0 -46.959)" clip-path="url(#clip-path)">
      <g id="Group_25636" data-name="Group 25636" transform="translate(145.661 4.895)">
        <path id="Path_5687" data-name="Path 5687" d="M.206.74A1.482,1.482,0,0,1-.267.673.925.925,0,0,1-.606.485a.923.923,0,0,1-.217-.3A1.427,1.427,0,0,1-.94-.194,2.758,2.758,0,0,1-.974-.652V-2.1a2.975,2.975,0,0,1,.035-.48,1.479,1.479,0,0,1,.118-.386.844.844,0,0,1,.216-.294.976.976,0,0,1,.338-.181A1.589,1.589,0,0,1,.206-3.5a1.519,1.519,0,0,1,.529.082.78.78,0,0,1,.348.242,1,1,0,0,1,.185.374,1.9,1.9,0,0,1,.058.5v.355H.6V-2.3a1.71,1.71,0,0,0-.033-.417.315.315,0,0,0-.317-.225H.208a.528.528,0,0,0-.166.023.257.257,0,0,0-.116.07.45.45,0,0,0-.073.1A.515.515,0,0,0-.188-2.6q-.013.089-.018.164c0,.05,0,.114,0,.19V-.494a1.09,1.09,0,0,0,.092.52A.347.347,0,0,0,.208.181.461.461,0,0,0,.35.161a.345.345,0,0,0,.1-.047A.237.237,0,0,0,.522.032a.574.574,0,0,0,.044-.1A.6.6,0,0,0,.589-.2C.594-.252.6-.3.6-.337s0-.091,0-.157V-.865h.728v.34a2.394,2.394,0,0,1-.033.417A1.327,1.327,0,0,1,1.182.24a.807.807,0,0,1-.2.27.91.91,0,0,1-.32.17A1.548,1.548,0,0,1,.206.74" transform="translate(0.974 3.502)" fill="#fff"/>
      </g>
    </g>
    <g id="Group_25638" data-name="Group 25638" transform="translate(148.351 -42.017)">
      <path id="Path_5689" data-name="Path 5689" d="M0,.723V-3.422H1.735v.533H.755V-1.7H1.53v.533H.755V.2h.993V.723Z" transform="translate(0 3.422)" fill="#fff"/>
    </g>
    <g id="Group_25639" data-name="Group 25639" transform="translate(150.4 -42.017)">
      <path id="Path_5690" data-name="Path 5690" d="M0,.723V-3.422H.52L1.535-1.074V-3.422H2.16V.723h-.5L.64-1.744V.723Z" transform="translate(0 3.422)" fill="#fff"/>
    </g>
    <g id="Group_25640" data-name="Group 25640" transform="translate(152.757 -42.017)">
      <path id="Path_5691" data-name="Path 5691" d="M.121.723V-2.865h-.7v-.557H1.548v.557H.876V.723Z" transform="translate(0.574 3.422)" fill="#fff"/>
    </g>
    <g id="Group_25641" data-name="Group 25641" transform="translate(156.051 -42.017)">
      <path id="Path_5692" data-name="Path 5692" d="M.1.723-.489-3.422H.146L.486-.75.928-3.422h.508L1.889-.747l.339-2.675h.623L2.259.723h-.6L1.189-2.045.724.723Z" transform="translate(0.489 3.422)" fill="#fff"/>
    </g>
    <g id="Group_25644" data-name="Group 25644" transform="translate(0 -46.959)" clip-path="url(#clip-path)">
      <g id="Group_25642" data-name="Group 25642" transform="translate(159.635 4.895)">
        <path id="Path_5693" data-name="Path 5693" d="M.176.637A.493.493,0,0,0,.365.67.487.487,0,0,0,.552.637.347.347,0,0,0,.676.551.375.375,0,0,0,.749.414.842.842,0,0,0,.783.245a1.934,1.934,0,0,0,.01-.2V-1.842a1.785,1.785,0,0,0-.015-.25A.674.674,0,0,0,.718-2.28a.288.288,0,0,0-.131-.132.5.5,0,0,0-.223-.044.51.51,0,0,0-.224.044A.277.277,0,0,0,.01-2.28a.635.635,0,0,0-.058.189,1.785,1.785,0,0,0-.015.25V.042a1.967,1.967,0,0,0,.008.2.939.939,0,0,0,.035.17A.356.356,0,0,0,.052.551.327.327,0,0,0,.176.637m.189.592A1.11,1.11,0,0,1-.554.882,1.607,1.607,0,0,1-.831-.136v-1.53a2.282,2.282,0,0,1,.063-.573,1.124,1.124,0,0,1,.2-.419A.821.821,0,0,1-.2-2.925a1.564,1.564,0,0,1,.56-.088,1.115,1.115,0,0,1,.916.342,1.559,1.559,0,0,1,.28,1.005v1.53A2.3,2.3,0,0,1,1.5.436a1.181,1.181,0,0,1-.2.426.847.847,0,0,1-.371.274,1.5,1.5,0,0,1-.557.093" transform="translate(0.831 3.013)" fill="#fff"/>
      </g>
      <g id="Group_25643" data-name="Group 25643" transform="translate(162.446 4.942)">
        <path id="Path_5694" data-name="Path 5694" d="M.132.309H.313A.654.654,0,0,0,.791.166.68.68,0,0,0,.932-.321.729.729,0,0,0,.809-.8.57.57,0,0,0,.359-.941H.132ZM-.623,2.684V-1.461h.95a2.516,2.516,0,0,1,.562.055,1.093,1.093,0,0,1,.409.179.764.764,0,0,1,.259.343,1.413,1.413,0,0,1,.087.528,1.5,1.5,0,0,1-.116.637.711.711,0,0,1-.384.361l.574,2.042H.962L.467.792H.132V2.684Z" transform="translate(0.623 1.461)" fill="#fff"/>
      </g>
    </g>
    <g id="Group_25645" data-name="Group 25645" transform="translate(165.152 -42.017)">
      <path id="Path_5696" data-name="Path 5696" d="M0,.723V-3.422H.755v1.8l.815-1.8h.721L1.5-1.566,2.372.723H1.621L.9-1.227l-.15.27V.723Z" transform="translate(0 3.422)" fill="#fff"/>
    </g>
    <g id="Group_25646" data-name="Group 25646" transform="translate(168.633 -42.017)">
      <path id="Path_5697" data-name="Path 5697" d="M.168.47H.723l-.277-1.7ZM-.8,1.924.048-2.221H.836l.84,4.145h-.7L.805.963H.088l-.171.962Z" transform="translate(0.795 2.221)" fill="#fff"/>
    </g>
    <g id="Group_25647" data-name="Group 25647" transform="translate(171.378 -42.017)">
      <path id="Path_5698" data-name="Path 5698" d="M0,.723V-3.422H.52L1.535-1.074V-3.422H2.16V.723h-.5L.64-1.744V.723Z" transform="translate(0 3.422)" fill="#fff"/>
    </g>
    <g id="Group_25649" data-name="Group 25649" transform="translate(0 -46.959)" clip-path="url(#clip-path)">
      <g id="Group_25648" data-name="Group 25648" transform="translate(174.026 4.943)">
        <path id="Path_5699" data-name="Path 5699" d="M.132.631H.347a.872.872,0,0,0,.2-.019A.835.835,0,0,0,.687.563a.236.236,0,0,0,.1-.09A.733.733,0,0,0,.842.358.68.68,0,0,0,.872.2C.879.128.883.068.884.018s0-.124,0-.222V-1.719c0-.1,0-.178,0-.237a1.184,1.184,0,0,0-.023-.182A.373.373,0,0,0,.8-2.279a.387.387,0,0,0-.1-.092.4.4,0,0,0-.15-.057,1.245,1.245,0,0,0-.218-.017H.132Zm-.755.529V-2.984H.341a2.21,2.21,0,0,1,.629.075.885.885,0,0,1,.4.237.916.916,0,0,1,.216.4,2.262,2.262,0,0,1,.064.581V-.2a2.387,2.387,0,0,1-.065.6,1.031,1.031,0,0,1-.213.42.871.871,0,0,1-.4.254,2.006,2.006,0,0,1-.608.08Z" transform="translate(0.623 2.984)" fill="#fff"/>
      </g>
    </g>
    <g id="Group_25650" data-name="Group 25650" transform="translate(140.98 -35.242)">
      <path id="Path_5701" data-name="Path 5701" d="M0,.723V-3.422H1.735v.533H.755V-1.7H1.53v.533H.755V.2h.993V.723Z" transform="translate(0 3.422)" fill="#fff"/>
    </g>
    <g id="Group_25653" data-name="Group 25653" transform="translate(0 -46.959)" clip-path="url(#clip-path)">
      <g id="Group_25651" data-name="Group 25651" transform="translate(142.992 11.67)">
        <path id="Path_5702" data-name="Path 5702" d="M.206.74A1.482,1.482,0,0,1-.267.673.925.925,0,0,1-.606.485a.923.923,0,0,1-.217-.3A1.427,1.427,0,0,1-.94-.194,2.758,2.758,0,0,1-.974-.652V-2.1a2.975,2.975,0,0,1,.035-.48,1.479,1.479,0,0,1,.118-.386.844.844,0,0,1,.216-.294.976.976,0,0,1,.338-.181A1.589,1.589,0,0,1,.206-3.5a1.519,1.519,0,0,1,.529.082.78.78,0,0,1,.348.242,1,1,0,0,1,.185.374,1.9,1.9,0,0,1,.058.5v.355H.6V-2.3a1.71,1.71,0,0,0-.033-.417.315.315,0,0,0-.317-.225H.208a.528.528,0,0,0-.166.023.257.257,0,0,0-.116.07.45.45,0,0,0-.073.1A.515.515,0,0,0-.188-2.6q-.013.089-.018.164c0,.05,0,.114,0,.19V-.494a1.09,1.09,0,0,0,.092.52A.347.347,0,0,0,.208.181.461.461,0,0,0,.35.161a.345.345,0,0,0,.1-.047A.237.237,0,0,0,.522.032a.574.574,0,0,0,.044-.1A.6.6,0,0,0,.589-.2C.594-.252.6-.3.6-.337s0-.091,0-.157V-.865h.728v.34a2.394,2.394,0,0,1-.033.417A1.327,1.327,0,0,1,1.182.24a.807.807,0,0,1-.2.27.91.91,0,0,1-.32.17A1.548,1.548,0,0,1,.206.74" transform="translate(0.974 3.502)" fill="#fff"/>
      </g>
      <g id="Group_25652" data-name="Group 25652" transform="translate(145.645 11.67)">
        <path id="Path_5703" data-name="Path 5703" d="M.176.637A.517.517,0,0,0,.365.67.511.511,0,0,0,.552.637.347.347,0,0,0,.676.551.375.375,0,0,0,.749.414.842.842,0,0,0,.783.245a1.934,1.934,0,0,0,.01-.2V-1.842a1.785,1.785,0,0,0-.015-.25A.674.674,0,0,0,.718-2.28a.288.288,0,0,0-.131-.132.5.5,0,0,0-.223-.044.51.51,0,0,0-.224.044A.277.277,0,0,0,.01-2.28a.635.635,0,0,0-.058.189,1.785,1.785,0,0,0-.015.25V.042a1.967,1.967,0,0,0,.008.2.939.939,0,0,0,.035.17A.356.356,0,0,0,.052.551.327.327,0,0,0,.176.637m.189.592A1.11,1.11,0,0,1-.554.882,1.607,1.607,0,0,1-.831-.136v-1.53a2.34,2.34,0,0,1,.063-.573,1.124,1.124,0,0,1,.2-.419A.83.83,0,0,1-.2-2.925a1.564,1.564,0,0,1,.56-.088,1.115,1.115,0,0,1,.916.342,1.559,1.559,0,0,1,.28,1.005v1.53A2.3,2.3,0,0,1,1.5.436a1.181,1.181,0,0,1-.2.426.847.847,0,0,1-.371.274,1.5,1.5,0,0,1-.557.093" transform="translate(0.831 3.013)" fill="#fff"/>
      </g>
    </g>
    <g id="Group_25654" data-name="Group 25654" transform="translate(148.485 -35.242)">
      <path id="Path_5705" data-name="Path 5705" d="M0,.723V-3.422H.52L1.535-1.074V-3.422H2.16V.723h-.5L.64-1.744V.723Z" transform="translate(0 3.422)" fill="#fff"/>
    </g>
    <g id="Group_25656" data-name="Group 25656" transform="translate(0 -46.959)" clip-path="url(#clip-path)">
      <g id="Group_25655" data-name="Group 25655" transform="translate(151.095 11.67)">
        <path id="Path_5706" data-name="Path 5706" d="M.176.637A.517.517,0,0,0,.365.67.511.511,0,0,0,.552.637.347.347,0,0,0,.676.551.375.375,0,0,0,.749.414.842.842,0,0,0,.783.245a1.934,1.934,0,0,0,.01-.2V-1.842a1.785,1.785,0,0,0-.015-.25A.674.674,0,0,0,.718-2.28a.288.288,0,0,0-.131-.132.5.5,0,0,0-.223-.044.51.51,0,0,0-.224.044A.277.277,0,0,0,.01-2.28a.635.635,0,0,0-.058.189,1.785,1.785,0,0,0-.015.25V.042a1.967,1.967,0,0,0,.008.2.939.939,0,0,0,.035.17A.356.356,0,0,0,.052.551.327.327,0,0,0,.176.637m.189.592A1.11,1.11,0,0,1-.554.882,1.607,1.607,0,0,1-.831-.136v-1.53a2.34,2.34,0,0,1,.063-.573,1.124,1.124,0,0,1,.2-.419A.83.83,0,0,1-.2-2.925a1.564,1.564,0,0,1,.56-.088,1.115,1.115,0,0,1,.916.342,1.559,1.559,0,0,1,.279,1.005v1.53A2.306,2.306,0,0,1,1.5.436a1.181,1.181,0,0,1-.2.426.847.847,0,0,1-.371.274,1.5,1.5,0,0,1-.557.093" transform="translate(0.831 3.013)" fill="#fff"/>
      </g>
    </g>
    <g id="Group_25657" data-name="Group 25657" transform="translate(153.928 -35.242)">
      <path id="Path_5708" data-name="Path 5708" d="M0,.723.068-3.422H.842l.6,2.913.618-2.913h.757L2.888.723H2.317l-.05-2.855L1.671.723H1.227l-.6-2.865L.578.723Z" transform="translate(0 3.422)" fill="#fff"/>
    </g>
    <path id="Path_5709" data-name="Path 5709" d="M129.888-33.142h.745v-4.145h-.745Z" transform="translate(27.461 2.045)" fill="#fff"/>
    <g id="Group_25662" data-name="Group 25662" transform="translate(0 -46.959)" clip-path="url(#clip-path)">
      <g id="Group_25658" data-name="Group 25658" transform="translate(158.562 11.67)">
        <path id="Path_5710" data-name="Path 5710" d="M.206.74A1.482,1.482,0,0,1-.267.673.925.925,0,0,1-.606.485a.923.923,0,0,1-.217-.3A1.427,1.427,0,0,1-.94-.194,2.758,2.758,0,0,1-.974-.652V-2.1a2.975,2.975,0,0,1,.035-.48,1.479,1.479,0,0,1,.118-.386.844.844,0,0,1,.216-.294.976.976,0,0,1,.338-.181A1.589,1.589,0,0,1,.206-3.5a1.519,1.519,0,0,1,.529.082.78.78,0,0,1,.348.242,1,1,0,0,1,.185.374,1.9,1.9,0,0,1,.058.5v.355H.6V-2.3a1.71,1.71,0,0,0-.033-.417.315.315,0,0,0-.317-.225H.208a.528.528,0,0,0-.166.023.257.257,0,0,0-.116.07.45.45,0,0,0-.073.1A.515.515,0,0,0-.188-2.6q-.013.089-.018.164c0,.05,0,.114,0,.19V-.494a1.09,1.09,0,0,0,.092.52A.347.347,0,0,0,.208.181.461.461,0,0,0,.35.161a.345.345,0,0,0,.1-.047A.237.237,0,0,0,.522.032a.574.574,0,0,0,.044-.1A.6.6,0,0,0,.589-.2C.594-.252.6-.3.6-.337s0-.091,0-.157V-.865h.728v.34a2.394,2.394,0,0,1-.033.417A1.327,1.327,0,0,1,1.182.24a.807.807,0,0,1-.2.27.91.91,0,0,1-.32.17A1.548,1.548,0,0,1,.206.74" transform="translate(0.974 3.502)" fill="#fff"/>
      </g>
      <g id="Group_25659" data-name="Group 25659" transform="translate(162.362 11.67)">
        <path id="Path_5711" data-name="Path 5711" d="M.193.741A.965.965,0,0,1-.654.374,1.859,1.859,0,0,1-.912-.7v-1.35a2.943,2.943,0,0,1,.056-.617,1.28,1.28,0,0,1,.189-.453A.8.8,0,0,1-.3-3.409a1.482,1.482,0,0,1,.569-.1,1.131,1.131,0,0,1,.882.3,1.345,1.345,0,0,1,.268.915v.2H.7V-2.3c0-.092,0-.166-.007-.224a.913.913,0,0,0-.029-.177A.311.311,0,0,0,.59-2.841a.322.322,0,0,0-.122-.078.518.518,0,0,0-.19-.03.486.486,0,0,0-.151.022.414.414,0,0,0-.111.052.264.264,0,0,0-.076.088.651.651,0,0,0-.047.111.92.92,0,0,0-.025.138c0,.057-.008.107-.011.15s0,.1,0,.168V-.546A1.224,1.224,0,0,0-.054,0,.36.36,0,0,0,.3.176.456.456,0,0,0,.524.125.337.337,0,0,0,.666-.03.84.84,0,0,0,.739-.268,2.051,2.051,0,0,0,.76-.591v-.34H.313v-.487H1.441V.687H.95L.9.266a.7.7,0,0,1-.7.475" transform="translate(0.912 3.506)" fill="#fff"/>
      </g>
      <g id="Group_25660" data-name="Group 25660" transform="translate(165.182 11.717)">
        <path id="Path_5712" data-name="Path 5712" d="M.132.309H.315A.652.652,0,0,0,.791.166.684.684,0,0,0,.932-.321.729.729,0,0,0,.809-.8.566.566,0,0,0,.359-.941H.132ZM-.623,2.683V-1.461h.95a2.6,2.6,0,0,1,.562.053,1.114,1.114,0,0,1,.409.181.754.754,0,0,1,.259.342,1.42,1.42,0,0,1,.087.529,1.5,1.5,0,0,1-.116.637.713.713,0,0,1-.384.36l.574,2.042H.962L.467.791H.132V2.683Z" transform="translate(0.623 1.461)" fill="#fff"/>
      </g>
      <g id="Group_25661" data-name="Group 25661" transform="translate(167.852 11.67)">
        <path id="Path_5713" data-name="Path 5713" d="M.176.637A.517.517,0,0,0,.365.67.511.511,0,0,0,.552.637.347.347,0,0,0,.676.551.375.375,0,0,0,.749.414.842.842,0,0,0,.783.245a1.934,1.934,0,0,0,.01-.2V-1.842a1.785,1.785,0,0,0-.015-.25A.674.674,0,0,0,.718-2.28a.288.288,0,0,0-.131-.132.5.5,0,0,0-.223-.044.51.51,0,0,0-.224.044A.277.277,0,0,0,.01-2.28a.635.635,0,0,0-.058.189,1.785,1.785,0,0,0-.015.25V.042a1.967,1.967,0,0,0,.008.2.939.939,0,0,0,.035.17A.356.356,0,0,0,.052.551.327.327,0,0,0,.176.637m.189.592A1.11,1.11,0,0,1-.554.882,1.607,1.607,0,0,1-.831-.136v-1.53a2.34,2.34,0,0,1,.063-.573,1.124,1.124,0,0,1,.2-.419A.83.83,0,0,1-.2-2.925a1.564,1.564,0,0,1,.56-.088,1.115,1.115,0,0,1,.916.342,1.559,1.559,0,0,1,.279,1.005v1.53A2.306,2.306,0,0,1,1.5.436a1.181,1.181,0,0,1-.2.426.847.847,0,0,1-.371.274,1.5,1.5,0,0,1-.557.093" transform="translate(0.831 3.013)" fill="#fff"/>
      </g>
    </g>
    <g id="Group_25663" data-name="Group 25663" transform="translate(170.55 -35.242)">
      <path id="Path_5715" data-name="Path 5715" d="M.1.723-.489-3.422H.146L.486-.75.928-3.422h.508L1.889-.747l.339-2.675h.623L2.259.723h-.6L1.189-2.045.724.723Z" transform="translate(0.489 3.422)" fill="#fff"/>
    </g>
    <g id="Group_25664" data-name="Group 25664" transform="translate(173.975 -35.242)">
      <path id="Path_5716" data-name="Path 5716" d="M.121.723V-2.865h-.7v-.557H1.548v.557H.876V.723Z" transform="translate(0.574 3.422)" fill="#fff"/>
    </g>
    <g id="Group_25665" data-name="Group 25665" transform="translate(176.333 -35.242)">
      <path id="Path_5717" data-name="Path 5717" d="M0,.723V-3.422H.755v1.734H1.6V-3.422h.755V.723H1.6V-1.152H.755V.723Z" transform="translate(0 3.422)" fill="#fff"/>
    </g>
    <g id="Group_25670" data-name="Group 25670" transform="translate(0 -46.959)" clip-path="url(#clip-path)">
      <g id="Group_25666" data-name="Group 25666" transform="translate(159.789 27.813)">
        <path id="Path_5718" data-name="Path 5718" d="M1.072.03-4.737,5.557a.96.96,0,0,0-.332.829V21.872a.332.332,0,0,0,.332.331h6a.331.331,0,0,0,.331-.331V.169c0-.183-.143-.516-.522-.139" transform="translate(5.069 0.142)" fill="#fff"/>
      </g>
      <g id="Group_25667" data-name="Group 25667" transform="translate(143.055 35.011)">
        <path id="Path_5719" data-name="Path 5719" d="M1.072.03-4.737,5.556a.96.96,0,0,0-.332.829v8.29a.332.332,0,0,0,.332.33h6a.331.331,0,0,0,.331-.33V.168c0-.183-.144-.517-.522-.138" transform="translate(5.069 0.143)" fill="#fff"/>
      </g>
      <g id="Group_25668" data-name="Group 25668" transform="translate(141.097 21.111)">
        <path id="Path_5720" data-name="Path 5720" d="M4.795.03A.163.163,0,0,0,4.745-.1a.171.171,0,0,0-.107-.047l-.033,0-.047,0L.11.865.03.873A.17.17,0,0,0-.057.919a.17.17,0,0,0,0,.239l.051.051L1.009,2.224-9.07,12.3l-4.654-4.655a.132.132,0,0,0-.189,0l-1.264,1.264a0,0,0,0,0,0,0l-7.461,7.461a.134.134,0,0,0,0,.189l1.265,1.264a.13.13,0,0,0,.188,0l7.369-7.367,3.377,3.379s0,.011.011.016l1.264,1.262a.132.132,0,0,0,.189,0L2.462,3.678,3.529,4.743a.166.166,0,0,0,.237,0,.161.161,0,0,0,.048-.109V4.619L4.792.079Z" transform="translate(22.678 0.143)" fill="#fff"/>
      </g>
      <g id="Group_25669" data-name="Group 25669" transform="translate(151.491 35.957)">
        <path id="Path_5721" data-name="Path 5721" d="M1.065.034-1.745,2.868a.134.134,0,0,1-.181-.006L-4.472.266C-4.938-.2-5.039.179-5.039.36V13.708a.33.33,0,0,0,.328.33h6a.331.331,0,0,0,.33-.33V.14c0-.183-.144-.518-.556-.105" transform="translate(5.039 0.163)" fill="#fff"/>
      </g>
    </g>
  </g>
</svg>
