<svg xmlns="http://www.w3.org/2000/svg" xmlns:xlink="http://www.w3.org/1999/xlink" width="69" height="68.949" viewBox="0 0 69 68.949">
  <defs>
    <clipPath id="clip-path">
      <rect id="Rectangle_10247" data-name="Rectangle 10247" width="69" height="68.949" fill="none"/>
    </clipPath>
  </defs>
  <g id="Group_24897" data-name="Group 24897" transform="translate(0 0)">
    <g id="Group_24896" data-name="Group 24896" transform="translate(0 0)" clip-path="url(#clip-path)">
      <path id="Path_3921" data-name="Path 3921" d="M10.2,10.313a.7.7,0,1,1-.7.7.7.7,0,0,1,.7-.7m6.106-1.879a.7.7,0,1,1-.7.7.705.705,0,0,1,.7-.7m7.357,3.756a.7.7,0,1,1-.7.7.707.707,0,0,1,.7-.7m7.749-3.756a.7.7,0,1,1-.7.7.7.7,0,0,1,.7-.7M10.2,12.346a1.332,1.332,0,0,0,1.331-1.328,1.458,1.458,0,0,0-.022-.218l3.544-1.229a1.324,1.324,0,0,0,2.487.056l4.864,2.85a1.326,1.326,0,1,0,2.57.608l5.391-3.132a1.323,1.323,0,1,0-.285-.815,1.192,1.192,0,0,0,.024.242L24.9,12.408a1.324,1.324,0,0,0-2.164-.462l-5.117-3A1.324,1.324,0,0,0,15,8.928l-3.735,1.3A1.328,1.328,0,1,0,10.2,12.346" transform="translate(14.978 13.184)" fill="#818386"/>
      <path id="Path_3922" data-name="Path 3922" d="M26.482,10.763A13.119,13.119,0,0,1,45.763,28.525V19.913c-1.667.368-3.06,2.441-5.48,3.772-.056.03-.1.048-.156.075v8.647a13.609,13.609,0,0,1-1.957.532v-8.8c-1.527-.333-2.527-2.318-5.243-3.9a4.14,4.14,0,0,0-.393-.2V32.749a12.874,12.874,0,0,1-1.957-.656V19.69a12.245,12.245,0,0,0-5.636,2.054V27.46a13.126,13.126,0,0,1,1.541-16.7m-1.11,23.07a17.281,17.281,0,1,0-3.4-3.4l-4.2,4.2L16.334,33.2,0,49.533l6.273,6.273L22.61,39.469l-1.439-1.433Z" transform="translate(0 4.665)" fill="#818386"/>
      <path id="Path_3923" data-name="Path 3923" d="M62.79,32.075s-5.466-7.225-6.722-8.921.188-4.208.188-4.208c.747-3.081-2.737-8.489-4.579-11.062a20.372,20.372,0,0,0-10.3-6.437C32.293-.825,18.989-1.462,11.135,7.5A29.489,29.489,0,0,0,5.653,38.663l4.907-4.91L12,35.192l.476-.476a20.265,20.265,0,0,1,3.24-24.28A20.185,20.185,0,1,1,44.259,38.983a20.008,20.008,0,0,1-14.248,5.9A20.326,20.326,0,0,1,19.981,42.22l-.476.476,1.439,1.433-3.918,3.92a7.171,7.171,0,0,1,2.92,3.313l1.761,4.584a29.16,29.16,0,0,1,.941,6.281v6.722h24c0-.626.25-6.343.25-6.343,1.508-5.4,2.514-3.581,7.916-4.587s4.584-4.084,4.4-4.711a15.569,15.569,0,0,1-.879-3.958,3.86,3.86,0,0,1,1.7-3.205,1.485,1.485,0,0,0,.5-1.947,14.285,14.285,0,0,1-1.758-1.256c-.441-.441,1.318-1.067,1.318-1.067,1.7-.694-.062-3.079-.062-4.211s.188-1.82,2.135-2.952a1.638,1.638,0,0,0,.629-2.638" transform="translate(5.775 -0.001)" fill="#bccf3b"/>
    </g>
  </g>
</svg>
