<svg id="Group_24895" data-name="Group 24895" xmlns="http://www.w3.org/2000/svg" xmlns:xlink="http://www.w3.org/1999/xlink" width="61.626" height="107.928" viewBox="0 0 61.626 107.928">
  <defs>
    <clipPath id="clip-path">
      <rect id="Rectangle_10246" data-name="Rectangle 10246" width="61.626" height="107.928" fill="none"/>
    </clipPath>
  </defs>
  <g id="Group_24894" data-name="Group 24894" transform="translate(0 0)" clip-path="url(#clip-path)">
    <path id="Path_3911" data-name="Path 3911" d="M53.148,36.188A24.321,24.321,0,0,1,7.311,33.647a24.6,24.6,0,0,1-.668-3H.088l0,.008q.182,1.457.5,2.887l3.09.831,1.4.377a27.016,27.016,0,0,0,1.673,4.164l-.81,1.275-1.655,2.6a30.635,30.635,0,0,0,9.822,10.07l2.776-1.6,1.256-.723q.859.455,1.765.852,1.172.515,2.362.908l.33,1.475.67,3.014a30.705,30.705,0,0,0,14.069.169l.829-3.093.377-1.4A27.3,27.3,0,0,0,42.708,50.8l1.275.81,2.6,1.657a30.781,30.781,0,0,0,10.073-9.825l-1.6-2.776-.723-1.256q.455-.859.855-1.765c.34-.779.641-1.57.905-2.362l1.475-.327,3.011-.67a30.567,30.567,0,0,0,.673-3.631H54.705a24.246,24.246,0,0,1-1.557,5.539" transform="translate(0.144 50.234)" fill="#818386"/>
    <path id="Path_3912" data-name="Path 3912" d="M55.142,29.22H48.864c0,.435-.016.874-.048,1.312a18.051,18.051,0,0,1-36.007,0c-.032-.435-.048-.874-.048-1.312H0c0,.438.013.874.032,1.312h9.6a21.227,21.227,0,0,0,42.372,0h9.6c.018-.438.029-.876.029-1.312Z" transform="translate(0 47.892)" fill="#818386"/>
    <path id="Path_3913" data-name="Path 3913" d="M19.086,17.044a.805.805,0,0,0-.8.8v.037a.8.8,0,0,0,.5.739l.493.206V37.282l-.631.137a14.624,14.624,0,0,0-6.634,25.2l19.534-.037A14.625,14.625,0,0,0,24.871,37.42l-.631-.137V18.828l.493-.2a.805.805,0,0,0,.5-.742v-.037a.805.805,0,0,0-.8-.8Zm-7.672,47.18-.224-.193A16.231,16.231,0,0,1,17.677,36V19.828a2.4,2.4,0,0,1-.995-1.945v-.037a2.408,2.408,0,0,1,2.4-2.4h5.347a2.408,2.408,0,0,1,2.4,2.4v.037a2.4,2.4,0,0,1-.995,1.945V36a16.229,16.229,0,0,1,6.537,27.987l-.227.2Z" transform="translate(9.054 25.31)" fill="#818386"/>
    <path id="Path_3914" data-name="Path 3914" d="M11.018,38.584l18.605-.034a13.031,13.031,0,0,0,4.565-8.8H6.413a13.025,13.025,0,0,0,4.605,8.833" transform="translate(10.511 48.762)" fill="#818386"/>
    <path id="Path_3915" data-name="Path 3915" d="M13.154,29.011a4.168,4.168,0,1,0,4.167,4.167,4.172,4.172,0,0,0-4.167-4.167m0,9.337a5.17,5.17,0,1,1,5.17-5.17,5.176,5.176,0,0,1-5.17,5.17" transform="translate(13.086 45.905)" fill="#818386"/>
    <path id="Path_3916" data-name="Path 3916" d="M11.5,26.085a1.38,1.38,0,1,0,1.38,1.38,1.385,1.385,0,0,0-1.38-1.38m0,3.336a1.956,1.956,0,1,1,1.953-1.956A1.955,1.955,0,0,1,11.5,29.421" transform="translate(15.648 41.811)" fill="#818386"/>
    <path id="Path_3917" data-name="Path 3917" d="M14.455,31.5a1.209,1.209,0,1,0,1.209,1.209A1.208,1.208,0,0,0,14.455,31.5m0,2.921a1.713,1.713,0,1,1,1.713-1.713,1.714,1.714,0,0,1-1.713,1.713" transform="translate(20.884 50.808)" fill="#fff"/>
    <path id="Path_3918" data-name="Path 3918" d="M15.929,27.559a2.826,2.826,0,1,0,2.826,2.826,2.828,2.828,0,0,0-2.826-2.826m0,6.569a3.742,3.742,0,1,1,3.742-3.742,3.746,3.746,0,0,1-3.742,3.742" transform="translate(19.975 43.668)" fill="#818386"/>
    <path id="Path_3919" data-name="Path 3919" d="M11.614,30.67a1.849,1.849,0,1,0,1.85,1.847,1.85,1.85,0,0,0-1.85-1.847m0,4.3a2.448,2.448,0,1,1,2.449-2.449,2.451,2.451,0,0,1-2.449,2.449" transform="translate(15.022 49.287)" fill="#fff"/>
    <path id="Path_3920" data-name="Path 3920" d="M21.574,22.785v2.824s.823-4.74,7.917-4.017c0,0-6.972,2.4-8.379,5.516V16.423c0-2.729-1.9-5.246-1.243-8.012a13.631,13.631,0,0,1,.947-2.375,8.566,8.566,0,0,1,.808,1.106,7.421,7.421,0,0,1,.483,1.512,12.865,12.865,0,0,1,.288,3,8.754,8.754,0,0,1-.815,3.695c.011.747-.016,2.211-.011,2.61.016,1.159,2.256-4.832,2.4-5.13a7.206,7.206,0,0,0-.451-7.014C22.154,3.634,19.98.918,17.565,0a13.362,13.362,0,0,1,.488,4.55,15.664,15.664,0,0,1-.773,3.035,12.316,12.316,0,0,0-.536,1.874A8.12,8.12,0,0,0,17.882,14.7a18.95,18.95,0,0,0,1.612,1.813,6.966,6.966,0,0,1,.731,2.143v17.51c-.686-3.117-7.173-8.437-7.173-8.437,6.223,1.425,6.605,4.41,6.605,4.41l.013-2.7c-4.631-8.719-13.48-.99-13.48-.99-.087.14,4.866-1.425,5.983,2.357,1.847,6.254,4.222,4.571,5.481,5.08,1.106.443,2.293,2.584,2.57,3.106V78.685h.887V30.045c.251-.995.779-2.692,1.465-2.824.979-.19,2.94,1.826,5.254-2.581,1.4-2.663,5.552-2.4,5.513-2.523,0,0-7.083-5.162-11.77.668" transform="translate(10.145 0)" fill="#bccf3b"/>
  </g>
</svg>
