<svg xmlns="http://www.w3.org/2000/svg" xmlns:xlink="http://www.w3.org/1999/xlink" width="60.382" height="61.725" viewBox="0 0 60.382 61.725">
  <defs>
    <clipPath id="clip-path">
      <path id="Path_4960" data-name="Path 4960" d="M0,29.967H60.382V-31.758H0Z" transform="translate(0 31.758)" fill="none"/>
    </clipPath>
  </defs>
  <g id="Group_25305" data-name="Group 25305" transform="translate(0 31.758)">
    <g id="Group_25304" data-name="Group 25304" transform="translate(0 -31.758)" clip-path="url(#clip-path)">
      <g id="Group_25302" data-name="Group 25302" transform="translate(0 53.675)">
        <path id="Path_4958" data-name="Path 4958" d="M29.315.651h0A13.352,13.352,0,0,0,29.241-.69H-30.993A13.35,13.35,0,0,0-31.067.651,6.709,6.709,0,0,0-24.358,7.36H22.606A6.709,6.709,0,0,0,29.315.651m-53,3.691A1.342,1.342,0,0,1-25.03,3a1.342,1.342,0,0,1,1.343-1.341A1.341,1.341,0,0,1-22.346,3a1.342,1.342,0,0,1-1.341,1.343m5.366-2.35h-1.341V.651h1.341Zm5.368,3.355h-1.341V4.006h1.341Zm8.721-1.341A1.341,1.341,0,0,1-5.573,2.665,1.342,1.342,0,0,1-4.232,1.322,1.342,1.342,0,0,1-2.889,2.665,1.342,1.342,0,0,1-4.232,4.006M4.491,5.347H3.15V4.006H4.491Zm8.05-2.682H11.2V1.324h1.341Zm8.05,1.341a1.342,1.342,0,1,1,1.343-1.341,1.341,1.341,0,0,1-1.343,1.341" transform="translate(31.067 0.69)" fill="#9a9b9f"/>
      </g>
      <g id="Group_25303" data-name="Group 25303" transform="translate(0.283 0.001)">
        <path id="Path_4959" data-name="Path 4959" d="M19.732,3.908v-8.05H-1.737v8.05H.274v15.43L-18.26,42.508a13.36,13.36,0,0,0-2.651,5.681H-6.433V44.118a5.366,5.366,0,0,1-4.7-5.322,5.366,5.366,0,0,1,5.322,4.7h.093A5.364,5.364,0,0,1-.4,38.8a5.364,5.364,0,0,1-4.7,5.322V48.19H8.327V44.118a5.366,5.366,0,0,1-4.7-5.322,5.366,5.366,0,0,1,5.322,4.7h.093a5.364,5.364,0,0,1,5.32-4.7,5.364,5.364,0,0,1-4.7,5.322V48.19H23.086V44.118a5.364,5.364,0,0,1-4.7-5.322,5.364,5.364,0,0,1,5.32,4.7H23.8a5.366,5.366,0,0,1,5.322-4.7,5.366,5.366,0,0,1-4.7,5.322V48.19H38.905a13.383,13.383,0,0,0-2.651-5.681L17.718,19.339V3.908Zm-6.709.671H2.288V3.238H13.022Zm2.684,0H14.365V3.238h1.341Z" transform="translate(20.911 4.142)" fill="#bad75e"/>
      </g>
    </g>
  </g>
</svg>
