<svg xmlns="http://www.w3.org/2000/svg" xmlns:xlink="http://www.w3.org/1999/xlink" width="64.153" height="64.103" viewBox="0 0 64.153 64.103">
  <defs>
    <clipPath id="clip-path">
      <path id="Path_4057" data-name="Path 4057" d="M0,38.46H64.153v-64.1H0Z" transform="translate(0 25.643)" fill="none"/>
    </clipPath>
  </defs>
  <g id="Group_25296" data-name="Group 25296" transform="translate(0 25.643)">
    <g id="Group_25189" data-name="Group 25189" transform="translate(0 -25.643)" clip-path="url(#clip-path)">
      <g id="Group_25186" data-name="Group 25186" transform="translate(22.171 19.516)">
        <path id="Path_4054" data-name="Path 4054" d="M.742,2.532A1.238,1.238,0,0,0,1.98,1.3a1.355,1.355,0,0,0-.02-.2L5.255-.048A1.232,1.232,0,0,0,6.42.787,1.238,1.238,0,0,0,7.567,0l4.522,2.65a1.233,1.233,0,1,0,2.39.565L19.491.307a1.228,1.228,0,0,0,.972.48A1.238,1.238,0,0,0,21.7-.451a1.238,1.238,0,0,0-1.235-1.235A1.238,1.238,0,0,0,19.226-.451a1.108,1.108,0,0,0,.022.225L14.407,2.589a1.231,1.231,0,0,0-2.012-.43L7.637-.628a1.236,1.236,0,0,0-1.22-1.06A1.234,1.234,0,0,0,5.2-.646L1.73.559A1.235,1.235,0,1,0,.742,2.532M20.464-1.106a.653.653,0,0,1,.652.655A.655.655,0,0,1,20.464.2a.656.656,0,0,1-.655-.655.654.654,0,0,1,.655-.655m-7.2,3.492a.655.655,0,1,1-.655.655.657.657,0,0,1,.655-.655M6.42-1.106a.656.656,0,0,1,.655.655A.657.657,0,0,1,6.42.2a.656.656,0,0,1-.655-.655.654.654,0,0,1,.655-.655M.742.642A.654.654,0,1,1,.09,1.3.654.654,0,0,1,.742.642" transform="translate(0.495 1.688)" fill="#9a9b9f"/>
      </g>
      <g id="Group_25187" data-name="Group 25187" transform="translate(0 6.904)">
        <path id="Path_4055" data-name="Path 4055" d="M14.152,17.331a16.066,16.066,0,1,0-3.16-3.16l-3.9,3.9L5.751,16.739-9.436,31.928-3.6,37.76,11.585,22.571l-1.337-1.332ZM15.185-4.117A12.2,12.2,0,0,1,33.111,12.4V4.39c-1.55.342-2.845,2.27-5.095,3.507-.052.027-.1.045-.145.07v8.039a12.652,12.652,0,0,1-1.82.495V8.322c-1.42-.31-2.35-2.155-4.875-3.627a3.849,3.849,0,0,0-.365-.185V16.324a11.97,11.97,0,0,1-1.82-.61V4.182a11.385,11.385,0,0,0-5.24,1.91v5.315A12.2,12.2,0,0,1,15.185-4.117" transform="translate(9.436 11.556)" fill="#9a9b9f"/>
      </g>
      <g id="Group_25188" data-name="Group 25188" transform="translate(8.549 -0.001)">
        <path id="Path_4056" data-name="Path 4056" d="M33.117,17.892s-5.082-6.717-6.25-8.294.175-3.912.175-3.912C27.738,2.82,24.5-2.207,22.786-4.6a18.94,18.94,0,0,0-9.572-5.985C4.764-12.7-7.605-13.288-14.907-4.959A27.416,27.416,0,0,0-20,24.017l4.562-4.565,1.337,1.337.442-.442A18.84,18.84,0,0,1-10.65-2.227a18.643,18.643,0,0,1,13.269-5.5,18.643,18.643,0,0,1,13.269,5.5,18.766,18.766,0,0,1,0,26.541A18.6,18.6,0,0,1,2.642,29.8a18.9,18.9,0,0,1-9.324-2.477l-.442.442L-5.788,29.1-9.43,32.744a6.667,6.667,0,0,1,2.715,3.08l1.637,4.262a27.11,27.11,0,0,1,.875,5.84v6.25H18.108c0-.582.232-5.9.232-5.9,1.4-5.025,2.337-3.33,7.36-4.265s4.262-3.8,4.087-4.38a14.475,14.475,0,0,1-.817-3.68,3.588,3.588,0,0,1,1.577-2.98,1.381,1.381,0,0,0,.467-1.81A13.281,13.281,0,0,1,29.38,28C28.97,27.586,30.6,27,30.6,27c1.577-.645-.057-2.862-.057-3.915s.175-1.692,1.985-2.745a1.523,1.523,0,0,0,.585-2.452" transform="translate(22.081 11.929)" fill="#bad75e"/>
      </g>
    </g>
  </g>
</svg>
