<svg xmlns="http://www.w3.org/2000/svg" xmlns:xlink="http://www.w3.org/1999/xlink" width="68.628" height="71.996" viewBox="0 0 68.628 71.996">
  <defs>
    <clipPath id="clip-path">
      <path id="Path_4065" data-name="Path 4065" d="M0,38.344H68.628v-72H0Z" transform="translate(0 33.652)" fill="none"/>
    </clipPath>
  </defs>
  <g id="Group_25254" data-name="Group 25254" transform="translate(0 33.652)">
    <g id="Group_25256" data-name="Group 25256" transform="translate(0 -33.652)" clip-path="url(#clip-path)">
      <g id="Group_25254-2" data-name="Group 25254" transform="translate(13.286 0)">
        <path id="Path_4063" data-name="Path 4063" d="M12.782,21.2a8.158,8.158,0,0,1,8.155,8.367,7.888,7.888,0,0,1-.911,3.481H21.1l12-5.289A24.169,24.169,0,0,0,9.81,10.842c-.208,0-.411.011-.618.015A16.814,16.814,0,0,0,10,8.608,17.926,17.926,0,0,0,9.427-3c4.185,1.192,7.685.92,10.4-.847,4.816-3.141,6.2-10.145,6.6-14.043a.646.646,0,0,0-.231-.565.608.608,0,0,0-.569-.116,34.041,34.041,0,0,1-6.87,1.093c-7.912.62-10.113,5.928-10.564,10.269a.788.788,0,0,1-.749.7.785.785,0,0,1-.8-.635c-.787-4.067-3.4-6.3-7.766-6.645a26.289,26.289,0,0,1-5.3-.845.28.28,0,0,0-.265.053.309.309,0,0,0-.111.272c.3,2.952,1.348,8.254,4.97,10.616a8.567,8.567,0,0,0,6.517.937A16.845,16.845,0,0,1,5.784,8.9a16.921,16.921,0,0,1-.819,2.411A24.248,24.248,0,0,0-11.218,22.63,19.452,19.452,0,0,1-3.927,21.2Z" transform="translate(11.218 18.603)" fill="#bad75e"/>
      </g>
      <g id="Group_25255" data-name="Group 25255" transform="translate(0.001 43.529)">
        <path id="Path_4064" data-name="Path 4064" d="M33.6,2.667a5.6,5.6,0,0,0-2.266.479L17.476,9.252a2.955,2.955,0,0,1-1.2.255H-3.8A1.574,1.574,0,0,1-5.392,8.228,1.494,1.494,0,0,1-3.914,6.516H7.594A4.563,4.563,0,0,0,12.226,2.2,4.428,4.428,0,0,0,7.8-2.341H-8.909a15.69,15.69,0,0,0-7.3,1.8L-28.292,5.825a2.239,2.239,0,0,0-1.194,1.981v16.08a2.239,2.239,0,0,0,2.234,2.24A2.238,2.238,0,0,0-26.506,26l6.268-2.21a15.7,15.7,0,0,1,5.207-.89H12.579a26.1,26.1,0,0,0,13.759-3.922l10.036-6.221A5.667,5.667,0,0,0,39.14,8.149,5.446,5.446,0,0,0,33.6,2.667" transform="translate(29.486 2.341)" fill="#9a9b9f"/>
      </g>
    </g>
  </g>
</svg>
