<?xml version="1.0" encoding="utf-8"?>
<!-- Generator: Adobe Illustrator 28.1.0, SVG Export Plug-In . SVG Version: 6.00 Build 0)  -->
<svg version="1.1" id="Layer_1" xmlns="http://www.w3.org/2000/svg" xmlns:xlink="http://www.w3.org/1999/xlink" x="0px" y="0px"
	 viewBox="0 0 53.8 65.9" style="enable-background:new 0 0 53.8 65.9;" xml:space="preserve">
<style type="text/css">
	.st0{fill:#9A9B9F;}
	.st1{fill:none;}
	.st2{fill:#F2E98C;}
</style>
<g id="Group_25166" transform="translate(-0.001 29.149)">
	<path id="Path_4038" class="st0" d="M4.8,27.9L0,36.8h53.8l-4.8-8.8H4.8z"/>
</g>
<g id="Group_25167" transform="translate(0.659 -27.946)">
	<path id="Path_4039" class="st0" d="M0,27.9l4.7,8.8h42.9l4.7-8.8H0z"/>
</g>
<rect x="0" y="0" class="st1" width="53.8" height="65.9"/>
<g id="Group_25170" transform="translate(0.001 -27.946)">
	<g id="Group_25168" transform="translate(2.361 10.114)">
		<path id="Path_4040" class="st2" d="M3,27.9l-0.2,0.7c-3.1,13.2-3.7,26.9-1.5,40.4l0.3,2.1c0.1,0.9,0.4,1.7,0.7,2.6h44.3
			c0.3-0.8,0.5-1.7,0.7-2.6l0.3-2.1c2.1-13.4,1.6-27.1-1.5-40.4L46,27.9H3z M24.3,67.1c-8.5,0-15.4-6.9-15.4-15.3
			s6.9-15.4,15.3-15.4c8.5,0,15.4,6.9,15.4,15.3c0,0,0,0,0,0C39.6,60.2,32.7,67.1,24.3,67.1"/>
	</g>
	<g id="Group_25169" transform="translate(20.739 20.214)">
		<path id="Path_4041" class="st2" d="M11.1,34.4c-0.4,0.1-0.9,0.2-1.3,0.3c-0.7,0.2-1.3,0.6-1.8,1.2c-0.4,0.4-0.7,0.9-0.9,1.4
			c-0.1,0.3-0.3,0.7-0.3,1v-1.8c0.3-0.3,0.6-0.6,0.9-1c0.3-0.4,0.5-0.8,0.7-1.2c0.2-0.5,0.4-1.1,0.4-1.6c0-0.7-0.1-1.5-0.4-2.1
			c-0.2-0.4-0.4-0.8-0.7-1.2c-0.3-0.4-0.7-0.8-1-1.2l-0.1-0.1l-0.1,0.1c-0.4,0.4-0.7,0.8-1,1.2c-0.3,0.4-0.5,0.8-0.7,1.2
			c-0.3,0.7-0.4,1.4-0.4,2.1c0,0.6,0.2,1.1,0.4,1.6c0.2,0.4,0.4,0.8,0.7,1.2c0.3,0.4,0.6,0.7,0.9,1v4.7c-0.1-0.3-0.2-0.7-0.3-1
			c-0.2-0.5-0.5-1-0.9-1.4c-0.5-0.5-1.1-0.9-1.8-1.2c-0.4-0.1-0.9-0.3-1.3-0.3c-0.5-0.1-1.1-0.1-1.6-0.1l-0.2,0l0,0.2
			c0,0.5,0.1,1.1,0.2,1.6c0.1,0.4,0.2,0.9,0.4,1.3c0.3,0.7,0.7,1.3,1.3,1.7c0.4,0.4,0.9,0.6,1.5,0.8c0.4,0.2,0.9,0.3,1.4,0.3
			c0.5,0.1,1,0,1.5,0v5.5c-0.4-0.2-0.9-0.3-1.4-0.3c-1.4,0-2.5,0.8-2.5,1.8v0.3c0,0.3-0.3,0.6-0.6,0.6c0,0,0,0,0,0
			c-0.2,0-0.4,0.2-0.4,0.4v0V53h10.2v-1.2c0-0.4-0.3-0.7-0.7-0.7c0,0,0,0,0,0h-0.4V51c0-0.9-1-1.6-2.2-1.6c-0.2,0-0.3,0-0.5,0
			c-0.3,0.1-0.7-0.1-0.9-0.3C6.8,49.1,6.7,49,6.7,49v-8.7l0,0c0.5,0.1,1,0.1,1.5,0c0.5,0,0.9-0.1,1.4-0.3c0.5-0.2,1-0.5,1.5-0.8
			c0.6-0.5,1-1.1,1.3-1.7c0.2-0.4,0.3-0.8,0.4-1.3c0.1-0.5,0.2-1.1,0.2-1.6l0-0.2l-0.2,0C12.2,34.3,11.6,34.3,11.1,34.4 M2.4,37.9
			C3,38,3.6,38.3,4.1,38.7l-0.4,1.8L2.1,39L2.4,37.9z M2,37.8l-0.2,0.9l-1-1C1.2,37.7,1.6,37.7,2,37.8 M0.5,38l2,1.9L1,40.3
			C0.7,39.6,0.5,38.8,0.5,38 M2.2,41.8c-0.4-0.3-0.7-0.7-0.9-1.1l1.6-0.5l1.4,1.3l-1.7,0.6C2.4,42,2.3,41.9,2.2,41.8 M4.8,42.8
			c-0.6-0.1-1.2-0.2-1.8-0.5l1.6-0.5l1.1,1C5.4,42.9,5.1,42.9,4.8,42.8 M4.1,40.8L4.5,39c0.1,0.1,0.1,0.1,0.2,0.2
			c0.6,0.7,1.1,1.6,1.2,2.5C5.9,42,6,42.3,6,42.6L4.1,40.8z M6.2,35.9c-0.2-0.2-0.4-0.4-0.6-0.7c-0.4-0.5-0.7-1.1-0.9-1.7l1.4,0.8
			L6.2,35.9z M6.2,33.9L4.7,33c0-0.1,0-0.3,0-0.4c0-0.5,0-1,0.2-1.4L6.2,32L6.2,33.9z M6.2,31.5l-1.3-0.7c0.3-0.7,0.8-1.4,1.3-2
			L6.2,31.5z M6.7,28.8c0.3,0.3,0.5,0.6,0.8,1l-0.8,0.4V28.8z M6.7,30.7l1-0.5c0.3,0.5,0.5,1.1,0.6,1.8l-1.6,0.9L6.7,30.7z
			 M6.7,35.9v-2.6l1.6-0.9c0,0.1,0,0.2,0,0.3c-0.1,0.9-0.4,1.9-1,2.6C7.1,35.5,6.9,35.7,6.7,35.9 M12.2,34.7l-1,1l-0.2-0.9
			C11.3,34.7,11.7,34.7,12.2,34.7 M10.5,34.9l0.3,1.1l-1.6,1.5l-0.4-1.8C9.3,35.3,9.9,35,10.5,34.9 M7,38.6c0.2-0.9,0.6-1.8,1.2-2.5
			C8.3,36.1,8.4,36,8.4,36l0.4,1.8l-1.9,1.8C6.9,39.2,7,38.9,7,38.6 M8.1,39.8c-0.3,0-0.6,0-0.9,0l1.1-1l1.6,0.5
			C9.3,39.6,8.7,39.8,8.1,39.8 M10.7,38.8c-0.1,0.1-0.2,0.2-0.3,0.2l-1.7-0.6l1.4-1.3l1.6,0.5C11.4,38.1,11.1,38.5,10.7,38.8
			 M11.8,37.3l-1.4-0.5l2-1.9C12.4,35.8,12.2,36.6,11.8,37.3"/>
	</g>
</g>
</svg>
