<svg xmlns="http://www.w3.org/2000/svg" xmlns:xlink="http://www.w3.org/1999/xlink" width="53.774" height="65.904" viewBox="0 0 53.774 65.904">
  <defs>
    <clipPath id="clip-path">
      <path id="Path_4042" data-name="Path 4042" d="M0,37.957H53.773v-65.9H0Z" transform="translate(0 27.946)" fill="none"/>
    </clipPath>
  </defs>
  <g id="Group_25299" data-name="Group 25299" transform="translate(0.001 27.946)">
    <g id="Group_25166" data-name="Group 25166" transform="translate(-0.001 29.149)">
      <path id="Path_4038" data-name="Path 4038" d="M2.782,0l-4.83,8.808H51.725L46.9,0Z" transform="translate(2.048)" fill="#9a9b9f"/>
    </g>
    <g id="Group_25167" data-name="Group 25167" transform="translate(0.659 -27.946)">
      <path id="Path_4039" data-name="Path 4039" d="M0,0,4.7,8.808H47.634L52.329,0Z" fill="#9a9b9f"/>
    </g>
    <g id="Group_25170" data-name="Group 25170" transform="translate(0.001 -27.946)" clip-path="url(#clip-path)">
      <g id="Group_25168" data-name="Group 25168" transform="translate(2.361 10.114)">
        <path id="Path_4040" data-name="Path 4040" d="M1.726,0,1.549.74A103.69,103.69,0,0,0,.025,41.109l.337,2.118a13.536,13.536,0,0,0,.684,2.587H45.379a13.364,13.364,0,0,0,.684-2.587l.337-2.118A103.69,103.69,0,0,0,44.877.74L44.7,0ZM22.995,39.151A15.35,15.35,0,1,1,38.342,23.8a15.351,15.351,0,0,1-15.347,15.35" transform="translate(1.271)" fill="#bad75e"/>
      </g>
      <g id="Group_25169" data-name="Group 25169" transform="translate(20.739 20.214)">
        <path id="Path_4041" data-name="Path 4041" d="M6.386,3.693A6.481,6.481,0,0,0,5.078,4,4.721,4.721,0,0,0,3.233,5.176a4.819,4.819,0,0,0-.922,1.382,6.013,6.013,0,0,0-.344,1.019V5.8a6.3,6.3,0,0,0,.91-.986,6.1,6.1,0,0,0,.717-1.229,4.815,4.815,0,0,0,.389-1.618A4.737,4.737,0,0,0,3.592-.179a6.44,6.44,0,0,0-.66-1.172,9.126,9.126,0,0,0-1.04-1.222l-.149-.146-.149.146A8.955,8.955,0,0,0,.555-1.351,6.3,6.3,0,0,0-.106-.179,4.737,4.737,0,0,0-.5,1.969,4.815,4.815,0,0,0-.108,3.587,6.1,6.1,0,0,0,.609,4.816a6.437,6.437,0,0,0,.908.986v4.742a5.8,5.8,0,0,0-.333-.983A4.837,4.837,0,0,0,.26,8.176,4.784,4.784,0,0,0-1.582,7a6.5,6.5,0,0,0-1.311-.311,9.056,9.056,0,0,0-1.6-.061l-.208.007.007.21A8.922,8.922,0,0,0-4.506,8.44a6.415,6.415,0,0,0,.413,1.281A4.752,4.752,0,0,0-2.78,11.468a4.783,4.783,0,0,0,1.45.809,6.085,6.085,0,0,0,1.389.309,6.275,6.275,0,0,0,1.457-.012v5.457a3.212,3.212,0,0,0-1.361-.292c-1.38,0-2.5.807-2.5,1.8v.34a.592.592,0,0,1-.594.594.44.44,0,0,0-.439.441v1.462H6.868V21.156a.682.682,0,0,0-.682-.684H5.835v-.123c0-.887-1-1.608-2.233-1.608a3.25,3.25,0,0,0-.509.042,1.038,1.038,0,0,1-.908-.292,2.109,2.109,0,0,0-.217-.189V9.572h0a6.051,6.051,0,0,0,1.464.012,5.934,5.934,0,0,0,1.389-.307,4.773,4.773,0,0,0,1.453-.811A4.745,4.745,0,0,0,7.587,6.721,6.467,6.467,0,0,0,8,5.441,9.436,9.436,0,0,0,8.19,3.846L8.2,3.639,7.99,3.629a9.3,9.3,0,0,0-1.6.064m-8.671,3.54A4.826,4.826,0,0,1-.592,7.99l-.4,1.795L-2.565,8.329ZM-2.7,7.148-2.917,8l-1.042-.965A7.857,7.857,0,0,1-2.7,7.148m-1.547.2,2,1.854-1.408.479a6.637,6.637,0,0,1-.6-2.332m1.731,3.794a4.2,4.2,0,0,1-.934-1.087l1.559-.528,1.41,1.3-1.7.559a3.54,3.54,0,0,1-.333-.245M.1,12.169a5.363,5.363,0,0,1-1.795-.5l1.566-.512L1,12.2a6.468,6.468,0,0,1-.9-.028m-.74-2.056.408-1.828c.064.059.125.118.184.179a4.943,4.943,0,0,1,1.229,2.519,6.324,6.324,0,0,1,.1.906Zm2.17-4.87a6.677,6.677,0,0,1-.587-.679A5.34,5.34,0,0,1,.092,2.908l1.441.8Zm0-2.014L-.033,2.356c-.021-.132-.038-.271-.047-.41A4.192,4.192,0,0,1,.088.524l1.446.785Zm0-2.4L.224.12A6.666,6.666,0,0,1,1.533-1.9ZM1.953-1.9a7.825,7.825,0,0,1,.778,1l-.778.42Zm0,1.9,1-.538a4.764,4.764,0,0,1,.594,1.757l-1.589.924Zm0,5.245V2.625l1.618-.939c0,.085,0,.17-.007.255A4.933,4.933,0,0,1,2.55,4.551a6.418,6.418,0,0,1-.6.691m5.5-1.2L6.41,5l-.219-.856A7.887,7.887,0,0,1,7.455,4.04M5.78,4.233l.281,1.094L4.486,6.782l-.4-1.792A4.706,4.706,0,0,1,5.78,4.233M2.311,7.983A4.929,4.929,0,0,1,3.538,5.464c.059-.061.12-.12.184-.179L4.13,7.113,2.21,8.888a6.324,6.324,0,0,1,.1-.906m1.08,1.184a6.2,6.2,0,0,1-.9.031L3.62,8.155l1.566.514a5.312,5.312,0,0,1-1.795.5M6.009,8.143c-.108.09-.222.17-.333.245L3.972,7.829l1.41-1.3,1.559.531a4.191,4.191,0,0,1-.932,1.087M7.143,6.681,5.733,6.2,7.74,4.349a6.7,6.7,0,0,1-.6,2.332" transform="translate(4.702 2.719)" fill="#bad75e"/>
      </g>
    </g>
  </g>
</svg>
