<svg xmlns="http://www.w3.org/2000/svg" width="15.957" height="30.347" viewBox="0 0 15.957 30.347">
  <path id="Path_3931" data-name="Path 3931" d="M3.516,15.309V29.915a.432.432,0,0,0,.432.432h6.167a.432.432,0,0,0,.433-.432V15.039h4.47a.433.433,0,0,0,.431-.4l.43-5.084a.431.431,0,0,0-.431-.469h-4.9V7.481A1.53,1.53,0,0,1,12.079,5.95h3.445a.433.433,0,0,0,.433-.432V.433A.433.433,0,0,0,15.524,0H9.7A6.187,6.187,0,0,0,3.516,6.186v2.9H.433A.432.432,0,0,0,0,9.521v5.085a.433.433,0,0,0,.433.433H3.516Z" fill="#009ce3" fill-rule="evenodd"/>
</svg>
