<svg xmlns="http://www.w3.org/2000/svg" width="29.792" height="19.913" viewBox="0 0 29.792 19.913">
  <path id="Path_3932" data-name="Path 3932" d="M184.118,18.444v10.68a.478.478,0,0,1-.478.478h-5.514a.477.477,0,0,1-.477-.478V19.192c0-2.614-.934-4.4-3.277-4.4a3.539,3.539,0,0,0-3.318,2.365,4.438,4.438,0,0,0-.214,1.577V29.124a.477.477,0,0,1-.478.477H164.85a.475.475,0,0,1-.477-.477c.012-2.645.068-15.479.011-18.5a.475.475,0,0,1,.478-.484h5.5a.478.478,0,0,1,.477.478V12.9c-.013.022-.031.043-.043.064h.043V12.9a6.424,6.424,0,0,1,5.831-3.214c4.256,0,7.447,2.781,7.447,8.756M154.8,29.6h5.512a.477.477,0,0,0,.477-.478v-18.5a.477.477,0,0,0-.477-.478H154.8a.478.478,0,0,0-.478.478v18.5a.478.478,0,0,0,.478.478" transform="translate(-154.326 -9.688)" fill="#009ce3"/>
</svg>
