<svg xmlns="http://www.w3.org/2000/svg" width="34.967" height="28.801" viewBox="0 0 34.967 28.801">
  <path id="Path_3926" data-name="Path 3926" d="M131.718,4.578a14.358,14.358,0,0,1-3.532,1.009c.569-.1,1.408-1.126,1.743-1.543A6.473,6.473,0,0,0,131.1,1.9c.031-.061.054-.138-.007-.184a.2.2,0,0,0-.187.015,18.051,18.051,0,0,1-4.2,1.606.281.281,0,0,1-.289-.077,3.352,3.352,0,0,0-.367-.375,7.408,7.408,0,0,0-2.032-1.245,7.07,7.07,0,0,0-3.117-.5,7.444,7.444,0,0,0-2.957.835,7.612,7.612,0,0,0-2.386,1.949,7.314,7.314,0,0,0-1.425,2.853,7.737,7.737,0,0,0-.076,3.013c.023.168.008.191-.144.168C108.159,9.1,103.383,7.04,99.5,2.621c-.168-.192-.26-.192-.4.015-1.7,2.543-.873,6.63,1.247,8.638.282.267.572.535.886.779a7.333,7.333,0,0,1-2.782-.779c-.169-.107-.253-.046-.268.145a4.422,4.422,0,0,0,.045.826,7.394,7.394,0,0,0,4.557,5.893,4.239,4.239,0,0,0,.924.283,8.249,8.249,0,0,1-2.728.084c-.2-.038-.275.062-.2.253,1.2,3.272,3.792,4.245,5.733,4.8.259.046.519.046.78.107-.016.023-.031.023-.046.046-.644.981-2.876,1.712-3.915,2.075a14.031,14.031,0,0,1-5.946.761c-.32-.047-.387-.044-.474,0s-.011.13.092.213c.4.268.818.5,1.238.735a19.662,19.662,0,0,0,3.975,1.589c7.143,1.973,15.189.524,20.552-4.805,4.212-4.185,5.688-9.956,5.688-15.734,0-.226.268-.351.426-.47a13.876,13.876,0,0,0,2.785-2.909.85.85,0,0,0,.172-.558v-.03c0-.092.011-.065-.131,0" transform="translate(-96.883 -1.126)" fill="#009ce3"/>
</svg>
