<svg xmlns="http://www.w3.org/2000/svg" xmlns:xlink="http://www.w3.org/1999/xlink" width="40.5" height="49.634" viewBox="0 0 40.5 49.634">
  <defs>
    <clipPath id="clip-path">
      <rect id="Rectangle_10240" data-name="Rectangle 10240" width="40.499" height="49.634" fill="none"/>
    </clipPath>
  </defs>
  <g id="Group_24940" data-name="Group 24940" transform="translate(0 0)">
    <path id="Path_3907" data-name="Path 3907" d="M3.638,24.21,0,30.844H40.5L36.862,24.21Z" transform="translate(0 18.79)" fill="#818386"/>
    <path id="Path_3908" data-name="Path 3908" d="M.28,0,3.818,6.634H36.154L39.691,0Z" transform="translate(0.217)" fill="#818386"/>
    <g id="Group_24885" data-name="Group 24885" transform="translate(0 0)">
      <g id="Group_24884" data-name="Group 24884" clip-path="url(#clip-path)">
        <path id="Path_3909" data-name="Path 3909" d="M19.277,33.776A11.561,11.561,0,1,1,30.836,22.216,11.562,11.562,0,0,1,19.277,33.776M3.258,4.289l-.133.558a78.1,78.1,0,0,0-1.147,30.4l.254,1.595a10.2,10.2,0,0,0,.515,1.948h33.39a10.066,10.066,0,0,0,.515-1.948l.254-1.595a78.1,78.1,0,0,0-1.147-30.4l-.133-.558Z" transform="translate(0.777 3.328)" fill="#bccf3b"/>
        <path id="Path_3910" data-name="Path 3910" d="M17.717,15.651l-1.062-.361,1.511-1.4a5.048,5.048,0,0,1-.449,1.757m-.854,1.1c-.082.067-.167.128-.25.185l-1.284-.421,1.062-.982,1.174.4a3.157,3.157,0,0,1-.7.819m-1.972.771a4.666,4.666,0,0,1-.677.023l.849-.785,1.179.387a4,4,0,0,1-1.352.375m-.813-.892a3.712,3.712,0,0,1,.924-1.9c.044-.046.092-.091.139-.135l.307,1.377L14,17.313a4.763,4.763,0,0,1,.076-.682m2.613-2.824.211.824-1.186,1.1-.3-1.35a3.545,3.545,0,0,1,1.275-.57m1.261-.146-.787.726L17,13.743a5.94,5.94,0,0,1,.952-.082m-4.144.906V12.6l1.218-.709c0,.066,0,.13-.005.194a3.715,3.715,0,0,1-.764,1.966,4.833,4.833,0,0,1-.449.52m0-3.95.75-.4A3.588,3.588,0,0,1,15,11.535l-1.2.7Zm0-1.43a5.893,5.893,0,0,1,.586.753l-.586.316Zm-.316,2.057-.986-.535a5.021,5.021,0,0,1,.986-1.522Zm0,1.806-1.179-.657a2.886,2.886,0,0,1-.034-.309,3.112,3.112,0,0,1,.124-1.071l1.089.591Zm0,1.517a5.028,5.028,0,0,1-.442-.512,4.022,4.022,0,0,1-.643-1.247l1.085.6Zm-1.634,3.668.307-1.377c.048.044.094.089.139.135a3.723,3.723,0,0,1,.925,1.9,4.763,4.763,0,0,1,.076.682Zm.558,1.549a4.039,4.039,0,0,1-1.352-.377l1.179-.385.847.783a4.872,4.872,0,0,1-.675-.021m-1.972-.773a3.163,3.163,0,0,1-.7-.819l1.174-.4,1.062.98-1.282.421a2.665,2.665,0,0,1-.25-.185m-1.3-2.858,1.51,1.4-1.06.361a5,5,0,0,1-.449-1.757M10.3,16l-.165.645-.785-.726A5.918,5.918,0,0,1,10.3,16m.311.064a3.635,3.635,0,0,1,1.275.57l-.3,1.352-1.185-1.1ZM17.146,13.4a4.881,4.881,0,0,0-.986.234,3.556,3.556,0,0,0-1.389.883,3.63,3.63,0,0,0-.694,1.041,4.529,4.529,0,0,0-.259.767V14.988a4.742,4.742,0,0,0,.686-.742,4.6,4.6,0,0,0,.54-.925,3.626,3.626,0,0,0,.293-1.218,3.568,3.568,0,0,0-.295-1.618,4.85,4.85,0,0,0-.5-.883,6.873,6.873,0,0,0-.783-.92l-.112-.11-.112.11a6.745,6.745,0,0,0-.783.92,4.747,4.747,0,0,0-.5.883,3.568,3.568,0,0,0-.295,1.618,3.626,3.626,0,0,0,.293,1.218,4.6,4.6,0,0,0,.54.925,4.848,4.848,0,0,0,.684.742V18.56a4.372,4.372,0,0,0-.25-.741,3.643,3.643,0,0,0-.7-1.043,3.6,3.6,0,0,0-1.387-.883,4.9,4.9,0,0,0-.988-.234,6.82,6.82,0,0,0-1.206-.046l-.156.005.005.158a6.74,6.74,0,0,0,.142,1.2,4.831,4.831,0,0,0,.311.964,3.5,3.5,0,0,0,2.082,1.925,4.582,4.582,0,0,0,1.046.233,4.72,4.72,0,0,0,1.1-.009V24.2a2.419,2.419,0,0,0-1.025-.22c-1.039,0-1.881.607-1.881,1.355v.256a.446.446,0,0,1-.448.448.331.331,0,0,0-.33.332v1.1h7.716v-.918A.515.515,0,0,0,17,26.038h-.265v-.092c0-.668-.753-1.211-1.682-1.211a2.448,2.448,0,0,0-.384.032.782.782,0,0,1-.684-.22,1.588,1.588,0,0,0-.163-.142V17.828h0a4.558,4.558,0,0,0,1.1.009,4.469,4.469,0,0,0,1.046-.231,3.5,3.5,0,0,0,2.082-1.925,4.87,4.87,0,0,0,.313-.964,7.106,7.106,0,0,0,.142-1.2l.005-.156-.156-.007a7,7,0,0,0-1.208.048" transform="translate(6.826 6.652)" fill="#bccf3b"/>
      </g>
    </g>
  </g>
</svg>
