<svg id="Group_25230" data-name="Group 25230" xmlns="http://www.w3.org/2000/svg" xmlns:xlink="http://www.w3.org/1999/xlink" width="35.945" height="129.822" viewBox="0 0 35.945 129.822">
  <defs>
    <clipPath id="clip-path">
      <rect id="Rectangle_10361" data-name="Rectangle 10361" width="35.945" height="129.822" fill="none"/>
    </clipPath>
  </defs>
  <g id="Group_25229" data-name="Group 25229" clip-path="url(#clip-path)">
    <path id="Path_4947" data-name="Path 4947" d="M27.845,263.9a5.163,5.163,0,1,1,5.162,5.165,5.163,5.163,0,0,1-5.162-5.165" transform="translate(-15.035 -139.706)" fill="#ffe800"/>
    <path id="Path_4948" data-name="Path 4948" d="M27.845,263.9a5.163,5.163,0,1,1,5.162,5.165A5.163,5.163,0,0,1,27.845,263.9Z" transform="translate(-15.035 -139.706)" fill="none" stroke="#9db929" stroke-miterlimit="10" stroke-width="2"/>
    <path id="Path_4949" data-name="Path 4949" d="M1,18.516A17.513,17.513,0,1,1,18.516,36.025h0A17.519,17.519,0,0,1,1,18.516" transform="translate(-0.54 -0.54)" fill="#9db929"/>
    <path id="Path_4950" data-name="Path 4950" d="M1,18.516A17.513,17.513,0,1,1,18.516,36.025h0A17.519,17.519,0,0,1,1,18.516Z" transform="translate(-0.54 -0.54)" fill="none" stroke="#fff" stroke-miterlimit="10" stroke-width="2"/>
    <path id="Path_4951" data-name="Path 4951" d="M21.666,29.68a8,8,0,1,1,0,.009V29.68" transform="translate(-11.698 -11.704)" fill="#ffe800"/>
    <line id="Line_65" data-name="Line 65" y2="84.684" transform="translate(17.973 34.352)" fill="none" stroke="#9db929" stroke-linecap="round" stroke-miterlimit="10" stroke-width="2" stroke-dasharray="2 4"/>
  </g>
</svg>
