<?xml version="1.0" encoding="utf-8"?>
<!-- Generator: Adobe Illustrator 28.0.0, SVG Export Plug-In . SVG Version: 6.00 Build 0)  -->
<svg version="1.1" id="Layer_1" xmlns="http://www.w3.org/2000/svg" xmlns:xlink="http://www.w3.org/1999/xlink" x="0px" y="0px"
	 viewBox="0 0 1920 930" style="enable-background:new 0 0 1920 930;" xml:space="preserve">
<style type="text/css">
	.st0{fill:#FFFFFF;}
</style>
<g>
	<polygon class="st0" points="1020.2,391.2 1018,379.7 1017.5,379.7 1015.3,391.3 1010,407.4 1025.6,407.4 	"/>
	<path class="st0" d="M1388.7,504.3L1388.7,504.3c-3.5,0-6.1,1.1-7.8,3.2c-1.8,2.5-2.9,5.4-3.1,8.5h19.2c0.3-3.7-0.3-6.6-1.7-8.6
		S1391.7,504.3,1388.7,504.3z"/>
	<path class="st0" d="M1067.8,397c-1.9,2.6-2.9,6.7-2.9,12.4c0,5.1,0.8,8.9,2.5,11.5c1.5,2.5,4.2,4,7.2,3.9c2.2,0.1,4.3-0.5,6.1-1.8
		c1.6-1.4,2.7-3.3,3.3-5.3v-23.4c-2.6-1-5.3-1.4-8-1.4C1072.8,393,1069.7,394.5,1067.8,397z"/>
	<path class="st0" d="M960.3,504.9c-3.1-0.1-6,1.3-7.8,3.7c-1.9,2.5-2.8,6.6-2.8,12.3c0,2.1,0.2,4.3,0.6,6.3c0.4,1.8,1,3.5,1.9,5.1
		c0.8,1.4,1.9,2.6,3.3,3.4c1.5,0.8,3.1,1.2,4.8,1.2c3.5,0,6.2-1.3,7.9-3.8c1.7-2.6,2.6-6.6,2.6-12.2c0-4.8-0.8-8.7-2.4-11.6
		S964.1,504.9,960.3,504.9z"/>
	<path class="st0" d="M769.6,395.3c-1.4-2-3.6-3-6.7-3c-3.5,0-6.1,1.1-7.8,3.2c-1.8,2.5-2.9,5.4-3.1,8.5h19.2
		C771.6,400.2,771,397.3,769.6,395.3z"/>
	<path class="st0" d="M576.8,425c3.9,0,6.8-1.4,8.7-4.1c1.9-2.7,2.9-7.3,2.9-13.6c0-4.6-0.8-8.1-2.3-10.6c-1.5-2.5-4-3.7-7.4-3.7h0
		c-2.2-0.1-4.4,0.6-6.2,2c-1.7,1.6-2.9,3.7-3.5,5.9v21.6c1,0.8,2,1.4,3.2,1.8C573.7,424.8,575.2,425,576.8,425z"/>
	<path class="st0" d="M633.7,392.9c-3.1-0.1-6,1.3-7.8,3.7c-1.9,2.5-2.8,6.6-2.8,12.3h0c0,2.1,0.2,4.3,0.6,6.3
		c0.4,1.8,1,3.5,1.9,5.1c0.8,1.4,1.9,2.6,3.3,3.4c1.5,0.8,3.1,1.2,4.8,1.2c3.5,0,6.2-1.3,7.9-3.8c1.7-2.6,2.6-6.6,2.6-12.2
		c0-4.8-0.8-8.7-2.4-11.6S637.6,392.9,633.7,392.9z"/>
	<path class="st0" d="M929,397c-1.9,2.6-2.9,6.7-2.9,12.4c0,5.1,0.8,8.9,2.5,11.5c1.5,2.5,4.2,4,7.2,3.9c2.2,0.1,4.3-0.5,6.1-1.8
		c1.6-1.4,2.7-3.3,3.3-5.3v-23.4c-2.6-1-5.3-1.4-8-1.4C933.9,393,930.9,394.5,929,397z"/>
	<path class="st0" d="M0,0v930h1920V0H0z M1147.1,363.1c1.7-1.5,3.9-2.3,6.2-2.1c2.3-0.1,4.6,0.7,6.4,2.1c1.6,1.3,2.5,3.2,2.4,5.1
		c0,2-0.9,3.8-2.4,5c-1.8,1.4-4.1,2.1-6.4,2c-2.2,0.1-4.5-0.6-6.2-2c-1.5-1.3-2.3-3.1-2.2-5C1144.9,366.3,1145.7,364.5,1147.1,363.1
		z M1109.2,382.9h10.5l1.6,6.9h0.4c1-2.4,2.7-4.4,4.8-5.9c2.1-1.4,4.6-2.1,7.1-2.1c2.1,0.1,4.2,0.4,6.1,1.1l-1.8,12.7
		c-1.9-0.7-3.8-1.1-5.8-1.1c-2.2-0.1-4.3,0.6-6.1,1.9c-1.6,1.2-2.8,3-3.3,4.9v33.6h-13.5V382.9z M831.4,363.1
		c1.7-1.5,3.9-2.3,6.2-2.1c2.3-0.1,4.6,0.7,6.4,2.1c1.6,1.3,2.5,3.2,2.4,5.1c0,2-0.9,3.8-2.4,5c-1.8,1.4-4.1,2.1-6.4,2
		c-2.2,0.1-4.5-0.6-6.2-2c-1.5-1.3-2.3-3.1-2.2-5C829.1,366.3,829.9,364.5,831.4,363.1z M844.7,382.9v52h-13.5v-52H844.7z
		 M555.5,382.9h9.9l1.6,6.2h0.4c1.6-2.5,3.8-4.5,6.4-5.8c2.8-1.3,5.9-2,9-1.9c6.5,0,11.4,2.1,14.7,6.2c3.3,4.1,4.9,10.8,4.9,19.9
		c0.1,4.1-0.5,8.1-1.6,12c-0.9,3.3-2.5,6.4-4.6,9.1c-2,2.5-4.6,4.4-7.5,5.7c-3.2,1.4-6.7,2-10.1,2c-1.8,0-3.6-0.1-5.3-0.5
		c-1.4-0.3-2.8-0.8-4.2-1.5v21.3h-13.5L555.5,382.9z M417.8,362.1H461v12.7h-28.9v17h26.3v12.7h-26.3v17.8h29.4v12.7h-43.7V362.1z
		 M485.3,546.9h-43.7l0-72.8h43.2v12.7h-28.9v17h26.3v12.7h-26.3v17.8h29.4V546.9z M540.9,546.9h-13.5v-29.5c0-4.2-0.6-7.3-1.8-9.2
		c-1.2-1.9-3.3-2.8-6.2-2.8c-2.4-0.1-4.7,0.7-6.5,2.2c-1.8,1.5-3.1,3.4-3.8,5.6v33.7h-13.5v-52h10.7l1.6,6.9h0.4
		c1.7-2.3,3.9-4.3,6.3-5.8c3.1-1.8,6.6-2.7,10.2-2.5c2.3,0,4.6,0.3,6.9,1c2,0.7,3.7,1.9,5.1,3.4c1.5,1.9,2.6,4.1,3.1,6.5
		c0.8,3.3,1.1,6.7,1,10.1V546.9z M544.4,434.9h-13.5v-29.2c0-4.1-0.4-7.2-1.3-9.2s-2.8-3.1-5.8-3.1c-2.1-0.1-4.2,0.6-5.8,2
		c-1.5,1.5-2.6,3.4-3.2,5.4v34.1h-13.5v-28.3c0-4.8-0.5-8.2-1.4-10.2c-0.9-2-2.8-3-5.6-3c-2.1-0.1-4.1,0.6-5.7,1.9
		c-1.5,1.3-2.6,3-3.3,4.9v34.6h-13.5v-52h10.5l1.6,6.9h0.4c1.7-2.3,3.7-4.3,6.1-5.8c2.8-1.8,6.2-2.6,9.5-2.5c2.9-0.1,5.7,0.6,8.2,2
		c2.4,1.7,4.1,4.1,4.9,6.8c1.5-2.6,3.6-4.8,6.1-6.4c2.7-1.7,5.9-2.5,9-2.4c2.5-0.1,5,0.3,7.4,1c2,0.7,3.7,1.9,5,3.6
		c1.4,2,2.4,4.4,2.9,6.8c0.7,3.6,1,7.2,0.9,10.8V434.9z M581,507.6c-1.9-0.7-3.8-1.1-5.8-1.1c-2.2-0.1-4.3,0.6-6.1,1.9
		c-1.6,1.2-2.8,3-3.3,4.9v33.6h-13.5v-52h10.5l1.6,6.9h0.4c1-2.4,2.7-4.4,4.8-5.9c2.1-1.4,4.6-2.1,7.1-2.1c2.1,0.1,4.2,0.4,6.1,1.1
		L581,507.6z M603.4,546.9h-13.5v-52h13.5V546.9z M602.8,485.3c-1.8,1.4-4.1,2.1-6.4,2c-2.2,0.1-4.5-0.6-6.2-2
		c-1.5-1.3-2.3-3.1-2.2-5c0-2,0.8-3.8,2.2-5.1c1.7-1.5,3.9-2.3,6.2-2.1c2.3-0.1,4.6,0.7,6.4,2.1c1.6,1.3,2.5,3.2,2.4,5.1
		C605.2,482.3,604.3,484.1,602.8,485.3z M646,547.2c-3,0.8-6,1.2-9.1,1.2c-3.6,0.1-7.2-0.6-10.6-2c-2.8-1.2-5.2-3.1-7-5.6
		c-1.9-2.6-3.2-5.5-3.9-8.7c-0.8-3.7-1.2-7.5-1.2-11.2c0-8.8,2-15.6,5.9-20.3s9.7-7.1,17.3-7.1c3.1-0.1,6.2,0.2,9.2,0.9
		c2.2,0.6,4.3,1.4,6.3,2.4l-3.2,11c-1.5-0.7-3.1-1.3-4.7-1.8c-1.8-0.4-3.6-0.6-5.4-0.6c-3.7,0-6.6,1.2-8.5,3.7
		c-1.9,2.5-2.9,6.4-2.9,11.8c0,2.1,0.2,4.1,0.7,6.1c0.4,1.7,1.2,3.4,2.2,4.9c1,1.4,2.3,2.5,3.8,3.3c1.7,0.8,3.6,1.2,5.5,1.2
		c2,0,3.9-0.3,5.8-0.9c1.5-0.5,2.9-1.3,4.3-2.1l3.1,10.3C651.3,545.3,648.7,546.5,646,547.2z M651.8,429.3c-4.3,4.7-10.3,7.1-18,7.1
		c-3.7,0.1-7.4-0.6-10.8-2c-2.9-1.2-5.6-3.1-7.6-5.6c-2.1-2.5-3.7-5.5-4.6-8.7c-1-3.7-1.5-7.4-1.5-11.2c0-8.8,2.1-15.6,6.4-20.3
		s10.3-7.1,18.1-7.1c3.7-0.1,7.4,0.6,10.8,2c2.9,1.2,5.5,3.1,7.6,5.6c2.1,2.5,3.6,5.5,4.5,8.7c1,3.7,1.6,7.4,1.5,11.2
		C658.2,417.8,656.1,424.5,651.8,429.3z M707.1,546.9h-13.5v-29.5c0-4.2-0.6-7.3-1.8-9.2c-1.2-1.9-3.3-2.8-6.4-2.8
		c-2.3,0-4.5,0.8-6.3,2.3c-1.9,1.5-3.2,3.6-3.8,6v33.2h-13.5v-72.8h13.5v26.6h0.4c1.6-2.2,3.7-4,6.1-5.3c2.9-1.4,6.1-2.1,9.3-2
		c2.4,0,4.7,0.3,7,1c2,0.7,3.7,1.8,5,3.4c1.5,1.9,2.5,4.1,3,6.5c0.7,3.3,1.1,6.7,1,10.1V546.9z M733.1,546.9h-13.5v-52h13.5V546.9z
		 M732.4,485.3c-1.8,1.4-4.1,2.1-6.4,2c-2.2,0.1-4.5-0.6-6.2-2c-1.5-1.3-2.3-3.1-2.2-5c0-2,0.8-3.8,2.2-5.1c1.7-1.5,3.9-2.3,6.2-2.1
		c2.3-0.1,4.6,0.7,6.4,2.1c1.6,1.3,2.5,3.2,2.4,5.1C734.9,482.3,734,484.1,732.4,485.3z M720.5,435.5h-10L700,406.3l-1.4-6.6h-0.5
		l-1.2,6.7l-10,29h-10.3l-16.7-52.5h14.7l7.6,26.1l1.2,9.3h0.5l1.8-9.4l8.6-26l10,0l9.5,26.6l1.9,8.6h0.4l1.5-8.7l6.7-26.5h12.4
		L720.5,435.5z M744,429.1c-3.9-4.9-5.8-11.6-5.8-20.1c0-9.2,2.2-16,6.6-20.6c4.4-4.6,10.5-6.9,18.4-6.9c2.6,0,5.2,0.3,7.7,1
		c2.4,0.7,4.7,1.8,6.7,3.4c2.1,1.7,3.7,4,4.7,6.4c1.3,3.2,1.9,6.6,1.8,10.1c0,1.6-0.1,3.1-0.3,4.7c-0.2,1.7-0.4,3.4-0.8,5.2h-31.1
		c0.2,4.4,1.3,7.7,3.4,9.9c2,2.2,5.3,3.3,9.9,3.3c2.6,0,5.2-0.4,7.6-1.3c1.8-0.6,3.5-1.5,5.1-2.7l4.5,8.8c-2.5,1.9-5.4,3.3-8.5,4.2
		c-3.7,1.2-7.5,1.7-11.4,1.7C754,436.4,747.9,434,744,429.1z M791.8,546.9h-13.5v-29.5c0-4.2-0.6-7.3-1.8-9.2
		c-1.2-1.9-3.3-2.8-6.2-2.8c-2.4-0.1-4.7,0.7-6.5,2.2c-1.8,1.5-3.1,3.4-3.8,5.6v33.7h-13.5v-52h10.7l1.6,6.9h0.4
		c1.7-2.3,3.9-4.3,6.3-5.8c3.1-1.8,6.6-2.7,10.2-2.5c2.3,0,4.6,0.3,6.9,1c2,0.7,3.7,1.9,5.1,3.4c1.5,1.9,2.6,4.1,3.1,6.5
		c0.8,3.3,1.1,6.7,1,10.1V546.9z M793.5,382.9H804l1.6,6.9h0.4c1-2.4,2.7-4.4,4.8-5.9c2.1-1.4,4.6-2.1,7.1-2.1
		c2.1,0.1,4.2,0.4,6.1,1.1l-1.8,12.7c-1.9-0.7-3.8-1.1-5.8-1.1c-2.2-0.1-4.3,0.6-6.1,1.9c-1.6,1.2-2.8,3-3.3,4.9v33.6h-13.5V382.9z
		 M847.1,546.9c0,7.6-2,13.1-6.1,16.7c-4.1,3.6-9.8,5.4-17.2,5.4c-4,0.1-7.9-0.3-11.8-1c-2.2-0.5-4.4-1.2-6.5-2.2l2.8-10.7
		c1.6,0.6,3.4,1.2,5.6,1.9c2.6,0.7,5.2,1,7.9,0.9c4.7,0,7.9-1,9.6-3.1s2.5-4.9,2.5-8.6v-3.3h-0.4c-2.4,3.3-6.7,4.9-12.9,4.9
		c-6.7,0-11.7-2.1-15-6.2s-4.9-10.7-4.9-19.6c0-9.3,2.2-16.3,6.7-21.1c4.4-4.8,10.9-7.2,19.3-7.2c4,0,8,0.3,11.9,0.9
		c2.9,0.5,5.8,1.2,8.6,2.2V546.9z M875.3,395.7c-1.8,1.5-3.1,3.4-3.8,5.6v33.7H858v-52h10.7l1.6,6.9h0.4c1.7-2.3,3.9-4.3,6.3-5.8
		c3.1-1.8,6.6-2.7,10.2-2.5c2.3,0,4.7,0.3,6.9,1c2,0.7,3.7,1.9,5.1,3.4c1.5,1.9,2.6,4.1,3.1,6.5c0.8,3.3,1.1,6.7,1,10.1v32.3h-13.5
		v-29.5c0-4.2-0.6-7.3-1.8-9.2c-1.2-1.9-3.3-2.8-6.2-2.8C879.4,393.4,877.1,394.2,875.3,395.7z M925,547.4c-3.5,0.7-7,1-10.6,1
		c-4.2,0-8.4-0.7-12.4-2c-3.9-1.3-7.5-3.6-10.3-6.6c-3.2-3.4-5.6-7.4-7.1-11.8c-1.9-5.6-2.8-11.6-2.6-17.5c0-7.1,1-13.1,3-17.9
		c1.7-4.4,4.3-8.4,7.7-11.6c3-2.9,6.6-5,10.6-6.3c3.8-1.3,7.7-1.9,11.6-1.9c3.5-0.1,7.1,0.2,10.6,0.8c2.4,0.4,4.8,1.1,7.1,2
		l-2.8,12.1c-1.8-0.8-3.7-1.4-5.7-1.7c-2.6-0.4-5.3-0.6-8-0.5c-5.3-0.2-10.4,2.1-13.9,6.1c-3.5,4.1-5.3,10.5-5.3,19.1
		c0,3.5,0.4,6.9,1.2,10.3c0.7,2.9,2,5.6,3.8,7.9c1.7,2.2,3.9,3.9,6.3,5.1c2.8,1.3,5.8,1.9,8.8,1.8c2.7,0.1,5.3-0.3,7.9-0.9
		c2-0.5,3.9-1.4,5.6-2.4l2.9,11.6C930.9,545.7,928,546.8,925,547.4z M923.5,456c-2.2-0.5-4.4-1.2-6.5-2.2l2.8-10.7
		c1.6,0.6,3.4,1.2,5.6,1.9c2.6,0.7,5.2,1,7.9,0.9c4.7,0,7.9-1,9.6-3.1c1.7-2,2.5-4.9,2.5-8.6v-3.3H945c-2.4,3.3-6.7,4.9-12.9,4.9
		c-6.7,0-11.7-2.1-15-6.2c-3.3-4.2-4.9-10.7-4.9-19.6c0-9.3,2.2-16.3,6.7-21.1s10.9-7.2,19.3-7.2c4,0,8,0.3,11.9,0.9
		c2.9,0.5,5.8,1.2,8.6,2.2l0,50.1c0,7.6-2,13.1-6.1,16.7c-4.1,3.6-9.8,5.4-17.2,5.4C931.4,457.1,927.4,456.7,923.5,456z
		 M978.3,541.3c-4.3,4.7-10.3,7.1-18,7.1c-3.7,0.1-7.4-0.6-10.8-2c-2.9-1.2-5.6-3.1-7.6-5.6c-2.1-2.5-3.7-5.5-4.6-8.7
		c-1-3.7-1.5-7.4-1.5-11.2c0-8.8,2.1-15.6,6.4-20.3s10.3-7.1,18.1-7.1c3.7-0.1,7.4,0.6,10.8,2c2.9,1.2,5.5,3.1,7.6,5.6
		c2.1,2.5,3.6,5.5,4.5,8.7c1,3.7,1.6,7.4,1.5,11.2C984.7,529.8,982.6,536.5,978.3,541.3z M1012.8,361.6h10.5l26.2,73.3h-15
		l-5.8-16.1h-22.4l-5.5,16.1h-14.2L1012.8,361.6z M1066.6,546.9h-13.5v-29.2c0-4.1-0.4-7.2-1.3-9.2c-0.9-2-2.8-3.1-5.8-3.1
		c-2.1-0.1-4.2,0.6-5.8,2c-1.5,1.5-2.6,3.4-3.2,5.4v34.1h-13.5v-28.3c0-4.8-0.5-8.2-1.4-10.2c-0.9-2-2.8-3-5.6-3
		c-2.1-0.1-4.1,0.6-5.7,1.9c-1.5,1.3-2.6,3-3.3,4.9v34.6h-13.5v-52h10.5l1.6,6.9h0.4c1.7-2.3,3.7-4.3,6.1-5.8
		c2.8-1.8,6.2-2.6,9.5-2.5c2.9-0.1,5.7,0.6,8.2,2c2.4,1.7,4.1,4.1,4.9,6.8c1.5-2.6,3.6-4.8,6.1-6.4c2.7-1.7,5.9-2.5,9-2.4
		c2.5-0.1,5,0.3,7.4,1c2,0.7,3.7,1.9,5,3.6c1.4,2,2.4,4.4,2.9,6.8c0.7,3.6,1,7.2,0.9,10.8V546.9z M1062.4,456
		c-2.2-0.5-4.4-1.2-6.5-2.2l2.8-10.7c1.6,0.6,3.4,1.2,5.6,1.9c2.6,0.7,5.2,1,7.9,0.9c4.7,0,7.9-1,9.6-3.1c1.7-2,2.5-4.9,2.5-8.6
		v-3.3h-0.4c-2.4,3.3-6.7,4.9-12.9,4.9c-6.7,0-11.7-2.1-15-6.2c-3.3-4.2-4.9-10.7-4.9-19.6c0-9.3,2.2-16.3,6.7-21.1
		s10.9-7.2,19.3-7.2c4,0,8,0.3,11.9,0.9c2.9,0.5,5.8,1.2,8.6,2.2v50.1c0,7.6-2,13.1-6.1,16.7c-4.1,3.6-9.8,5.4-17.2,5.4
		C1070.2,457.1,1066.3,456.7,1062.4,456z M1150.4,546.9h-13.5v-29.2c0-4.1-0.4-7.2-1.3-9.2s-2.8-3.1-5.8-3.1c-2.1-0.1-4.2,0.6-5.8,2
		c-1.5,1.5-2.6,3.4-3.2,5.4v34.1h-13.5v-28.3c0-4.8-0.5-8.2-1.4-10.2s-2.8-3-5.6-3c-2.1-0.1-4.1,0.6-5.7,1.9c-1.5,1.3-2.6,3-3.3,4.9
		v34.6h-13.5v-52h10.5l1.6,6.9h0.4c1.7-2.3,3.7-4.3,6.1-5.8c2.8-1.8,6.2-2.6,9.5-2.5c2.9-0.1,5.7,0.6,8.2,2c2.4,1.7,4.1,4.1,4.9,6.8
		c1.5-2.6,3.6-4.8,6.1-6.4c2.7-1.7,5.9-2.5,9-2.4c2.5-0.1,5,0.3,7.4,1c2,0.7,3.7,1.9,5,3.6c1.4,2,2.4,4.4,2.9,6.8
		c0.7,3.6,1,7.2,0.9,10.8V546.9z M1160.4,434.9h-13.5v-52h13.5V434.9z M1197.1,546.9l-2.4-7.7h-0.4c-1.7,2.7-3.9,4.9-6.7,6.6
		c-3.1,1.8-6.5,2.7-10.1,2.6c-2.4,0-4.8-0.3-7.1-1c-2-0.6-3.8-1.8-5.2-3.4c-1.5-1.9-2.6-4.1-3.2-6.4c-0.8-3.3-1.2-6.8-1.1-10.2
		v-32.3h13.5v29.5c0,4.2,0.5,7.3,1.5,9.2c1,1.9,3,2.8,5.9,2.8c2.3,0.1,4.6-0.7,6.4-2.3c1.7-1.5,3-3.5,3.8-5.6v-33.6h13.5v36.2
		c0,2.8,0.1,5.6,0.4,8.4c0.2,2.5,0.7,5,1.2,7.4H1197.1z M1203,435.2c-3,0.8-6,1.2-9.1,1.2c-3.6,0.1-7.2-0.6-10.6-2
		c-2.8-1.2-5.2-3.1-7-5.6c-1.9-2.6-3.2-5.5-3.9-8.7c-0.8-3.7-1.2-7.5-1.2-11.2c0-8.8,2-15.6,5.9-20.3c4-4.7,9.7-7.1,17.3-7.1
		c3.1-0.1,6.2,0.2,9.2,0.9c2.2,0.6,4.3,1.4,6.3,2.4l-3.2,11c-1.5-0.7-3.1-1.3-4.7-1.8c-1.8-0.4-3.6-0.6-5.4-0.6
		c-3.7,0-6.6,1.2-8.5,3.7c-1.9,2.5-2.9,6.4-2.9,11.8c0,2.1,0.2,4.1,0.7,6.1c0.4,1.7,1.2,3.4,2.2,4.9c1,1.4,2.3,2.5,3.8,3.3
		c1.7,0.8,3.6,1.2,5.5,1.2c2,0,3.9-0.3,5.8-0.9c1.5-0.5,2.9-1.3,4.3-2.1l3.1,10.3C1208.3,433.3,1205.7,434.5,1203,435.2z
		 M1262.8,546.9h-13.5v-29.5c0-4.2-0.6-7.3-1.8-9.2c-1.2-1.9-3.3-2.8-6.2-2.8c-2.4-0.1-4.7,0.7-6.5,2.2c-1.8,1.5-3.1,3.4-3.8,5.6
		v33.7h-13.5v-52h10.7l1.6,6.9h0.4c1.7-2.3,3.9-4.3,6.3-5.8c3.1-1.8,6.6-2.7,10.2-2.5c2.3,0,4.6,0.3,6.9,1c2,0.7,3.7,1.9,5.1,3.4
		c1.5,1.9,2.6,4.1,3.1,6.5c0.8,3.3,1.1,6.7,1,10.1V546.9z M1254.3,434.9l-2.4-7.7h-0.4c-1.7,2.7-3.9,4.9-6.7,6.6
		c-3.1,1.8-6.5,2.7-10.1,2.6c-2.4,0-4.8-0.3-7.1-1c-2-0.6-3.8-1.8-5.2-3.4c-1.5-1.9-2.6-4.1-3.2-6.4c-0.8-3.3-1.2-6.8-1.1-10.2
		v-32.3h13.5v29.5c0,4.2,0.5,7.3,1.5,9.2c1,1.9,3,2.8,5.9,2.8c2.3,0.1,4.6-0.7,6.4-2.3c1.7-1.5,3-3.5,3.8-5.6v-33.6h13.5v36.2
		c0,2.8,0.1,5.6,0.4,8.4c0.2,2.5,0.6,5,1.2,7.4H1254.3z M1288.8,546.9h-13.5v-52h13.5V546.9z M1288.1,485.3c-1.8,1.4-4.1,2.1-6.4,2
		c-2.2,0.1-4.5-0.6-6.2-2c-1.5-1.3-2.3-3.1-2.2-5c0-2,0.8-3.8,2.2-5.1c1.7-1.5,3.9-2.3,6.2-2.1c2.3-0.1,4.6,0.7,6.4,2.1
		c1.6,1.3,2.5,3.2,2.4,5.1C1290.6,482.3,1289.7,484.1,1288.1,485.3z M1287.3,436.4c-4,0-7-0.9-9-2.8c-2.1-1.8-3.1-4.9-3.1-9.1v-62.4
		h13.5l0,55.3c-0.1,1.8,0.2,3.6,0.9,5.3c0.6,1.1,1.8,1.7,3,1.7c0.8,0,1.6-0.1,2.4-0.2c1-0.2,2-0.5,3-0.9l1.5,10.6
		c-1.6,0.7-3.3,1.3-5.1,1.7C1292,436.1,1289.7,436.4,1287.3,436.4z M1325.4,547.5c-2.5,0.6-5,0.9-7.6,0.9c-4.8,0-8.3-1.2-10.6-3.7
		c-2.3-2.5-3.4-6.5-3.4-12.1v-26.2h-7.2v-11.4h7.2v-9.8l13.5-3.8v13.6h12.7v11.4h-12.7v20c0,3.6,0.4,6.2,1.1,7.7
		c0.7,1.6,2.4,2.5,4.1,2.3c1.2,0,2.4-0.1,3.6-0.4c1.2-0.3,2.3-0.7,3.4-1.2l2.4,10.4C1329.9,546.2,1327.7,546.9,1325.4,547.5z
		 M1328.6,435.5c-2.5,0.6-5,0.9-7.6,0.9c-4.8,0-8.3-1.2-10.6-3.7c-2.3-2.5-3.4-6.5-3.4-12.1v-26.2h-7.2v-11.4h7.2v-9.8l13.5-3.8
		v13.6h12.7v11.4h-12.7v20c0,3.6,0.4,6.2,1.1,7.7c0.7,1.6,2.4,2.5,4.1,2.3c1.2,0,2.4-0.1,3.6-0.4c1.2-0.3,2.3-0.7,3.4-1.2l2.4,10.4
		C1333,434.2,1330.8,434.9,1328.6,435.5z M1353.1,546.9h-13.5l0-52h13.5V546.9z M1352.4,485.3c-1.8,1.4-4.1,2.1-6.4,2
		c-2.2,0.1-4.5-0.6-6.2-2c-1.5-1.3-2.3-3.1-2.2-5h0c0-2,0.8-3.8,2.2-5.1c1.7-1.5,3.9-2.3,6.2-2.1c2.3-0.1,4.6,0.7,6.4,2.1
		c1.6,1.3,2.5,3.2,2.4,5.1C1354.9,482.3,1354,484.1,1352.4,485.3z M1350.5,435.4c-2-0.6-3.8-1.8-5.2-3.4c-1.5-1.9-2.6-4.1-3.2-6.4
		c-0.8-3.3-1.2-6.8-1.1-10.2v-32.3h13.5v29.5c0,4.2,0.5,7.3,1.5,9.2c1,1.9,3,2.8,5.9,2.8c2.3,0.1,4.6-0.7,6.4-2.3
		c1.7-1.5,3-3.5,3.8-5.6v-33.6h13.5v36.2c0,2.8,0.1,5.6,0.4,8.4c0.2,2.5,0.6,5,1.2,7.4h-10.2l-2.4-7.7h-0.4
		c-1.7,2.7-3.9,4.9-6.7,6.6c-3.1,1.8-6.5,2.7-10.1,2.6C1355.2,436.4,1352.8,436.1,1350.5,435.4z M1409.6,514.5
		c0,1.6-0.1,3.1-0.3,4.7c-0.2,1.7-0.4,3.4-0.8,5.2h-31.1c0.2,4.4,1.3,7.7,3.4,9.9c2,2.2,5.3,3.3,9.9,3.3c4.6,0,9-1.3,12.7-4l4.5,8.8
		c-2.5,1.9-5.4,3.3-8.5,4.2c-3.7,1.2-7.5,1.7-11.4,1.7c-8.4,0-14.5-2.4-18.4-7.3c-3.9-4.9-5.8-11.6-5.8-20.1c0-9.2,2.2-16,6.6-20.6
		s10.5-6.9,18.4-6.9c2.6,0,5.2,0.3,7.7,1c2.4,0.7,4.7,1.8,6.7,3.4c2.1,1.7,3.7,4,4.7,6.4C1409.1,507.6,1409.7,511.1,1409.6,514.5z
		 M1411,401.4v33.6h-13.5v-52h10.5l1.6,6.9h0.4c1-2.4,2.7-4.4,4.8-5.9c2.1-1.4,4.6-2.1,7.1-2.1c2.1,0.1,4.2,0.4,6.1,1.1l-1.8,12.7
		c-1.9-0.7-3.8-1.1-5.8-1.1c-2.2-0.1-4.3,0.6-6.1,1.9C1412.7,397.7,1411.6,399.4,1411,401.4z M1454.3,531.4c0,5.3-1.7,9.4-5,12.4
		c-3.4,3-8.4,4.5-15.1,4.5c-3.5,0-7-0.4-10.3-1.4c-2.8-0.7-5.4-1.8-7.9-3.3l3.7-10.1c2,1.1,4.1,2,6.3,2.7c2.6,0.9,5.4,1.3,8.1,1.3
		c1.7,0.1,3.4-0.3,4.8-1.1c1.3-0.9,2-2.3,1.8-3.8h0c0-1.3-0.6-2.6-1.8-3.3c-1.4-0.9-2.8-1.7-4.4-2.3c-1.7-0.7-3.6-1.4-5.7-2.1
		c-2-0.7-4-1.7-5.7-3c-1.8-1.3-3.3-3-4.4-4.9c-1.3-2.3-1.9-5-1.8-7.6c0-5.1,1.5-9.1,4.6-11.8c3.1-2.7,7.5-4.1,13.2-4.1
		c3.6,0,7.2,0.4,10.7,1.2c2.6,0.6,5.1,1.6,7.5,2.8l-3,9.8c-1.6-0.6-3.6-1.3-6-2c-2.4-0.7-4.9-1-7.4-1c-4,0-6,1.6-6,4.7
		c0,1.3,0.7,2.4,1.8,3c1.4,0.9,2.8,1.6,4.4,2.1c1.7,0.7,3.6,1.4,5.7,2.1c2,0.7,4,1.7,5.7,3c1.8,1.3,3.3,2.9,4.4,4.7
		C1453.8,526.2,1454.4,528.8,1454.3,531.4z M1437.4,429.1c-3.9-4.9-5.8-11.6-5.8-20.1c0-9.2,2.2-16,6.6-20.6s10.5-6.9,18.4-6.9
		c2.6,0,5.2,0.3,7.7,1c2.4,0.7,4.7,1.8,6.7,3.4c2.1,1.7,3.7,4,4.7,6.4c1.3,3.2,1.9,6.6,1.8,10.1c0,1.6-0.1,3.1-0.3,4.7
		c-0.2,1.7-0.4,3.4-0.8,5.2h-31.1c0.2,4.4,1.3,7.7,3.4,9.9c2,2.2,5.3,3.3,9.9,3.3c2.6,0,5.2-0.4,7.6-1.3c1.8-0.6,3.5-1.5,5.1-2.7
		l4.4,8.8c-2.5,1.9-5.4,3.3-8.5,4.2c-3.7,1.2-7.5,1.7-11.4,1.7C1447.4,436.4,1441.2,434,1437.4,429.1z M1476.1,545.9
		c-1.7,1.5-4,2.3-6.2,2.2c-2.2,0.1-4.4-0.7-6-2.2c-1.6-1.5-2.4-3.6-2.3-5.8h0c-0.1-2.2,0.7-4.3,2.3-5.8c1.7-1.5,3.8-2.2,6-2.1
		c2.3-0.1,4.5,0.6,6.2,2.1c1.6,1.5,2.4,3.6,2.3,5.8C1478.5,542.3,1477.6,544.4,1476.1,545.9z M1499.9,433.9c-1.7,1.5-4,2.3-6.2,2.2
		c-2.2,0.1-4.4-0.7-6-2.2c-1.6-1.5-2.4-3.6-2.3-5.8c-0.1-2.2,0.7-4.3,2.3-5.8c1.7-1.5,3.8-2.2,6-2.1c2.3-0.1,4.5,0.6,6.2,2.1
		c1.6,1.5,2.4,3.6,2.3,5.8C1502.2,430.3,1501.4,432.4,1499.9,433.9z"/>
	<path class="st0" d="M817.5,509c-1.9,2.6-2.9,6.7-2.9,12.4c0,5.1,0.8,8.9,2.5,11.5c1.5,2.5,4.2,4,7.2,3.9h0
		c2.2,0.1,4.3-0.5,6.1-1.8c1.6-1.4,2.7-3.3,3.3-5.3v-23.4c-2.6-1-5.3-1.4-8-1.4C822.4,505,819.4,506.5,817.5,509z"/>
	<path class="st0" d="M1463,395.3c-1.4-2-3.6-3-6.7-3c-3.5,0-6.1,1.1-7.8,3.2c-1.8,2.5-2.9,5.4-3.1,8.5h19.2
		C1465,400.2,1464.4,397.3,1463,395.3z"/>
</g>
</svg>
