<?xml version="1.0" encoding="utf-8"?>
<!-- Generator: Adobe Illustrator 28.0.0, SVG Export Plug-In . SVG Version: 6.00 Build 0)  -->
<svg version="1.1" id="Layer_1" xmlns="http://www.w3.org/2000/svg" xmlns:xlink="http://www.w3.org/1999/xlink" x="0px" y="0px"
	 viewBox="0 0 22 22" style="enable-background:new 0 0 22 22;" xml:space="preserve">
<style type="text/css">
	.st0{fill:#686964;}
	.st1{fill:#009CE3;}
	.st2{fill:#9B9F9A;}
	.st3{fill-rule:evenodd;clip-rule:evenodd;fill:#C1C0B7;}
</style>
<g>
	<path id="Path_7" class="st0" d="M17.2,21.4c0,0-8.6-3.4-8.6-3.4c0,0-0.1-0.1-0.1-0.1v-3.9c0-0.1,0.1-0.2,0.2-0.2h4.1
		c0.1,0,0.1,0,0.1,0.1c0,0,0.3,0.7,0.3,0.7L17.2,21.4z"/>
	<path id="Path_8" class="st1" d="M8.8,13.2c-0.1,0-0.2-0.1-0.2-0.2v-6c0-0.1,0.1-0.2,0.3-0.3l11.9-6c0.1,0,0.3,0.1,0.3,0.2
		c0,0,0,0,0,0l-4.8,10.3l-0.8,1.7c-0.1,0.1-0.1,0.3-0.3,0.3L8.8,13.2z"/>
	<path id="Path_9" class="st2" d="M8,17C8,17.1,8,17.1,8,17c-0.1,0.1-0.8,0.4-0.8,0.4L1.1,20C1.1,20,1,20,1,19.9l3.1-5.7
		c0,0,0.2-0.5,0.3-0.5c0,0,0.1,0,0.1,0h3.3c0.1,0,0.2,0.1,0.2,0.2L8,17z"/>
	<path id="Path_10" class="st3" d="M7.9,10.5c0,0-0.4-0.2-0.4-0.2L3.1,8.1c0,0-0.1,0-0.1,0.1l2.2,4.7c0,0,0.1,0.2,0.1,0.3
		c0,0,0,0,0.1,0h2.4c0.1,0,0.2-0.1,0.2-0.2L7.9,10.5C8,10.6,8,10.6,7.9,10.5"/>
</g>
</svg>
