<svg xmlns="http://www.w3.org/2000/svg" xmlns:xlink="http://www.w3.org/1999/xlink" width="260" height="51.137" viewBox="0 0 260 51.137">
  <defs>
    <clipPath id="clip-path">
      <rect id="Rectangle_2" data-name="Rectangle 2" width="260" height="51.137" fill="#fff"/>
    </clipPath>
  </defs>
  <g id="Group_2" data-name="Group 2" transform="translate(0 10)">
    <g id="Group_1" data-name="Group 1" transform="translate(0 -10)" clip-path="url(#clip-path)">
      <path id="Path_1" data-name="Path 1" d="M93.292,14.857H81c-.323,0-.54-.207-.54-.62h-.323v2.892h.323c0-.412.216-.62.54-.62h5.065V28.186c0,.206,0,.31-.109.414h-.535v.31h3.45V28.6h-.541c-.109-.1-.109-.208-.109-.414V16.509h5.071c.323,0,.536.208.536.62h.326V14.237h-.326c0,.413-.213.62-.536.62" transform="translate(11.075 1.967)" fill="#fff" fill-rule="evenodd"/>
      <path id="Path_2" data-name="Path 2" d="M70.667,23.256h6.146l-3.125-6.925ZM81.234,28c.107.211.107.314.217.418a4.89,4.89,0,0,0,.537.1v.308H78.649v-.308c.32,0,.43,0,.43-.208a9.211,9.211,0,0,0-.649-1.655A5.806,5.806,0,0,0,78,25.836c-.11-.308-.323-.617-.43-.928H69.912c-.97,2.169-1.4,3.305-1.4,3.305a.28.28,0,0,0,.321.312v.308H65.816v-.308a.727.727,0,0,0,.755-.415,32.657,32.657,0,0,0,1.4-3.1q.97-1.858,1.939-4.029c.648-1.547,1.185-2.787,1.724-3.924.435-1.035.757-1.654.757-1.757s-.215-.2-.433-.308v-.208h3.775v.208c-.326.1-.433.207-.433.308a6.271,6.271,0,0,0,.326,1.033c.323.62.645,1.448,1.184,2.48s1.078,2.274,1.836,3.723c.645,1.443,1.508,3.3,2.585,5.469" transform="translate(9.095 2.042)" fill="#fff" fill-rule="evenodd"/>
      <path id="Path_3" data-name="Path 3" d="M60.621,14.989c.433,0,.542.1.542.308a7.388,7.388,0,0,1-.646,1.448c-.328.62-.757,1.447-1.187,2.273s-.863,1.65-1.294,2.481-.757,1.443-.97,1.961a6.868,6.868,0,0,1-.646,1.243c-.326-.725-.755-1.449-1.189-2.379-.429-.825-.862-1.656-1.185-2.271s-.648-1.243-.969-1.862c-.217-.517-.541-1.032-.648-1.343a7.46,7.46,0,0,1-.757-1.448c0-.308.216-.412.542-.412v-.207H48.006v.207c.215,0,.431,0,.431.1.217,0,.217.1.217.308v12.71c0,.2,0,.308-.108.414h-.541v.307h3.128v-.307c-.328,0-.538-.106-.538-.414V17.468H50.7l5.607,11.158L62.13,17.468V28.111c0,.2,0,.308-.1.414h-.434v.307H64.72v-.307h-.435a.552.552,0,0,1-.213-.414V15.4c0-.2.109-.308.213-.308.11-.1.216-.1.435-.1v-.207h-4.1Z" transform="translate(6.634 2.042)" fill="#fff"/>
      <path id="Path_4" data-name="Path 4" d="M116.031,28.11l-5.39-6.819,4.638-5.683a1.679,1.679,0,0,1,1.185-.619v-.207h-3.772v.207c.322,0,.536.1.536.307s-1.184,1.759-3.665,4.548A56.338,56.338,0,0,1,106,15.3c0-.2.216-.307.649-.307v-.207h-3.991v.207a1.134,1.134,0,0,1,.86.412l4.747,5.995L102.767,28a1.124,1.124,0,0,1-.858.522v.308h3.556v-.308c-.324,0-.536-.1-.536-.314,0-.1.212-.308.644-.826a14.464,14.464,0,0,0,.97-1.34c.326-.414,1.294-1.449,2.8-3.2a21.619,21.619,0,0,1,1.512,1.859c.431.518.756.93,1.076,1.243a3.589,3.589,0,0,0,.649.924c.216.208.322.415.431.517a4.571,4.571,0,0,1,.537.931c0,.1-.214.209-.537.209v.308h3.879v-.308a1,1,0,0,1-.862-.415" transform="translate(14.083 2.042)" fill="#fff"/>
      <path id="Path_5" data-name="Path 5" d="M95.846,14.989a.387.387,0,0,1,.429.412v12.71c0,.308-.109.414-.429.414v.307h3.017v-.307c-.326,0-.431-.106-.431-.414V15.4a.386.386,0,0,1,.431-.412v-.207H95.846Z" transform="translate(13.245 2.042)" fill="#fff"/>
      <path id="Path_6" data-name="Path 6" d="M48.6,42.167V32.643h6.208v1.011H49.695v3.115h4.961v.973H49.695v4.425Zm8.1,0V32.643h6.971v1.011H57.8v3.115h5.708v.973H57.8v3.426h5.878v1Zm13-8.514h-3.17v3.813h3.17a2.969,2.969,0,0,0,1.626-.3,1.251,1.251,0,0,0,.382-1.053V35a1.284,1.284,0,0,0-.37-1.061,3.008,3.008,0,0,0-1.639-.289m-4.265,8.514V32.643h4.484a4.008,4.008,0,0,1,2.306.478,2,2,0,0,1,.631,1.7v1.438a1.943,1.943,0,0,1-.314,1.175,1.438,1.438,0,0,1-.967.535,1.533,1.533,0,0,1,1,.584,2.4,2.4,0,0,1,.285,1.326v2.292H71.715V40.2a2.065,2.065,0,0,0-.338-1.385,1.814,1.814,0,0,0-1.318-.362H66.537v3.711ZM73.4,33.653V32.643h7.443v1.011H77.669v8.514h-1.1V33.653Zm8.49-1.011H83v9.523H81.894Zm3.51,9.524V32.643h1.085v8.525h5.626v1Zm8.161-9.524h1.106v9.523H93.565ZM96.8,39.062h1.111v.18a4.355,4.355,0,0,0,.134,1.259.955.955,0,0,0,.44.567,2.158,2.158,0,0,0,.739.181c.335.04,1.022.056,2.067.056a6.508,6.508,0,0,0,1.316-.1,1.44,1.44,0,0,0,.694-.341.922.922,0,0,0,.186-.438,4.788,4.788,0,0,0,.058-.83,2.509,2.509,0,0,0-.22-1.336,1.258,1.258,0,0,0-.889-.323l-3.063-.23a2.924,2.924,0,0,1-1.9-.657,2.7,2.7,0,0,1-.524-1.875,4.3,4.3,0,0,1,.171-1.34,1.939,1.939,0,0,1,.561-.838,1.84,1.84,0,0,1,.842-.36,11.438,11.438,0,0,1,1.91-.1h.354a10.832,10.832,0,0,1,2.15.141,2.467,2.467,0,0,1,1.045.484,1.349,1.349,0,0,1,.425.656,3.5,3.5,0,0,1,.139,1.057c0,.125-.006.22-.009.287a1.68,1.68,0,0,1-.007.176h-1.111v-.237a3.729,3.729,0,0,0-.06-.8.78.78,0,0,0-.2-.412,1.389,1.389,0,0,0-.736-.279,16.079,16.079,0,0,0-2.015-.08,3.474,3.474,0,0,0-1.928.33,1.714,1.714,0,0,0-.393,1.333,1.86,1.86,0,0,0,.255,1.128,1.369,1.369,0,0,0,.995.365l3.121.255a2.536,2.536,0,0,1,1.723.644,2.724,2.724,0,0,1,.491,1.829,5.85,5.85,0,0,1-.123,1.4,1.811,1.811,0,0,1-.423.781,1.921,1.921,0,0,1-.97.549,10.55,10.55,0,0,1-2.225.156h-.494a9.643,9.643,0,0,1-1.946-.137,2.135,2.135,0,0,1-.952-.466,1.753,1.753,0,0,1-.552-.829,4.261,4.261,0,0,1-.18-1.333Zm10.022,3.1V32.643h6.968v1.011h-5.875v3.115h5.708v.973h-5.708v3.426h5.875v1Zm13-8.514h-3.169v3.813h3.169a2.979,2.979,0,0,0,1.629-.3,1.261,1.261,0,0,0,.382-1.053V35a1.277,1.277,0,0,0-.372-1.061,3.008,3.008,0,0,0-1.639-.289m-4.265,8.514V32.643h4.488a4,4,0,0,1,2.3.478,2,2,0,0,1,.632,1.7v1.438a1.927,1.927,0,0,1-.315,1.175,1.43,1.43,0,0,1-.967.535,1.527,1.527,0,0,1,1,.584,2.39,2.39,0,0,1,.287,1.326v2.292h-1.146V40.2a2.084,2.084,0,0,0-.338-1.385,1.815,1.815,0,0,0-1.319-.362h-3.523v3.711Zm9.283-3.1h1.11v.18a4.315,4.315,0,0,0,.134,1.259.944.944,0,0,0,.438.567,2.174,2.174,0,0,0,.741.181c.336.04,1.023.056,2.064.056a6.515,6.515,0,0,0,1.319-.1,1.441,1.441,0,0,0,.692-.341.921.921,0,0,0,.19-.438,4.944,4.944,0,0,0,.056-.83,2.465,2.465,0,0,0-.223-1.336,1.246,1.246,0,0,0-.886-.323l-3.065-.23a2.923,2.923,0,0,1-1.9-.657,2.7,2.7,0,0,1-.526-1.875,4.124,4.124,0,0,1,.174-1.34,1.868,1.868,0,0,1,.559-.838,1.82,1.82,0,0,1,.84-.36,11.465,11.465,0,0,1,1.91-.1h.356a10.789,10.789,0,0,1,2.148.141,2.452,2.452,0,0,1,1.046.484,1.325,1.325,0,0,1,.425.656,3.468,3.468,0,0,1,.137,1.057c0,.125,0,.22,0,.287s-.006.123-.008.176h-1.107v-.237a3.524,3.524,0,0,0-.066-.8.771.771,0,0,0-.2-.412,1.37,1.37,0,0,0-.739-.279,16.016,16.016,0,0,0-2.01-.08,3.468,3.468,0,0,0-1.929.33,1.718,1.718,0,0,0-.395,1.333,1.826,1.826,0,0,0,.257,1.128,1.369,1.369,0,0,0,.99.365l3.124.255a2.522,2.522,0,0,1,1.721.644,2.7,2.7,0,0,1,.5,1.829,5.723,5.723,0,0,1-.13,1.4,1.837,1.837,0,0,1-.417.781,1.942,1.942,0,0,1-.978.549,10.45,10.45,0,0,1-2.223.156h-.494a9.682,9.682,0,0,1-1.946-.137,2.155,2.155,0,0,1-.95-.466,1.776,1.776,0,0,1-.551-.829,4.2,4.2,0,0,1-.179-1.333Zm49.114-3.271a3.506,3.506,0,0,1,.728-2.544,3.634,3.634,0,0,1,2.58-.718h1.163a4.1,4.1,0,0,1,2.575.617,2.584,2.584,0,0,1,.743,2.092v.417H180.6v-.26a1.9,1.9,0,0,0-.459-1.479,2.908,2.908,0,0,0-1.8-.4h-.772a5.818,5.818,0,0,0-1.309.1,1.612,1.612,0,0,0-.685.355,1.313,1.313,0,0,0-.384.64,6.316,6.316,0,0,0-.11,1.435v2.71a6.34,6.34,0,0,0,.11,1.43,1.3,1.3,0,0,0,.384.634,1.6,1.6,0,0,0,.666.359,5.809,5.809,0,0,0,1.328.1h.772a2.842,2.842,0,0,0,1.829-.414,2.162,2.162,0,0,0,.451-1.6c0-.116,0-.209,0-.272s-.006-.125-.008-.182h1.131v.627a2.81,2.81,0,0,1-.72,2.207,4.061,4.061,0,0,1-2.6.62h-1.163a3.669,3.669,0,0,1-2.58-.714,3.52,3.52,0,0,1-.728-2.545Zm9.648,6.376V32.643h1.092v4.111h5.73V32.643h1.095v9.524h-1.095V37.754h-5.73v4.413Zm10.315,0V32.643h6.97v1.011h-5.876v3.115h5.71v.973h-5.71v3.426h5.876v1Zm8.74,0V32.643h1.809l3.4,8.485,3.372-8.485h1.82v9.524h-1.095V33.532l-3.429,8.635H207.18l-3.429-8.635v8.635Zm12.807-9.524h1.1v9.523h-1.1Zm3.2,3.148a3.5,3.5,0,0,1,.733-2.544,3.628,3.628,0,0,1,2.58-.718h1.158a4.094,4.094,0,0,1,2.577.617,2.572,2.572,0,0,1,.741,2.092v.417h-1.134v-.26a1.913,1.913,0,0,0-.46-1.479,2.919,2.919,0,0,0-1.8-.4h-.768a5.778,5.778,0,0,0-1.309.1,1.628,1.628,0,0,0-.687.355,1.341,1.341,0,0,0-.385.64,6.24,6.24,0,0,0-.107,1.435v2.71a6.262,6.262,0,0,0,.107,1.43,1.322,1.322,0,0,0,.385.634,1.6,1.6,0,0,0,.665.359,5.837,5.837,0,0,0,1.332.1h.768a2.841,2.841,0,0,0,1.831-.414,2.161,2.161,0,0,0,.452-1.6c0-.116,0-.209-.006-.272s0-.125-.007-.182h1.126v.627a2.809,2.809,0,0,1-.716,2.207,4.07,4.07,0,0,1-2.6.62h-1.158a3.663,3.663,0,0,1-2.58-.714,3.514,3.514,0,0,1-.733-2.545Zm10.791,3h4.307l-1.985-5.134h-.355Zm-2.429,3.379,3.668-9.524H232.5l3.69,9.524h-1.134l-.95-2.437h-5.023l-.929,2.437Zm10.508,0V32.643h1.079v8.525h5.631v1Zm7.884-3.1h1.11v.18a4.3,4.3,0,0,0,.137,1.259.958.958,0,0,0,.436.567,2.219,2.219,0,0,0,.743.181c.336.04,1.019.056,2.064.056a6.474,6.474,0,0,0,1.317-.1,1.434,1.434,0,0,0,.694-.341.91.91,0,0,0,.189-.438,4.788,4.788,0,0,0,.058-.83,2.484,2.484,0,0,0-.224-1.336,1.252,1.252,0,0,0-.887-.323l-3.065-.23a2.918,2.918,0,0,1-1.9-.657,2.7,2.7,0,0,1-.527-1.875,4.216,4.216,0,0,1,.175-1.34,1.9,1.9,0,0,1,.56-.838,1.825,1.825,0,0,1,.84-.36,11.447,11.447,0,0,1,1.91-.1h.355a10.8,10.8,0,0,1,2.149.141,2.491,2.491,0,0,1,1.046.484,1.341,1.341,0,0,1,.425.656,3.537,3.537,0,0,1,.138,1.057c0,.125-.006.22-.006.287a1.369,1.369,0,0,1-.011.176h-1.1v-.237a3.58,3.58,0,0,0-.067-.8.771.771,0,0,0-.2-.412,1.39,1.39,0,0,0-.739-.279,15.947,15.947,0,0,0-2.008-.08,3.5,3.5,0,0,0-1.935.33,1.732,1.732,0,0,0-.394,1.333,1.842,1.842,0,0,0,.257,1.128,1.371,1.371,0,0,0,.99.365l3.123.255a2.53,2.53,0,0,1,1.725.644,2.71,2.71,0,0,1,.493,1.829,5.826,5.826,0,0,1-.125,1.4,1.811,1.811,0,0,1-.423.781,1.92,1.92,0,0,1-.971.549,10.506,10.506,0,0,1-2.225.156h-.493a9.674,9.674,0,0,1-1.946-.137,2.137,2.137,0,0,1-.955-.466,1.79,1.79,0,0,1-.549-.829,4.3,4.3,0,0,1-.179-1.333Zm-104.842-.446h4.294L142.895,33.5h-.355Zm-2.422,3.371,3.659-9.5h1.807l3.682,9.5H146.17l-.946-2.43H140.21l-.925,2.43Zm10.477,0v-9.5h1.692l5.373,8.477V32.489h1.09v9.5h-1.691L149.72,33.5v8.489Zm10.569,0v-9.5h4.787a3.8,3.8,0,0,1,2.618.706,3.3,3.3,0,0,1,.756,2.469v3.129a3.339,3.339,0,0,1-.757,2.485,3.8,3.8,0,0,1-2.617.71Zm1.093-.94h3.517a2.838,2.838,0,0,0,1.916-.466,2.444,2.444,0,0,0,.487-1.774V35.739a2.582,2.582,0,0,0-.484-1.844,2.828,2.828,0,0,0-1.919-.466h-3.517Z" transform="translate(6.716 4.489)" fill="#fff"/>
      <path id="Path_7" data-name="Path 7" d="M37.847,47.223S16.61,38.908,16.53,38.833a.4.4,0,0,1-.143-.289V28.889a.59.59,0,0,1,.6-.571h10.18a.459.459,0,0,1,.344.174c.055.068.862,1.625.862,1.625Z" transform="translate(2.265 3.913)" fill="#fff"/>
      <path id="Path_8" data-name="Path 8" d="M16.987,30.891a.592.592,0,0,1-.6-.571V15.4c0-.311.328-.476.653-.623L46.472,0a.608.608,0,0,1,.646.62L35.259,26.1,33.318,30.27c-.139.366-.323.62-.646.62Z" transform="translate(2.264 -0.001)" fill="#fff"/>
      <path id="Path_9" data-name="Path 9" d="M17.253,36.582a.314.314,0,0,1-.081.231c-.055.052-1.861.761-1.861.761L.322,43.919A.34.34,0,0,1,0,43.607L7.635,29.652s.606-1.2.681-1.25a.54.54,0,0,1,.31-.083h8.028a.589.589,0,0,1,.6.571Z" transform="translate(0 3.913)" fill="#fff"/>
      <path id="Path_10" data-name="Path 10" d="M16.562,22.189c-.034-.025-1.054-.51-1.054-.51L4.478,16.157a.225.225,0,0,0-.215.206L9.636,27.951s.258.6.3.634a.211.211,0,0,0,.154.074h5.978a.588.588,0,0,0,.6-.573v-5.73a.215.215,0,0,0-.1-.167" transform="translate(0.589 2.232)" fill="#fff" fill-rule="evenodd"/>
    </g>
  </g>
</svg>
