<?xml version="1.0" encoding="utf-8"?>
<!-- Generator: Adobe Illustrator 28.0.0, SVG Export Plug-In . SVG Version: 6.00 Build 0)  -->
<svg version="1.1" id="Layer_1" xmlns="http://www.w3.org/2000/svg" xmlns:xlink="http://www.w3.org/1999/xlink" x="0px" y="0px"
	 viewBox="0 0 1920 930" style="enable-background:new 0 0 1920 930;" xml:space="preserve">
<style type="text/css">
	.st0{fill:#FFFFFF;}
</style>
<g>
	<path class="st0" d="M568.1,375.2c0,5.2-1.5,9-4.5,11.3c-3,2.3-7,3.4-11.9,3.4h-7.6v-26.6c1.3-0.3,2.7-0.5,4.1-0.5
		c1.8-0.1,3.6-0.1,5.4-0.1c4.7,0,8.3,1.1,10.7,3.3C566.9,368.2,568.1,371.3,568.1,375.2z"/>
	<path class="st0" d="M634.9,389.8c-1.8-2.5-4.6-3.8-8.4-3.8c-4.4,0-7.7,1.3-9.8,4c-2.1,2.7-3.4,6.2-3.8,10.7H637
		C637.4,395.9,636.7,392.3,634.9,389.8z M634.9,389.8c-1.8-2.5-4.6-3.8-8.4-3.8c-4.4,0-7.7,1.3-9.8,4c-2.1,2.7-3.4,6.2-3.8,10.7H637
		C637.4,395.9,636.7,392.3,634.9,389.8z M634.9,389.8c-1.8-2.5-4.6-3.8-8.4-3.8c-4.4,0-7.7,1.3-9.8,4c-2.1,2.7-3.4,6.2-3.8,10.7H637
		C637.4,395.9,636.7,392.3,634.9,389.8z M690.9,410.8c-2.2,0.1-4.5,0.5-6.6,1.2c-1.7,0.5-3.3,1.4-4.6,2.6c-1.1,1.2-1.8,2.7-1.7,4.3
		c-0.1,2.1,0.7,4.2,2.2,5.7c1.6,1.4,3.8,2.2,6,2c2.9,0.2,5.7-0.7,8.1-2.3c1.8-1.3,3.3-3,4.5-4.9V411
		C696.1,410.7,693.5,410.7,690.9,410.8z M690.9,410.8c-2.2,0.1-4.5,0.5-6.6,1.2c-1.7,0.5-3.3,1.4-4.6,2.6c-1.1,1.2-1.8,2.7-1.7,4.3
		c-0.1,2.1,0.7,4.2,2.2,5.7c1.6,1.4,3.8,2.2,6,2c2.9,0.2,5.7-0.7,8.1-2.3c1.8-1.3,3.3-3,4.5-4.9V411
		C696.1,410.7,693.5,410.7,690.9,410.8z M634.9,389.8c-1.8-2.5-4.6-3.8-8.4-3.8c-4.4,0-7.7,1.3-9.8,4c-2.1,2.7-3.4,6.2-3.8,10.7H637
		C637.4,395.9,636.7,392.3,634.9,389.8z M634.9,389.8c-1.8-2.5-4.6-3.8-8.4-3.8c-4.4,0-7.7,1.3-9.8,4c-2.1,2.7-3.4,6.2-3.8,10.7H637
		C637.4,395.9,636.7,392.3,634.9,389.8z M690.9,410.8c-2.2,0.1-4.5,0.5-6.6,1.2c-1.7,0.5-3.3,1.4-4.6,2.6c-1.1,1.2-1.8,2.7-1.7,4.3
		c-0.1,2.1,0.7,4.2,2.2,5.7c1.6,1.4,3.8,2.2,6,2c2.9,0.2,5.7-0.7,8.1-2.3c1.8-1.3,3.3-3,4.5-4.9V411
		C696.1,410.7,693.5,410.7,690.9,410.8z M690.9,410.8c-2.2,0.1-4.5,0.5-6.6,1.2c-1.7,0.5-3.3,1.4-4.6,2.6c-1.1,1.2-1.8,2.7-1.7,4.3
		c-0.1,2.1,0.7,4.2,2.2,5.7c1.6,1.4,3.8,2.2,6,2c2.9,0.2,5.7-0.7,8.1-2.3c1.8-1.3,3.3-3,4.5-4.9V411
		C696.1,410.7,693.5,410.7,690.9,410.8z M634.9,389.8c-1.8-2.5-4.6-3.8-8.4-3.8c-4.4,0-7.7,1.3-9.8,4c-2.1,2.7-3.4,6.2-3.8,10.7H637
		C637.4,395.9,636.7,392.3,634.9,389.8z M634.9,389.8c-1.8-2.5-4.6-3.8-8.4-3.8c-4.4,0-7.7,1.3-9.8,4c-2.1,2.7-3.4,6.2-3.8,10.7H637
		C637.4,395.9,636.7,392.3,634.9,389.8z M690.9,410.8c-2.2,0.1-4.5,0.5-6.6,1.2c-1.7,0.5-3.3,1.4-4.6,2.6c-1.1,1.2-1.8,2.7-1.7,4.3
		c-0.1,2.1,0.7,4.2,2.2,5.7c1.6,1.4,3.8,2.2,6,2c2.9,0.2,5.7-0.7,8.1-2.3c1.8-1.3,3.3-3,4.5-4.9V411
		C696.1,410.7,693.5,410.7,690.9,410.8z M993,387c-4-0.2-7.9,1.7-10.2,4.9c-2.4,3.3-3.7,8.5-3.7,15.7c0,6.4,1.1,11.2,3.1,14.5
		c1.9,3.2,5.3,5.1,9,5c3.3,0,5.9-0.7,7.7-2.2c2-1.8,3.4-4.1,4.1-6.7v-29.5C999.8,387.5,996.4,386.9,993,387z M690.9,410.8
		c-2.2,0.1-4.5,0.5-6.6,1.2c-1.7,0.5-3.3,1.4-4.6,2.6c-1.1,1.2-1.8,2.7-1.7,4.3c-0.1,2.1,0.7,4.2,2.2,5.7c1.6,1.4,3.8,2.2,6,2
		c2.9,0.2,5.7-0.7,8.1-2.3c1.8-1.3,3.3-3,4.5-4.9V411C696.1,410.7,693.5,410.7,690.9,410.8z M634.9,389.8c-1.8-2.5-4.6-3.8-8.4-3.8
		c-4.4,0-7.7,1.3-9.8,4c-2.1,2.7-3.4,6.2-3.8,10.7H637C637.4,395.9,636.7,392.3,634.9,389.8z M993,387c-4-0.2-7.9,1.7-10.2,4.9
		c-2.4,3.3-3.7,8.5-3.7,15.7c0,6.4,1.1,11.2,3.1,14.5c1.9,3.2,5.3,5.1,9,5c3.3,0,5.9-0.7,7.7-2.2c2-1.8,3.4-4.1,4.1-6.7v-29.5
		C999.8,387.5,996.4,386.9,993,387z M634.9,389.8c-1.8-2.5-4.6-3.8-8.4-3.8c-4.4,0-7.7,1.3-9.8,4c-2.1,2.7-3.4,6.2-3.8,10.7H637
		C637.4,395.9,636.7,392.3,634.9,389.8z M690.9,410.8c-2.2,0.1-4.5,0.5-6.6,1.2c-1.7,0.5-3.3,1.4-4.6,2.6c-1.1,1.2-1.8,2.7-1.7,4.3
		c-0.1,2.1,0.7,4.2,2.2,5.7c1.6,1.4,3.8,2.2,6,2c2.9,0.2,5.7-0.7,8.1-2.3c1.8-1.3,3.3-3,4.5-4.9V411
		C696.1,410.7,693.5,410.7,690.9,410.8z M993,387c-4-0.2-7.9,1.7-10.2,4.9c-2.4,3.3-3.7,8.5-3.7,15.7c0,6.4,1.1,11.2,3.1,14.5
		c1.9,3.2,5.3,5.1,9,5c3.3,0,5.9-0.7,7.7-2.2c2-1.8,3.4-4.1,4.1-6.7v-29.5C999.8,387.5,996.4,386.9,993,387z M690.9,410.8
		c-2.2,0.1-4.5,0.5-6.6,1.2c-1.7,0.5-3.3,1.4-4.6,2.6c-1.1,1.2-1.8,2.7-1.7,4.3c-0.1,2.1,0.7,4.2,2.2,5.7c1.6,1.4,3.8,2.2,6,2
		c2.9,0.2,5.7-0.7,8.1-2.3c1.8-1.3,3.3-3,4.5-4.9V411C696.1,410.7,693.5,410.7,690.9,410.8z M634.9,389.8c-1.8-2.5-4.6-3.8-8.4-3.8
		c-4.4,0-7.7,1.3-9.8,4c-2.1,2.7-3.4,6.2-3.8,10.7H637C637.4,395.9,636.7,392.3,634.9,389.8z M993,387c-4-0.2-7.9,1.7-10.2,4.9
		c-2.4,3.3-3.7,8.5-3.7,15.7c0,6.4,1.1,11.2,3.1,14.5c1.9,3.2,5.3,5.1,9,5c3.3,0,5.9-0.7,7.7-2.2c2-1.8,3.4-4.1,4.1-6.7v-29.5
		C999.8,387.5,996.4,386.9,993,387z M634.9,389.8c-1.8-2.5-4.6-3.8-8.4-3.8c-4.4,0-7.7,1.3-9.8,4c-2.1,2.7-3.4,6.2-3.8,10.7H637
		C637.4,395.9,636.7,392.3,634.9,389.8z M690.9,410.8c-2.2,0.1-4.5,0.5-6.6,1.2c-1.7,0.5-3.3,1.4-4.6,2.6c-1.1,1.2-1.8,2.7-1.7,4.3
		c-0.1,2.1,0.7,4.2,2.2,5.7c1.6,1.4,3.8,2.2,6,2c2.9,0.2,5.7-0.7,8.1-2.3c1.8-1.3,3.3-3,4.5-4.9V411
		C696.1,410.7,693.5,410.7,690.9,410.8z M993,387c-4-0.2-7.9,1.7-10.2,4.9c-2.4,3.3-3.7,8.5-3.7,15.7c0,6.4,1.1,11.2,3.1,14.5
		c1.9,3.2,5.3,5.1,9,5c3.3,0,5.9-0.7,7.7-2.2c2-1.8,3.4-4.1,4.1-6.7v-29.5C999.8,387.5,996.4,386.9,993,387z M1201.2,392.3
		c-2-3.7-5.4-5.6-10.2-5.6c-3.8-0.2-7.5,1.6-9.8,4.7c-2.4,3.1-3.5,8.3-3.5,15.4c0,2.7,0.2,5.4,0.8,8c0.4,2.2,1.2,4.4,2.4,6.4
		c1,1.8,2.4,3.2,4.1,4.3c1.9,1.1,4,1.6,6.1,1.5c4.5,0,7.8-1.6,10-4.8c2.2-3.2,3.3-8.3,3.3-15.3
		C1204.2,400.9,1203.2,396,1201.2,392.3z M690.9,410.8c-2.2,0.1-4.5,0.5-6.6,1.2c-1.7,0.5-3.3,1.4-4.6,2.6c-1.1,1.2-1.8,2.7-1.7,4.3
		c-0.1,2.1,0.7,4.2,2.2,5.7c1.6,1.4,3.8,2.2,6,2c2.9,0.2,5.7-0.7,8.1-2.3c1.8-1.3,3.3-3,4.5-4.9V411
		C696.1,410.7,693.5,410.7,690.9,410.8z M634.9,389.8c-1.8-2.5-4.6-3.8-8.4-3.8c-4.4,0-7.7,1.3-9.8,4c-2.1,2.7-3.4,6.2-3.8,10.7H637
		C637.4,395.9,636.7,392.3,634.9,389.8z M993,387c-4-0.2-7.9,1.7-10.2,4.9c-2.4,3.3-3.7,8.5-3.7,15.7c0,6.4,1.1,11.2,3.1,14.5
		c1.9,3.2,5.3,5.1,9,5c3.3,0,5.9-0.7,7.7-2.2c2-1.8,3.4-4.1,4.1-6.7v-29.5C999.8,387.5,996.4,386.9,993,387z M1201.2,392.3
		c-2-3.7-5.4-5.6-10.2-5.6c-3.8-0.2-7.5,1.6-9.8,4.7c-2.4,3.1-3.5,8.3-3.5,15.4c0,2.7,0.2,5.4,0.8,8c0.4,2.2,1.2,4.4,2.4,6.4
		c1,1.8,2.4,3.2,4.1,4.3c1.9,1.1,4,1.6,6.1,1.5c4.5,0,7.8-1.6,10-4.8c2.2-3.2,3.3-8.3,3.3-15.3
		C1204.2,400.9,1203.2,396,1201.2,392.3z M634.9,389.8c-1.8-2.5-4.6-3.8-8.4-3.8c-4.4,0-7.7,1.3-9.8,4c-2.1,2.7-3.4,6.2-3.8,10.7
		H637C637.4,395.9,636.7,392.3,634.9,389.8z M690.9,410.8c-2.2,0.1-4.5,0.5-6.6,1.2c-1.7,0.5-3.3,1.4-4.6,2.6
		c-1.1,1.2-1.8,2.7-1.7,4.3c-0.1,2.1,0.7,4.2,2.2,5.7c1.6,1.4,3.8,2.2,6,2c2.9,0.2,5.7-0.7,8.1-2.3c1.8-1.3,3.3-3,4.5-4.9V411
		C696.1,410.7,693.5,410.7,690.9,410.8z M993,387c-4-0.2-7.9,1.7-10.2,4.9c-2.4,3.3-3.7,8.5-3.7,15.7c0,6.4,1.1,11.2,3.1,14.5
		c1.9,3.2,5.3,5.1,9,5c3.3,0,5.9-0.7,7.7-2.2c2-1.8,3.4-4.1,4.1-6.7v-29.5C999.8,387.5,996.4,386.9,993,387z M1201.2,392.3
		c-2-3.7-5.4-5.6-10.2-5.6c-3.8-0.2-7.5,1.6-9.8,4.7c-2.4,3.1-3.5,8.3-3.5,15.4c0,2.7,0.2,5.4,0.8,8c0.4,2.2,1.2,4.4,2.4,6.4
		c1,1.8,2.4,3.2,4.1,4.3c1.9,1.1,4,1.6,6.1,1.5c4.5,0,7.8-1.6,10-4.8c2.2-3.2,3.3-8.3,3.3-15.3
		C1204.2,400.9,1203.2,396,1201.2,392.3z M1325.4,389.8c-1.8-2.5-4.6-3.8-8.4-3.8c-4.4,0-7.7,1.3-9.8,4c-2.1,2.7-3.4,6.2-3.8,10.7
		h24.2C1327.9,395.9,1327.2,392.3,1325.4,389.8z M1325.4,389.8c-1.8-2.5-4.6-3.8-8.4-3.8c-4.4,0-7.7,1.3-9.8,4
		c-2.1,2.7-3.4,6.2-3.8,10.7h24.2C1327.9,395.9,1327.2,392.3,1325.4,389.8z M690.9,410.8c-2.2,0.1-4.5,0.5-6.6,1.2
		c-1.7,0.5-3.3,1.4-4.6,2.6c-1.1,1.2-1.8,2.7-1.7,4.3c-0.1,2.1,0.7,4.2,2.2,5.7c1.6,1.4,3.8,2.2,6,2c2.9,0.2,5.7-0.7,8.1-2.3
		c1.8-1.3,3.3-3,4.5-4.9V411C696.1,410.7,693.5,410.7,690.9,410.8z M634.9,389.8c-1.8-2.5-4.6-3.8-8.4-3.8c-4.4,0-7.7,1.3-9.8,4
		c-2.1,2.7-3.4,6.2-3.8,10.7H637C637.4,395.9,636.7,392.3,634.9,389.8z M993,387c-4-0.2-7.9,1.7-10.2,4.9c-2.4,3.3-3.7,8.5-3.7,15.7
		c0,6.4,1.1,11.2,3.1,14.5c1.9,3.2,5.3,5.1,9,5c3.3,0,5.9-0.7,7.7-2.2c2-1.8,3.4-4.1,4.1-6.7v-29.5C999.8,387.5,996.4,386.9,993,387
		z M1201.2,392.3c-2-3.7-5.4-5.6-10.2-5.6c-3.8-0.2-7.5,1.6-9.8,4.7c-2.4,3.1-3.5,8.3-3.5,15.4c0,2.7,0.2,5.4,0.8,8
		c0.4,2.2,1.2,4.4,2.4,6.4c1,1.8,2.4,3.2,4.1,4.3c1.9,1.1,4,1.6,6.1,1.5c4.5,0,7.8-1.6,10-4.8c2.2-3.2,3.3-8.3,3.3-15.3
		C1204.2,400.9,1203.2,396,1201.2,392.3z M634.9,389.8c-1.8-2.5-4.6-3.8-8.4-3.8c-4.4,0-7.7,1.3-9.8,4c-2.1,2.7-3.4,6.2-3.8,10.7
		H637C637.4,395.9,636.7,392.3,634.9,389.8z M690.9,410.8c-2.2,0.1-4.5,0.5-6.6,1.2c-1.7,0.5-3.3,1.4-4.6,2.6
		c-1.1,1.2-1.8,2.7-1.7,4.3c-0.1,2.1,0.7,4.2,2.2,5.7c1.6,1.4,3.8,2.2,6,2c2.9,0.2,5.7-0.7,8.1-2.3c1.8-1.3,3.3-3,4.5-4.9V411
		C696.1,410.7,693.5,410.7,690.9,410.8z M993,387c-4-0.2-7.9,1.7-10.2,4.9c-2.4,3.3-3.7,8.5-3.7,15.7c0,6.4,1.1,11.2,3.1,14.5
		c1.9,3.2,5.3,5.1,9,5c3.3,0,5.9-0.7,7.7-2.2c2-1.8,3.4-4.1,4.1-6.7v-29.5C999.8,387.5,996.4,386.9,993,387z M1201.2,392.3
		c-2-3.7-5.4-5.6-10.2-5.6c-3.8-0.2-7.5,1.6-9.8,4.7c-2.4,3.1-3.5,8.3-3.5,15.4c0,2.7,0.2,5.4,0.8,8c0.4,2.2,1.2,4.4,2.4,6.4
		c1,1.8,2.4,3.2,4.1,4.3c1.9,1.1,4,1.6,6.1,1.5c4.5,0,7.8-1.6,10-4.8c2.2-3.2,3.3-8.3,3.3-15.3
		C1204.2,400.9,1203.2,396,1201.2,392.3z M1325.4,389.8c-1.8-2.5-4.6-3.8-8.4-3.8c-4.4,0-7.7,1.3-9.8,4c-2.1,2.7-3.4,6.2-3.8,10.7
		h24.2C1327.9,395.9,1327.2,392.3,1325.4,389.8z M1325.4,389.8c-1.8-2.5-4.6-3.8-8.4-3.8c-4.4,0-7.7,1.3-9.8,4
		c-2.1,2.7-3.4,6.2-3.8,10.7h24.2C1327.9,395.9,1327.2,392.3,1325.4,389.8z M690.9,410.8c-2.2,0.1-4.5,0.5-6.6,1.2
		c-1.7,0.5-3.3,1.4-4.6,2.6c-1.1,1.2-1.8,2.7-1.7,4.3c-0.1,2.1,0.7,4.2,2.2,5.7c1.6,1.4,3.8,2.2,6,2c2.9,0.2,5.7-0.7,8.1-2.3
		c1.8-1.3,3.3-3,4.5-4.9V411C696.1,410.7,693.5,410.7,690.9,410.8z M634.9,389.8c-1.8-2.5-4.6-3.8-8.4-3.8c-4.4,0-7.7,1.3-9.8,4
		c-2.1,2.7-3.4,6.2-3.8,10.7H637C637.4,395.9,636.7,392.3,634.9,389.8z M993,387c-4-0.2-7.9,1.7-10.2,4.9c-2.4,3.3-3.7,8.5-3.7,15.7
		c0,6.4,1.1,11.2,3.1,14.5c1.9,3.2,5.3,5.1,9,5c3.3,0,5.9-0.7,7.7-2.2c2-1.8,3.4-4.1,4.1-6.7v-29.5C999.8,387.5,996.4,386.9,993,387
		z M1201.2,392.3c-2-3.7-5.4-5.6-10.2-5.6c-3.8-0.2-7.5,1.6-9.8,4.7c-2.4,3.1-3.5,8.3-3.5,15.4c0,2.7,0.2,5.4,0.8,8
		c0.4,2.2,1.2,4.4,2.4,6.4c1,1.8,2.4,3.2,4.1,4.3c1.9,1.1,4,1.6,6.1,1.5c4.5,0,7.8-1.6,10-4.8c2.2-3.2,3.3-8.3,3.3-15.3
		C1204.2,400.9,1203.2,396,1201.2,392.3z M634.9,389.8c-1.8-2.5-4.6-3.8-8.4-3.8c-4.4,0-7.7,1.3-9.8,4c-2.1,2.7-3.4,6.2-3.8,10.7
		H637C637.4,395.9,636.7,392.3,634.9,389.8z M690.9,410.8c-2.2,0.1-4.5,0.5-6.6,1.2c-1.7,0.5-3.3,1.4-4.6,2.6
		c-1.1,1.2-1.8,2.7-1.7,4.3c-0.1,2.1,0.7,4.2,2.2,5.7c1.6,1.4,3.8,2.2,6,2c2.9,0.2,5.7-0.7,8.1-2.3c1.8-1.3,3.3-3,4.5-4.9V411
		C696.1,410.7,693.5,410.7,690.9,410.8z M993,387c-4-0.2-7.9,1.7-10.2,4.9c-2.4,3.3-3.7,8.5-3.7,15.7c0,6.4,1.1,11.2,3.1,14.5
		c1.9,3.2,5.3,5.1,9,5c3.3,0,5.9-0.7,7.7-2.2c2-1.8,3.4-4.1,4.1-6.7v-29.5C999.8,387.5,996.4,386.9,993,387z M1201.2,392.3
		c-2-3.7-5.4-5.6-10.2-5.6c-3.8-0.2-7.5,1.6-9.8,4.7c-2.4,3.1-3.5,8.3-3.5,15.4c0,2.7,0.2,5.4,0.8,8c0.4,2.2,1.2,4.4,2.4,6.4
		c1,1.8,2.4,3.2,4.1,4.3c1.9,1.1,4,1.6,6.1,1.5c4.5,0,7.8-1.6,10-4.8c2.2-3.2,3.3-8.3,3.3-15.3
		C1204.2,400.9,1203.2,396,1201.2,392.3z M1244.7,531.8c-1.8-2.5-4.6-3.8-8.4-3.8c-4.4,0-7.7,1.3-9.8,4c-2.1,2.7-3.4,6.2-3.8,10.7
		h24.2C1247.2,537.9,1246.5,534.3,1244.7,531.8z M1325.4,389.8c-1.8-2.5-4.6-3.8-8.4-3.8c-4.4,0-7.7,1.3-9.8,4
		c-2.1,2.7-3.4,6.2-3.8,10.7h24.2C1327.9,395.9,1327.2,392.3,1325.4,389.8z M1325.4,389.8c-1.8-2.5-4.6-3.8-8.4-3.8
		c-4.4,0-7.7,1.3-9.8,4c-2.1,2.7-3.4,6.2-3.8,10.7h24.2C1327.9,395.9,1327.2,392.3,1325.4,389.8z M1244.7,531.8
		c-1.8-2.5-4.6-3.8-8.4-3.8c-4.4,0-7.7,1.3-9.8,4c-2.1,2.7-3.4,6.2-3.8,10.7h24.2C1247.2,537.9,1246.5,534.3,1244.7,531.8z
		 M690.9,410.8c-2.2,0.1-4.5,0.5-6.6,1.2c-1.7,0.5-3.3,1.4-4.6,2.6c-1.1,1.2-1.8,2.7-1.7,4.3c-0.1,2.1,0.7,4.2,2.2,5.7
		c1.6,1.4,3.8,2.2,6,2c2.9,0.2,5.7-0.7,8.1-2.3c1.8-1.3,3.3-3,4.5-4.9V411C696.1,410.7,693.5,410.7,690.9,410.8z M634.9,389.8
		c-1.8-2.5-4.6-3.8-8.4-3.8c-4.4,0-7.7,1.3-9.8,4c-2.1,2.7-3.4,6.2-3.8,10.7H637C637.4,395.9,636.7,392.3,634.9,389.8z M993,387
		c-4-0.2-7.9,1.7-10.2,4.9c-2.4,3.3-3.7,8.5-3.7,15.7c0,6.4,1.1,11.2,3.1,14.5c1.9,3.2,5.3,5.1,9,5c3.3,0,5.9-0.7,7.7-2.2
		c2-1.8,3.4-4.1,4.1-6.7v-29.5C999.8,387.5,996.4,386.9,993,387z M1201.2,392.3c-2-3.7-5.4-5.6-10.2-5.6c-3.8-0.2-7.5,1.6-9.8,4.7
		c-2.4,3.1-3.5,8.3-3.5,15.4c0,2.7,0.2,5.4,0.8,8c0.4,2.2,1.2,4.4,2.4,6.4c1,1.8,2.4,3.2,4.1,4.3c1.9,1.1,4,1.6,6.1,1.5
		c4.5,0,7.8-1.6,10-4.8c2.2-3.2,3.3-8.3,3.3-15.3C1204.2,400.9,1203.2,396,1201.2,392.3z M634.9,389.8c-1.8-2.5-4.6-3.8-8.4-3.8
		c-4.4,0-7.7,1.3-9.8,4c-2.1,2.7-3.4,6.2-3.8,10.7H637C637.4,395.9,636.7,392.3,634.9,389.8z M690.9,410.8c-2.2,0.1-4.5,0.5-6.6,1.2
		c-1.7,0.5-3.3,1.4-4.6,2.6c-1.1,1.2-1.8,2.7-1.7,4.3c-0.1,2.1,0.7,4.2,2.2,5.7c1.6,1.4,3.8,2.2,6,2c2.9,0.2,5.7-0.7,8.1-2.3
		c1.8-1.3,3.3-3,4.5-4.9V411C696.1,410.7,693.5,410.7,690.9,410.8z M993,387c-4-0.2-7.9,1.7-10.2,4.9c-2.4,3.3-3.7,8.5-3.7,15.7
		c0,6.4,1.1,11.2,3.1,14.5c1.9,3.2,5.3,5.1,9,5c3.3,0,5.9-0.7,7.7-2.2c2-1.8,3.4-4.1,4.1-6.7v-29.5C999.8,387.5,996.4,386.9,993,387
		z M1017.8,552.8c-2.2,0.1-4.5,0.5-6.6,1.2c-1.7,0.5-3.3,1.4-4.6,2.6c-1.1,1.2-1.8,2.7-1.7,4.3c-0.1,2.1,0.7,4.2,2.2,5.7
		c1.7,1.4,3.8,2.2,6,2c2.9,0.2,5.7-0.7,8.1-2.3c1.8-1.3,3.3-3,4.5-4.9V553C1023,552.7,1020.4,552.7,1017.8,552.8z M1201.2,392.3
		c-2-3.7-5.4-5.6-10.2-5.6c-3.8-0.2-7.5,1.6-9.8,4.7c-2.4,3.1-3.5,8.3-3.5,15.4c0,2.7,0.2,5.4,0.8,8c0.4,2.2,1.2,4.4,2.4,6.4
		c1,1.8,2.4,3.2,4.1,4.3c1.9,1.1,4,1.6,6.1,1.5c4.5,0,7.8-1.6,10-4.8c2.2-3.2,3.3-8.3,3.3-15.3
		C1204.2,400.9,1203.2,396,1201.2,392.3z M1244.7,531.8c-1.8-2.5-4.6-3.8-8.4-3.8c-4.4,0-7.7,1.3-9.8,4c-2.1,2.7-3.4,6.2-3.8,10.7
		h24.2C1247.2,537.9,1246.5,534.3,1244.7,531.8z M1325.4,389.8c-1.8-2.5-4.6-3.8-8.4-3.8c-4.4,0-7.7,1.3-9.8,4
		c-2.1,2.7-3.4,6.2-3.8,10.7h24.2C1327.9,395.9,1327.2,392.3,1325.4,389.8z M1325.4,389.8c-1.8-2.5-4.6-3.8-8.4-3.8
		c-4.4,0-7.7,1.3-9.8,4c-2.1,2.7-3.4,6.2-3.8,10.7h24.2C1327.9,395.9,1327.2,392.3,1325.4,389.8z M1244.7,531.8
		c-1.8-2.5-4.6-3.8-8.4-3.8c-4.4,0-7.7,1.3-9.8,4c-2.1,2.7-3.4,6.2-3.8,10.7h24.2C1247.2,537.9,1246.5,534.3,1244.7,531.8z
		 M1017.8,552.8c-2.2,0.1-4.5,0.5-6.6,1.2c-1.7,0.5-3.3,1.4-4.6,2.6c-1.1,1.2-1.8,2.7-1.7,4.3c-0.1,2.1,0.7,4.2,2.2,5.7
		c1.7,1.4,3.8,2.2,6,2c2.9,0.2,5.7-0.7,8.1-2.3c1.8-1.3,3.3-3,4.5-4.9V553C1023,552.7,1020.4,552.7,1017.8,552.8z M690.9,410.8
		c-2.2,0.1-4.5,0.5-6.6,1.2c-1.7,0.5-3.3,1.4-4.6,2.6c-1.1,1.2-1.8,2.7-1.7,4.3c-0.1,2.1,0.7,4.2,2.2,5.7c1.6,1.4,3.8,2.2,6,2
		c2.9,0.2,5.7-0.7,8.1-2.3c1.8-1.3,3.3-3,4.5-4.9V411C696.1,410.7,693.5,410.7,690.9,410.8z M634.9,389.8c-1.8-2.5-4.6-3.8-8.4-3.8
		c-4.4,0-7.7,1.3-9.8,4c-2.1,2.7-3.4,6.2-3.8,10.7H637C637.4,395.9,636.7,392.3,634.9,389.8z M993,387c-4-0.2-7.9,1.7-10.2,4.9
		c-2.4,3.3-3.7,8.5-3.7,15.7c0,6.4,1.1,11.2,3.1,14.5c1.9,3.2,5.3,5.1,9,5c3.3,0,5.9-0.7,7.7-2.2c2-1.8,3.4-4.1,4.1-6.7v-29.5
		C999.8,387.5,996.4,386.9,993,387z M1201.2,392.3c-2-3.7-5.4-5.6-10.2-5.6c-3.8-0.2-7.5,1.6-9.8,4.7c-2.4,3.1-3.5,8.3-3.5,15.4
		c0,2.7,0.2,5.4,0.8,8c0.4,2.2,1.2,4.4,2.4,6.4c1,1.8,2.4,3.2,4.1,4.3c1.9,1.1,4,1.6,6.1,1.5c4.5,0,7.8-1.6,10-4.8
		c2.2-3.2,3.3-8.3,3.3-15.3C1204.2,400.9,1203.2,396,1201.2,392.3z M634.9,389.8c-1.8-2.5-4.6-3.8-8.4-3.8c-4.4,0-7.7,1.3-9.8,4
		c-2.1,2.7-3.4,6.2-3.8,10.7H637C637.4,395.9,636.7,392.3,634.9,389.8z M690.9,410.8c-2.2,0.1-4.5,0.5-6.6,1.2
		c-1.7,0.5-3.3,1.4-4.6,2.6c-1.1,1.2-1.8,2.7-1.7,4.3c-0.1,2.1,0.7,4.2,2.2,5.7c1.6,1.4,3.8,2.2,6,2c2.9,0.2,5.7-0.7,8.1-2.3
		c1.8-1.3,3.3-3,4.5-4.9V411C696.1,410.7,693.5,410.7,690.9,410.8z M886.5,531.8c-1.8-2.5-4.6-3.8-8.4-3.8c-4.4,0-7.7,1.3-9.8,4
		c-2.1,2.7-3.4,6.2-3.8,10.7h24.2C889,537.9,888.3,534.3,886.5,531.8z M993,387c-4-0.2-7.9,1.7-10.2,4.9c-2.4,3.3-3.7,8.5-3.7,15.7
		c0,6.4,1.1,11.2,3.1,14.5c1.9,3.2,5.3,5.1,9,5c3.3,0,5.9-0.7,7.7-2.2c2-1.8,3.4-4.1,4.1-6.7v-29.5C999.8,387.5,996.4,386.9,993,387
		z M1017.8,552.8c-2.2,0.1-4.5,0.5-6.6,1.2c-1.7,0.5-3.3,1.4-4.6,2.6c-1.1,1.2-1.8,2.7-1.7,4.3c-0.1,2.1,0.7,4.2,2.2,5.7
		c1.7,1.4,3.8,2.2,6,2c2.9,0.2,5.7-0.7,8.1-2.3c1.8-1.3,3.3-3,4.5-4.9V553C1023,552.7,1020.4,552.7,1017.8,552.8z M1201.2,392.3
		c-2-3.7-5.4-5.6-10.2-5.6c-3.8-0.2-7.5,1.6-9.8,4.7c-2.4,3.1-3.5,8.3-3.5,15.4c0,2.7,0.2,5.4,0.8,8c0.4,2.2,1.2,4.4,2.4,6.4
		c1,1.8,2.4,3.2,4.1,4.3c1.9,1.1,4,1.6,6.1,1.5c4.5,0,7.8-1.6,10-4.8c2.2-3.2,3.3-8.3,3.3-15.3
		C1204.2,400.9,1203.2,396,1201.2,392.3z M1244.7,531.8c-1.8-2.5-4.6-3.8-8.4-3.8c-4.4,0-7.7,1.3-9.8,4c-2.1,2.7-3.4,6.2-3.8,10.7
		h24.2C1247.2,537.9,1246.5,534.3,1244.7,531.8z M1325.4,389.8c-1.8-2.5-4.6-3.8-8.4-3.8c-4.4,0-7.7,1.3-9.8,4
		c-2.1,2.7-3.4,6.2-3.8,10.7h24.2C1327.9,395.9,1327.2,392.3,1325.4,389.8z M1325.4,389.8c-1.8-2.5-4.6-3.8-8.4-3.8
		c-4.4,0-7.7,1.3-9.8,4c-2.1,2.7-3.4,6.2-3.8,10.7h24.2C1327.9,395.9,1327.2,392.3,1325.4,389.8z M1244.7,531.8
		c-1.8-2.5-4.6-3.8-8.4-3.8c-4.4,0-7.7,1.3-9.8,4c-2.1,2.7-3.4,6.2-3.8,10.7h24.2C1247.2,537.9,1246.5,534.3,1244.7,531.8z
		 M1017.8,552.8c-2.2,0.1-4.5,0.5-6.6,1.2c-1.7,0.5-3.3,1.4-4.6,2.6c-1.1,1.2-1.8,2.7-1.7,4.3c-0.1,2.1,0.7,4.2,2.2,5.7
		c1.7,1.4,3.8,2.2,6,2c2.9,0.2,5.7-0.7,8.1-2.3c1.8-1.3,3.3-3,4.5-4.9V553C1023,552.7,1020.4,552.7,1017.8,552.8z M886.5,531.8
		c-1.8-2.5-4.6-3.8-8.4-3.8c-4.4,0-7.7,1.3-9.8,4c-2.1,2.7-3.4,6.2-3.8,10.7h24.2C889,537.9,888.3,534.3,886.5,531.8z M690.9,410.8
		c-2.2,0.1-4.5,0.5-6.6,1.2c-1.7,0.5-3.3,1.4-4.6,2.6c-1.1,1.2-1.8,2.7-1.7,4.3c-0.1,2.1,0.7,4.2,2.2,5.7c1.6,1.4,3.8,2.2,6,2
		c2.9,0.2,5.7-0.7,8.1-2.3c1.8-1.3,3.3-3,4.5-4.9V411C696.1,410.7,693.5,410.7,690.9,410.8z M634.9,389.8c-1.8-2.5-4.6-3.8-8.4-3.8
		c-4.4,0-7.7,1.3-9.8,4c-2.1,2.7-3.4,6.2-3.8,10.7H637C637.4,395.9,636.7,392.3,634.9,389.8z M993,387c-4-0.2-7.9,1.7-10.2,4.9
		c-2.4,3.3-3.7,8.5-3.7,15.7c0,6.4,1.1,11.2,3.1,14.5c1.9,3.2,5.3,5.1,9,5c3.3,0,5.9-0.7,7.7-2.2c2-1.8,3.4-4.1,4.1-6.7v-29.5
		C999.8,387.5,996.4,386.9,993,387z M1201.2,392.3c-2-3.7-5.4-5.6-10.2-5.6c-3.8-0.2-7.5,1.6-9.8,4.7c-2.4,3.1-3.5,8.3-3.5,15.4
		c0,2.7,0.2,5.4,0.8,8c0.4,2.2,1.2,4.4,2.4,6.4c1,1.8,2.4,3.2,4.1,4.3c1.9,1.1,4,1.6,6.1,1.5c4.5,0,7.8-1.6,10-4.8
		c2.2-3.2,3.3-8.3,3.3-15.3C1204.2,400.9,1203.2,396,1201.2,392.3z M634.9,389.8c-1.8-2.5-4.6-3.8-8.4-3.8c-4.4,0-7.7,1.3-9.8,4
		c-2.1,2.7-3.4,6.2-3.8,10.7H637C637.4,395.9,636.7,392.3,634.9,389.8z M667.4,534.3c-2-3.7-5.4-5.6-10.2-5.6
		c-3.8-0.2-7.5,1.6-9.8,4.7c-2.4,3.1-3.5,8.3-3.5,15.4c0,2.7,0.2,5.4,0.8,8c0.4,2.2,1.2,4.4,2.4,6.4c1,1.8,2.4,3.2,4.1,4.3
		c1.9,1.1,4,1.6,6.1,1.5c4.5,0,7.8-1.6,10-4.8c2.2-3.2,3.3-8.3,3.3-15.3C670.4,542.9,669.4,538,667.4,534.3z M690.9,410.8
		c-2.2,0.1-4.5,0.5-6.6,1.2c-1.7,0.5-3.3,1.4-4.6,2.6c-1.1,1.2-1.8,2.7-1.7,4.3c-0.1,2.1,0.7,4.2,2.2,5.7c1.6,1.4,3.8,2.2,6,2
		c2.9,0.2,5.7-0.7,8.1-2.3c1.8-1.3,3.3-3,4.5-4.9V411C696.1,410.7,693.5,410.7,690.9,410.8z M886.5,531.8c-1.8-2.5-4.6-3.8-8.4-3.8
		c-4.4,0-7.7,1.3-9.8,4c-2.1,2.7-3.4,6.2-3.8,10.7h24.2C889,537.9,888.3,534.3,886.5,531.8z M993,387c-4-0.2-7.9,1.7-10.2,4.9
		c-2.4,3.3-3.7,8.5-3.7,15.7c0,6.4,1.1,11.2,3.1,14.5c1.9,3.2,5.3,5.1,9,5c3.3,0,5.9-0.7,7.7-2.2c2-1.8,3.4-4.1,4.1-6.7v-29.5
		C999.8,387.5,996.4,386.9,993,387z M1017.8,552.8c-2.2,0.1-4.5,0.5-6.6,1.2c-1.7,0.5-3.3,1.4-4.6,2.6c-1.1,1.2-1.8,2.7-1.7,4.3
		c-0.1,2.1,0.7,4.2,2.2,5.7c1.7,1.4,3.8,2.2,6,2c2.9,0.2,5.7-0.7,8.1-2.3c1.8-1.3,3.3-3,4.5-4.9V553
		C1023,552.7,1020.4,552.7,1017.8,552.8z M1201.2,392.3c-2-3.7-5.4-5.6-10.2-5.6c-3.8-0.2-7.5,1.6-9.8,4.7
		c-2.4,3.1-3.5,8.3-3.5,15.4c0,2.7,0.2,5.4,0.8,8c0.4,2.2,1.2,4.4,2.4,6.4c1,1.8,2.4,3.2,4.1,4.3c1.9,1.1,4,1.6,6.1,1.5
		c4.5,0,7.8-1.6,10-4.8c2.2-3.2,3.3-8.3,3.3-15.3C1204.2,400.9,1203.2,396,1201.2,392.3z M1244.7,531.8c-1.8-2.5-4.6-3.8-8.4-3.8
		c-4.4,0-7.7,1.3-9.8,4c-2.1,2.7-3.4,6.2-3.8,10.7h24.2C1247.2,537.9,1246.5,534.3,1244.7,531.8z M1325.4,389.8
		c-1.8-2.5-4.6-3.8-8.4-3.8c-4.4,0-7.7,1.3-9.8,4c-2.1,2.7-3.4,6.2-3.8,10.7h24.2C1327.9,395.9,1327.2,392.3,1325.4,389.8z
		 M1325.4,389.8c-1.8-2.5-4.6-3.8-8.4-3.8c-4.4,0-7.7,1.3-9.8,4c-2.1,2.7-3.4,6.2-3.8,10.7h24.2
		C1327.9,395.9,1327.2,392.3,1325.4,389.8z M1244.7,531.8c-1.8-2.5-4.6-3.8-8.4-3.8c-4.4,0-7.7,1.3-9.8,4c-2.1,2.7-3.4,6.2-3.8,10.7
		h24.2C1247.2,537.9,1246.5,534.3,1244.7,531.8z M1017.8,552.8c-2.2,0.1-4.5,0.5-6.6,1.2c-1.7,0.5-3.3,1.4-4.6,2.6
		c-1.1,1.2-1.8,2.7-1.7,4.3c-0.1,2.1,0.7,4.2,2.2,5.7c1.7,1.4,3.8,2.2,6,2c2.9,0.2,5.7-0.7,8.1-2.3c1.8-1.3,3.3-3,4.5-4.9V553
		C1023,552.7,1020.4,552.7,1017.8,552.8z M886.5,531.8c-1.8-2.5-4.6-3.8-8.4-3.8c-4.4,0-7.7,1.3-9.8,4c-2.1,2.7-3.4,6.2-3.8,10.7
		h24.2C889,537.9,888.3,534.3,886.5,531.8z M690.9,410.8c-2.2,0.1-4.5,0.5-6.6,1.2c-1.7,0.5-3.3,1.4-4.6,2.6
		c-1.1,1.2-1.8,2.7-1.7,4.3c-0.1,2.1,0.7,4.2,2.2,5.7c1.6,1.4,3.8,2.2,6,2c2.9,0.2,5.7-0.7,8.1-2.3c1.8-1.3,3.3-3,4.5-4.9V411
		C696.1,410.7,693.5,410.7,690.9,410.8z M667.4,534.3c-2-3.7-5.4-5.6-10.2-5.6c-3.8-0.2-7.5,1.6-9.8,4.7c-2.4,3.1-3.5,8.3-3.5,15.4
		c0,2.7,0.2,5.4,0.8,8c0.4,2.2,1.2,4.4,2.4,6.4c1,1.8,2.4,3.2,4.1,4.3c1.9,1.1,4,1.6,6.1,1.5c4.5,0,7.8-1.6,10-4.8
		c2.2-3.2,3.3-8.3,3.3-15.3C670.4,542.9,669.4,538,667.4,534.3z M634.9,389.8c-1.8-2.5-4.6-3.8-8.4-3.8c-4.4,0-7.7,1.3-9.8,4
		c-2.1,2.7-3.4,6.2-3.8,10.7H637C637.4,395.9,636.7,392.3,634.9,389.8z M993,387c-4-0.2-7.9,1.7-10.2,4.9c-2.4,3.3-3.7,8.5-3.7,15.7
		c0,6.4,1.1,11.2,3.1,14.5c1.9,3.2,5.3,5.1,9,5c3.3,0,5.9-0.7,7.7-2.2c2-1.8,3.4-4.1,4.1-6.7v-29.5C999.8,387.5,996.4,386.9,993,387
		z M1201.2,392.3c-2-3.7-5.4-5.6-10.2-5.6c-3.8-0.2-7.5,1.6-9.8,4.7c-2.4,3.1-3.5,8.3-3.5,15.4c0,2.7,0.2,5.4,0.8,8
		c0.4,2.2,1.2,4.4,2.4,6.4c1,1.8,2.4,3.2,4.1,4.3c1.9,1.1,4,1.6,6.1,1.5c4.5,0,7.8-1.6,10-4.8c2.2-3.2,3.3-8.3,3.3-15.3
		C1204.2,400.9,1203.2,396,1201.2,392.3z M634.9,389.8c-1.8-2.5-4.6-3.8-8.4-3.8c-4.4,0-7.7,1.3-9.8,4c-2.1,2.7-3.4,6.2-3.8,10.7
		H637C637.4,395.9,636.7,392.3,634.9,389.8z M667.4,534.3c-2-3.7-5.4-5.6-10.2-5.6c-3.8-0.2-7.5,1.6-9.8,4.7
		c-2.4,3.1-3.5,8.3-3.5,15.4c0,2.7,0.2,5.4,0.8,8c0.4,2.2,1.2,4.4,2.4,6.4c1,1.8,2.4,3.2,4.1,4.3c1.9,1.1,4,1.6,6.1,1.5
		c4.5,0,7.8-1.6,10-4.8c2.2-3.2,3.3-8.3,3.3-15.3C670.4,542.9,669.4,538,667.4,534.3z M690.9,410.8c-2.2,0.1-4.5,0.5-6.6,1.2
		c-1.7,0.5-3.3,1.4-4.6,2.6c-1.1,1.2-1.8,2.7-1.7,4.3c-0.1,2.1,0.7,4.2,2.2,5.7c1.6,1.4,3.8,2.2,6,2c2.9,0.2,5.7-0.7,8.1-2.3
		c1.8-1.3,3.3-3,4.5-4.9V411C696.1,410.7,693.5,410.7,690.9,410.8z M886.5,531.8c-1.8-2.5-4.6-3.8-8.4-3.8c-4.4,0-7.7,1.3-9.8,4
		c-2.1,2.7-3.4,6.2-3.8,10.7h24.2C889,537.9,888.3,534.3,886.5,531.8z M993,387c-4-0.2-7.9,1.7-10.2,4.9c-2.4,3.3-3.7,8.5-3.7,15.7
		c0,6.4,1.1,11.2,3.1,14.5c1.9,3.2,5.3,5.1,9,5c3.3,0,5.9-0.7,7.7-2.2c2-1.8,3.4-4.1,4.1-6.7v-29.5C999.8,387.5,996.4,386.9,993,387
		z M1017.8,552.8c-2.2,0.1-4.5,0.5-6.6,1.2c-1.7,0.5-3.3,1.4-4.6,2.6c-1.1,1.2-1.8,2.7-1.7,4.3c-0.1,2.1,0.7,4.2,2.2,5.7
		c1.7,1.4,3.8,2.2,6,2c2.9,0.2,5.7-0.7,8.1-2.3c1.8-1.3,3.3-3,4.5-4.9V553C1023,552.7,1020.4,552.7,1017.8,552.8z M1201.2,392.3
		c-2-3.7-5.4-5.6-10.2-5.6c-3.8-0.2-7.5,1.6-9.8,4.7c-2.4,3.1-3.5,8.3-3.5,15.4c0,2.7,0.2,5.4,0.8,8c0.4,2.2,1.2,4.4,2.4,6.4
		c1,1.8,2.4,3.2,4.1,4.3c1.9,1.1,4,1.6,6.1,1.5c4.5,0,7.8-1.6,10-4.8c2.2-3.2,3.3-8.3,3.3-15.3
		C1204.2,400.9,1203.2,396,1201.2,392.3z M1244.7,531.8c-1.8-2.5-4.6-3.8-8.4-3.8c-4.4,0-7.7,1.3-9.8,4c-2.1,2.7-3.4,6.2-3.8,10.7
		h24.2C1247.2,537.9,1246.5,534.3,1244.7,531.8z M1325.4,389.8c-1.8-2.5-4.6-3.8-8.4-3.8c-4.4,0-7.7,1.3-9.8,4
		c-2.1,2.7-3.4,6.2-3.8,10.7h24.2C1327.9,395.9,1327.2,392.3,1325.4,389.8z M1325.4,389.8c-1.8-2.5-4.6-3.8-8.4-3.8
		c-4.4,0-7.7,1.3-9.8,4c-2.1,2.7-3.4,6.2-3.8,10.7h24.2C1327.9,395.9,1327.2,392.3,1325.4,389.8z M1244.7,531.8
		c-1.8-2.5-4.6-3.8-8.4-3.8c-4.4,0-7.7,1.3-9.8,4c-2.1,2.7-3.4,6.2-3.8,10.7h24.2C1247.2,537.9,1246.5,534.3,1244.7,531.8z
		 M1017.8,552.8c-2.2,0.1-4.5,0.5-6.6,1.2c-1.7,0.5-3.3,1.4-4.6,2.6c-1.1,1.2-1.8,2.7-1.7,4.3c-0.1,2.1,0.7,4.2,2.2,5.7
		c1.7,1.4,3.8,2.2,6,2c2.9,0.2,5.7-0.7,8.1-2.3c1.8-1.3,3.3-3,4.5-4.9V553C1023,552.7,1020.4,552.7,1017.8,552.8z M886.5,531.8
		c-1.8-2.5-4.6-3.8-8.4-3.8c-4.4,0-7.7,1.3-9.8,4c-2.1,2.7-3.4,6.2-3.8,10.7h24.2C889,537.9,888.3,534.3,886.5,531.8z M690.9,410.8
		c-2.2,0.1-4.5,0.5-6.6,1.2c-1.7,0.5-3.3,1.4-4.6,2.6c-1.1,1.2-1.8,2.7-1.7,4.3c-0.1,2.1,0.7,4.2,2.2,5.7c1.6,1.4,3.8,2.2,6,2
		c2.9,0.2,5.7-0.7,8.1-2.3c1.8-1.3,3.3-3,4.5-4.9V411C696.1,410.7,693.5,410.7,690.9,410.8z M667.4,534.3c-2-3.7-5.4-5.6-10.2-5.6
		c-3.8-0.2-7.5,1.6-9.8,4.7c-2.4,3.1-3.5,8.3-3.5,15.4c0,2.7,0.2,5.4,0.8,8c0.4,2.2,1.2,4.4,2.4,6.4c1,1.8,2.4,3.2,4.1,4.3
		c1.9,1.1,4,1.6,6.1,1.5c4.5,0,7.8-1.6,10-4.8c2.2-3.2,3.3-8.3,3.3-15.3C670.4,542.9,669.4,538,667.4,534.3z M634.9,389.8
		c-1.8-2.5-4.6-3.8-8.4-3.8c-4.4,0-7.7,1.3-9.8,4c-2.1,2.7-3.4,6.2-3.8,10.7H637C637.4,395.9,636.7,392.3,634.9,389.8z M993,387
		c-4-0.2-7.9,1.7-10.2,4.9c-2.4,3.3-3.7,8.5-3.7,15.7c0,6.4,1.1,11.2,3.1,14.5c1.9,3.2,5.3,5.1,9,5c3.3,0,5.9-0.7,7.7-2.2
		c2-1.8,3.4-4.1,4.1-6.7v-29.5C999.8,387.5,996.4,386.9,993,387z M1201.2,392.3c-2-3.7-5.4-5.6-10.2-5.6c-3.8-0.2-7.5,1.6-9.8,4.7
		c-2.4,3.1-3.5,8.3-3.5,15.4c0,2.7,0.2,5.4,0.8,8c0.4,2.2,1.2,4.4,2.4,6.4c1,1.8,2.4,3.2,4.1,4.3c1.9,1.1,4,1.6,6.1,1.5
		c4.5,0,7.8-1.6,10-4.8c2.2-3.2,3.3-8.3,3.3-15.3C1204.2,400.9,1203.2,396,1201.2,392.3z M634.9,389.8c-1.8-2.5-4.6-3.8-8.4-3.8
		c-4.4,0-7.7,1.3-9.8,4c-2.1,2.7-3.4,6.2-3.8,10.7H637C637.4,395.9,636.7,392.3,634.9,389.8z M667.4,534.3c-2-3.7-5.4-5.6-10.2-5.6
		c-3.8-0.2-7.5,1.6-9.8,4.7c-2.4,3.1-3.5,8.3-3.5,15.4c0,2.7,0.2,5.4,0.8,8c0.4,2.2,1.2,4.4,2.4,6.4c1,1.8,2.4,3.2,4.1,4.3
		c1.9,1.1,4,1.6,6.1,1.5c4.5,0,7.8-1.6,10-4.8c2.2-3.2,3.3-8.3,3.3-15.3C670.4,542.9,669.4,538,667.4,534.3z M690.9,410.8
		c-2.2,0.1-4.5,0.5-6.6,1.2c-1.7,0.5-3.3,1.4-4.6,2.6c-1.1,1.2-1.8,2.7-1.7,4.3c-0.1,2.1,0.7,4.2,2.2,5.7c1.6,1.4,3.8,2.2,6,2
		c2.9,0.2,5.7-0.7,8.1-2.3c1.8-1.3,3.3-3,4.5-4.9V411C696.1,410.7,693.5,410.7,690.9,410.8z M886.5,531.8c-1.8-2.5-4.6-3.8-8.4-3.8
		c-4.4,0-7.7,1.3-9.8,4c-2.1,2.7-3.4,6.2-3.8,10.7h24.2C889,537.9,888.3,534.3,886.5,531.8z M993,387c-4-0.2-7.9,1.7-10.2,4.9
		c-2.4,3.3-3.7,8.5-3.7,15.7c0,6.4,1.1,11.2,3.1,14.5c1.9,3.2,5.3,5.1,9,5c3.3,0,5.9-0.7,7.7-2.2c2-1.8,3.4-4.1,4.1-6.7v-29.5
		C999.8,387.5,996.4,386.9,993,387z M1017.8,552.8c-2.2,0.1-4.5,0.5-6.6,1.2c-1.7,0.5-3.3,1.4-4.6,2.6c-1.1,1.2-1.8,2.7-1.7,4.3
		c-0.1,2.1,0.7,4.2,2.2,5.7c1.7,1.4,3.8,2.2,6,2c2.9,0.2,5.7-0.7,8.1-2.3c1.8-1.3,3.3-3,4.5-4.9V553
		C1023,552.7,1020.4,552.7,1017.8,552.8z M1201.2,392.3c-2-3.7-5.4-5.6-10.2-5.6c-3.8-0.2-7.5,1.6-9.8,4.7
		c-2.4,3.1-3.5,8.3-3.5,15.4c0,2.7,0.2,5.4,0.8,8c0.4,2.2,1.2,4.4,2.4,6.4c1,1.8,2.4,3.2,4.1,4.3c1.9,1.1,4,1.6,6.1,1.5
		c4.5,0,7.8-1.6,10-4.8c2.2-3.2,3.3-8.3,3.3-15.3C1204.2,400.9,1203.2,396,1201.2,392.3z M1244.7,531.8c-1.8-2.5-4.6-3.8-8.4-3.8
		c-4.4,0-7.7,1.3-9.8,4c-2.1,2.7-3.4,6.2-3.8,10.7h24.2C1247.2,537.9,1246.5,534.3,1244.7,531.8z M1325.4,389.8
		c-1.8-2.5-4.6-3.8-8.4-3.8c-4.4,0-7.7,1.3-9.8,4c-2.1,2.7-3.4,6.2-3.8,10.7h24.2C1327.9,395.9,1327.2,392.3,1325.4,389.8z
		 M1325.4,389.8c-1.8-2.5-4.6-3.8-8.4-3.8c-4.4,0-7.7,1.3-9.8,4c-2.1,2.7-3.4,6.2-3.8,10.7h24.2
		C1327.9,395.9,1327.2,392.3,1325.4,389.8z M1244.7,531.8c-1.8-2.5-4.6-3.8-8.4-3.8c-4.4,0-7.7,1.3-9.8,4c-2.1,2.7-3.4,6.2-3.8,10.7
		h24.2C1247.2,537.9,1246.5,534.3,1244.7,531.8z M1017.8,552.8c-2.2,0.1-4.5,0.5-6.6,1.2c-1.7,0.5-3.3,1.4-4.6,2.6
		c-1.1,1.2-1.8,2.7-1.7,4.3c-0.1,2.1,0.7,4.2,2.2,5.7c1.7,1.4,3.8,2.2,6,2c2.9,0.2,5.7-0.7,8.1-2.3c1.8-1.3,3.3-3,4.5-4.9V553
		C1023,552.7,1020.4,552.7,1017.8,552.8z M886.5,531.8c-1.8-2.5-4.6-3.8-8.4-3.8c-4.4,0-7.7,1.3-9.8,4c-2.1,2.7-3.4,6.2-3.8,10.7
		h24.2C889,537.9,888.3,534.3,886.5,531.8z M690.9,410.8c-2.2,0.1-4.5,0.5-6.6,1.2c-1.7,0.5-3.3,1.4-4.6,2.6
		c-1.1,1.2-1.8,2.7-1.7,4.3c-0.1,2.1,0.7,4.2,2.2,5.7c1.6,1.4,3.8,2.2,6,2c2.9,0.2,5.7-0.7,8.1-2.3c1.8-1.3,3.3-3,4.5-4.9V411
		C696.1,410.7,693.5,410.7,690.9,410.8z M667.4,534.3c-2-3.7-5.4-5.6-10.2-5.6c-3.8-0.2-7.5,1.6-9.8,4.7c-2.4,3.1-3.5,8.3-3.5,15.4
		c0,2.7,0.2,5.4,0.8,8c0.4,2.2,1.2,4.4,2.4,6.4c1,1.8,2.4,3.2,4.1,4.3c1.9,1.1,4,1.6,6.1,1.5c4.5,0,7.8-1.6,10-4.8
		c2.2-3.2,3.3-8.3,3.3-15.3C670.4,542.9,669.4,538,667.4,534.3z M634.9,389.8c-1.8-2.5-4.6-3.8-8.4-3.8c-4.4,0-7.7,1.3-9.8,4
		c-2.1,2.7-3.4,6.2-3.8,10.7H637C637.4,395.9,636.7,392.3,634.9,389.8z M993,387c-4-0.2-7.9,1.7-10.2,4.9c-2.4,3.3-3.7,8.5-3.7,15.7
		c0,6.4,1.1,11.2,3.1,14.5c1.9,3.2,5.3,5.1,9,5c3.3,0,5.9-0.7,7.7-2.2c2-1.8,3.4-4.1,4.1-6.7v-29.5C999.8,387.5,996.4,386.9,993,387
		z M1201.2,392.3c-2-3.7-5.4-5.6-10.2-5.6c-3.8-0.2-7.5,1.6-9.8,4.7c-2.4,3.1-3.5,8.3-3.5,15.4c0,2.7,0.2,5.4,0.8,8
		c0.4,2.2,1.2,4.4,2.4,6.4c1,1.8,2.4,3.2,4.1,4.3c1.9,1.1,4,1.6,6.1,1.5c4.5,0,7.8-1.6,10-4.8c2.2-3.2,3.3-8.3,3.3-15.3
		C1204.2,400.9,1203.2,396,1201.2,392.3z M0,0v930h1920V0H0z M1168.2,381.3c5.4-6,13-9,22.8-9c4.7-0.1,9.3,0.7,13.6,2.5
		c3.7,1.5,7,3.9,9.6,7c2.6,3.2,4.6,6.9,5.7,10.9c1.3,4.6,1.9,9.4,1.9,14.1c0,11.1-2.7,19.6-8.1,25.6c-5.4,6-12.9,9-22.7,9
		c-4.7,0.1-9.3-0.7-13.6-2.5c-3.7-1.6-7-4-9.6-7c-2.7-3.2-4.6-6.9-5.8-10.9c-1.3-4.6-1.9-9.4-1.9-14.2
		C1160.1,395.8,1162.8,387.3,1168.2,381.3z M1125.3,347.9h17l0,69.7c0,3.1,0.4,5.3,1.2,6.7c0.8,1.4,2.2,2.2,3.8,2.1
		c1,0,2.1-0.1,3.1-0.3c1.3-0.3,2.5-0.7,3.7-1.2l1.8,13.3c-2.1,0.9-4.2,1.6-6.4,2.1c-2.9,0.7-5.9,1.1-8.9,1.1c-5,0-8.8-1.2-11.4-3.5
		c-2.6-2.3-3.9-6.1-3.9-11.5V347.9z M1072.3,381.3c5-6,12.2-9,21.8-9c3.9-0.1,7.8,0.3,11.6,1.2c2.7,0.7,5.4,1.7,7.9,3l-4.1,13.9
		c-1.9-0.9-3.9-1.7-6-2.2c-2.2-0.5-4.5-0.8-6.8-0.8c-4.7,0-8.3,1.6-10.7,4.7c-2.4,3.1-3.7,8-3.7,14.9c0,2.6,0.3,5.2,0.9,7.7
		c0.5,2.2,1.5,4.3,2.8,6.2c1.2,1.8,2.9,3.2,4.8,4.1c2.1,1,4.5,1.6,6.9,1.5c2.5,0.1,5-0.3,7.3-1.1c1.9-0.7,3.7-1.6,5.4-2.7l3.9,13
		c-2.9,2-6.1,3.5-9.5,4.4c-3.7,1-7.6,1.5-11.5,1.5c-4.6,0.1-9.1-0.7-13.3-2.5c-3.5-1.6-6.5-4-8.8-7c-2.4-3.3-4.1-7-4.9-10.9
		c-1-4.6-1.6-9.4-1.5-14.2C1064.9,395.8,1067.4,387.3,1072.3,381.3z M969.9,381.6c5.6-6,13.7-9,24.4-9c5,0,10,0.3,15,1.2
		c3.7,0.6,7.3,1.5,10.8,2.8v63.1c0,9.5-2.6,16.5-7.7,21c-5.2,4.5-12.4,6.8-21.6,6.8c-5,0.1-10-0.3-14.9-1.3
		c-2.8-0.6-5.6-1.5-8.2-2.8l3.5-13.5c2,0.8,4.3,1.6,7,2.4c3.2,0.9,6.6,1.2,9.9,1.2c5.9,0,10-1.3,12.1-3.9c2.1-2.6,3.2-6.2,3.2-10.8
		v-4.2h-0.5c-3.1,4.1-8.5,6.1-16.2,6.1c-8.5,0-14.8-2.6-18.9-7.9c-4.1-5.2-6.2-13.5-6.2-24.6C961.5,396.5,964.3,387.6,969.9,381.6z
		 M859.8,349.2c1.9-1.8,4.5-2.7,7.8-2.7c2.9-0.1,5.8,0.8,8.1,2.7c1.9,1.6,3.1,4,3.1,6.5c0,2.5-1.1,4.8-3.1,6.4
		c-2.3,1.8-5.2,2.7-8.1,2.5c-3.3,0-5.9-0.8-7.8-2.5c-1.8-1.6-2.9-3.9-2.8-6.4C856.9,353.2,858,350.9,859.8,349.2z M876.5,374.1v65.5
		h-17v-65.5H876.5z M553.6,403.8l-9.4-1.7v37.6h-18v-90.8c2-0.3,4.2-0.7,6.5-1c2.3-0.3,4.6-0.5,6.9-0.7c2.3-0.2,4.6-0.3,6.8-0.4
		c2.2-0.1,4.2-0.1,6-0.1c4.2,0,8.5,0.4,12.6,1.2c3.9,0.7,7.7,2.1,11.1,4.1c3.3,1.9,6,4.7,7.9,7.9c2,3.4,3,7.6,3,12.6
		c0,7.5-1.8,13.6-5.2,18.3c-3.5,4.7-8.4,8.2-14,9.8l6.4,4.1l21,35h-20.7L553.6,403.8z M613.7,582.3c-3.1,0.8-6.3,1.2-9.6,1.2
		c-6,0-10.5-1.6-13.3-4.7c-2.8-3.1-4.3-8.2-4.3-15.3v-33h-9l0-14.4h9v-12.3l17-4.8v17.2h16v14.4h-16v25.2c0,4.5,0.4,7.8,1.4,9.8
		c0.9,2,2.6,2.9,5.2,2.9c1.5,0,3-0.1,4.5-0.5c1.5-0.4,2.9-0.9,4.3-1.6l3,13.1C619.3,580.7,616.5,581.6,613.7,582.3z M602.6,432.2
		c-4.9-6.2-7.3-14.6-7.3-25.4c0-11.5,2.8-20.2,8.2-25.9c5.5-5.8,13.2-8.7,23.2-8.7c3.3,0,6.5,0.4,9.7,1.3c3.1,0.8,5.9,2.3,8.4,4.3
		c2.6,2.2,4.6,5,5.9,8.1c1.6,4,2.4,8.4,2.2,12.7c0,2-0.1,3.9-0.3,5.9c-0.2,2.1-0.6,4.3-1,6.6h-39.2c0.3,5.5,1.7,9.6,4.2,12.4
		c2.6,2.8,6.7,4.2,12.5,4.2c3.3,0.1,6.5-0.5,9.6-1.6c2.3-0.8,4.5-1.9,6.5-3.3l5.6,11.1c-3.2,2.4-6.8,4.2-10.7,5.3
		c-4.6,1.5-9.5,2.2-14.4,2.2C615.2,441.5,607.5,438.4,602.6,432.2z M679.9,574.5c-5.4,6-12.9,9-22.7,9c-4.7,0.1-9.3-0.7-13.6-2.5
		c-3.7-1.6-7-4-9.6-7c-2.7-3.2-4.7-6.9-5.8-10.9c-1.3-4.6-1.9-9.4-1.9-14.2c0-11.1,2.7-19.6,8.1-25.6c5.4-6,13-9,22.8-9
		c4.7-0.1,9.3,0.7,13.6,2.5c3.7,1.5,7,3.9,9.6,7c2.6,3.2,4.6,6.9,5.7,10.9c1.3,4.6,1.9,9.4,1.9,14.1
		C688,560,685.3,568.5,679.9,574.5z M703.2,439.8l-2.8-9h-0.7c-1.9,2.8-4.4,5.2-7.3,7c-3.1,2-7.1,2.9-12,2.9
		c-2.8,0.1-5.6-0.4-8.2-1.4c-2.3-0.9-4.5-2.2-6.3-3.9c-1.8-1.7-3.1-3.8-4.1-6c-1-2.5-1.5-5.1-1.4-7.8c-0.1-3.6,0.8-7.1,2.7-10.2
		c1.9-2.9,4.6-5.2,7.7-6.7c3.8-1.8,7.9-3,12.1-3.5c5.2-0.7,10.4-0.9,15.7-0.6c0.6-4.9,0.3-8.4-1.1-10.6c-1.3-2.1-4.2-3.2-8.8-3.2
		c-3.6,0-7.2,0.4-10.8,1c-3.2,0.5-6.4,1.5-9.4,2.8l-4.1-12.7c4-1.7,8.2-3,12.5-3.7c5-0.9,10-1.4,15.1-1.4c3.9-0.1,7.7,0.5,11.4,1.6
		c2.8,0.9,5.3,2.5,7.3,4.6c1.8,2.1,3.1,4.5,3.8,7.2c0.8,3.1,1.2,6.2,1.1,9.4c0,3.8-0.1,7.7-0.4,11.6c-0.3,3.9-0.4,7.7-0.5,11.5
		c0,3.8,0.1,7.4,0.3,10.9c0.2,3.4,0.9,6.8,2,10H703.2z M762.3,582.3c-3.1,0.8-6.3,1.2-9.6,1.2c-6,0-10.5-1.6-13.3-4.7
		c-2.8-3.1-4.3-8.2-4.2-15.3v-33h-9v-14.4h9v-12.3l17-4.8v17.2h16v14.4h-16v25.2c0,4.5,0.5,7.8,1.4,9.8c0.9,2,2.6,2.9,5.2,2.9
		c1.5,0,3-0.1,4.5-0.5c1.5-0.4,2.9-0.9,4.3-1.6l3,13.1C767.9,580.7,765.1,581.6,762.3,582.3z M766.8,440c-3.7,1-7.6,1.5-11.5,1.5
		c-4.6,0.1-9.1-0.7-13.3-2.5c-3.5-1.6-6.5-4-8.8-7c-2.4-3.3-4.1-7-4.9-10.9c-1-4.6-1.5-9.4-1.5-14.1c0-11.1,2.5-19.6,7.5-25.6
		c5-6,12.2-9,21.8-9c3.9-0.1,7.8,0.3,11.6,1.2c2.7,0.7,5.4,1.7,7.9,3l-4.1,13.9c-1.9-0.9-3.9-1.7-6-2.2c-2.2-0.5-4.5-0.8-6.8-0.8
		c-4.7,0-8.3,1.6-10.7,4.7c-2.5,3.1-3.7,8-3.7,14.9c0,2.6,0.3,5.2,0.9,7.7c0.5,2.2,1.5,4.3,2.8,6.2c1.2,1.8,2.9,3.2,4.8,4.1
		c2.1,1,4.5,1.6,6.9,1.5c2.5,0.1,5-0.3,7.3-1.1c1.9-0.7,3.7-1.6,5.4-2.7l3.9,13C773.4,437.6,770.2,439.1,766.8,440z M835.8,581.6
		h-17v-37.2c0-5.3-0.7-9.2-2.2-11.5c-1.5-2.4-4.2-3.5-8.1-3.5c-2.9,0-5.7,1.1-7.9,3c-2.4,1.9-4,4.6-4.8,7.5v41.8h-17v-91.7h17v33.5
		h0.5c2-2.8,4.7-5,7.7-6.7c3.6-1.8,7.6-2.6,11.7-2.5c3,0,5.9,0.4,8.8,1.3c2.5,0.8,4.7,2.3,6.4,4.3c1.9,2.4,3.2,5.2,3.8,8.2
		c0.9,4.2,1.3,8.5,1.2,12.8V581.6z M843.7,439.6h-17v-37.2c0-5.3-0.7-9.2-2.2-11.5c-1.5-2.4-4.2-3.5-8.1-3.5c-2.9,0-5.7,1.1-7.9,3
		c-2.4,1.9-4,4.6-4.8,7.5v41.8h-17v-91.7h17v33.5h0.5c2.1-2.8,4.7-5,7.7-6.7c3.6-1.8,7.6-2.6,11.7-2.5c3,0,5.9,0.4,8.8,1.3
		c2.5,0.8,4.7,2.3,6.3,4.3c1.9,2.4,3.2,5.2,3.8,8.2c0.9,4.2,1.3,8.5,1.2,12.8V439.6z M904.5,540.8c0,2-0.1,3.9-0.3,5.9
		c-0.2,2.1-0.5,4.3-1,6.6h-39.2c0.3,5.5,1.7,9.6,4.2,12.4c2.6,2.8,6.7,4.2,12.5,4.2c3.3,0,6.5-0.5,9.6-1.6c2.3-0.8,4.5-1.9,6.5-3.3
		l5.6,11.1c-3.2,2.4-6.8,4.2-10.7,5.3c-4.6,1.5-9.5,2.2-14.3,2.2c-10.6,0-18.3-3.1-23.2-9.2c-4.9-6.2-7.3-14.6-7.3-25.4
		c0-11.5,2.8-20.2,8.3-25.9c5.5-5.8,13.2-8.7,23.2-8.7c3.3,0,6.5,0.4,9.7,1.3c3.1,0.8,5.9,2.3,8.4,4.3c2.6,2.2,4.6,5,5.9,8.1
		C903.9,532.1,904.7,536.4,904.5,540.8z M931.1,390.9c-1.5-2.4-4.1-3.5-7.8-3.5c-3-0.1-5.9,0.9-8.2,2.8c-2.2,1.9-3.9,4.3-4.8,7v42.4
		h-17v-65.5h13.5l2,8.7h0.5c2.2-2.9,4.9-5.4,8-7.3c3.3-2.1,7.6-3.1,12.8-3.1c2.9,0,5.9,0.4,8.6,1.3c2.5,0.8,4.7,2.3,6.4,4.3
		c1.9,2.4,3.3,5.2,3.9,8.2c1,4.2,1.4,8.5,1.3,12.8v40.7h-17v-37.2C933.3,397.1,932.6,393.3,931.1,390.9z M984.2,530.6h-14.4v51.1
		h-17v-51.1h-9v-14.4h9v-3.7c0-8.3,1.8-14.3,5.2-18c3.5-3.7,8.6-5.6,15.2-5.6c7,0,12.8,0.8,17.4,2.5l-3.3,13.6
		c-1.7-0.6-3.5-1.1-5.3-1.4c-1.6-0.2-3.2-0.3-4.8-0.3c-1.4-0.1-2.8,0.2-4.1,0.8c-1,0.5-1.8,1.4-2.2,2.4c-0.5,1.3-0.8,2.7-0.9,4.1
		c-0.1,1.6-0.2,3.5-0.2,5.6h14.4V530.6z M1030,581.8l-2.8-9h-0.7c-1.9,2.8-4.4,5.2-7.3,7c-3.1,2-7.1,2.9-12,2.9
		c-2.8,0-5.6-0.4-8.3-1.4c-4.7-1.7-8.5-5.3-10.4-10c-1-2.5-1.5-5.1-1.4-7.8c-0.1-3.6,0.8-7.1,2.7-10.2c1.9-2.9,4.6-5.2,7.7-6.7
		c3.8-1.8,7.9-3,12.1-3.5c5.2-0.7,10.4-0.9,15.7-0.6c0.6-4.9,0.3-8.4-1-10.6s-4.2-3.2-8.8-3.2c-3.6,0-7.2,0.4-10.8,1
		c-3.2,0.5-6.4,1.5-9.4,2.8l-4.1-12.7c4-1.7,8.2-3,12.4-3.7c5-0.9,10-1.4,15.1-1.4c3.9-0.1,7.7,0.5,11.4,1.6
		c5.5,1.7,9.7,6.2,11.1,11.9c0.8,3.1,1.2,6.2,1.1,9.4c0,3.8-0.1,7.7-0.4,11.6c-0.3,3.9-0.4,7.7-0.4,11.5c-0.1,3.8,0.1,7.4,0.3,10.9
		c0.2,3.4,0.9,6.8,2,10H1030z M1092.9,532.1c-2.4-0.9-4.8-1.4-7.3-1.4c-2.8-0.1-5.5,0.8-7.7,2.4c-2,1.6-3.5,3.8-4.1,6.2v42.3h-17
		v-65.5h13.2l2,8.7h0.5c1.3-3,3.4-5.6,6-7.5c2.6-1.8,5.7-2.7,8.9-2.6c2.6,0.1,5.2,0.6,7.7,1.4L1092.9,532.1z M1194.2,581.6h-17
		v-36.8c0-5.2-0.5-9-1.6-11.6c-1.1-2.6-3.5-3.9-7.3-3.9c-2.7-0.1-5.3,0.8-7.3,2.5c-1.9,1.9-3.3,4.2-4,6.8v43h-17V546
		c0-6-0.6-10.3-1.7-12.8c-1.1-2.5-3.5-3.8-7.1-3.8c-2.6-0.1-5.2,0.8-7.2,2.4c-1.9,1.7-3.3,3.8-4.2,6.2v43.6h-17v-65.5h13.2l2,8.7
		h0.5c2.1-2.9,4.7-5.4,7.7-7.3c3.1-2.1,7.1-3.1,12-3.1c3.6-0.2,7.2,0.7,10.3,2.6c2.7,1.7,4.7,4.6,6.2,8.6c1.9-3.3,4.5-6.1,7.7-8.1
		c3.4-2.1,7.4-3.1,11.4-3c3.2-0.1,6.3,0.4,9.4,1.3c2.5,0.8,4.7,2.4,6.3,4.5c1.8,2.6,3,5.5,3.6,8.6c0.9,4.5,1.3,9.1,1.2,13.6V581.6z
		 M1262.7,540.8c0,2-0.1,3.9-0.3,5.9c-0.2,2.1-0.5,4.3-1,6.6h-39.2c0.3,5.5,1.7,9.6,4.2,12.4c2.6,2.8,6.7,4.2,12.5,4.2
		c5.7,0,11.3-1.7,16.1-5l5.6,11.1c-3.2,2.4-6.8,4.2-10.7,5.3c-4.6,1.5-9.5,2.2-14.3,2.2c-10.6,0-18.3-3.1-23.2-9.2
		c-4.9-6.2-7.3-14.6-7.3-25.4c0-11.5,2.8-20.2,8.2-25.9c5.5-5.8,13.2-8.7,23.2-8.7c3.3,0,6.5,0.4,9.7,1.3c3.1,0.8,5.9,2.3,8.4,4.3
		c2.6,2.2,4.6,5,5.9,8.1C1262.1,532.1,1262.8,536.4,1262.7,540.8z M1252.3,441.5c-4.4,0-8.8-0.6-13-1.8c-3.5-0.9-6.8-2.3-9.9-4.1
		l4.7-12.7c2.6,1.4,5.2,2.5,8,3.3c3.3,1.1,6.7,1.6,10.2,1.6c2.1,0.1,4.2-0.4,6.1-1.4c1.5-1,2.3-2.6,2.3-4.8c0-1.7-0.8-3.3-2.2-4.2
		c-1.7-1.2-3.6-2.1-5.5-2.9c-2.2-0.9-4.6-1.8-7.2-2.7c-2.6-0.9-5-2.2-7.2-3.8c-2.2-1.7-4.1-3.8-5.5-6.2c-1.6-3-2.4-6.3-2.2-9.6
		c0-6.5,1.9-11.4,5.8-14.8c3.8-3.4,9.4-5.1,16.6-5.1c4.6,0,9.1,0.5,13.5,1.6c3.3,0.8,6.5,2,9.4,3.5l-3.8,12.3
		c-2-0.8-4.5-1.6-7.6-2.5c-3-0.9-6.1-1.3-9.3-1.3c-5.1,0-7.6,2-7.6,5.9c0,1.6,0.9,3,2.2,3.8c1.7,1.1,3.6,2,5.5,2.7
		c2.2,0.8,4.6,1.7,7.2,2.7c2.6,0.9,5,2.2,7.2,3.7c2.2,1.6,4.1,3.6,5.5,6c1.6,2.9,2.4,6.2,2.2,9.4c0,6.6-2.1,11.9-6.3,15.7
		C1267.1,439.6,1260.8,441.5,1252.3,441.5z M1310.9,532.1c-2.3-0.9-4.8-1.4-7.3-1.4c-2.8-0.1-5.5,0.8-7.7,2.4
		c-2,1.6-3.5,3.8-4.1,6.2v42.3h-17v-65.5h13.2l2,8.7h0.5c1.3-3,3.4-5.6,6-7.5c2.6-1.8,5.7-2.7,8.9-2.6c2.6,0.1,5.2,0.6,7.7,1.4
		L1310.9,532.1z M1293.1,432.2c-4.9-6.2-7.3-14.6-7.3-25.4c0-11.5,2.8-20.2,8.2-25.9c5.5-5.8,13.2-8.7,23.2-8.7
		c3.3,0,6.5,0.4,9.7,1.3c3.1,0.8,5.9,2.3,8.4,4.3c2.6,2.2,4.6,5,5.9,8.1c1.6,4,2.4,8.4,2.2,12.7c0,2-0.1,3.9-0.3,5.9
		c-0.2,2.1-0.6,4.3-1,6.6h-39.2c0.3,5.5,1.7,9.6,4.2,12.4c2.6,2.8,6.7,4.2,12.5,4.2c3.3,0.1,6.5-0.5,9.6-1.6
		c2.3-0.8,4.5-1.9,6.5-3.3l5.6,11.1c-3.2,2.4-6.8,4.2-10.7,5.3c-4.6,1.5-9.5,2.2-14.3,2.2C1305.7,441.5,1298,438.4,1293.1,432.2z
		 M1364.9,562.1c0,6.6-2.1,11.9-6.4,15.7c-4.2,3.8-10.6,5.7-19.1,5.7c-4.4,0-8.8-0.6-13-1.8c-3.5-0.9-6.8-2.3-9.9-4.1l4.7-12.7
		c2.6,1.4,5.2,2.5,8,3.3c3.3,1.1,6.8,1.6,10.2,1.6c2.1,0.1,4.2-0.4,6.1-1.4c1.5-1,2.3-2.6,2.3-4.8c0-1.7-0.8-3.3-2.2-4.2
		c-1.7-1.2-3.6-2.1-5.5-2.9c-2.2-0.9-4.6-1.8-7.2-2.7c-2.6-0.9-5-2.2-7.2-3.8c-2.2-1.7-4.1-3.8-5.5-6.2c-1.6-3-2.4-6.3-2.2-9.6
		c0-6.5,1.9-11.4,5.8-14.8c3.8-3.4,9.4-5.1,16.6-5.1c4.5,0,9.1,0.5,13.5,1.6c3.3,0.8,6.5,2,9.4,3.5l-3.8,12.3
		c-2-0.8-4.5-1.6-7.6-2.5c-3-0.9-6.2-1.3-9.3-1.3c-5.1,0-7.6,2-7.6,5.9c0,1.6,0.9,3,2.2,3.8c1.7,1.1,3.6,2,5.5,2.7
		c2.2,0.8,4.6,1.7,7.2,2.7c2.6,0.9,5,2.2,7.2,3.7c2.2,1.6,4.1,3.6,5.5,6C1364.2,555.6,1365,558.9,1364.9,562.1z M1391.6,390.1
		c-2.4-0.9-4.8-1.4-7.3-1.4c-2.8-0.1-5.5,0.8-7.7,2.4c-2,1.6-3.5,3.8-4.1,6.2v42.3h-17v-65.5h13.2l2,8.7h0.5c1.3-3,3.4-5.6,6-7.5
		c2.6-1.8,5.7-2.7,8.9-2.6c2.6,0.1,5.2,0.6,7.7,1.4L1391.6,390.1z M1325.4,389.8c-1.8-2.5-4.6-3.8-8.4-3.8c-4.4,0-7.7,1.3-9.8,4
		c-2.1,2.7-3.4,6.2-3.8,10.7h24.2C1327.9,395.9,1327.2,392.3,1325.4,389.8z M1236.3,527.9c-4.4,0-7.7,1.3-9.8,4
		c-2.1,2.7-3.4,6.2-3.8,10.7h24.2c0.3-4.7-0.4-8.3-2.1-10.9C1242.9,529.2,1240.1,527.9,1236.3,527.9z M1180.8,421.3
		c1,1.8,2.4,3.2,4.1,4.3c1.9,1.1,4,1.6,6.1,1.5c4.5,0,7.8-1.6,10-4.8c2.2-3.2,3.3-8.3,3.3-15.3c0-6-1-10.9-3-14.6
		c-2-3.7-5.4-5.6-10.2-5.6c-3.8-0.2-7.5,1.6-9.8,4.7c-2.4,3.1-3.5,8.3-3.5,15.4c0,2.7,0.2,5.4,0.8,8
		C1178.9,417.1,1179.7,419.3,1180.8,421.3z M1017.8,552.8c-2.2,0.1-4.5,0.5-6.6,1.2c-1.7,0.5-3.3,1.4-4.6,2.6
		c-1.1,1.2-1.8,2.7-1.7,4.3c-0.1,2.1,0.7,4.2,2.2,5.7c1.7,1.4,3.8,2.2,6,2c2.9,0.2,5.7-0.7,8.1-2.3c1.8-1.3,3.3-3,4.5-4.9V553
		C1023,552.7,1020.4,552.7,1017.8,552.8z M991.2,427.1c3.3,0,5.9-0.7,7.7-2.2c2-1.8,3.4-4.1,4.1-6.7v-29.5
		c-3.2-1.2-6.6-1.8-10.1-1.7c-4-0.2-7.9,1.7-10.2,4.9c-2.4,3.3-3.7,8.5-3.7,15.7c0,6.4,1.1,11.2,3.1,14.5
		C984.1,425.3,987.5,427.2,991.2,427.1z M878.1,527.9c-4.4,0-7.7,1.3-9.8,4c-2.1,2.7-3.4,6.2-3.8,10.7h24.2
		c0.3-4.7-0.4-8.3-2.2-10.9S881.9,527.9,878.1,527.9z M690.9,410.8c-2.2,0.1-4.5,0.5-6.6,1.2c-1.7,0.5-3.3,1.4-4.6,2.6
		c-1.1,1.2-1.8,2.7-1.7,4.3c-0.1,2.1,0.7,4.2,2.2,5.7c1.6,1.4,3.8,2.2,6,2c2.9,0.2,5.7-0.7,8.1-2.3c1.8-1.3,3.3-3,4.5-4.9V411
		C696.1,410.7,693.5,410.7,690.9,410.8z M657.2,528.7c-3.8-0.2-7.5,1.6-9.8,4.7c-2.4,3.1-3.5,8.3-3.5,15.4c0,2.7,0.2,5.4,0.8,8
		c0.4,2.2,1.2,4.4,2.4,6.4c1,1.8,2.4,3.2,4.1,4.3c1.9,1.1,4,1.6,6.1,1.5c4.5,0,7.8-1.6,10-4.8c2.2-3.2,3.3-8.3,3.3-15.3
		c0-6-1-10.9-3-14.6C665.4,530.6,662,528.7,657.2,528.7z M634.9,389.8c-1.8-2.5-4.6-3.8-8.4-3.8c-4.4,0-7.7,1.3-9.8,4
		c-2.1,2.7-3.4,6.2-3.8,10.7H637C637.4,395.9,636.7,392.3,634.9,389.8z M1201.2,392.3c-2-3.7-5.4-5.6-10.2-5.6
		c-3.8-0.2-7.5,1.6-9.8,4.7c-2.4,3.1-3.5,8.3-3.5,15.4c0,2.7,0.2,5.4,0.8,8c0.4,2.2,1.2,4.4,2.4,6.4c1,1.8,2.4,3.2,4.1,4.3
		c1.9,1.1,4,1.6,6.1,1.5c4.5,0,7.8-1.6,10-4.8c2.2-3.2,3.3-8.3,3.3-15.3C1204.2,400.9,1203.2,396,1201.2,392.3z M993,387
		c-4-0.2-7.9,1.7-10.2,4.9c-2.4,3.3-3.7,8.5-3.7,15.7c0,6.4,1.1,11.2,3.1,14.5c1.9,3.2,5.3,5.1,9,5c3.3,0,5.9-0.7,7.7-2.2
		c2-1.8,3.4-4.1,4.1-6.7v-29.5C999.8,387.5,996.4,386.9,993,387z M634.9,389.8c-1.8-2.5-4.6-3.8-8.4-3.8c-4.4,0-7.7,1.3-9.8,4
		c-2.1,2.7-3.4,6.2-3.8,10.7H637C637.4,395.9,636.7,392.3,634.9,389.8z M667.4,534.3c-2-3.7-5.4-5.6-10.2-5.6
		c-3.8-0.2-7.5,1.6-9.8,4.7c-2.4,3.1-3.5,8.3-3.5,15.4c0,2.7,0.2,5.4,0.8,8c0.4,2.2,1.2,4.4,2.4,6.4c1,1.8,2.4,3.2,4.1,4.3
		c1.9,1.1,4,1.6,6.1,1.5c4.5,0,7.8-1.6,10-4.8c2.2-3.2,3.3-8.3,3.3-15.3C670.4,542.9,669.4,538,667.4,534.3z M690.9,410.8
		c-2.2,0.1-4.5,0.5-6.6,1.2c-1.7,0.5-3.3,1.4-4.6,2.6c-1.1,1.2-1.8,2.7-1.7,4.3c-0.1,2.1,0.7,4.2,2.2,5.7c1.6,1.4,3.8,2.2,6,2
		c2.9,0.2,5.7-0.7,8.1-2.3c1.8-1.3,3.3-3,4.5-4.9V411C696.1,410.7,693.5,410.7,690.9,410.8z M886.5,531.8c-1.8-2.5-4.6-3.8-8.4-3.8
		c-4.4,0-7.7,1.3-9.8,4c-2.1,2.7-3.4,6.2-3.8,10.7h24.2C889,537.9,888.3,534.3,886.5,531.8z M1017.8,552.8c-2.2,0.1-4.5,0.5-6.6,1.2
		c-1.7,0.5-3.3,1.4-4.6,2.6c-1.1,1.2-1.8,2.7-1.7,4.3c-0.1,2.1,0.7,4.2,2.2,5.7c1.7,1.4,3.8,2.2,6,2c2.9,0.2,5.7-0.7,8.1-2.3
		c1.8-1.3,3.3-3,4.5-4.9V553C1023,552.7,1020.4,552.7,1017.8,552.8z M1244.7,531.8c-1.8-2.5-4.6-3.8-8.4-3.8c-4.4,0-7.7,1.3-9.8,4
		c-2.1,2.7-3.4,6.2-3.8,10.7h24.2C1247.2,537.9,1246.5,534.3,1244.7,531.8z M1325.4,389.8c-1.8-2.5-4.6-3.8-8.4-3.8
		c-4.4,0-7.7,1.3-9.8,4c-2.1,2.7-3.4,6.2-3.8,10.7h24.2C1327.9,395.9,1327.2,392.3,1325.4,389.8z M1325.4,389.8
		c-1.8-2.5-4.6-3.8-8.4-3.8c-4.4,0-7.7,1.3-9.8,4c-2.1,2.7-3.4,6.2-3.8,10.7h24.2C1327.9,395.9,1327.2,392.3,1325.4,389.8z
		 M1244.7,531.8c-1.8-2.5-4.6-3.8-8.4-3.8c-4.4,0-7.7,1.3-9.8,4c-2.1,2.7-3.4,6.2-3.8,10.7h24.2
		C1247.2,537.9,1246.5,534.3,1244.7,531.8z M1201.2,392.3c-2-3.7-5.4-5.6-10.2-5.6c-3.8-0.2-7.5,1.6-9.8,4.7
		c-2.4,3.1-3.5,8.3-3.5,15.4c0,2.7,0.2,5.4,0.8,8c0.4,2.2,1.2,4.4,2.4,6.4c1,1.8,2.4,3.2,4.1,4.3c1.9,1.1,4,1.6,6.1,1.5
		c4.5,0,7.8-1.6,10-4.8c2.2-3.2,3.3-8.3,3.3-15.3C1204.2,400.9,1203.2,396,1201.2,392.3z M1017.8,552.8c-2.2,0.1-4.5,0.5-6.6,1.2
		c-1.7,0.5-3.3,1.4-4.6,2.6c-1.1,1.2-1.8,2.7-1.7,4.3c-0.1,2.1,0.7,4.2,2.2,5.7c1.7,1.4,3.8,2.2,6,2c2.9,0.2,5.7-0.7,8.1-2.3
		c1.8-1.3,3.3-3,4.5-4.9V553C1023,552.7,1020.4,552.7,1017.8,552.8z M993,387c-4-0.2-7.9,1.7-10.2,4.9c-2.4,3.3-3.7,8.5-3.7,15.7
		c0,6.4,1.1,11.2,3.1,14.5c1.9,3.2,5.3,5.1,9,5c3.3,0,5.9-0.7,7.7-2.2c2-1.8,3.4-4.1,4.1-6.7v-29.5C999.8,387.5,996.4,386.9,993,387
		z M886.5,531.8c-1.8-2.5-4.6-3.8-8.4-3.8c-4.4,0-7.7,1.3-9.8,4c-2.1,2.7-3.4,6.2-3.8,10.7h24.2C889,537.9,888.3,534.3,886.5,531.8z
		 M690.9,410.8c-2.2,0.1-4.5,0.5-6.6,1.2c-1.7,0.5-3.3,1.4-4.6,2.6c-1.1,1.2-1.8,2.7-1.7,4.3c-0.1,2.1,0.7,4.2,2.2,5.7
		c1.6,1.4,3.8,2.2,6,2c2.9,0.2,5.7-0.7,8.1-2.3c1.8-1.3,3.3-3,4.5-4.9V411C696.1,410.7,693.5,410.7,690.9,410.8z M667.4,534.3
		c-2-3.7-5.4-5.6-10.2-5.6c-3.8-0.2-7.5,1.6-9.8,4.7c-2.4,3.1-3.5,8.3-3.5,15.4c0,2.7,0.2,5.4,0.8,8c0.4,2.2,1.2,4.4,2.4,6.4
		c1,1.8,2.4,3.2,4.1,4.3c1.9,1.1,4,1.6,6.1,1.5c4.5,0,7.8-1.6,10-4.8c2.2-3.2,3.3-8.3,3.3-15.3C670.4,542.9,669.4,538,667.4,534.3z
		 M634.9,389.8c-1.8-2.5-4.6-3.8-8.4-3.8c-4.4,0-7.7,1.3-9.8,4c-2.1,2.7-3.4,6.2-3.8,10.7H637C637.4,395.9,636.7,392.3,634.9,389.8z
		 M1201.2,392.3c-2-3.7-5.4-5.6-10.2-5.6c-3.8-0.2-7.5,1.6-9.8,4.7c-2.4,3.1-3.5,8.3-3.5,15.4c0,2.7,0.2,5.4,0.8,8
		c0.4,2.2,1.2,4.4,2.4,6.4c1,1.8,2.4,3.2,4.1,4.3c1.9,1.1,4,1.6,6.1,1.5c4.5,0,7.8-1.6,10-4.8c2.2-3.2,3.3-8.3,3.3-15.3
		C1204.2,400.9,1203.2,396,1201.2,392.3z M993,387c-4-0.2-7.9,1.7-10.2,4.9c-2.4,3.3-3.7,8.5-3.7,15.7c0,6.4,1.1,11.2,3.1,14.5
		c1.9,3.2,5.3,5.1,9,5c3.3,0,5.9-0.7,7.7-2.2c2-1.8,3.4-4.1,4.1-6.7v-29.5C999.8,387.5,996.4,386.9,993,387z M634.9,389.8
		c-1.8-2.5-4.6-3.8-8.4-3.8c-4.4,0-7.7,1.3-9.8,4c-2.1,2.7-3.4,6.2-3.8,10.7H637C637.4,395.9,636.7,392.3,634.9,389.8z M667.4,534.3
		c-2-3.7-5.4-5.6-10.2-5.6c-3.8-0.2-7.5,1.6-9.8,4.7c-2.4,3.1-3.5,8.3-3.5,15.4c0,2.7,0.2,5.4,0.8,8c0.4,2.2,1.2,4.4,2.4,6.4
		c1,1.8,2.4,3.2,4.1,4.3c1.9,1.1,4,1.6,6.1,1.5c4.5,0,7.8-1.6,10-4.8c2.2-3.2,3.3-8.3,3.3-15.3C670.4,542.9,669.4,538,667.4,534.3z
		 M690.9,410.8c-2.2,0.1-4.5,0.5-6.6,1.2c-1.7,0.5-3.3,1.4-4.6,2.6c-1.1,1.2-1.8,2.7-1.7,4.3c-0.1,2.1,0.7,4.2,2.2,5.7
		c1.6,1.4,3.8,2.2,6,2c2.9,0.2,5.7-0.7,8.1-2.3c1.8-1.3,3.3-3,4.5-4.9V411C696.1,410.7,693.5,410.7,690.9,410.8z M886.5,531.8
		c-1.8-2.5-4.6-3.8-8.4-3.8c-4.4,0-7.7,1.3-9.8,4c-2.1,2.7-3.4,6.2-3.8,10.7h24.2C889,537.9,888.3,534.3,886.5,531.8z M1017.8,552.8
		c-2.2,0.1-4.5,0.5-6.6,1.2c-1.7,0.5-3.3,1.4-4.6,2.6c-1.1,1.2-1.8,2.7-1.7,4.3c-0.1,2.1,0.7,4.2,2.2,5.7c1.7,1.4,3.8,2.2,6,2
		c2.9,0.2,5.7-0.7,8.1-2.3c1.8-1.3,3.3-3,4.5-4.9V553C1023,552.7,1020.4,552.7,1017.8,552.8z M1244.7,531.8
		c-1.8-2.5-4.6-3.8-8.4-3.8c-4.4,0-7.7,1.3-9.8,4c-2.1,2.7-3.4,6.2-3.8,10.7h24.2C1247.2,537.9,1246.5,534.3,1244.7,531.8z
		 M1325.4,389.8c-1.8-2.5-4.6-3.8-8.4-3.8c-4.4,0-7.7,1.3-9.8,4c-2.1,2.7-3.4,6.2-3.8,10.7h24.2
		C1327.9,395.9,1327.2,392.3,1325.4,389.8z M1325.4,389.8c-1.8-2.5-4.6-3.8-8.4-3.8c-4.4,0-7.7,1.3-9.8,4c-2.1,2.7-3.4,6.2-3.8,10.7
		h24.2C1327.9,395.9,1327.2,392.3,1325.4,389.8z M1244.7,531.8c-1.8-2.5-4.6-3.8-8.4-3.8c-4.4,0-7.7,1.3-9.8,4
		c-2.1,2.7-3.4,6.2-3.8,10.7h24.2C1247.2,537.9,1246.5,534.3,1244.7,531.8z M1201.2,392.3c-2-3.7-5.4-5.6-10.2-5.6
		c-3.8-0.2-7.5,1.6-9.8,4.7c-2.4,3.1-3.5,8.3-3.5,15.4c0,2.7,0.2,5.4,0.8,8c0.4,2.2,1.2,4.4,2.4,6.4c1,1.8,2.4,3.2,4.1,4.3
		c1.9,1.1,4,1.6,6.1,1.5c4.5,0,7.8-1.6,10-4.8c2.2-3.2,3.3-8.3,3.3-15.3C1204.2,400.9,1203.2,396,1201.2,392.3z M1017.8,552.8
		c-2.2,0.1-4.5,0.5-6.6,1.2c-1.7,0.5-3.3,1.4-4.6,2.6c-1.1,1.2-1.8,2.7-1.7,4.3c-0.1,2.1,0.7,4.2,2.2,5.7c1.7,1.4,3.8,2.2,6,2
		c2.9,0.2,5.7-0.7,8.1-2.3c1.8-1.3,3.3-3,4.5-4.9V553C1023,552.7,1020.4,552.7,1017.8,552.8z M993,387c-4-0.2-7.9,1.7-10.2,4.9
		c-2.4,3.3-3.7,8.5-3.7,15.7c0,6.4,1.1,11.2,3.1,14.5c1.9,3.2,5.3,5.1,9,5c3.3,0,5.9-0.7,7.7-2.2c2-1.8,3.4-4.1,4.1-6.7v-29.5
		C999.8,387.5,996.4,386.9,993,387z M886.5,531.8c-1.8-2.5-4.6-3.8-8.4-3.8c-4.4,0-7.7,1.3-9.8,4c-2.1,2.7-3.4,6.2-3.8,10.7h24.2
		C889,537.9,888.3,534.3,886.5,531.8z M690.9,410.8c-2.2,0.1-4.5,0.5-6.6,1.2c-1.7,0.5-3.3,1.4-4.6,2.6c-1.1,1.2-1.8,2.7-1.7,4.3
		c-0.1,2.1,0.7,4.2,2.2,5.7c1.6,1.4,3.8,2.2,6,2c2.9,0.2,5.7-0.7,8.1-2.3c1.8-1.3,3.3-3,4.5-4.9V411
		C696.1,410.7,693.5,410.7,690.9,410.8z M667.4,534.3c-2-3.7-5.4-5.6-10.2-5.6c-3.8-0.2-7.5,1.6-9.8,4.7c-2.4,3.1-3.5,8.3-3.5,15.4
		c0,2.7,0.2,5.4,0.8,8c0.4,2.2,1.2,4.4,2.4,6.4c1,1.8,2.4,3.2,4.1,4.3c1.9,1.1,4,1.6,6.1,1.5c4.5,0,7.8-1.6,10-4.8
		c2.2-3.2,3.3-8.3,3.3-15.3C670.4,542.9,669.4,538,667.4,534.3z M634.9,389.8c-1.8-2.5-4.6-3.8-8.4-3.8c-4.4,0-7.7,1.3-9.8,4
		c-2.1,2.7-3.4,6.2-3.8,10.7H637C637.4,395.9,636.7,392.3,634.9,389.8z M1201.2,392.3c-2-3.7-5.4-5.6-10.2-5.6
		c-3.8-0.2-7.5,1.6-9.8,4.7c-2.4,3.1-3.5,8.3-3.5,15.4c0,2.7,0.2,5.4,0.8,8c0.4,2.2,1.2,4.4,2.4,6.4c1,1.8,2.4,3.2,4.1,4.3
		c1.9,1.1,4,1.6,6.1,1.5c4.5,0,7.8-1.6,10-4.8c2.2-3.2,3.3-8.3,3.3-15.3C1204.2,400.9,1203.2,396,1201.2,392.3z M993,387
		c-4-0.2-7.9,1.7-10.2,4.9c-2.4,3.3-3.7,8.5-3.7,15.7c0,6.4,1.1,11.2,3.1,14.5c1.9,3.2,5.3,5.1,9,5c3.3,0,5.9-0.7,7.7-2.2
		c2-1.8,3.4-4.1,4.1-6.7v-29.5C999.8,387.5,996.4,386.9,993,387z M634.9,389.8c-1.8-2.5-4.6-3.8-8.4-3.8c-4.4,0-7.7,1.3-9.8,4
		c-2.1,2.7-3.4,6.2-3.8,10.7H637C637.4,395.9,636.7,392.3,634.9,389.8z M690.9,410.8c-2.2,0.1-4.5,0.5-6.6,1.2
		c-1.7,0.5-3.3,1.4-4.6,2.6c-1.1,1.2-1.8,2.7-1.7,4.3c-0.1,2.1,0.7,4.2,2.2,5.7c1.6,1.4,3.8,2.2,6,2c2.9,0.2,5.7-0.7,8.1-2.3
		c1.8-1.3,3.3-3,4.5-4.9V411C696.1,410.7,693.5,410.7,690.9,410.8z M886.5,531.8c-1.8-2.5-4.6-3.8-8.4-3.8c-4.4,0-7.7,1.3-9.8,4
		c-2.1,2.7-3.4,6.2-3.8,10.7h24.2C889,537.9,888.3,534.3,886.5,531.8z M1017.8,552.8c-2.2,0.1-4.5,0.5-6.6,1.2
		c-1.7,0.5-3.3,1.4-4.6,2.6c-1.1,1.2-1.8,2.7-1.7,4.3c-0.1,2.1,0.7,4.2,2.2,5.7c1.7,1.4,3.8,2.2,6,2c2.9,0.2,5.7-0.7,8.1-2.3
		c1.8-1.3,3.3-3,4.5-4.9V553C1023,552.7,1020.4,552.7,1017.8,552.8z M1244.7,531.8c-1.8-2.5-4.6-3.8-8.4-3.8c-4.4,0-7.7,1.3-9.8,4
		c-2.1,2.7-3.4,6.2-3.8,10.7h24.2C1247.2,537.9,1246.5,534.3,1244.7,531.8z M1325.4,389.8c-1.8-2.5-4.6-3.8-8.4-3.8
		c-4.4,0-7.7,1.3-9.8,4c-2.1,2.7-3.4,6.2-3.8,10.7h24.2C1327.9,395.9,1327.2,392.3,1325.4,389.8z M1325.4,389.8
		c-1.8-2.5-4.6-3.8-8.4-3.8c-4.4,0-7.7,1.3-9.8,4c-2.1,2.7-3.4,6.2-3.8,10.7h24.2C1327.9,395.9,1327.2,392.3,1325.4,389.8z
		 M1244.7,531.8c-1.8-2.5-4.6-3.8-8.4-3.8c-4.4,0-7.7,1.3-9.8,4c-2.1,2.7-3.4,6.2-3.8,10.7h24.2
		C1247.2,537.9,1246.5,534.3,1244.7,531.8z M1201.2,392.3c-2-3.7-5.4-5.6-10.2-5.6c-3.8-0.2-7.5,1.6-9.8,4.7
		c-2.4,3.1-3.5,8.3-3.5,15.4c0,2.7,0.2,5.4,0.8,8c0.4,2.2,1.2,4.4,2.4,6.4c1,1.8,2.4,3.2,4.1,4.3c1.9,1.1,4,1.6,6.1,1.5
		c4.5,0,7.8-1.6,10-4.8c2.2-3.2,3.3-8.3,3.3-15.3C1204.2,400.9,1203.2,396,1201.2,392.3z M1017.8,552.8c-2.2,0.1-4.5,0.5-6.6,1.2
		c-1.7,0.5-3.3,1.4-4.6,2.6c-1.1,1.2-1.8,2.7-1.7,4.3c-0.1,2.1,0.7,4.2,2.2,5.7c1.7,1.4,3.8,2.2,6,2c2.9,0.2,5.7-0.7,8.1-2.3
		c1.8-1.3,3.3-3,4.5-4.9V553C1023,552.7,1020.4,552.7,1017.8,552.8z M993,387c-4-0.2-7.9,1.7-10.2,4.9c-2.4,3.3-3.7,8.5-3.7,15.7
		c0,6.4,1.1,11.2,3.1,14.5c1.9,3.2,5.3,5.1,9,5c3.3,0,5.9-0.7,7.7-2.2c2-1.8,3.4-4.1,4.1-6.7v-29.5C999.8,387.5,996.4,386.9,993,387
		z M886.5,531.8c-1.8-2.5-4.6-3.8-8.4-3.8c-4.4,0-7.7,1.3-9.8,4c-2.1,2.7-3.4,6.2-3.8,10.7h24.2C889,537.9,888.3,534.3,886.5,531.8z
		 M690.9,410.8c-2.2,0.1-4.5,0.5-6.6,1.2c-1.7,0.5-3.3,1.4-4.6,2.6c-1.1,1.2-1.8,2.7-1.7,4.3c-0.1,2.1,0.7,4.2,2.2,5.7
		c1.6,1.4,3.8,2.2,6,2c2.9,0.2,5.7-0.7,8.1-2.3c1.8-1.3,3.3-3,4.5-4.9V411C696.1,410.7,693.5,410.7,690.9,410.8z M634.9,389.8
		c-1.8-2.5-4.6-3.8-8.4-3.8c-4.4,0-7.7,1.3-9.8,4c-2.1,2.7-3.4,6.2-3.8,10.7H637C637.4,395.9,636.7,392.3,634.9,389.8z
		 M1201.2,392.3c-2-3.7-5.4-5.6-10.2-5.6c-3.8-0.2-7.5,1.6-9.8,4.7c-2.4,3.1-3.5,8.3-3.5,15.4c0,2.7,0.2,5.4,0.8,8
		c0.4,2.2,1.2,4.4,2.4,6.4c1,1.8,2.4,3.2,4.1,4.3c1.9,1.1,4,1.6,6.1,1.5c4.5,0,7.8-1.6,10-4.8c2.2-3.2,3.3-8.3,3.3-15.3
		C1204.2,400.9,1203.2,396,1201.2,392.3z M993,387c-4-0.2-7.9,1.7-10.2,4.9c-2.4,3.3-3.7,8.5-3.7,15.7c0,6.4,1.1,11.2,3.1,14.5
		c1.9,3.2,5.3,5.1,9,5c3.3,0,5.9-0.7,7.7-2.2c2-1.8,3.4-4.1,4.1-6.7v-29.5C999.8,387.5,996.4,386.9,993,387z M634.9,389.8
		c-1.8-2.5-4.6-3.8-8.4-3.8c-4.4,0-7.7,1.3-9.8,4c-2.1,2.7-3.4,6.2-3.8,10.7H637C637.4,395.9,636.7,392.3,634.9,389.8z M690.9,410.8
		c-2.2,0.1-4.5,0.5-6.6,1.2c-1.7,0.5-3.3,1.4-4.6,2.6c-1.1,1.2-1.8,2.7-1.7,4.3c-0.1,2.1,0.7,4.2,2.2,5.7c1.6,1.4,3.8,2.2,6,2
		c2.9,0.2,5.7-0.7,8.1-2.3c1.8-1.3,3.3-3,4.5-4.9V411C696.1,410.7,693.5,410.7,690.9,410.8z M886.5,531.8c-1.8-2.5-4.6-3.8-8.4-3.8
		c-4.4,0-7.7,1.3-9.8,4c-2.1,2.7-3.4,6.2-3.8,10.7h24.2C889,537.9,888.3,534.3,886.5,531.8z M1017.8,552.8c-2.2,0.1-4.5,0.5-6.6,1.2
		c-1.7,0.5-3.3,1.4-4.6,2.6c-1.1,1.2-1.8,2.7-1.7,4.3c-0.1,2.1,0.7,4.2,2.2,5.7c1.7,1.4,3.8,2.2,6,2c2.9,0.2,5.7-0.7,8.1-2.3
		c1.8-1.3,3.3-3,4.5-4.9V553C1023,552.7,1020.4,552.7,1017.8,552.8z M1244.7,531.8c-1.8-2.5-4.6-3.8-8.4-3.8c-4.4,0-7.7,1.3-9.8,4
		c-2.1,2.7-3.4,6.2-3.8,10.7h24.2C1247.2,537.9,1246.5,534.3,1244.7,531.8z M1325.4,389.8c-1.8-2.5-4.6-3.8-8.4-3.8
		c-4.4,0-7.7,1.3-9.8,4c-2.1,2.7-3.4,6.2-3.8,10.7h24.2C1327.9,395.9,1327.2,392.3,1325.4,389.8z M1325.4,389.8
		c-1.8-2.5-4.6-3.8-8.4-3.8c-4.4,0-7.7,1.3-9.8,4c-2.1,2.7-3.4,6.2-3.8,10.7h24.2C1327.9,395.9,1327.2,392.3,1325.4,389.8z
		 M1244.7,531.8c-1.8-2.5-4.6-3.8-8.4-3.8c-4.4,0-7.7,1.3-9.8,4c-2.1,2.7-3.4,6.2-3.8,10.7h24.2
		C1247.2,537.9,1246.5,534.3,1244.7,531.8z M1201.2,392.3c-2-3.7-5.4-5.6-10.2-5.6c-3.8-0.2-7.5,1.6-9.8,4.7
		c-2.4,3.1-3.5,8.3-3.5,15.4c0,2.7,0.2,5.4,0.8,8c0.4,2.2,1.2,4.4,2.4,6.4c1,1.8,2.4,3.2,4.1,4.3c1.9,1.1,4,1.6,6.1,1.5
		c4.5,0,7.8-1.6,10-4.8c2.2-3.2,3.3-8.3,3.3-15.3C1204.2,400.9,1203.2,396,1201.2,392.3z M1017.8,552.8c-2.2,0.1-4.5,0.5-6.6,1.2
		c-1.7,0.5-3.3,1.4-4.6,2.6c-1.1,1.2-1.8,2.7-1.7,4.3c-0.1,2.1,0.7,4.2,2.2,5.7c1.7,1.4,3.8,2.2,6,2c2.9,0.2,5.7-0.7,8.1-2.3
		c1.8-1.3,3.3-3,4.5-4.9V553C1023,552.7,1020.4,552.7,1017.8,552.8z M993,387c-4-0.2-7.9,1.7-10.2,4.9c-2.4,3.3-3.7,8.5-3.7,15.7
		c0,6.4,1.1,11.2,3.1,14.5c1.9,3.2,5.3,5.1,9,5c3.3,0,5.9-0.7,7.7-2.2c2-1.8,3.4-4.1,4.1-6.7v-29.5C999.8,387.5,996.4,386.9,993,387
		z M886.5,531.8c-1.8-2.5-4.6-3.8-8.4-3.8c-4.4,0-7.7,1.3-9.8,4c-2.1,2.7-3.4,6.2-3.8,10.7h24.2C889,537.9,888.3,534.3,886.5,531.8z
		 M690.9,410.8c-2.2,0.1-4.5,0.5-6.6,1.2c-1.7,0.5-3.3,1.4-4.6,2.6c-1.1,1.2-1.8,2.7-1.7,4.3c-0.1,2.1,0.7,4.2,2.2,5.7
		c1.6,1.4,3.8,2.2,6,2c2.9,0.2,5.7-0.7,8.1-2.3c1.8-1.3,3.3-3,4.5-4.9V411C696.1,410.7,693.5,410.7,690.9,410.8z M634.9,389.8
		c-1.8-2.5-4.6-3.8-8.4-3.8c-4.4,0-7.7,1.3-9.8,4c-2.1,2.7-3.4,6.2-3.8,10.7H637C637.4,395.9,636.7,392.3,634.9,389.8z
		 M1201.2,392.3c-2-3.7-5.4-5.6-10.2-5.6c-3.8-0.2-7.5,1.6-9.8,4.7c-2.4,3.1-3.5,8.3-3.5,15.4c0,2.7,0.2,5.4,0.8,8
		c0.4,2.2,1.2,4.4,2.4,6.4c1,1.8,2.4,3.2,4.1,4.3c1.9,1.1,4,1.6,6.1,1.5c4.5,0,7.8-1.6,10-4.8c2.2-3.2,3.3-8.3,3.3-15.3
		C1204.2,400.9,1203.2,396,1201.2,392.3z M993,387c-4-0.2-7.9,1.7-10.2,4.9c-2.4,3.3-3.7,8.5-3.7,15.7c0,6.4,1.1,11.2,3.1,14.5
		c1.9,3.2,5.3,5.1,9,5c3.3,0,5.9-0.7,7.7-2.2c2-1.8,3.4-4.1,4.1-6.7v-29.5C999.8,387.5,996.4,386.9,993,387z M634.9,389.8
		c-1.8-2.5-4.6-3.8-8.4-3.8c-4.4,0-7.7,1.3-9.8,4c-2.1,2.7-3.4,6.2-3.8,10.7H637C637.4,395.9,636.7,392.3,634.9,389.8z M690.9,410.8
		c-2.2,0.1-4.5,0.5-6.6,1.2c-1.7,0.5-3.3,1.4-4.6,2.6c-1.1,1.2-1.8,2.7-1.7,4.3c-0.1,2.1,0.7,4.2,2.2,5.7c1.6,1.4,3.8,2.2,6,2
		c2.9,0.2,5.7-0.7,8.1-2.3c1.8-1.3,3.3-3,4.5-4.9V411C696.1,410.7,693.5,410.7,690.9,410.8z M1017.8,552.8c-2.2,0.1-4.5,0.5-6.6,1.2
		c-1.7,0.5-3.3,1.4-4.6,2.6c-1.1,1.2-1.8,2.7-1.7,4.3c-0.1,2.1,0.7,4.2,2.2,5.7c1.7,1.4,3.8,2.2,6,2c2.9,0.2,5.7-0.7,8.1-2.3
		c1.8-1.3,3.3-3,4.5-4.9V553C1023,552.7,1020.4,552.7,1017.8,552.8z M1244.7,531.8c-1.8-2.5-4.6-3.8-8.4-3.8c-4.4,0-7.7,1.3-9.8,4
		c-2.1,2.7-3.4,6.2-3.8,10.7h24.2C1247.2,537.9,1246.5,534.3,1244.7,531.8z M1325.4,389.8c-1.8-2.5-4.6-3.8-8.4-3.8
		c-4.4,0-7.7,1.3-9.8,4c-2.1,2.7-3.4,6.2-3.8,10.7h24.2C1327.9,395.9,1327.2,392.3,1325.4,389.8z M1325.4,389.8
		c-1.8-2.5-4.6-3.8-8.4-3.8c-4.4,0-7.7,1.3-9.8,4c-2.1,2.7-3.4,6.2-3.8,10.7h24.2C1327.9,395.9,1327.2,392.3,1325.4,389.8z
		 M1244.7,531.8c-1.8-2.5-4.6-3.8-8.4-3.8c-4.4,0-7.7,1.3-9.8,4c-2.1,2.7-3.4,6.2-3.8,10.7h24.2
		C1247.2,537.9,1246.5,534.3,1244.7,531.8z M1201.2,392.3c-2-3.7-5.4-5.6-10.2-5.6c-3.8-0.2-7.5,1.6-9.8,4.7
		c-2.4,3.1-3.5,8.3-3.5,15.4c0,2.7,0.2,5.4,0.8,8c0.4,2.2,1.2,4.4,2.4,6.4c1,1.8,2.4,3.2,4.1,4.3c1.9,1.1,4,1.6,6.1,1.5
		c4.5,0,7.8-1.6,10-4.8c2.2-3.2,3.3-8.3,3.3-15.3C1204.2,400.9,1203.2,396,1201.2,392.3z M1017.8,552.8c-2.2,0.1-4.5,0.5-6.6,1.2
		c-1.7,0.5-3.3,1.4-4.6,2.6c-1.1,1.2-1.8,2.7-1.7,4.3c-0.1,2.1,0.7,4.2,2.2,5.7c1.7,1.4,3.8,2.2,6,2c2.9,0.2,5.7-0.7,8.1-2.3
		c1.8-1.3,3.3-3,4.5-4.9V553C1023,552.7,1020.4,552.7,1017.8,552.8z M993,387c-4-0.2-7.9,1.7-10.2,4.9c-2.4,3.3-3.7,8.5-3.7,15.7
		c0,6.4,1.1,11.2,3.1,14.5c1.9,3.2,5.3,5.1,9,5c3.3,0,5.9-0.7,7.7-2.2c2-1.8,3.4-4.1,4.1-6.7v-29.5C999.8,387.5,996.4,386.9,993,387
		z M690.9,410.8c-2.2,0.1-4.5,0.5-6.6,1.2c-1.7,0.5-3.3,1.4-4.6,2.6c-1.1,1.2-1.8,2.7-1.7,4.3c-0.1,2.1,0.7,4.2,2.2,5.7
		c1.6,1.4,3.8,2.2,6,2c2.9,0.2,5.7-0.7,8.1-2.3c1.8-1.3,3.3-3,4.5-4.9V411C696.1,410.7,693.5,410.7,690.9,410.8z M634.9,389.8
		c-1.8-2.5-4.6-3.8-8.4-3.8c-4.4,0-7.7,1.3-9.8,4c-2.1,2.7-3.4,6.2-3.8,10.7H637C637.4,395.9,636.7,392.3,634.9,389.8z
		 M1201.2,392.3c-2-3.7-5.4-5.6-10.2-5.6c-3.8-0.2-7.5,1.6-9.8,4.7c-2.4,3.1-3.5,8.3-3.5,15.4c0,2.7,0.2,5.4,0.8,8
		c0.4,2.2,1.2,4.4,2.4,6.4c1,1.8,2.4,3.2,4.1,4.3c1.9,1.1,4,1.6,6.1,1.5c4.5,0,7.8-1.6,10-4.8c2.2-3.2,3.3-8.3,3.3-15.3
		C1204.2,400.9,1203.2,396,1201.2,392.3z M993,387c-4-0.2-7.9,1.7-10.2,4.9c-2.4,3.3-3.7,8.5-3.7,15.7c0,6.4,1.1,11.2,3.1,14.5
		c1.9,3.2,5.3,5.1,9,5c3.3,0,5.9-0.7,7.7-2.2c2-1.8,3.4-4.1,4.1-6.7v-29.5C999.8,387.5,996.4,386.9,993,387z M634.9,389.8
		c-1.8-2.5-4.6-3.8-8.4-3.8c-4.4,0-7.7,1.3-9.8,4c-2.1,2.7-3.4,6.2-3.8,10.7H637C637.4,395.9,636.7,392.3,634.9,389.8z M690.9,410.8
		c-2.2,0.1-4.5,0.5-6.6,1.2c-1.7,0.5-3.3,1.4-4.6,2.6c-1.1,1.2-1.8,2.7-1.7,4.3c-0.1,2.1,0.7,4.2,2.2,5.7c1.6,1.4,3.8,2.2,6,2
		c2.9,0.2,5.7-0.7,8.1-2.3c1.8-1.3,3.3-3,4.5-4.9V411C696.1,410.7,693.5,410.7,690.9,410.8z M1244.7,531.8c-1.8-2.5-4.6-3.8-8.4-3.8
		c-4.4,0-7.7,1.3-9.8,4c-2.1,2.7-3.4,6.2-3.8,10.7h24.2C1247.2,537.9,1246.5,534.3,1244.7,531.8z M1325.4,389.8
		c-1.8-2.5-4.6-3.8-8.4-3.8c-4.4,0-7.7,1.3-9.8,4c-2.1,2.7-3.4,6.2-3.8,10.7h24.2C1327.9,395.9,1327.2,392.3,1325.4,389.8z
		 M1325.4,389.8c-1.8-2.5-4.6-3.8-8.4-3.8c-4.4,0-7.7,1.3-9.8,4c-2.1,2.7-3.4,6.2-3.8,10.7h24.2
		C1327.9,395.9,1327.2,392.3,1325.4,389.8z M1244.7,531.8c-1.8-2.5-4.6-3.8-8.4-3.8c-4.4,0-7.7,1.3-9.8,4c-2.1,2.7-3.4,6.2-3.8,10.7
		h24.2C1247.2,537.9,1246.5,534.3,1244.7,531.8z M1201.2,392.3c-2-3.7-5.4-5.6-10.2-5.6c-3.8-0.2-7.5,1.6-9.8,4.7
		c-2.4,3.1-3.5,8.3-3.5,15.4c0,2.7,0.2,5.4,0.8,8c0.4,2.2,1.2,4.4,2.4,6.4c1,1.8,2.4,3.2,4.1,4.3c1.9,1.1,4,1.6,6.1,1.5
		c4.5,0,7.8-1.6,10-4.8c2.2-3.2,3.3-8.3,3.3-15.3C1204.2,400.9,1203.2,396,1201.2,392.3z M993,387c-4-0.2-7.9,1.7-10.2,4.9
		c-2.4,3.3-3.7,8.5-3.7,15.7c0,6.4,1.1,11.2,3.1,14.5c1.9,3.2,5.3,5.1,9,5c3.3,0,5.9-0.7,7.7-2.2c2-1.8,3.4-4.1,4.1-6.7v-29.5
		C999.8,387.5,996.4,386.9,993,387z M690.9,410.8c-2.2,0.1-4.5,0.5-6.6,1.2c-1.7,0.5-3.3,1.4-4.6,2.6c-1.1,1.2-1.8,2.7-1.7,4.3
		c-0.1,2.1,0.7,4.2,2.2,5.7c1.6,1.4,3.8,2.2,6,2c2.9,0.2,5.7-0.7,8.1-2.3c1.8-1.3,3.3-3,4.5-4.9V411
		C696.1,410.7,693.5,410.7,690.9,410.8z M634.9,389.8c-1.8-2.5-4.6-3.8-8.4-3.8c-4.4,0-7.7,1.3-9.8,4c-2.1,2.7-3.4,6.2-3.8,10.7H637
		C637.4,395.9,636.7,392.3,634.9,389.8z M1201.2,392.3c-2-3.7-5.4-5.6-10.2-5.6c-3.8-0.2-7.5,1.6-9.8,4.7c-2.4,3.1-3.5,8.3-3.5,15.4
		c0,2.7,0.2,5.4,0.8,8c0.4,2.2,1.2,4.4,2.4,6.4c1,1.8,2.4,3.2,4.1,4.3c1.9,1.1,4,1.6,6.1,1.5c4.5,0,7.8-1.6,10-4.8
		c2.2-3.2,3.3-8.3,3.3-15.3C1204.2,400.9,1203.2,396,1201.2,392.3z M993,387c-4-0.2-7.9,1.7-10.2,4.9c-2.4,3.3-3.7,8.5-3.7,15.7
		c0,6.4,1.1,11.2,3.1,14.5c1.9,3.2,5.3,5.1,9,5c3.3,0,5.9-0.7,7.7-2.2c2-1.8,3.4-4.1,4.1-6.7v-29.5C999.8,387.5,996.4,386.9,993,387
		z M634.9,389.8c-1.8-2.5-4.6-3.8-8.4-3.8c-4.4,0-7.7,1.3-9.8,4c-2.1,2.7-3.4,6.2-3.8,10.7H637C637.4,395.9,636.7,392.3,634.9,389.8
		z M690.9,410.8c-2.2,0.1-4.5,0.5-6.6,1.2c-1.7,0.5-3.3,1.4-4.6,2.6c-1.1,1.2-1.8,2.7-1.7,4.3c-0.1,2.1,0.7,4.2,2.2,5.7
		c1.6,1.4,3.8,2.2,6,2c2.9,0.2,5.7-0.7,8.1-2.3c1.8-1.3,3.3-3,4.5-4.9V411C696.1,410.7,693.5,410.7,690.9,410.8z M1325.4,389.8
		c-1.8-2.5-4.6-3.8-8.4-3.8c-4.4,0-7.7,1.3-9.8,4c-2.1,2.7-3.4,6.2-3.8,10.7h24.2C1327.9,395.9,1327.2,392.3,1325.4,389.8z
		 M1325.4,389.8c-1.8-2.5-4.6-3.8-8.4-3.8c-4.4,0-7.7,1.3-9.8,4c-2.1,2.7-3.4,6.2-3.8,10.7h24.2
		C1327.9,395.9,1327.2,392.3,1325.4,389.8z M1201.2,392.3c-2-3.7-5.4-5.6-10.2-5.6c-3.8-0.2-7.5,1.6-9.8,4.7
		c-2.4,3.1-3.5,8.3-3.5,15.4c0,2.7,0.2,5.4,0.8,8c0.4,2.2,1.2,4.4,2.4,6.4c1,1.8,2.4,3.2,4.1,4.3c1.9,1.1,4,1.6,6.1,1.5
		c4.5,0,7.8-1.6,10-4.8c2.2-3.2,3.3-8.3,3.3-15.3C1204.2,400.9,1203.2,396,1201.2,392.3z M993,387c-4-0.2-7.9,1.7-10.2,4.9
		c-2.4,3.3-3.7,8.5-3.7,15.7c0,6.4,1.1,11.2,3.1,14.5c1.9,3.2,5.3,5.1,9,5c3.3,0,5.9-0.7,7.7-2.2c2-1.8,3.4-4.1,4.1-6.7v-29.5
		C999.8,387.5,996.4,386.9,993,387z M690.9,410.8c-2.2,0.1-4.5,0.5-6.6,1.2c-1.7,0.5-3.3,1.4-4.6,2.6c-1.1,1.2-1.8,2.7-1.7,4.3
		c-0.1,2.1,0.7,4.2,2.2,5.7c1.6,1.4,3.8,2.2,6,2c2.9,0.2,5.7-0.7,8.1-2.3c1.8-1.3,3.3-3,4.5-4.9V411
		C696.1,410.7,693.5,410.7,690.9,410.8z M634.9,389.8c-1.8-2.5-4.6-3.8-8.4-3.8c-4.4,0-7.7,1.3-9.8,4c-2.1,2.7-3.4,6.2-3.8,10.7H637
		C637.4,395.9,636.7,392.3,634.9,389.8z M1201.2,392.3c-2-3.7-5.4-5.6-10.2-5.6c-3.8-0.2-7.5,1.6-9.8,4.7c-2.4,3.1-3.5,8.3-3.5,15.4
		c0,2.7,0.2,5.4,0.8,8c0.4,2.2,1.2,4.4,2.4,6.4c1,1.8,2.4,3.2,4.1,4.3c1.9,1.1,4,1.6,6.1,1.5c4.5,0,7.8-1.6,10-4.8
		c2.2-3.2,3.3-8.3,3.3-15.3C1204.2,400.9,1203.2,396,1201.2,392.3z M993,387c-4-0.2-7.9,1.7-10.2,4.9c-2.4,3.3-3.7,8.5-3.7,15.7
		c0,6.4,1.1,11.2,3.1,14.5c1.9,3.2,5.3,5.1,9,5c3.3,0,5.9-0.7,7.7-2.2c2-1.8,3.4-4.1,4.1-6.7v-29.5C999.8,387.5,996.4,386.9,993,387
		z M634.9,389.8c-1.8-2.5-4.6-3.8-8.4-3.8c-4.4,0-7.7,1.3-9.8,4c-2.1,2.7-3.4,6.2-3.8,10.7H637C637.4,395.9,636.7,392.3,634.9,389.8
		z M690.9,410.8c-2.2,0.1-4.5,0.5-6.6,1.2c-1.7,0.5-3.3,1.4-4.6,2.6c-1.1,1.2-1.8,2.7-1.7,4.3c-0.1,2.1,0.7,4.2,2.2,5.7
		c1.6,1.4,3.8,2.2,6,2c2.9,0.2,5.7-0.7,8.1-2.3c1.8-1.3,3.3-3,4.5-4.9V411C696.1,410.7,693.5,410.7,690.9,410.8z M1325.4,389.8
		c-1.8-2.5-4.6-3.8-8.4-3.8c-4.4,0-7.7,1.3-9.8,4c-2.1,2.7-3.4,6.2-3.8,10.7h24.2C1327.9,395.9,1327.2,392.3,1325.4,389.8z
		 M1325.4,389.8c-1.8-2.5-4.6-3.8-8.4-3.8c-4.4,0-7.7,1.3-9.8,4c-2.1,2.7-3.4,6.2-3.8,10.7h24.2
		C1327.9,395.9,1327.2,392.3,1325.4,389.8z M1201.2,392.3c-2-3.7-5.4-5.6-10.2-5.6c-3.8-0.2-7.5,1.6-9.8,4.7
		c-2.4,3.1-3.5,8.3-3.5,15.4c0,2.7,0.2,5.4,0.8,8c0.4,2.2,1.2,4.4,2.4,6.4c1,1.8,2.4,3.2,4.1,4.3c1.9,1.1,4,1.6,6.1,1.5
		c4.5,0,7.8-1.6,10-4.8c2.2-3.2,3.3-8.3,3.3-15.3C1204.2,400.9,1203.2,396,1201.2,392.3z M993,387c-4-0.2-7.9,1.7-10.2,4.9
		c-2.4,3.3-3.7,8.5-3.7,15.7c0,6.4,1.1,11.2,3.1,14.5c1.9,3.2,5.3,5.1,9,5c3.3,0,5.9-0.7,7.7-2.2c2-1.8,3.4-4.1,4.1-6.7v-29.5
		C999.8,387.5,996.4,386.9,993,387z M690.9,410.8c-2.2,0.1-4.5,0.5-6.6,1.2c-1.7,0.5-3.3,1.4-4.6,2.6c-1.1,1.2-1.8,2.7-1.7,4.3
		c-0.1,2.1,0.7,4.2,2.2,5.7c1.6,1.4,3.8,2.2,6,2c2.9,0.2,5.7-0.7,8.1-2.3c1.8-1.3,3.3-3,4.5-4.9V411
		C696.1,410.7,693.5,410.7,690.9,410.8z M634.9,389.8c-1.8-2.5-4.6-3.8-8.4-3.8c-4.4,0-7.7,1.3-9.8,4c-2.1,2.7-3.4,6.2-3.8,10.7H637
		C637.4,395.9,636.7,392.3,634.9,389.8z M1201.2,392.3c-2-3.7-5.4-5.6-10.2-5.6c-3.8-0.2-7.5,1.6-9.8,4.7c-2.4,3.1-3.5,8.3-3.5,15.4
		c0,2.7,0.2,5.4,0.8,8c0.4,2.2,1.2,4.4,2.4,6.4c1,1.8,2.4,3.2,4.1,4.3c1.9,1.1,4,1.6,6.1,1.5c4.5,0,7.8-1.6,10-4.8
		c2.2-3.2,3.3-8.3,3.3-15.3C1204.2,400.9,1203.2,396,1201.2,392.3z M993,387c-4-0.2-7.9,1.7-10.2,4.9c-2.4,3.3-3.7,8.5-3.7,15.7
		c0,6.4,1.1,11.2,3.1,14.5c1.9,3.2,5.3,5.1,9,5c3.3,0,5.9-0.7,7.7-2.2c2-1.8,3.4-4.1,4.1-6.7v-29.5C999.8,387.5,996.4,386.9,993,387
		z M634.9,389.8c-1.8-2.5-4.6-3.8-8.4-3.8c-4.4,0-7.7,1.3-9.8,4c-2.1,2.7-3.4,6.2-3.8,10.7H637C637.4,395.9,636.7,392.3,634.9,389.8
		z M690.9,410.8c-2.2,0.1-4.5,0.5-6.6,1.2c-1.7,0.5-3.3,1.4-4.6,2.6c-1.1,1.2-1.8,2.7-1.7,4.3c-0.1,2.1,0.7,4.2,2.2,5.7
		c1.6,1.4,3.8,2.2,6,2c2.9,0.2,5.7-0.7,8.1-2.3c1.8-1.3,3.3-3,4.5-4.9V411C696.1,410.7,693.5,410.7,690.9,410.8z M1201.2,392.3
		c-2-3.7-5.4-5.6-10.2-5.6c-3.8-0.2-7.5,1.6-9.8,4.7c-2.4,3.1-3.5,8.3-3.5,15.4c0,2.7,0.2,5.4,0.8,8c0.4,2.2,1.2,4.4,2.4,6.4
		c1,1.8,2.4,3.2,4.1,4.3c1.9,1.1,4,1.6,6.1,1.5c4.5,0,7.8-1.6,10-4.8c2.2-3.2,3.3-8.3,3.3-15.3
		C1204.2,400.9,1203.2,396,1201.2,392.3z M993,387c-4-0.2-7.9,1.7-10.2,4.9c-2.4,3.3-3.7,8.5-3.7,15.7c0,6.4,1.1,11.2,3.1,14.5
		c1.9,3.2,5.3,5.1,9,5c3.3,0,5.9-0.7,7.7-2.2c2-1.8,3.4-4.1,4.1-6.7v-29.5C999.8,387.5,996.4,386.9,993,387z M690.9,410.8
		c-2.2,0.1-4.5,0.5-6.6,1.2c-1.7,0.5-3.3,1.4-4.6,2.6c-1.1,1.2-1.8,2.7-1.7,4.3c-0.1,2.1,0.7,4.2,2.2,5.7c1.6,1.4,3.8,2.2,6,2
		c2.9,0.2,5.7-0.7,8.1-2.3c1.8-1.3,3.3-3,4.5-4.9V411C696.1,410.7,693.5,410.7,690.9,410.8z M634.9,389.8c-1.8-2.5-4.6-3.8-8.4-3.8
		c-4.4,0-7.7,1.3-9.8,4c-2.1,2.7-3.4,6.2-3.8,10.7H637C637.4,395.9,636.7,392.3,634.9,389.8z M993,387c-4-0.2-7.9,1.7-10.2,4.9
		c-2.4,3.3-3.7,8.5-3.7,15.7c0,6.4,1.1,11.2,3.1,14.5c1.9,3.2,5.3,5.1,9,5c3.3,0,5.9-0.7,7.7-2.2c2-1.8,3.4-4.1,4.1-6.7v-29.5
		C999.8,387.5,996.4,386.9,993,387z M634.9,389.8c-1.8-2.5-4.6-3.8-8.4-3.8c-4.4,0-7.7,1.3-9.8,4c-2.1,2.7-3.4,6.2-3.8,10.7H637
		C637.4,395.9,636.7,392.3,634.9,389.8z M690.9,410.8c-2.2,0.1-4.5,0.5-6.6,1.2c-1.7,0.5-3.3,1.4-4.6,2.6c-1.1,1.2-1.8,2.7-1.7,4.3
		c-0.1,2.1,0.7,4.2,2.2,5.7c1.6,1.4,3.8,2.2,6,2c2.9,0.2,5.7-0.7,8.1-2.3c1.8-1.3,3.3-3,4.5-4.9V411
		C696.1,410.7,693.5,410.7,690.9,410.8z M993,387c-4-0.2-7.9,1.7-10.2,4.9c-2.4,3.3-3.7,8.5-3.7,15.7c0,6.4,1.1,11.2,3.1,14.5
		c1.9,3.2,5.3,5.1,9,5c3.3,0,5.9-0.7,7.7-2.2c2-1.8,3.4-4.1,4.1-6.7v-29.5C999.8,387.5,996.4,386.9,993,387z M690.9,410.8
		c-2.2,0.1-4.5,0.5-6.6,1.2c-1.7,0.5-3.3,1.4-4.6,2.6c-1.1,1.2-1.8,2.7-1.7,4.3c-0.1,2.1,0.7,4.2,2.2,5.7c1.6,1.4,3.8,2.2,6,2
		c2.9,0.2,5.7-0.7,8.1-2.3c1.8-1.3,3.3-3,4.5-4.9V411C696.1,410.7,693.5,410.7,690.9,410.8z M634.9,389.8c-1.8-2.5-4.6-3.8-8.4-3.8
		c-4.4,0-7.7,1.3-9.8,4c-2.1,2.7-3.4,6.2-3.8,10.7H637C637.4,395.9,636.7,392.3,634.9,389.8z M634.9,389.8c-1.8-2.5-4.6-3.8-8.4-3.8
		c-4.4,0-7.7,1.3-9.8,4c-2.1,2.7-3.4,6.2-3.8,10.7H637C637.4,395.9,636.7,392.3,634.9,389.8z M690.9,410.8c-2.2,0.1-4.5,0.5-6.6,1.2
		c-1.7,0.5-3.3,1.4-4.6,2.6c-1.1,1.2-1.8,2.7-1.7,4.3c-0.1,2.1,0.7,4.2,2.2,5.7c1.6,1.4,3.8,2.2,6,2c2.9,0.2,5.7-0.7,8.1-2.3
		c1.8-1.3,3.3-3,4.5-4.9V411C696.1,410.7,693.5,410.7,690.9,410.8z M690.9,410.8c-2.2,0.1-4.5,0.5-6.6,1.2c-1.7,0.5-3.3,1.4-4.6,2.6
		c-1.1,1.2-1.8,2.7-1.7,4.3c-0.1,2.1,0.7,4.2,2.2,5.7c1.6,1.4,3.8,2.2,6,2c2.9,0.2,5.7-0.7,8.1-2.3c1.8-1.3,3.3-3,4.5-4.9V411
		C696.1,410.7,693.5,410.7,690.9,410.8z M634.9,389.8c-1.8-2.5-4.6-3.8-8.4-3.8c-4.4,0-7.7,1.3-9.8,4c-2.1,2.7-3.4,6.2-3.8,10.7H637
		C637.4,395.9,636.7,392.3,634.9,389.8z M634.9,389.8c-1.8-2.5-4.6-3.8-8.4-3.8c-4.4,0-7.7,1.3-9.8,4c-2.1,2.7-3.4,6.2-3.8,10.7H637
		C637.4,395.9,636.7,392.3,634.9,389.8z M690.9,410.8c-2.2,0.1-4.5,0.5-6.6,1.2c-1.7,0.5-3.3,1.4-4.6,2.6c-1.1,1.2-1.8,2.7-1.7,4.3
		c-0.1,2.1,0.7,4.2,2.2,5.7c1.6,1.4,3.8,2.2,6,2c2.9,0.2,5.7-0.7,8.1-2.3c1.8-1.3,3.3-3,4.5-4.9V411
		C696.1,410.7,693.5,410.7,690.9,410.8z M690.9,410.8c-2.2,0.1-4.5,0.5-6.6,1.2c-1.7,0.5-3.3,1.4-4.6,2.6c-1.1,1.2-1.8,2.7-1.7,4.3
		c-0.1,2.1,0.7,4.2,2.2,5.7c1.6,1.4,3.8,2.2,6,2c2.9,0.2,5.7-0.7,8.1-2.3c1.8-1.3,3.3-3,4.5-4.9V411
		C696.1,410.7,693.5,410.7,690.9,410.8z M634.9,389.8c-1.8-2.5-4.6-3.8-8.4-3.8c-4.4,0-7.7,1.3-9.8,4c-2.1,2.7-3.4,6.2-3.8,10.7H637
		C637.4,395.9,636.7,392.3,634.9,389.8z M634.9,389.8c-1.8-2.5-4.6-3.8-8.4-3.8c-4.4,0-7.7,1.3-9.8,4c-2.1,2.7-3.4,6.2-3.8,10.7H637
		C637.4,395.9,636.7,392.3,634.9,389.8z M690.9,410.8c-2.2,0.1-4.5,0.5-6.6,1.2c-1.7,0.5-3.3,1.4-4.6,2.6c-1.1,1.2-1.8,2.7-1.7,4.3
		c-0.1,2.1,0.7,4.2,2.2,5.7c1.6,1.4,3.8,2.2,6,2c2.9,0.2,5.7-0.7,8.1-2.3c1.8-1.3,3.3-3,4.5-4.9V411
		C696.1,410.7,693.5,410.7,690.9,410.8z M690.9,410.8c-2.2,0.1-4.5,0.5-6.6,1.2c-1.7,0.5-3.3,1.4-4.6,2.6c-1.1,1.2-1.8,2.7-1.7,4.3
		c-0.1,2.1,0.7,4.2,2.2,5.7c1.6,1.4,3.8,2.2,6,2c2.9,0.2,5.7-0.7,8.1-2.3c1.8-1.3,3.3-3,4.5-4.9V411
		C696.1,410.7,693.5,410.7,690.9,410.8z M634.9,389.8c-1.8-2.5-4.6-3.8-8.4-3.8c-4.4,0-7.7,1.3-9.8,4c-2.1,2.7-3.4,6.2-3.8,10.7H637
		C637.4,395.9,636.7,392.3,634.9,389.8z M634.9,389.8c-1.8-2.5-4.6-3.8-8.4-3.8c-4.4,0-7.7,1.3-9.8,4c-2.1,2.7-3.4,6.2-3.8,10.7H637
		C637.4,395.9,636.7,392.3,634.9,389.8z M634.9,389.8c-1.8-2.5-4.6-3.8-8.4-3.8c-4.4,0-7.7,1.3-9.8,4c-2.1,2.7-3.4,6.2-3.8,10.7H637
		C637.4,395.9,636.7,392.3,634.9,389.8z"/>
</g>
</svg>
