<?xml version="1.0" encoding="utf-8"?>
<!-- Generator: Adobe Illustrator 28.1.0, SVG Export Plug-In . SVG Version: 6.00 Build 0)  -->
<svg version="1.1" id="Layer_1" xmlns="http://www.w3.org/2000/svg" xmlns:xlink="http://www.w3.org/1999/xlink" x="0px" y="0px"
	 viewBox="0 0 628 198.8" style="enable-background:new 0 0 628 198.8;" xml:space="preserve">
<style type="text/css">
	.st0{clip-path:url(#SVGID_00000053539799462831541170000014032221074893047737_);}
	.st1{fill:#009CE3;}
	.st2{fill:#919396;}
	.st3{fill:#464749;}
	.st4{fill:#BABAB9;}
	.st5{enable-background:new    ;}
	.st6{fill:#3B3C3E;}
</style>
<g id="Group_25310" transform="translate(-139 -1372)">
	<g id="Group_25309" transform="translate(139 1372)">
		<g>
			<defs>
				<rect id="SVGID_1_" width="628" height="198.8"/>
			</defs>
			<clipPath id="SVGID_00000155148387679903556060000002107767770327610801_">
				<use xlink:href="#SVGID_1_"  style="overflow:visible;"/>
			</clipPath>
			
				<g id="Group_25308" transform="translate(0 0)" style="clip-path:url(#SVGID_00000155148387679903556060000002107767770327610801_);">
				<g id="Path_4972">
					<path class="st1" d="M99.4,195.5c-48,0-88.7-35.5-95.3-83l1.6-0.2c6.3,46.5,46.6,81.6,93.7,81.6c52.2,0,94.5-42.3,94.5-94.5
						c0-48.3-36.4-88.9-84.5-94l0.2-1.6c52.8,5.6,91.1,53,85.5,105.8C189.9,158.5,148.6,195.6,99.4,195.5"/>
				</g>
				<g id="Path_4973">
					<path class="st1" d="M8,112.1c-0.2-1.7-1.7-2.8-3.4-2.6c-1.7,0.2-2.8,1.7-2.6,3.4c0.2,1.7,1.7,2.8,3.4,2.6c0,0,0,0,0,0
						C7,115.3,8.2,113.8,8,112.1"/>
				</g>
				<g id="Path_4974">
					<path class="st2" d="M239.2,159.8c-33.4-41.3-27-101.9,14.4-135.3s101.9-27,135.3,14.4c27.6,34.2,28.6,82.8,2.3,118l-1.3-1
						C421,114,412.4,54.8,370.5,23.6S269.4,1,238.2,42.9C226,59.2,219.5,79,219.5,99.4c0,21.6,7.4,42.5,21,59.4L239.2,159.8z"/>
				</g>
				<g id="Path_4975">
					<path class="st2" d="M388.1,154.4c-1,1.3-0.8,3.2,0.6,4.3s3.2,0.8,4.3-0.6c1-1.3,0.8-3.2-0.6-4.3
						C391,152.8,389.1,153,388.1,154.4C388.1,154.4,388.1,154.4,388.1,154.4"/>
				</g>
				<g id="Path_4976">
					<path class="st3" d="M528.6,195.5c-53.1,0-96.1-43.1-96.1-96.2c0-48,35.5-88.7,83.1-95.2l0.2,1.6
						c-46.6,6.3-81.7,46.6-81.7,93.7c0,52.2,42.3,94.5,94.5,94.5c48.3,0,88.9-36.4,94-84.5l1.6,0.2
						C619,158.5,577.8,195.5,528.6,195.5"/>
				</g>
				<g id="Path_4977">
					<path class="st3" d="M515.9,8c1.7-0.2,2.8-1.7,2.6-3.4c-0.2-1.7-1.7-2.8-3.4-2.6s-2.8,1.7-2.6,3.4c0,0,0,0,0,0
						C512.7,7,514.2,8.2,515.9,8"/>
				</g>
				<g id="Path_4978">
					<path class="st1" d="M4.1,103.4c-2.2,0-4-1.8-4.1-4.1C0,44.5,44.4,0,99.2,0c0.1,0,0.1,0,0.2,0c2.2,0,4.1,1.8,4.1,4
						s-1.8,4.1-4,4.1c0,0,0,0,0,0C49,8.2,8.2,49,8.1,99.4C8.1,101.6,6.3,103.4,4.1,103.4"/>
				</g>
				<g id="Path_4979">
					<path class="st2" d="M314,198.8c-12.8,0-25.5-2.5-37.4-7.3c-12.3-5-23.5-12.4-32.9-21.8c-1.6-1.6-1.6-4.1,0-5.7s4.1-1.6,5.7,0
						l0,0c35.7,35.6,93.4,35.6,129.1,0c1.6-1.6,4.1-1.6,5.7,0c1.6,1.6,1.6,4.1,0,5.7l0,0c-9.4,9.4-20.6,16.8-32.9,21.8
						C339.5,196.3,326.8,198.8,314,198.8"/>
				</g>
				<g id="Path_4980">
					<path class="st3" d="M624,103.4c-2.2,0-4-1.8-4-4.1C619.8,49,579,8.2,528.6,8.1c-2.2,0-4.1-1.8-4.1-4c0-2.2,1.8-4.1,4-4.1
						c0,0,0,0,0,0C583.5,0,628,44.4,628,99.2c0,0.1,0,0.1,0,0.2C628,101.6,626.2,103.4,624,103.4"/>
				</g>
				<g id="Path_4981">
					<path class="st4" d="M220.6,46.5h-30.1c-2.2,0-4-1.8-4-4c0-2.2,1.8-4,4-4h30.1c2.2,0,4,1.8,4,4
						C224.6,44.8,222.8,46.5,220.6,46.5"/>
				</g>
				<g id="Path_4982">
					<path class="st4" d="M206.4,54.6l12.1-12l-12.1-12h10.2l12,12l-12,12H206.4z"/>
				</g>
				<g id="Path_4983">
					<path class="st4" d="M436.5,162.8h-30.1c-2.2,0-4-1.8-4-4c0-2.2,1.8-4,4-4h30.1c2.2,0,4,1.8,4,4
						C440.4,161,438.7,162.8,436.5,162.8"/>
				</g>
				<g id="Path_4984">
					<path class="st4" d="M422.3,170.8l12.1-12l-12.1-12h10.2l12,12l-12,12H422.3z"/>
				</g>
			</g>
		</g>
	</g>
	<g class="st5">
		<path class="st6" d="M224.7,1447.5l0.2-1.7h-0.1l-0.6,1.5l-2.9,5.1h-0.4l-3.1-5.1l-0.6-1.5h-0.1l0.2,1.7v7.5h-1.2v-11.2h1l3.5,5.7
			l0.5,1.2h0l0.5-1.3l3.3-5.7h1v11.2h-1.3V1447.5z"/>
		<path class="st6" d="M228.5,1447.6c0.4-0.2,0.9-0.4,1.4-0.5s1.1-0.2,1.7-0.2c0.6,0,1,0.1,1.3,0.2s0.6,0.3,0.8,0.6
			c0.2,0.2,0.3,0.5,0.4,0.8s0.1,0.6,0.1,0.9c0,0.6,0,1.3,0,1.9c0,0.6,0,1.2,0,1.7c0,0.4,0,0.8,0,1.1c0,0.4,0.1,0.7,0.2,1h-0.9
			l-0.3-1.1h-0.1c-0.1,0.1-0.2,0.3-0.4,0.4c-0.1,0.1-0.3,0.3-0.5,0.4c-0.2,0.1-0.4,0.2-0.7,0.3c-0.3,0.1-0.6,0.1-0.9,0.1
			s-0.7-0.1-1-0.2s-0.5-0.3-0.8-0.5c-0.2-0.2-0.4-0.4-0.5-0.7c-0.1-0.3-0.2-0.6-0.2-0.9c0-0.5,0.1-0.9,0.3-1.2
			c0.2-0.3,0.5-0.6,0.8-0.8c0.3-0.2,0.8-0.3,1.2-0.4s1-0.1,1.6-0.1c0.1,0,0.3,0,0.4,0s0.3,0,0.4,0c0-0.3,0-0.6,0-0.9
			c0-0.6-0.1-1-0.4-1.2c-0.2-0.2-0.7-0.4-1.3-0.4c-0.2,0-0.4,0-0.6,0s-0.4,0.1-0.6,0.1s-0.4,0.1-0.6,0.2s-0.4,0.2-0.5,0.2
			L228.5,1447.6z M230.8,1454c0.3,0,0.6,0,0.8-0.1c0.2-0.1,0.4-0.2,0.6-0.3c0.2-0.1,0.3-0.3,0.4-0.4s0.2-0.3,0.2-0.4v-1.3
			c-0.1,0-0.3,0-0.5,0c-0.2,0-0.3,0-0.5,0c-0.3,0-0.7,0-1,0.1c-0.3,0-0.6,0.1-0.8,0.2c-0.2,0.1-0.4,0.2-0.6,0.4
			c-0.1,0.2-0.2,0.4-0.2,0.7c0,0.4,0.1,0.7,0.4,0.9C230,1453.9,230.3,1454,230.8,1454z"/>
		<path class="st6" d="M235.5,1447h1.2v-1.6l1.3-0.4v2h2.2v1.1H238v4.4c0,0.6,0.1,0.9,0.2,1.2c0.1,0.2,0.4,0.3,0.7,0.3
			c0.3,0,0.5,0,0.7-0.1c0.2-0.1,0.4-0.1,0.6-0.2l0.3,1c-0.3,0.1-0.6,0.3-0.9,0.3c-0.3,0.1-0.7,0.1-1.1,0.1c-0.7,0-1.1-0.2-1.4-0.6
			c-0.3-0.4-0.4-1-0.4-1.8v-4.7h-1.2V1447z"/>
		<path class="st6" d="M242,1444.6c0-0.2,0.1-0.5,0.2-0.6c0.2-0.2,0.4-0.3,0.6-0.3c0.3,0,0.5,0.1,0.7,0.3c0.2,0.2,0.3,0.4,0.3,0.6
			c0,0.2-0.1,0.4-0.3,0.6c-0.2,0.2-0.4,0.2-0.7,0.2c-0.3,0-0.5-0.1-0.6-0.2C242.1,1445,242,1444.8,242,1444.6z M242.2,1447h1.3v8
			h-1.3V1447z"/>
		<path class="st6" d="M248.4,1450.9l-2.7-3.9h1.6l1.5,2.2l0.4,0.9l0.5-0.9l1.6-2.2h1.4l-2.7,3.8l2.9,4.2h-1.5l-1.7-2.4l-0.5-1
			l-0.5,1l-1.7,2.4h-1.4L248.4,1450.9z"/>
	</g>
	<g class="st5">
		<path class="st6" d="M200.8,1476.5c-0.3,0.2-0.7,0.4-1.2,0.5s-1,0.1-1.6,0.1c-0.7,0-1.3-0.1-1.9-0.3c-0.6-0.2-1.1-0.6-1.5-1
			c-0.4-0.5-0.8-1.1-1-1.8c-0.3-0.7-0.4-1.6-0.4-2.6c0-1,0.1-1.9,0.4-2.7s0.7-1.3,1.1-1.8s1-0.8,1.6-1c0.6-0.2,1.2-0.3,1.8-0.3
			c0.6,0,1.2,0,1.6,0.1c0.4,0.1,0.8,0.2,1,0.3l-0.3,1.2c-0.5-0.3-1.2-0.4-2.2-0.4c-0.4,0-0.9,0.1-1.3,0.2c-0.4,0.2-0.8,0.4-1.1,0.8
			c-0.3,0.4-0.6,0.8-0.8,1.4s-0.3,1.3-0.3,2.2c0,0.8,0.1,1.4,0.3,2c0.2,0.6,0.5,1.1,0.8,1.4c0.3,0.4,0.7,0.7,1.2,0.9
			c0.5,0.2,0.9,0.3,1.5,0.3c0.5,0,0.9,0,1.3-0.1c0.4-0.1,0.7-0.2,0.9-0.4L200.8,1476.5z"/>
		<path class="st6" d="M201.6,1473c0-1.4,0.3-2.4,0.9-3.1c0.6-0.7,1.5-1.1,2.6-1.1c0.6,0,1.1,0.1,1.6,0.3c0.4,0.2,0.8,0.5,1.1,0.8
			s0.5,0.8,0.6,1.3s0.2,1.1,0.2,1.7c0,1.4-0.3,2.4-0.9,3.1c-0.6,0.7-1.5,1.1-2.6,1.1c-0.6,0-1.1-0.1-1.6-0.3
			c-0.4-0.2-0.8-0.5-1.1-0.8c-0.3-0.4-0.5-0.8-0.6-1.3C201.7,1474.2,201.6,1473.6,201.6,1473z M202.9,1473c0,0.4,0,0.8,0.1,1.2
			s0.2,0.7,0.4,1c0.2,0.3,0.4,0.5,0.7,0.7c0.3,0.2,0.6,0.3,1,0.3c1.5,0,2.2-1,2.2-3.1c0-0.4,0-0.8-0.1-1.2c-0.1-0.4-0.2-0.7-0.4-1
			c-0.2-0.3-0.4-0.5-0.7-0.7c-0.3-0.2-0.6-0.2-1-0.2C203.6,1469.9,202.9,1470.9,202.9,1473z"/>
		<path class="st6" d="M215.3,1477v-4.5c0-0.4,0-0.8-0.1-1.1c0-0.3-0.1-0.6-0.2-0.8c-0.1-0.2-0.3-0.4-0.5-0.5s-0.5-0.2-0.8-0.2
			c-0.5,0-0.9,0.1-1.2,0.4s-0.6,0.7-0.7,1.1v5.5h-1.3v-8h0.9l0.2,1h0.1c0.3-0.3,0.6-0.6,1-0.8c0.4-0.2,0.9-0.3,1.5-0.3
			c0.5,0,0.9,0.1,1.3,0.3c0.3,0.2,0.6,0.5,0.8,1c0.2-0.4,0.6-0.7,1-1c0.4-0.2,0.9-0.4,1.5-0.4c0.4,0,0.8,0.1,1.1,0.2
			c0.3,0.1,0.6,0.3,0.8,0.5s0.3,0.6,0.4,1c0.1,0.4,0.1,1,0.1,1.7v4.8H220v-4.8c0-0.4,0-0.7-0.1-1c0-0.3-0.1-0.5-0.2-0.7
			c-0.1-0.2-0.3-0.3-0.5-0.4c-0.2-0.1-0.5-0.1-0.8-0.1c-0.5,0-0.9,0.1-1.2,0.4s-0.5,0.7-0.6,1.3v5.3H215.3z"/>
		<path class="st6" d="M223.6,1469h0.9l0.2,1h0.1c0.2-0.4,0.6-0.7,1-0.9c0.4-0.2,0.8-0.3,1.3-0.3c1.1,0,1.9,0.3,2.4,0.9
			c0.5,0.6,0.8,1.7,0.8,3.1c0,0.7-0.1,1.3-0.3,1.8c-0.2,0.5-0.4,1-0.7,1.4c-0.3,0.4-0.7,0.7-1.2,0.9c-0.5,0.2-1,0.3-1.5,0.3
			c-0.4,0-0.7,0-0.9-0.1s-0.5-0.1-0.7-0.2v3.3h-1.3V1469z M226.8,1469.9c-0.5,0-1,0.1-1.3,0.4c-0.3,0.3-0.5,0.7-0.7,1.3v4
			c0.2,0.1,0.4,0.3,0.7,0.3c0.2,0.1,0.6,0.1,1,0.1c0.7,0,1.3-0.3,1.8-0.8c0.4-0.5,0.6-1.4,0.6-2.4c0-0.4,0-0.8-0.1-1.2
			c-0.1-0.4-0.2-0.7-0.4-0.9c-0.2-0.2-0.4-0.4-0.6-0.6C227.5,1470,227.2,1469.9,226.8,1469.9z"/>
		<path class="st6" d="M238.1,1476.4c-0.3,0.3-0.7,0.5-1.2,0.6s-1,0.2-1.5,0.2c-0.6,0-1.1-0.1-1.6-0.3c-0.4-0.2-0.8-0.5-1.1-0.8
			c-0.3-0.4-0.5-0.8-0.6-1.3c-0.1-0.5-0.2-1.1-0.2-1.7c0-1.4,0.3-2.4,0.9-3.1c0.6-0.7,1.5-1.1,2.6-1.1c0.4,0,0.7,0,1.1,0.1
			c0.4,0.1,0.7,0.2,1,0.5c0.3,0.2,0.5,0.5,0.7,1c0.2,0.4,0.3,1,0.3,1.6c0,0.4,0,0.7-0.1,1.2h-5.1c0,0.5,0,0.9,0.1,1.2
			c0.1,0.4,0.2,0.7,0.4,0.9c0.2,0.3,0.5,0.4,0.8,0.6c0.3,0.1,0.7,0.2,1.2,0.2c0.4,0,0.7-0.1,1.1-0.2s0.6-0.3,0.8-0.4L238.1,1476.4z
			 M235.4,1469.9c-0.6,0-1.1,0.2-1.5,0.5c-0.4,0.3-0.6,0.9-0.7,1.7h4c0-0.8-0.2-1.4-0.5-1.7S235.9,1469.9,235.4,1469.9z"/>
		<path class="st6" d="M239.3,1469h1.2v-1.6l1.3-0.4v2h2.2v1.1h-2.2v4.4c0,0.6,0.1,0.9,0.2,1.2c0.1,0.2,0.4,0.3,0.7,0.3
			c0.3,0,0.5,0,0.7-0.1c0.2-0.1,0.4-0.1,0.6-0.2l0.3,1c-0.3,0.1-0.6,0.3-0.9,0.3c-0.3,0.1-0.7,0.1-1.1,0.1c-0.7,0-1.1-0.2-1.4-0.6
			c-0.3-0.4-0.4-1-0.4-1.8v-4.7h-1.2V1469z"/>
		<path class="st6" d="M251.5,1476.4c-0.3,0.3-0.7,0.5-1.2,0.6s-1,0.2-1.5,0.2c-0.6,0-1.1-0.1-1.6-0.3c-0.4-0.2-0.8-0.5-1.1-0.8
			c-0.3-0.4-0.5-0.8-0.6-1.3c-0.1-0.5-0.2-1.1-0.2-1.7c0-1.4,0.3-2.4,0.9-3.1c0.6-0.7,1.5-1.1,2.6-1.1c0.4,0,0.7,0,1.1,0.1
			c0.4,0.1,0.7,0.2,1,0.5c0.3,0.2,0.5,0.5,0.7,1c0.2,0.4,0.3,1,0.3,1.6c0,0.4,0,0.7-0.1,1.2h-5.1c0,0.5,0,0.9,0.1,1.2
			c0.1,0.4,0.2,0.7,0.4,0.9c0.2,0.3,0.5,0.4,0.8,0.6c0.3,0.1,0.7,0.2,1.2,0.2c0.4,0,0.7-0.1,1.1-0.2s0.6-0.3,0.8-0.4L251.5,1476.4z
			 M248.7,1469.9c-0.6,0-1.1,0.2-1.5,0.5c-0.4,0.3-0.6,0.9-0.7,1.7h4c0-0.8-0.2-1.4-0.5-1.7S249.3,1469.9,248.7,1469.9z"/>
		<path class="st6" d="M258.9,1477v-4.6c0-0.8-0.1-1.5-0.4-1.9c-0.2-0.4-0.7-0.6-1.3-0.6c-0.6,0-1,0.2-1.4,0.5
			c-0.4,0.3-0.6,0.7-0.8,1.1v5.5h-1.3v-8h0.9l0.2,1h0.1c0.3-0.3,0.6-0.6,1-0.8c0.4-0.2,0.9-0.3,1.5-0.3c0.4,0,0.8,0.1,1.2,0.2
			c0.3,0.1,0.6,0.3,0.8,0.5s0.4,0.6,0.5,1c0.1,0.4,0.2,1,0.2,1.6v4.8H258.9z"/>
		<path class="st6" d="M268,1476.5c-0.3,0.2-0.7,0.4-1.1,0.5c-0.4,0.1-0.9,0.2-1.4,0.2c-0.6,0-1.1-0.1-1.6-0.3
			c-0.4-0.2-0.8-0.5-1-0.8s-0.5-0.8-0.6-1.3c-0.1-0.5-0.2-1.1-0.2-1.7c0-1.4,0.3-2.4,0.9-3.1c0.6-0.7,1.5-1.1,2.6-1.1
			c0.5,0,0.9,0,1.3,0.1s0.7,0.2,1,0.3l-0.4,1.1c-0.2-0.1-0.5-0.2-0.8-0.3c-0.3-0.1-0.6-0.1-1-0.1c-1.5,0-2.3,1-2.3,3.1
			c0,0.4,0,0.8,0.1,1.2s0.2,0.7,0.4,1c0.2,0.3,0.4,0.5,0.7,0.7c0.3,0.2,0.7,0.3,1.1,0.3c0.4,0,0.7-0.1,1-0.2
			c0.3-0.1,0.6-0.3,0.7-0.4L268,1476.5z"/>
		<path class="st6" d="M271.9,1474.2l0.4,1.5h0.1l0.4-1.6l1.6-5.2h1.3l-2.4,7.2c-0.2,0.5-0.4,1-0.5,1.5c-0.2,0.5-0.4,0.9-0.6,1.3
			c-0.2,0.4-0.5,0.7-0.7,0.9s-0.6,0.3-0.9,0.3c-0.4,0-0.7-0.1-0.9-0.2l0.2-1.1c0.1,0.1,0.3,0.1,0.4,0.1c0.3,0,0.6-0.2,0.9-0.5
			c0.3-0.3,0.5-0.9,0.7-1.6l-3.2-8h1.5L271.9,1474.2z"/>
	</g>
	<g class="st5">
		<path class="st6" d="M197.4,1487.8h6.1v1.2h-4.8v3.8h4.4v1.2h-4.4v5h-1.3V1487.8z"/>
		<path class="st6" d="M209.4,1492.2c-0.3-0.1-0.6-0.2-0.9-0.2c-0.5,0-0.8,0.1-1.1,0.4s-0.4,0.6-0.5,1v5.6h-1.3v-8h0.9l0.2,1h0.1
			c0.2-0.4,0.4-0.6,0.7-0.8c0.3-0.2,0.6-0.3,1.1-0.3c0.3,0,0.7,0.1,1,0.2L209.4,1492.2z"/>
		<path class="st6" d="M210.9,1491.6c0.4-0.2,0.9-0.4,1.4-0.5s1.1-0.2,1.7-0.2c0.6,0,1,0.1,1.3,0.2s0.6,0.3,0.8,0.6
			c0.2,0.2,0.3,0.5,0.4,0.8s0.1,0.6,0.1,0.9c0,0.6,0,1.3,0,1.9c0,0.6,0,1.2,0,1.7c0,0.4,0,0.8,0,1.1c0,0.4,0.1,0.7,0.2,1h-0.9
			l-0.3-1.1h-0.1c-0.1,0.1-0.2,0.3-0.4,0.4c-0.1,0.1-0.3,0.3-0.5,0.4c-0.2,0.1-0.4,0.2-0.7,0.3c-0.3,0.1-0.6,0.1-0.9,0.1
			s-0.7-0.1-1-0.2s-0.5-0.3-0.8-0.5c-0.2-0.2-0.4-0.4-0.5-0.7c-0.1-0.3-0.2-0.6-0.2-0.9c0-0.5,0.1-0.9,0.3-1.2
			c0.2-0.3,0.5-0.6,0.8-0.8c0.3-0.2,0.8-0.3,1.2-0.4s1-0.1,1.6-0.1c0.1,0,0.3,0,0.4,0s0.3,0,0.4,0c0-0.3,0-0.6,0-0.9
			c0-0.6-0.1-1-0.4-1.2c-0.2-0.2-0.7-0.4-1.3-0.4c-0.2,0-0.4,0-0.6,0s-0.4,0.1-0.6,0.1s-0.4,0.1-0.6,0.2s-0.4,0.2-0.5,0.2
			L210.9,1491.6z M213.2,1498c0.3,0,0.6,0,0.8-0.1c0.2-0.1,0.4-0.2,0.6-0.3c0.2-0.1,0.3-0.3,0.4-0.4s0.2-0.3,0.2-0.4v-1.3
			c-0.1,0-0.3,0-0.5,0c-0.2,0-0.3,0-0.5,0c-0.3,0-0.7,0-1,0.1c-0.3,0-0.6,0.1-0.8,0.2c-0.2,0.1-0.4,0.2-0.6,0.4
			c-0.1,0.2-0.2,0.4-0.2,0.7c0,0.4,0.1,0.7,0.4,0.9C212.4,1497.9,212.7,1498,213.2,1498z"/>
		<path class="st6" d="M223.6,1499v-4.5c0-0.4,0-0.8-0.1-1.1c0-0.3-0.1-0.6-0.2-0.8c-0.1-0.2-0.3-0.4-0.5-0.5s-0.5-0.2-0.8-0.2
			c-0.5,0-0.9,0.1-1.2,0.4s-0.6,0.7-0.7,1.1v5.5H219v-8h0.9l0.2,1h0.1c0.3-0.3,0.6-0.6,1-0.8c0.4-0.2,0.9-0.3,1.5-0.3
			c0.5,0,0.9,0.1,1.3,0.3c0.3,0.2,0.6,0.5,0.8,1c0.2-0.4,0.6-0.7,1-1c0.4-0.2,0.9-0.4,1.5-0.4c0.4,0,0.8,0.1,1.1,0.2
			c0.3,0.1,0.6,0.3,0.8,0.5s0.3,0.6,0.4,1c0.1,0.4,0.1,1,0.1,1.7v4.8h-1.3v-4.8c0-0.4,0-0.7-0.1-1c0-0.3-0.1-0.5-0.2-0.7
			c-0.1-0.2-0.3-0.3-0.5-0.4c-0.2-0.1-0.5-0.1-0.8-0.1c-0.5,0-0.9,0.1-1.2,0.4s-0.5,0.7-0.6,1.3v5.3H223.6z"/>
		<path class="st6" d="M237.8,1498.4c-0.3,0.3-0.7,0.5-1.2,0.6s-1,0.2-1.5,0.2c-0.6,0-1.1-0.1-1.6-0.3c-0.4-0.2-0.8-0.5-1.1-0.8
			c-0.3-0.4-0.5-0.8-0.6-1.3c-0.1-0.5-0.2-1.1-0.2-1.7c0-1.4,0.3-2.4,0.9-3.1c0.6-0.7,1.5-1.1,2.6-1.1c0.4,0,0.7,0,1.1,0.1
			c0.4,0.1,0.7,0.2,1,0.5c0.3,0.2,0.5,0.5,0.7,1c0.2,0.4,0.3,1,0.3,1.6c0,0.4,0,0.7-0.1,1.2h-5.1c0,0.5,0,0.9,0.1,1.2
			c0.1,0.4,0.2,0.7,0.4,0.9c0.2,0.3,0.5,0.4,0.8,0.6c0.3,0.1,0.7,0.2,1.2,0.2c0.4,0,0.7-0.1,1.1-0.2s0.6-0.3,0.8-0.4L237.8,1498.4z
			 M235,1491.9c-0.6,0-1.1,0.2-1.5,0.5c-0.4,0.3-0.6,0.9-0.7,1.7h4c0-0.8-0.2-1.4-0.5-1.7S235.6,1491.9,235,1491.9z"/>
		<path class="st6" d="M245.1,1491l1.8,4.7l0.4,1.5h0l0.3-1.6l1.4-4.6h1.2l-2.7,8.2H247l-2.1-5.3l-0.3-1.3h0l-0.3,1.3l-2,5.3h-0.6
			l-2.8-8.2h1.4l1.6,4.7l0.3,1.6h0l0.4-1.6l1.7-4.6H245.1z"/>
		<path class="st6" d="M251,1495c0-1.4,0.3-2.4,0.9-3.1c0.6-0.7,1.5-1.1,2.6-1.1c0.6,0,1.1,0.1,1.6,0.3c0.4,0.2,0.8,0.5,1.1,0.8
			s0.5,0.8,0.6,1.3s0.2,1.1,0.2,1.7c0,1.4-0.3,2.4-0.9,3.1c-0.6,0.7-1.5,1.1-2.6,1.1c-0.6,0-1.1-0.1-1.6-0.3
			c-0.4-0.2-0.8-0.5-1.1-0.8c-0.3-0.4-0.5-0.8-0.6-1.3C251.1,1496.2,251,1495.6,251,1495z M252.4,1495c0,0.4,0,0.8,0.1,1.2
			s0.2,0.7,0.4,1c0.2,0.3,0.4,0.5,0.7,0.7c0.3,0.2,0.6,0.3,1,0.3c1.5,0,2.2-1,2.2-3.1c0-0.4,0-0.8-0.1-1.2c-0.1-0.4-0.2-0.7-0.4-1
			c-0.2-0.3-0.4-0.5-0.7-0.7c-0.3-0.2-0.6-0.2-1-0.2C253.1,1491.9,252.4,1492.9,252.4,1495z"/>
		<path class="st6" d="M263.8,1492.2c-0.3-0.1-0.6-0.2-0.9-0.2c-0.5,0-0.8,0.1-1.1,0.4s-0.4,0.6-0.5,1v5.6h-1.3v-8h0.9l0.2,1h0.1
			c0.2-0.4,0.4-0.6,0.7-0.8c0.3-0.2,0.6-0.3,1.1-0.3c0.3,0,0.7,0.1,1,0.2L263.8,1492.2z"/>
		<path class="st6" d="M267.5,1495.4h-0.7v3.6h-1.3v-11.2h1.3v6.8l0.7-0.2l2.5-3.4h1.5l-2.4,3.2l-0.7,0.5l0.8,0.6l2.7,3.6h-1.6
			L267.5,1495.4z"/>
	</g>
	<g class="st5">
		<path class="st6" d="M386.7,1427.8h6.1v1.2H388v3.8h4.4v1.2H388v5h-1.3V1427.8z"/>
		<path class="st6" d="M394.4,1435c0-1.4,0.3-2.4,0.9-3.1c0.6-0.7,1.5-1.1,2.6-1.1c0.6,0,1.1,0.1,1.6,0.3c0.4,0.2,0.8,0.5,1.1,0.8
			s0.5,0.8,0.6,1.3s0.2,1.1,0.2,1.7c0,1.4-0.3,2.4-0.9,3.1c-0.6,0.7-1.5,1.1-2.6,1.1c-0.6,0-1.1-0.1-1.6-0.3
			c-0.4-0.2-0.8-0.5-1.1-0.8c-0.3-0.4-0.5-0.8-0.6-1.3C394.5,1436.2,394.4,1435.6,394.4,1435z M395.7,1435c0,0.4,0,0.8,0.1,1.2
			s0.2,0.7,0.4,1c0.2,0.3,0.4,0.5,0.7,0.7c0.3,0.2,0.6,0.3,1,0.3c1.5,0,2.2-1,2.2-3.1c0-0.4,0-0.8-0.1-1.2c-0.1-0.4-0.2-0.7-0.4-1
			c-0.2-0.3-0.4-0.5-0.7-0.7c-0.3-0.2-0.6-0.2-1-0.2C396.4,1431.9,395.7,1432.9,395.7,1435z"/>
		<path class="st6" d="M408.9,1438.5c-0.3,0.2-0.7,0.4-1.1,0.5c-0.4,0.1-0.9,0.2-1.4,0.2c-0.6,0-1.1-0.1-1.6-0.3
			c-0.4-0.2-0.8-0.5-1-0.8s-0.5-0.8-0.6-1.3c-0.1-0.5-0.2-1.1-0.2-1.7c0-1.4,0.3-2.4,0.9-3.1c0.6-0.7,1.5-1.1,2.6-1.1
			c0.5,0,0.9,0,1.3,0.1s0.7,0.2,1,0.3l-0.4,1.1c-0.2-0.1-0.5-0.2-0.8-0.3c-0.3-0.1-0.6-0.1-1-0.1c-1.5,0-2.3,1-2.3,3.1
			c0,0.4,0,0.8,0.1,1.2s0.2,0.7,0.4,1c0.2,0.3,0.4,0.5,0.7,0.7c0.3,0.2,0.7,0.3,1.1,0.3c0.4,0,0.7-0.1,1-0.2
			c0.3-0.1,0.6-0.3,0.7-0.4L408.9,1438.5z"/>
		<path class="st6" d="M411.8,1431v4.6c0,0.4,0,0.8,0.1,1.1s0.1,0.6,0.2,0.8c0.1,0.2,0.3,0.4,0.5,0.5s0.5,0.2,0.8,0.2
			c0.3,0,0.5,0,0.8-0.1c0.2-0.1,0.4-0.2,0.6-0.4c0.2-0.2,0.3-0.3,0.5-0.6c0.1-0.2,0.2-0.4,0.3-0.7v-5.3h1.3v5.7c0,0.4,0,0.8,0,1.2
			c0,0.4,0.1,0.8,0.1,1.1h-0.9l-0.3-1.3h-0.1c-0.2,0.4-0.6,0.8-1,1s-0.9,0.4-1.6,0.4c-0.4,0-0.8-0.1-1.1-0.2
			c-0.3-0.1-0.6-0.3-0.8-0.5c-0.2-0.3-0.4-0.6-0.5-1c-0.1-0.4-0.2-1-0.2-1.6v-4.8H411.8z"/>
		<path class="st6" d="M422.8,1436.8c0-0.3-0.1-0.6-0.3-0.8s-0.4-0.3-0.7-0.5c-0.3-0.1-0.6-0.2-0.9-0.4c-0.3-0.1-0.6-0.3-0.9-0.4
			s-0.5-0.4-0.7-0.7s-0.3-0.7-0.3-1.1c0-0.8,0.2-1.3,0.7-1.7s1-0.5,1.8-0.5c0.6,0,1.1,0.1,1.4,0.2c0.4,0.1,0.7,0.2,1,0.4l-0.3,1.1
			c-0.2-0.1-0.5-0.2-0.9-0.3c-0.3-0.1-0.7-0.1-1.1-0.1c-0.5,0-0.8,0.1-1,0.2s-0.3,0.4-0.3,0.8c0,0.3,0.1,0.5,0.3,0.6
			c0.2,0.2,0.4,0.3,0.7,0.4c0.3,0.1,0.6,0.2,0.9,0.4s0.6,0.3,0.9,0.5c0.3,0.2,0.5,0.4,0.7,0.7c0.2,0.3,0.3,0.7,0.3,1.2
			c0,0.3-0.1,0.7-0.2,1c-0.1,0.3-0.3,0.6-0.5,0.8c-0.2,0.2-0.5,0.4-0.9,0.5c-0.3,0.1-0.8,0.2-1.2,0.2c-0.6,0-1.1-0.1-1.6-0.2
			s-0.8-0.3-1.1-0.4l0.4-1.1c0.2,0.1,0.6,0.3,1,0.4c0.4,0.1,0.8,0.2,1.2,0.2c0.5,0,0.8-0.1,1.1-0.3
			C422.6,1437.6,422.8,1437.3,422.8,1436.8z"/>
		<path class="st6" d="M429.8,1435c0-1.4,0.3-2.4,0.9-3.1c0.6-0.7,1.5-1.1,2.6-1.1c0.6,0,1.1,0.1,1.6,0.3c0.4,0.2,0.8,0.5,1.1,0.8
			s0.5,0.8,0.6,1.3s0.2,1.1,0.2,1.7c0,1.4-0.3,2.4-0.9,3.1c-0.6,0.7-1.5,1.1-2.6,1.1c-0.6,0-1.1-0.1-1.6-0.3
			c-0.4-0.2-0.8-0.5-1.1-0.8c-0.3-0.4-0.5-0.8-0.6-1.3C429.9,1436.2,429.8,1435.6,429.8,1435z M431.1,1435c0,0.4,0,0.8,0.1,1.2
			s0.2,0.7,0.4,1c0.2,0.3,0.4,0.5,0.7,0.7c0.3,0.2,0.6,0.3,1,0.3c1.5,0,2.2-1,2.2-3.1c0-0.4,0-0.8-0.1-1.2c-0.1-0.4-0.2-0.7-0.4-1
			c-0.2-0.3-0.4-0.5-0.7-0.7c-0.3-0.2-0.6-0.2-1-0.2C431.9,1431.9,431.1,1432.9,431.1,1435z"/>
		<path class="st6" d="M444,1439v-4.6c0-0.8-0.1-1.5-0.4-1.9c-0.2-0.4-0.7-0.6-1.3-0.6c-0.6,0-1,0.2-1.4,0.5
			c-0.4,0.3-0.6,0.7-0.8,1.1v5.5h-1.3v-8h0.9l0.2,1h0.1c0.3-0.3,0.6-0.6,1-0.8c0.4-0.2,0.9-0.3,1.5-0.3c0.4,0,0.8,0.1,1.2,0.2
			c0.3,0.1,0.6,0.3,0.8,0.5s0.4,0.6,0.5,1c0.1,0.4,0.2,1,0.2,1.6v4.8H444z"/>
		<path class="st6" d="M450.8,1431h1.2v-1.6l1.3-0.4v2h2.2v1.1h-2.2v4.4c0,0.6,0.1,0.9,0.2,1.2c0.1,0.2,0.4,0.3,0.7,0.3
			c0.3,0,0.5,0,0.7-0.1s0.4-0.1,0.6-0.2l0.3,1c-0.3,0.1-0.6,0.3-0.9,0.3c-0.3,0.1-0.7,0.1-1.1,0.1c-0.7,0-1.1-0.2-1.4-0.6
			c-0.3-0.4-0.4-1-0.4-1.8v-4.7h-1.2V1431z"/>
		<path class="st6" d="M463,1438.4c-0.3,0.3-0.7,0.5-1.2,0.6s-1,0.2-1.5,0.2c-0.6,0-1.1-0.1-1.6-0.3c-0.4-0.2-0.8-0.5-1.1-0.8
			c-0.3-0.4-0.5-0.8-0.6-1.3c-0.1-0.5-0.2-1.1-0.2-1.7c0-1.4,0.3-2.4,0.9-3.1s1.5-1.1,2.6-1.1c0.4,0,0.7,0,1.1,0.1
			c0.4,0.1,0.7,0.2,1,0.5c0.3,0.2,0.5,0.5,0.7,1c0.2,0.4,0.3,1,0.3,1.6c0,0.4,0,0.7-0.1,1.2H458c0,0.5,0,0.9,0.1,1.2
			c0.1,0.4,0.2,0.7,0.4,0.9c0.2,0.3,0.5,0.4,0.8,0.6s0.7,0.2,1.2,0.2c0.4,0,0.7-0.1,1.1-0.2c0.4-0.1,0.6-0.3,0.8-0.4L463,1438.4z
			 M460.2,1431.9c-0.6,0-1.1,0.2-1.5,0.5c-0.4,0.3-0.6,0.9-0.7,1.7h4c0-0.8-0.2-1.4-0.5-1.7S460.8,1431.9,460.2,1431.9z"/>
		<path class="st6" d="M470.5,1438.5c-0.3,0.2-0.7,0.4-1.1,0.5c-0.4,0.1-0.9,0.2-1.4,0.2c-0.6,0-1.1-0.1-1.6-0.3
			c-0.4-0.2-0.8-0.5-1-0.8c-0.3-0.4-0.5-0.8-0.6-1.3c-0.1-0.5-0.2-1.1-0.2-1.7c0-1.4,0.3-2.4,0.9-3.1c0.6-0.7,1.5-1.1,2.6-1.1
			c0.5,0,0.9,0,1.3,0.1s0.7,0.2,1,0.3l-0.4,1.1c-0.2-0.1-0.5-0.2-0.8-0.3c-0.3-0.1-0.6-0.1-1-0.1c-1.5,0-2.3,1-2.3,3.1
			c0,0.4,0,0.8,0.1,1.2s0.2,0.7,0.4,1c0.2,0.3,0.4,0.5,0.7,0.7c0.3,0.2,0.7,0.3,1.1,0.3c0.4,0,0.7-0.1,1-0.2
			c0.3-0.1,0.6-0.3,0.7-0.4L470.5,1438.5z"/>
		<path class="st6" d="M477.4,1439v-4.6c0-0.4,0-0.8-0.1-1.1c0-0.3-0.1-0.6-0.3-0.8s-0.3-0.4-0.5-0.5c-0.2-0.1-0.5-0.2-0.9-0.2
			c-0.5,0-1,0.2-1.4,0.5s-0.7,0.7-0.8,1.3v5.3h-1.3v-11.2h1.3v4.1h0.1c0.3-0.3,0.6-0.6,1-0.8c0.4-0.2,0.9-0.3,1.4-0.3
			c0.4,0,0.8,0.1,1.2,0.2c0.3,0.1,0.6,0.3,0.8,0.5c0.2,0.3,0.4,0.6,0.5,1c0.1,0.4,0.2,1,0.2,1.6v4.8H477.4z"/>
		<path class="st6" d="M486.2,1439v-4.6c0-0.8-0.1-1.5-0.4-1.9c-0.2-0.4-0.7-0.6-1.3-0.6c-0.6,0-1,0.2-1.4,0.5
			c-0.4,0.3-0.6,0.7-0.8,1.1v5.5H481v-8h0.9l0.2,1h0.1c0.3-0.3,0.6-0.6,1-0.8c0.4-0.2,0.9-0.3,1.5-0.3c0.4,0,0.8,0.1,1.2,0.2
			s0.6,0.3,0.8,0.5s0.4,0.6,0.5,1c0.1,0.4,0.2,1,0.2,1.6v4.8H486.2z"/>
		<path class="st6" d="M489.8,1428.6c0-0.2,0.1-0.5,0.2-0.6c0.2-0.2,0.4-0.3,0.6-0.3s0.5,0.1,0.7,0.3c0.2,0.2,0.3,0.4,0.3,0.6
			c0,0.2-0.1,0.4-0.3,0.6c-0.2,0.2-0.4,0.2-0.7,0.2s-0.5-0.1-0.6-0.2C489.9,1429,489.8,1428.8,489.8,1428.6z M490.1,1431h1.3v8h-1.3
			V1431z"/>
		<path class="st6" d="M499.5,1438.5c-0.3,0.2-0.7,0.4-1.1,0.5c-0.4,0.1-0.9,0.2-1.4,0.2c-0.6,0-1.1-0.1-1.6-0.3
			c-0.4-0.2-0.8-0.5-1-0.8c-0.3-0.4-0.5-0.8-0.6-1.3c-0.1-0.5-0.2-1.1-0.2-1.7c0-1.4,0.3-2.4,0.9-3.1c0.6-0.7,1.5-1.1,2.6-1.1
			c0.5,0,0.9,0,1.3,0.1s0.7,0.2,1,0.3l-0.4,1.1c-0.2-0.1-0.5-0.2-0.8-0.3c-0.3-0.1-0.6-0.1-1-0.1c-1.5,0-2.3,1-2.3,3.1
			c0,0.4,0,0.8,0.1,1.2s0.2,0.7,0.4,1c0.2,0.3,0.4,0.5,0.7,0.7c0.3,0.2,0.7,0.3,1.1,0.3c0.4,0,0.7-0.1,1-0.2
			c0.3-0.1,0.6-0.3,0.7-0.4L499.5,1438.5z"/>
		<path class="st6" d="M501.2,1431.6c0.4-0.2,0.9-0.4,1.4-0.5c0.5-0.1,1.1-0.2,1.7-0.2c0.6,0,1,0.1,1.3,0.2s0.6,0.3,0.8,0.6
			c0.2,0.2,0.3,0.5,0.4,0.8s0.1,0.6,0.1,0.9c0,0.6,0,1.3,0,1.9s0,1.2,0,1.7c0,0.4,0,0.8,0,1.1c0,0.4,0.1,0.7,0.2,1H506l-0.3-1.1
			h-0.1c-0.1,0.1-0.2,0.3-0.4,0.4c-0.1,0.1-0.3,0.3-0.5,0.4c-0.2,0.1-0.4,0.2-0.7,0.3c-0.3,0.1-0.6,0.1-0.9,0.1
			c-0.3,0-0.7-0.1-1-0.2c-0.3-0.1-0.5-0.3-0.8-0.5c-0.2-0.2-0.4-0.4-0.5-0.7c-0.1-0.3-0.2-0.6-0.2-0.9c0-0.5,0.1-0.9,0.3-1.2
			c0.2-0.3,0.5-0.6,0.8-0.8c0.3-0.2,0.8-0.3,1.2-0.4s1-0.1,1.6-0.1c0.1,0,0.3,0,0.4,0c0.1,0,0.3,0,0.4,0c0-0.3,0-0.6,0-0.9
			c0-0.6-0.1-1-0.4-1.2c-0.2-0.2-0.7-0.4-1.3-0.4c-0.2,0-0.4,0-0.6,0s-0.4,0.1-0.6,0.1s-0.4,0.1-0.6,0.2s-0.4,0.2-0.5,0.2
			L501.2,1431.6z M503.4,1438c0.3,0,0.6,0,0.8-0.1c0.2-0.1,0.4-0.2,0.6-0.3c0.2-0.1,0.3-0.3,0.4-0.4c0.1-0.1,0.2-0.3,0.2-0.4v-1.3
			c-0.1,0-0.3,0-0.5,0c-0.2,0-0.3,0-0.5,0c-0.3,0-0.7,0-1,0.1c-0.3,0-0.6,0.1-0.8,0.2c-0.2,0.1-0.4,0.2-0.6,0.4
			c-0.1,0.2-0.2,0.4-0.2,0.7c0,0.4,0.1,0.7,0.4,0.9C502.7,1437.9,503,1438,503.4,1438z"/>
		<path class="st6" d="M510.6,1437c0,0.4,0.1,0.6,0.2,0.8s0.3,0.2,0.5,0.2c0.1,0,0.3,0,0.4,0c0.2,0,0.3-0.1,0.5-0.1l0.1,1
			c-0.2,0.1-0.4,0.2-0.7,0.2c-0.3,0.1-0.6,0.1-0.8,0.1c-0.5,0-0.9-0.1-1.2-0.4c-0.3-0.3-0.5-0.7-0.5-1.4v-9.6h1.3V1437z"/>
	</g>
	<g class="st5">
		<path class="st6" d="M422.4,1460.5c-0.3,0.2-0.7,0.4-1.1,0.5c-0.4,0.1-0.9,0.2-1.4,0.2c-0.6,0-1.1-0.1-1.6-0.3
			c-0.4-0.2-0.8-0.5-1-0.8s-0.5-0.8-0.6-1.3c-0.1-0.5-0.2-1.1-0.2-1.7c0-1.4,0.3-2.4,0.9-3.1c0.6-0.7,1.5-1.1,2.6-1.1
			c0.5,0,0.9,0,1.3,0.1s0.7,0.2,1,0.3l-0.4,1.1c-0.2-0.1-0.5-0.2-0.8-0.3c-0.3-0.1-0.6-0.1-1-0.1c-1.5,0-2.3,1-2.3,3.1
			c0,0.4,0,0.8,0.1,1.2s0.2,0.7,0.4,1c0.2,0.3,0.4,0.5,0.7,0.7c0.3,0.2,0.7,0.3,1.1,0.3c0.4,0,0.7-0.1,1-0.2
			c0.3-0.1,0.6-0.3,0.7-0.4L422.4,1460.5z"/>
		<path class="st6" d="M424.1,1453.6c0.4-0.2,0.9-0.4,1.4-0.5s1.1-0.2,1.7-0.2c0.6,0,1,0.1,1.3,0.2s0.6,0.3,0.8,0.6
			c0.2,0.2,0.3,0.5,0.4,0.8s0.1,0.6,0.1,0.9c0,0.6,0,1.3,0,1.9c0,0.6,0,1.2,0,1.7c0,0.4,0,0.8,0,1.1c0,0.4,0.1,0.7,0.2,1h-0.9
			l-0.3-1.1h-0.1c-0.1,0.1-0.2,0.3-0.4,0.4c-0.1,0.1-0.3,0.3-0.5,0.4c-0.2,0.1-0.4,0.2-0.7,0.3c-0.3,0.1-0.6,0.1-0.9,0.1
			s-0.7-0.1-1-0.2s-0.5-0.3-0.8-0.5c-0.2-0.2-0.4-0.4-0.5-0.7c-0.1-0.3-0.2-0.6-0.2-0.9c0-0.5,0.1-0.9,0.3-1.2
			c0.2-0.3,0.5-0.6,0.8-0.8c0.3-0.2,0.8-0.3,1.2-0.4s1-0.1,1.6-0.1c0.1,0,0.3,0,0.4,0s0.3,0,0.4,0c0-0.3,0-0.6,0-0.9
			c0-0.6-0.1-1-0.4-1.2c-0.2-0.2-0.7-0.4-1.3-0.4c-0.2,0-0.4,0-0.6,0s-0.4,0.1-0.6,0.1s-0.4,0.1-0.6,0.2s-0.4,0.2-0.5,0.2
			L424.1,1453.6z M426.3,1460c0.3,0,0.6,0,0.8-0.1c0.2-0.1,0.4-0.2,0.6-0.3c0.2-0.1,0.3-0.3,0.4-0.4s0.2-0.3,0.2-0.4v-1.3
			c-0.1,0-0.3,0-0.5,0c-0.2,0-0.3,0-0.5,0c-0.3,0-0.7,0-1,0.1c-0.3,0-0.6,0.1-0.8,0.2c-0.2,0.1-0.4,0.2-0.6,0.4
			c-0.1,0.2-0.2,0.4-0.2,0.7c0,0.4,0.1,0.7,0.4,0.9C425.6,1459.9,425.9,1460,426.3,1460z"/>
		<path class="st6" d="M432.1,1453h0.9l0.2,1h0.1c0.2-0.4,0.6-0.7,1-0.9c0.4-0.2,0.8-0.3,1.3-0.3c1.1,0,1.9,0.3,2.4,0.9
			c0.5,0.6,0.8,1.7,0.8,3.1c0,0.7-0.1,1.3-0.3,1.8c-0.2,0.5-0.4,1-0.7,1.4c-0.3,0.4-0.7,0.7-1.2,0.9c-0.5,0.2-1,0.3-1.5,0.3
			c-0.4,0-0.7,0-0.9-0.1s-0.5-0.1-0.7-0.2v3.3h-1.3V1453z M435.4,1453.9c-0.5,0-1,0.1-1.3,0.4c-0.3,0.3-0.5,0.7-0.7,1.3v4
			c0.2,0.1,0.4,0.3,0.7,0.3c0.2,0.1,0.6,0.1,1,0.1c0.7,0,1.3-0.3,1.8-0.8c0.4-0.5,0.6-1.4,0.6-2.4c0-0.4,0-0.8-0.1-1.2
			c-0.1-0.4-0.2-0.7-0.4-0.9c-0.2-0.2-0.4-0.4-0.6-0.6C436.1,1454,435.7,1453.9,435.4,1453.9z"/>
		<path class="st6" d="M440.7,1453.6c0.4-0.2,0.9-0.4,1.4-0.5s1.1-0.2,1.7-0.2c0.6,0,1,0.1,1.3,0.2s0.6,0.3,0.8,0.6
			c0.2,0.2,0.3,0.5,0.4,0.8s0.1,0.6,0.1,0.9c0,0.6,0,1.3,0,1.9c0,0.6,0,1.2,0,1.7c0,0.4,0,0.8,0,1.1c0,0.4,0.1,0.7,0.2,1h-0.9
			l-0.3-1.1h-0.1c-0.1,0.1-0.2,0.3-0.4,0.4c-0.1,0.1-0.3,0.3-0.5,0.4c-0.2,0.1-0.4,0.2-0.7,0.3c-0.3,0.1-0.6,0.1-0.9,0.1
			s-0.7-0.1-1-0.2s-0.5-0.3-0.8-0.5c-0.2-0.2-0.4-0.4-0.5-0.7c-0.1-0.3-0.2-0.6-0.2-0.9c0-0.5,0.1-0.9,0.3-1.2
			c0.2-0.3,0.5-0.6,0.8-0.8c0.3-0.2,0.8-0.3,1.2-0.4s1-0.1,1.6-0.1c0.1,0,0.3,0,0.4,0s0.3,0,0.4,0c0-0.3,0-0.6,0-0.9
			c0-0.6-0.1-1-0.4-1.2c-0.2-0.2-0.7-0.4-1.3-0.4c-0.2,0-0.4,0-0.6,0s-0.4,0.1-0.6,0.1s-0.4,0.1-0.6,0.2s-0.4,0.2-0.5,0.2
			L440.7,1453.6z M442.9,1460c0.3,0,0.6,0,0.8-0.1c0.2-0.1,0.4-0.2,0.6-0.3c0.2-0.1,0.3-0.3,0.4-0.4s0.2-0.3,0.2-0.4v-1.3
			c-0.1,0-0.3,0-0.5,0c-0.2,0-0.3,0-0.5,0c-0.3,0-0.7,0-1,0.1c-0.3,0-0.6,0.1-0.8,0.2c-0.2,0.1-0.4,0.2-0.6,0.4
			c-0.1,0.2-0.2,0.4-0.2,0.7c0,0.4,0.1,0.7,0.4,0.9C442.2,1459.9,442.5,1460,442.9,1460z"/>
		<path class="st6" d="M448.7,1449.8h1.3v4h0.1c0.2-0.3,0.6-0.5,0.9-0.7c0.4-0.2,0.8-0.3,1.2-0.3c1,0,1.8,0.3,2.3,1
			c0.5,0.7,0.8,1.7,0.8,3.1c0,1.4-0.3,2.5-1,3.2c-0.7,0.7-1.6,1.1-2.9,1.1c-0.6,0-1.1-0.1-1.6-0.2c-0.5-0.1-0.9-0.3-1.1-0.4V1449.8z
			 M452,1453.9c-0.5,0-1,0.1-1.3,0.4s-0.6,0.7-0.7,1.3v4c0.2,0.1,0.4,0.2,0.7,0.3c0.3,0.1,0.6,0.1,0.9,0.1c0.7,0,1.3-0.3,1.7-0.8
			c0.4-0.5,0.6-1.3,0.6-2.4c0-0.4,0-0.8-0.1-1.2c-0.1-0.4-0.2-0.7-0.4-0.9s-0.4-0.5-0.6-0.6C452.7,1454,452.4,1453.9,452,1453.9z"/>
		<path class="st6" d="M457.4,1450.6c0-0.2,0.1-0.5,0.2-0.6c0.2-0.2,0.4-0.3,0.6-0.3c0.3,0,0.5,0.1,0.7,0.3c0.2,0.2,0.3,0.4,0.3,0.6
			c0,0.2-0.1,0.4-0.3,0.6s-0.4,0.2-0.7,0.2c-0.3,0-0.5-0.1-0.6-0.2S457.4,1450.8,457.4,1450.6z M457.6,1453h1.3v8h-1.3V1453z"/>
		<path class="st6" d="M463.1,1459c0,0.4,0.1,0.6,0.2,0.8s0.3,0.2,0.5,0.2c0.1,0,0.3,0,0.4,0s0.3-0.1,0.5-0.1l0.1,1
			c-0.2,0.1-0.4,0.2-0.7,0.2c-0.3,0.1-0.6,0.1-0.8,0.1c-0.5,0-0.9-0.1-1.2-0.4c-0.3-0.3-0.5-0.7-0.5-1.4v-9.6h1.3V1459z"/>
		<path class="st6" d="M466.3,1450.6c0-0.2,0.1-0.5,0.2-0.6c0.2-0.2,0.4-0.3,0.6-0.3c0.3,0,0.5,0.1,0.7,0.3c0.2,0.2,0.3,0.4,0.3,0.6
			c0,0.2-0.1,0.4-0.3,0.6s-0.4,0.2-0.7,0.2c-0.3,0-0.5-0.1-0.6-0.2S466.3,1450.8,466.3,1450.6z M466.6,1453h1.3v8h-1.3V1453z"/>
		<path class="st6" d="M469.6,1453h1.2v-1.6l1.3-0.4v2h2.2v1.1h-2.2v4.4c0,0.6,0.1,0.9,0.2,1.2c0.1,0.2,0.4,0.3,0.7,0.3
			c0.3,0,0.5,0,0.7-0.1c0.2-0.1,0.4-0.1,0.6-0.2l0.3,1c-0.3,0.1-0.6,0.3-0.9,0.3c-0.3,0.1-0.7,0.1-1.1,0.1c-0.7,0-1.1-0.2-1.4-0.6
			c-0.3-0.4-0.4-1-0.4-1.8v-4.7h-1.2V1453z"/>
		<path class="st6" d="M478.4,1458.2l0.4,1.5h0.1l0.4-1.6l1.6-5.2h1.3l-2.4,7.2c-0.2,0.5-0.4,1-0.5,1.5c-0.2,0.5-0.4,0.9-0.6,1.3
			c-0.2,0.4-0.5,0.7-0.7,0.9s-0.6,0.3-0.9,0.3c-0.4,0-0.7-0.1-0.9-0.2l0.2-1.1c0.1,0.1,0.3,0.1,0.4,0.1c0.3,0,0.6-0.2,0.9-0.5
			s0.5-0.9,0.7-1.6l-3.2-8h1.5L478.4,1458.2z"/>
	</g>
	<g class="st5">
		<path class="st6" d="M392.8,1471.8h1.3v4h0.1c0.2-0.3,0.6-0.5,0.9-0.7c0.4-0.2,0.8-0.3,1.2-0.3c1,0,1.8,0.3,2.3,1
			c0.5,0.7,0.8,1.7,0.8,3.1c0,1.4-0.3,2.5-1,3.2c-0.7,0.7-1.6,1.1-2.9,1.1c-0.6,0-1.1-0.1-1.6-0.2s-0.9-0.3-1.1-0.4V1471.8z
			 M396.1,1475.9c-0.5,0-1,0.1-1.3,0.4c-0.3,0.3-0.6,0.7-0.7,1.3v4c0.2,0.1,0.4,0.2,0.7,0.3c0.3,0.1,0.6,0.1,0.9,0.1
			c0.7,0,1.3-0.3,1.7-0.8c0.4-0.5,0.6-1.3,0.6-2.4c0-0.4,0-0.8-0.1-1.2c-0.1-0.4-0.2-0.7-0.4-0.9s-0.4-0.5-0.6-0.6
			S396.4,1475.9,396.1,1475.9z"/>
		<path class="st6" d="M402.6,1475v4.6c0,0.4,0,0.8,0.1,1.1s0.1,0.6,0.2,0.8s0.3,0.4,0.5,0.5c0.2,0.1,0.5,0.2,0.8,0.2
			c0.3,0,0.5,0,0.8-0.1c0.2-0.1,0.4-0.2,0.6-0.4c0.2-0.2,0.3-0.3,0.5-0.6s0.2-0.4,0.3-0.7v-5.3h1.3v5.7c0,0.4,0,0.8,0,1.2
			c0,0.4,0.1,0.8,0.1,1.1h-0.9l-0.3-1.3h-0.1c-0.2,0.4-0.6,0.8-1,1s-0.9,0.4-1.6,0.4c-0.4,0-0.8-0.1-1.1-0.2s-0.6-0.3-0.8-0.5
			c-0.2-0.3-0.4-0.6-0.5-1c-0.1-0.4-0.2-1-0.2-1.6v-4.8H402.6z"/>
		<path class="st6" d="M410,1472.6c0-0.2,0.1-0.5,0.2-0.6c0.2-0.2,0.4-0.3,0.6-0.3s0.5,0.1,0.7,0.3c0.2,0.2,0.3,0.4,0.3,0.6
			c0,0.2-0.1,0.4-0.3,0.6c-0.2,0.2-0.4,0.2-0.7,0.2s-0.5-0.1-0.6-0.2C410.1,1473,410,1472.8,410,1472.6z M410.3,1475h1.3v8h-1.3
			V1475z"/>
		<path class="st6" d="M415.8,1481c0,0.4,0.1,0.6,0.2,0.8s0.3,0.2,0.5,0.2c0.1,0,0.3,0,0.4,0c0.2,0,0.3-0.1,0.5-0.1l0.1,1
			c-0.2,0.1-0.4,0.2-0.7,0.2c-0.3,0.1-0.6,0.1-0.8,0.1c-0.5,0-0.9-0.1-1.2-0.4c-0.3-0.3-0.5-0.7-0.5-1.4v-9.6h1.3V1481z"/>
		<path class="st6" d="M425.2,1480.2c0,0.5,0,1,0,1.5c0,0.4,0.1,0.9,0.1,1.3h-0.9l-0.3-1.1h-0.1c-0.2,0.4-0.5,0.7-0.9,0.9
			s-0.9,0.4-1.4,0.4c-1.1,0-1.9-0.3-2.4-1c-0.5-0.7-0.8-1.7-0.8-3.2c0-1.4,0.3-2.4,1-3.1c0.6-0.7,1.5-1.1,2.7-1.1
			c0.4,0,0.7,0,0.9,0.1c0.2,0,0.5,0.1,0.7,0.2v-3.3h1.3V1480.2z M421.9,1482.1c0.5,0,1-0.1,1.3-0.4c0.3-0.3,0.5-0.7,0.7-1.3v-4
			c-0.2-0.1-0.4-0.3-0.7-0.3c-0.2-0.1-0.6-0.1-1-0.1c-0.7,0-1.3,0.2-1.7,0.7s-0.6,1.3-0.6,2.3c0,0.4,0,0.8,0.1,1.2s0.2,0.7,0.3,1
			s0.4,0.5,0.6,0.6C421.2,1482,421.5,1482.1,421.9,1482.1z"/>
		<path class="st6" d="M427.6,1472.6c0-0.2,0.1-0.5,0.2-0.6c0.2-0.2,0.4-0.3,0.6-0.3s0.5,0.1,0.7,0.3c0.2,0.2,0.3,0.4,0.3,0.6
			c0,0.2-0.1,0.4-0.3,0.6c-0.2,0.2-0.4,0.2-0.7,0.2s-0.5-0.1-0.6-0.2C427.7,1473,427.6,1472.8,427.6,1472.6z M427.9,1475h1.3v8h-1.3
			V1475z"/>
		<path class="st6" d="M437,1483v-4.6c0-0.8-0.1-1.5-0.4-1.9c-0.2-0.4-0.7-0.6-1.3-0.6c-0.6,0-1,0.2-1.4,0.5
			c-0.4,0.3-0.6,0.7-0.8,1.1v5.5h-1.3v-8h0.9l0.2,1h0.1c0.3-0.3,0.6-0.6,1-0.8c0.4-0.2,0.9-0.3,1.5-0.3c0.4,0,0.8,0.1,1.2,0.2
			s0.6,0.3,0.8,0.5s0.4,0.6,0.5,1c0.1,0.4,0.2,1,0.2,1.6v4.8H437z"/>
		<path class="st6" d="M446.8,1483.4c0,1-0.3,1.8-0.8,2.3c-0.5,0.5-1.4,0.7-2.4,0.7c-0.6,0-1.2,0-1.5-0.1c-0.4-0.1-0.7-0.2-1-0.3
			l0.3-1.1c0.2,0.1,0.5,0.2,0.8,0.3c0.3,0.1,0.7,0.1,1.2,0.1c0.4,0,0.8,0,1.1-0.1c0.3-0.1,0.5-0.2,0.7-0.4c0.2-0.2,0.3-0.4,0.4-0.7
			c0.1-0.3,0.1-0.6,0.1-1v-0.8h-0.1c-0.2,0.3-0.5,0.5-0.8,0.7c-0.3,0.2-0.8,0.2-1.3,0.2c-1.1,0-1.9-0.3-2.4-1s-0.8-1.7-0.8-3.1
			c0-1.4,0.3-2.4,1-3.1c0.7-0.7,1.6-1.1,2.9-1.1c0.6,0,1.1,0,1.6,0.1s0.8,0.2,1.2,0.3V1483.4z M443.6,1482.1c0.5,0,1-0.1,1.3-0.4
			c0.3-0.3,0.5-0.7,0.7-1.3v-4.1c-0.4-0.2-1-0.3-1.6-0.3c-0.7,0-1.3,0.2-1.7,0.7c-0.4,0.5-0.6,1.3-0.6,2.3c0,0.4,0,0.9,0.1,1.2
			c0.1,0.4,0.2,0.7,0.4,1s0.4,0.5,0.6,0.6S443.2,1482.1,443.6,1482.1z"/>
		<path class="st6" d="M452.5,1475h1.2v-1.6l1.3-0.4v2h2.2v1.1H455v4.4c0,0.6,0.1,0.9,0.2,1.2c0.1,0.2,0.4,0.3,0.7,0.3
			c0.3,0,0.5,0,0.7-0.1c0.2-0.1,0.4-0.1,0.6-0.2l0.3,1c-0.3,0.1-0.6,0.3-0.9,0.3c-0.3,0.1-0.7,0.1-1.1,0.1c-0.7,0-1.1-0.2-1.4-0.6
			c-0.3-0.4-0.4-1-0.4-1.8v-4.7h-1.2V1475z"/>
		<path class="st6" d="M464.1,1483v-4.6c0-0.4,0-0.8-0.1-1.1c0-0.3-0.1-0.6-0.3-0.8c-0.1-0.2-0.3-0.4-0.5-0.5s-0.5-0.2-0.9-0.2
			c-0.5,0-1,0.2-1.4,0.5s-0.7,0.7-0.8,1.3v5.3h-1.3v-11.2h1.3v4.1h0.1c0.3-0.3,0.6-0.6,1-0.8c0.4-0.2,0.9-0.3,1.4-0.3
			c0.4,0,0.8,0.1,1.2,0.2c0.3,0.1,0.6,0.3,0.8,0.5s0.4,0.6,0.5,1c0.1,0.4,0.2,1,0.2,1.6v4.8H464.1z"/>
		<path class="st6" d="M471.5,1476.2c-0.3-0.1-0.6-0.2-0.9-0.2c-0.5,0-0.8,0.1-1.1,0.4s-0.4,0.6-0.5,1v5.6h-1.3v-8h0.9l0.2,1h0.1
			c0.2-0.4,0.4-0.6,0.7-0.8c0.3-0.2,0.6-0.3,1.1-0.3c0.3,0,0.7,0.1,1,0.2L471.5,1476.2z"/>
		<path class="st6" d="M472.7,1479c0-1.4,0.3-2.4,0.9-3.1c0.6-0.7,1.5-1.1,2.6-1.1c0.6,0,1.1,0.1,1.6,0.3c0.4,0.2,0.8,0.5,1.1,0.8
			s0.5,0.8,0.6,1.3s0.2,1.1,0.2,1.7c0,1.4-0.3,2.4-0.9,3.1c-0.6,0.7-1.5,1.1-2.6,1.1c-0.6,0-1.1-0.1-1.6-0.3
			c-0.4-0.2-0.8-0.5-1.1-0.8c-0.3-0.4-0.5-0.8-0.6-1.3C472.8,1480.2,472.7,1479.6,472.7,1479z M474,1479c0,0.4,0,0.8,0.1,1.2
			s0.2,0.7,0.4,1c0.2,0.3,0.4,0.5,0.7,0.7c0.3,0.2,0.6,0.3,1,0.3c1.5,0,2.2-1,2.2-3.1c0-0.4,0-0.8-0.1-1.2c-0.1-0.4-0.2-0.7-0.4-1
			c-0.2-0.3-0.4-0.5-0.7-0.7c-0.3-0.2-0.6-0.2-1-0.2C474.7,1475.9,474,1476.9,474,1479z"/>
		<path class="st6" d="M482.9,1475v4.6c0,0.4,0,0.8,0.1,1.1s0.1,0.6,0.2,0.8s0.3,0.4,0.5,0.5c0.2,0.1,0.5,0.2,0.8,0.2
			c0.3,0,0.5,0,0.8-0.1c0.2-0.1,0.4-0.2,0.6-0.4c0.2-0.2,0.3-0.3,0.5-0.6s0.2-0.4,0.3-0.7v-5.3h1.3v5.7c0,0.4,0,0.8,0,1.2
			c0,0.4,0.1,0.8,0.1,1.1h-0.9l-0.3-1.3h-0.1c-0.2,0.4-0.6,0.8-1,1s-0.9,0.4-1.6,0.4c-0.4,0-0.8-0.1-1.1-0.2s-0.6-0.3-0.8-0.5
			c-0.2-0.3-0.4-0.6-0.5-1c-0.1-0.4-0.2-1-0.2-1.6v-4.8H482.9z"/>
		<path class="st6" d="M496.5,1483.4c0,1-0.3,1.8-0.8,2.3c-0.5,0.5-1.4,0.7-2.4,0.7c-0.6,0-1.2,0-1.5-0.1c-0.4-0.1-0.7-0.2-1-0.3
			l0.3-1.1c0.2,0.1,0.5,0.2,0.8,0.3c0.3,0.1,0.7,0.1,1.2,0.1c0.4,0,0.8,0,1.1-0.1c0.3-0.1,0.5-0.2,0.7-0.4s0.3-0.4,0.4-0.7
			c0.1-0.3,0.1-0.6,0.1-1v-0.8h-0.1c-0.2,0.3-0.5,0.5-0.8,0.7c-0.3,0.2-0.8,0.2-1.3,0.2c-1.1,0-1.9-0.3-2.4-1
			c-0.5-0.7-0.8-1.7-0.8-3.1c0-1.4,0.3-2.4,1-3.1c0.7-0.7,1.6-1.1,2.9-1.1c0.6,0,1.1,0,1.6,0.1c0.4,0.1,0.8,0.2,1.2,0.3V1483.4z
			 M493.2,1482.1c0.5,0,1-0.1,1.3-0.4c0.3-0.3,0.5-0.7,0.7-1.3v-4.1c-0.4-0.2-1-0.3-1.6-0.3c-0.7,0-1.3,0.2-1.7,0.7
			c-0.4,0.5-0.6,1.3-0.6,2.3c0,0.4,0,0.9,0.1,1.2s0.2,0.7,0.4,1c0.2,0.3,0.4,0.5,0.6,0.6C492.6,1482,492.9,1482.1,493.2,1482.1z"/>
		<path class="st6" d="M504.1,1483v-4.6c0-0.4,0-0.8-0.1-1.1c0-0.3-0.1-0.6-0.3-0.8c-0.1-0.2-0.3-0.4-0.5-0.5s-0.5-0.2-0.9-0.2
			c-0.5,0-1,0.2-1.4,0.5s-0.7,0.7-0.8,1.3v5.3h-1.3v-11.2h1.3v4.1h0.1c0.3-0.3,0.6-0.6,1-0.8c0.4-0.2,0.9-0.3,1.4-0.3
			c0.4,0,0.8,0.1,1.2,0.2c0.3,0.1,0.6,0.3,0.8,0.5s0.4,0.6,0.5,1c0.1,0.4,0.2,1,0.2,1.6v4.8H504.1z"/>
	</g>
	<g class="st5">
		<path class="st6" d="M392.3,1504.4c-0.3,0.3-0.7,0.5-1.2,0.6s-1,0.2-1.5,0.2c-0.6,0-1.1-0.1-1.6-0.3c-0.4-0.2-0.8-0.5-1.1-0.8
			c-0.3-0.4-0.5-0.8-0.6-1.3c-0.1-0.5-0.2-1.1-0.2-1.7c0-1.4,0.3-2.4,0.9-3.1c0.6-0.7,1.5-1.1,2.6-1.1c0.4,0,0.7,0,1.1,0.1
			c0.4,0.1,0.7,0.2,1,0.5c0.3,0.2,0.5,0.5,0.7,1c0.2,0.4,0.3,1,0.3,1.6c0,0.4,0,0.7-0.1,1.2h-5.1c0,0.5,0,0.9,0.1,1.2
			c0.1,0.4,0.2,0.7,0.4,0.9c0.2,0.3,0.5,0.4,0.8,0.6c0.3,0.1,0.7,0.2,1.2,0.2c0.4,0,0.7-0.1,1.1-0.2s0.6-0.3,0.8-0.4L392.3,1504.4z
			 M389.5,1497.9c-0.6,0-1.1,0.2-1.5,0.5c-0.4,0.3-0.6,0.9-0.7,1.7h4c0-0.8-0.2-1.4-0.5-1.7S390.1,1497.9,389.5,1497.9z"/>
		<path class="st6" d="M396.3,1500.9l-2.7-3.9h1.6l1.5,2.2l0.4,0.9l0.5-0.9l1.6-2.2h1.4l-2.7,3.8l2.9,4.2h-1.5l-1.7-2.4l-0.5-1
			l-0.5,1l-1.7,2.4h-1.4L396.3,1500.9z"/>
		<path class="st6" d="M402.4,1497h0.9l0.2,1h0.1c0.2-0.4,0.6-0.7,1-0.9c0.4-0.2,0.8-0.3,1.3-0.3c1.1,0,1.9,0.3,2.4,0.9
			c0.5,0.6,0.8,1.7,0.8,3.1c0,0.7-0.1,1.3-0.3,1.8c-0.2,0.5-0.4,1-0.7,1.4c-0.3,0.4-0.7,0.7-1.2,0.9c-0.5,0.2-1,0.3-1.5,0.3
			c-0.4,0-0.7,0-0.9-0.1s-0.5-0.1-0.7-0.2v3.3h-1.3V1497z M405.7,1497.9c-0.5,0-1,0.1-1.3,0.4c-0.3,0.3-0.5,0.7-0.7,1.3v4
			c0.2,0.1,0.4,0.3,0.7,0.3c0.2,0.1,0.6,0.1,1,0.1c0.7,0,1.3-0.3,1.8-0.8c0.4-0.5,0.6-1.4,0.6-2.4c0-0.4,0-0.8-0.1-1.2
			c-0.1-0.4-0.2-0.7-0.4-0.9c-0.2-0.2-0.4-0.4-0.6-0.6C406.4,1498,406.1,1497.9,405.7,1497.9z"/>
		<path class="st6" d="M416.9,1504.4c-0.3,0.3-0.7,0.5-1.2,0.6s-1,0.2-1.5,0.2c-0.6,0-1.1-0.1-1.6-0.3c-0.4-0.2-0.8-0.5-1.1-0.8
			c-0.3-0.4-0.5-0.8-0.6-1.3c-0.1-0.5-0.2-1.1-0.2-1.7c0-1.4,0.3-2.4,0.9-3.1c0.6-0.7,1.5-1.1,2.6-1.1c0.4,0,0.7,0,1.1,0.1
			c0.4,0.1,0.7,0.2,1,0.5c0.3,0.2,0.5,0.5,0.7,1c0.2,0.4,0.3,1,0.3,1.6c0,0.4,0,0.7-0.1,1.2H412c0,0.5,0,0.9,0.1,1.2
			c0.1,0.4,0.2,0.7,0.4,0.9c0.2,0.3,0.5,0.4,0.8,0.6c0.3,0.1,0.7,0.2,1.2,0.2c0.4,0,0.7-0.1,1.1-0.2s0.6-0.3,0.8-0.4L416.9,1504.4z
			 M414.2,1497.9c-0.6,0-1.1,0.2-1.5,0.5c-0.4,0.3-0.6,0.9-0.7,1.7h4c0-0.8-0.2-1.4-0.5-1.7S414.7,1497.9,414.2,1497.9z"/>
		<path class="st6" d="M423,1498.2c-0.3-0.1-0.6-0.2-0.9-0.2c-0.5,0-0.8,0.1-1.1,0.4s-0.4,0.6-0.5,1v5.6h-1.3v-8h0.9l0.2,1h0.1
			c0.2-0.4,0.4-0.6,0.7-0.8c0.3-0.2,0.6-0.3,1.1-0.3c0.3,0,0.7,0.1,1,0.2L423,1498.2z"/>
		<path class="st6" d="M424.7,1494.6c0-0.2,0.1-0.5,0.2-0.6c0.2-0.2,0.4-0.3,0.6-0.3c0.3,0,0.5,0.1,0.7,0.3c0.2,0.2,0.3,0.4,0.3,0.6
			c0,0.2-0.1,0.4-0.3,0.6c-0.2,0.2-0.4,0.2-0.7,0.2c-0.3,0-0.5-0.1-0.6-0.2C424.7,1495,424.7,1494.8,424.7,1494.6z M424.9,1497h1.3
			v8h-1.3V1497z"/>
		<path class="st6" d="M434.8,1504.4c-0.3,0.3-0.7,0.5-1.2,0.6s-1,0.2-1.5,0.2c-0.6,0-1.1-0.1-1.6-0.3c-0.4-0.2-0.8-0.5-1.1-0.8
			c-0.3-0.4-0.5-0.8-0.6-1.3c-0.1-0.5-0.2-1.1-0.2-1.7c0-1.4,0.3-2.4,0.9-3.1c0.6-0.7,1.5-1.1,2.6-1.1c0.4,0,0.7,0,1.1,0.1
			c0.4,0.1,0.7,0.2,1,0.5c0.3,0.2,0.5,0.5,0.7,1c0.2,0.4,0.3,1,0.3,1.6c0,0.4,0,0.7-0.1,1.2h-5.1c0,0.5,0,0.9,0.1,1.2
			c0.1,0.4,0.2,0.7,0.4,0.9c0.2,0.3,0.5,0.4,0.8,0.6c0.3,0.1,0.7,0.2,1.2,0.2c0.4,0,0.7-0.1,1.1-0.2s0.6-0.3,0.8-0.4L434.8,1504.4z
			 M432,1497.9c-0.6,0-1.1,0.2-1.5,0.5c-0.4,0.3-0.6,0.9-0.7,1.7h4c0-0.8-0.2-1.4-0.5-1.7S432.6,1497.9,432,1497.9z"/>
		<path class="st6" d="M442.2,1505v-4.6c0-0.8-0.1-1.5-0.4-1.9c-0.2-0.4-0.7-0.6-1.3-0.6c-0.6,0-1,0.2-1.4,0.5
			c-0.4,0.3-0.6,0.7-0.8,1.1v5.5h-1.3v-8h0.9l0.2,1h0.1c0.3-0.3,0.6-0.6,1-0.8c0.4-0.2,0.9-0.3,1.5-0.3c0.4,0,0.8,0.1,1.2,0.2
			c0.3,0.1,0.6,0.3,0.8,0.5s0.4,0.6,0.5,1c0.1,0.4,0.2,1,0.2,1.6v4.8H442.2z"/>
		<path class="st6" d="M451.3,1504.5c-0.3,0.2-0.7,0.4-1.1,0.5c-0.4,0.1-0.9,0.2-1.4,0.2c-0.6,0-1.1-0.1-1.6-0.3
			c-0.4-0.2-0.8-0.5-1-0.8s-0.5-0.8-0.6-1.3c-0.1-0.5-0.2-1.1-0.2-1.7c0-1.4,0.3-2.4,0.9-3.1c0.6-0.7,1.5-1.1,2.6-1.1
			c0.5,0,0.9,0,1.3,0.1s0.7,0.2,1,0.3l-0.4,1.1c-0.2-0.1-0.5-0.2-0.8-0.3c-0.3-0.1-0.6-0.1-1-0.1c-1.5,0-2.3,1-2.3,3.1
			c0,0.4,0,0.8,0.1,1.2s0.2,0.7,0.4,1c0.2,0.3,0.4,0.5,0.7,0.7c0.3,0.2,0.7,0.3,1.1,0.3c0.4,0,0.7-0.1,1-0.2
			c0.3-0.1,0.6-0.3,0.7-0.4L451.3,1504.5z"/>
		<path class="st6" d="M458.5,1504.4c-0.3,0.3-0.7,0.5-1.2,0.6c-0.5,0.1-1,0.2-1.5,0.2c-0.6,0-1.1-0.1-1.6-0.3
			c-0.4-0.2-0.8-0.5-1.1-0.8c-0.3-0.4-0.5-0.8-0.6-1.3c-0.1-0.5-0.2-1.1-0.2-1.7c0-1.4,0.3-2.4,0.9-3.1c0.6-0.7,1.5-1.1,2.6-1.1
			c0.4,0,0.7,0,1.1,0.1c0.4,0.1,0.7,0.2,1,0.5c0.3,0.2,0.5,0.5,0.7,1c0.2,0.4,0.3,1,0.3,1.6c0,0.4,0,0.7-0.1,1.2h-5.1
			c0,0.5,0,0.9,0.1,1.2c0.1,0.4,0.2,0.7,0.4,0.9c0.2,0.3,0.5,0.4,0.8,0.6c0.3,0.1,0.7,0.2,1.2,0.2c0.4,0,0.7-0.1,1.1-0.2
			c0.4-0.1,0.6-0.3,0.8-0.4L458.5,1504.4z M455.8,1497.9c-0.6,0-1.1,0.2-1.5,0.5c-0.4,0.3-0.6,0.9-0.7,1.7h4c0-0.8-0.2-1.4-0.5-1.7
			S456.3,1497.9,455.8,1497.9z"/>
		<path class="st6" d="M467,1502.2c0,0.5,0,1,0,1.5c0,0.4,0.1,0.9,0.1,1.3h-0.9l-0.3-1.1h-0.1c-0.2,0.4-0.5,0.7-0.9,0.9
			c-0.4,0.2-0.9,0.4-1.4,0.4c-1.1,0-1.9-0.3-2.4-1c-0.5-0.7-0.8-1.7-0.8-3.2c0-1.4,0.3-2.4,1-3.1c0.6-0.7,1.5-1.1,2.7-1.1
			c0.4,0,0.7,0,0.9,0.1c0.2,0,0.5,0.1,0.7,0.2v-3.3h1.3V1502.2z M463.7,1504.1c0.5,0,1-0.1,1.3-0.4c0.3-0.3,0.5-0.7,0.7-1.3v-4
			c-0.2-0.1-0.4-0.3-0.7-0.3c-0.2-0.1-0.6-0.1-1-0.1c-0.7,0-1.3,0.2-1.7,0.7s-0.6,1.3-0.6,2.3c0,0.4,0,0.8,0.1,1.2s0.2,0.7,0.3,1
			s0.4,0.5,0.6,0.6C463,1504,463.3,1504.1,463.7,1504.1z"/>
		<path class="st6" d="M472.6,1497h1.2v-1.6l1.3-0.4v2h2.2v1.1h-2.2v4.4c0,0.6,0.1,0.9,0.2,1.2c0.1,0.2,0.4,0.3,0.7,0.3
			c0.3,0,0.5,0,0.7-0.1c0.2-0.1,0.4-0.1,0.6-0.2l0.3,1c-0.3,0.1-0.6,0.3-0.9,0.3c-0.3,0.1-0.7,0.1-1.1,0.1c-0.7,0-1.1-0.2-1.4-0.6
			c-0.3-0.4-0.4-1-0.4-1.8v-4.7h-1.2V1497z"/>
		<path class="st6" d="M479,1497.6c0.4-0.2,0.9-0.4,1.4-0.5c0.5-0.1,1.1-0.2,1.7-0.2c0.6,0,1,0.1,1.3,0.2s0.6,0.3,0.8,0.6
			c0.2,0.2,0.3,0.5,0.4,0.8s0.1,0.6,0.1,0.9c0,0.6,0,1.3,0,1.9s0,1.2,0,1.7c0,0.4,0,0.8,0,1.1c0,0.4,0.1,0.7,0.2,1h-0.9l-0.3-1.1
			h-0.1c-0.1,0.1-0.2,0.3-0.4,0.4c-0.1,0.1-0.3,0.3-0.5,0.4c-0.2,0.1-0.4,0.2-0.7,0.3c-0.3,0.1-0.6,0.1-0.9,0.1
			c-0.3,0-0.7-0.1-1-0.2c-0.3-0.1-0.5-0.3-0.8-0.5c-0.2-0.2-0.4-0.4-0.5-0.7c-0.1-0.3-0.2-0.6-0.2-0.9c0-0.5,0.1-0.9,0.3-1.2
			c0.2-0.3,0.5-0.6,0.8-0.8c0.3-0.2,0.8-0.3,1.2-0.4s1-0.1,1.6-0.1c0.1,0,0.3,0,0.4,0c0.1,0,0.3,0,0.4,0c0-0.3,0-0.6,0-0.9
			c0-0.6-0.1-1-0.4-1.2c-0.2-0.2-0.7-0.4-1.3-0.4c-0.2,0-0.4,0-0.6,0s-0.4,0.1-0.6,0.1s-0.4,0.1-0.6,0.2s-0.4,0.2-0.5,0.2
			L479,1497.6z M481.3,1504c0.3,0,0.6,0,0.8-0.1s0.4-0.2,0.6-0.3c0.2-0.1,0.3-0.3,0.4-0.4s0.2-0.3,0.2-0.4v-1.3c-0.1,0-0.3,0-0.5,0
			c-0.2,0-0.3,0-0.5,0c-0.3,0-0.7,0-1,0.1c-0.3,0-0.6,0.1-0.8,0.2c-0.2,0.1-0.4,0.2-0.6,0.4c-0.1,0.2-0.2,0.4-0.2,0.7
			c0,0.4,0.1,0.7,0.4,0.9C480.5,1503.9,480.8,1504,481.3,1504z"/>
		<path class="st6" d="M488.5,1503c0,0.4,0.1,0.6,0.2,0.8c0.1,0.2,0.3,0.2,0.5,0.2c0.1,0,0.3,0,0.4,0s0.3-0.1,0.5-0.1l0.1,1
			c-0.2,0.1-0.4,0.2-0.7,0.2c-0.3,0.1-0.6,0.1-0.8,0.1c-0.5,0-0.9-0.1-1.2-0.4c-0.3-0.3-0.5-0.7-0.5-1.4v-9.6h1.3V1503z"/>
		<path class="st6" d="M497.6,1504.4c-0.3,0.3-0.7,0.5-1.2,0.6c-0.5,0.1-1,0.2-1.5,0.2c-0.6,0-1.1-0.1-1.6-0.3
			c-0.4-0.2-0.8-0.5-1.1-0.8s-0.5-0.8-0.6-1.3c-0.1-0.5-0.2-1.1-0.2-1.7c0-1.4,0.3-2.4,0.9-3.1c0.6-0.7,1.5-1.1,2.6-1.1
			c0.4,0,0.7,0,1.1,0.1c0.4,0.1,0.7,0.2,1,0.5c0.3,0.2,0.5,0.5,0.7,1c0.2,0.4,0.3,1,0.3,1.6c0,0.4,0,0.7-0.1,1.2h-5.1
			c0,0.5,0,0.9,0.1,1.2s0.2,0.7,0.4,0.9c0.2,0.3,0.5,0.4,0.8,0.6c0.3,0.1,0.7,0.2,1.2,0.2c0.4,0,0.7-0.1,1.1-0.2
			c0.4-0.1,0.6-0.3,0.8-0.4L497.6,1504.4z M494.8,1497.9c-0.6,0-1.1,0.2-1.5,0.5c-0.4,0.3-0.6,0.9-0.7,1.7h4c0-0.8-0.2-1.4-0.5-1.7
			S495.4,1497.9,494.8,1497.9z"/>
		<path class="st6" d="M505,1505v-4.6c0-0.8-0.1-1.5-0.4-1.9c-0.2-0.4-0.7-0.6-1.3-0.6c-0.6,0-1,0.2-1.4,0.5
			c-0.4,0.3-0.6,0.7-0.8,1.1v5.5h-1.3v-8h0.9l0.2,1h0.1c0.3-0.3,0.6-0.6,1-0.8c0.4-0.2,0.9-0.3,1.5-0.3c0.4,0,0.8,0.1,1.2,0.2
			s0.6,0.3,0.8,0.5s0.4,0.6,0.5,1c0.1,0.4,0.2,1,0.2,1.6v4.8H505z"/>
		<path class="st6" d="M507.5,1497h1.2v-1.6l1.3-0.4v2h2.2v1.1h-2.2v4.4c0,0.6,0.1,0.9,0.2,1.2c0.1,0.2,0.4,0.3,0.7,0.3
			c0.3,0,0.5,0,0.7-0.1c0.2-0.1,0.4-0.1,0.6-0.2l0.3,1c-0.3,0.1-0.6,0.3-0.9,0.3c-0.3,0.1-0.7,0.1-1.1,0.1c-0.7,0-1.1-0.2-1.4-0.6
			c-0.3-0.4-0.4-1-0.4-1.8v-4.7h-1.2V1497z"/>
	</g>
	<g class="st5">
		<path class="st6" d="M419.4,1523c0-1.4,0.3-2.4,0.9-3.1c0.6-0.7,1.5-1.1,2.6-1.1c0.6,0,1.1,0.1,1.6,0.3c0.4,0.2,0.8,0.5,1.1,0.8
			s0.5,0.8,0.6,1.3s0.2,1.1,0.2,1.7c0,1.4-0.3,2.4-0.9,3.1c-0.6,0.7-1.5,1.1-2.6,1.1c-0.6,0-1.1-0.1-1.6-0.3
			c-0.4-0.2-0.8-0.5-1.1-0.8c-0.3-0.4-0.5-0.8-0.6-1.3C419.5,1524.2,419.4,1523.6,419.4,1523z M420.7,1523c0,0.4,0,0.8,0.1,1.2
			s0.2,0.7,0.4,1c0.2,0.3,0.4,0.5,0.7,0.7c0.3,0.2,0.6,0.3,1,0.3c1.5,0,2.2-1,2.2-3.1c0-0.4,0-0.8-0.1-1.2c-0.1-0.4-0.2-0.7-0.4-1
			c-0.2-0.3-0.4-0.5-0.7-0.7c-0.3-0.2-0.6-0.2-1-0.2C421.4,1519.9,420.7,1520.9,420.7,1523z"/>
		<path class="st6" d="M433.5,1527v-4.6c0-0.8-0.1-1.5-0.4-1.9c-0.2-0.4-0.7-0.6-1.3-0.6c-0.6,0-1,0.2-1.4,0.5
			c-0.4,0.3-0.6,0.7-0.8,1.1v5.5h-1.3v-8h0.9l0.2,1h0.1c0.3-0.3,0.6-0.6,1-0.8c0.4-0.2,0.9-0.3,1.5-0.3c0.4,0,0.8,0.1,1.2,0.2
			c0.3,0.1,0.6,0.3,0.8,0.5s0.4,0.6,0.5,1c0.1,0.4,0.2,1,0.2,1.6v4.8H433.5z"/>
		<path class="st6" d="M441.4,1515.8h1.3v4h0.1c0.2-0.3,0.6-0.5,0.9-0.7c0.4-0.2,0.8-0.3,1.2-0.3c1,0,1.8,0.3,2.3,1
			c0.5,0.7,0.8,1.7,0.8,3.1c0,1.4-0.3,2.5-1,3.2c-0.7,0.7-1.6,1.1-2.9,1.1c-0.6,0-1.1-0.1-1.6-0.2c-0.5-0.1-0.9-0.3-1.1-0.4V1515.8z
			 M444.7,1519.9c-0.5,0-1,0.1-1.3,0.4s-0.6,0.7-0.7,1.3v4c0.2,0.1,0.4,0.2,0.7,0.3c0.3,0.1,0.6,0.1,0.9,0.1c0.7,0,1.3-0.3,1.7-0.8
			c0.4-0.5,0.6-1.3,0.6-2.4c0-0.4,0-0.8-0.1-1.2c-0.1-0.4-0.2-0.7-0.4-0.9s-0.4-0.5-0.6-0.6C445.4,1520,445.1,1519.9,444.7,1519.9z"
			/>
		<path class="st6" d="M449.6,1523c0-1.4,0.3-2.4,0.9-3.1c0.6-0.7,1.5-1.1,2.6-1.1c0.6,0,1.1,0.1,1.6,0.3c0.4,0.2,0.8,0.5,1.1,0.8
			s0.5,0.8,0.6,1.3s0.2,1.1,0.2,1.7c0,1.4-0.3,2.4-0.9,3.1c-0.6,0.7-1.5,1.1-2.6,1.1c-0.6,0-1.1-0.1-1.6-0.3
			c-0.4-0.2-0.8-0.5-1.1-0.8c-0.3-0.4-0.5-0.8-0.6-1.3C449.7,1524.2,449.6,1523.6,449.6,1523z M451,1523c0,0.4,0,0.8,0.1,1.2
			s0.2,0.7,0.4,1c0.2,0.3,0.4,0.5,0.7,0.7c0.3,0.2,0.6,0.3,1,0.3c1.5,0,2.2-1,2.2-3.1c0-0.4,0-0.8-0.1-1.2c-0.1-0.4-0.2-0.7-0.4-1
			s-0.4-0.5-0.7-0.7c-0.3-0.2-0.6-0.2-1-0.2C451.7,1519.9,451,1520.9,451,1523z"/>
		<path class="st6" d="M458.5,1519.6c0.4-0.2,0.9-0.4,1.4-0.5c0.5-0.1,1.1-0.2,1.7-0.2c0.6,0,1,0.1,1.3,0.2s0.6,0.3,0.8,0.6
			c0.2,0.2,0.3,0.5,0.4,0.8s0.1,0.6,0.1,0.9c0,0.6,0,1.3,0,1.9s0,1.2,0,1.7c0,0.4,0,0.8,0,1.1c0,0.4,0.1,0.7,0.2,1h-0.9l-0.3-1.1
			h-0.1c-0.1,0.1-0.2,0.3-0.4,0.4c-0.1,0.1-0.3,0.3-0.5,0.4c-0.2,0.1-0.4,0.2-0.7,0.3c-0.3,0.1-0.6,0.1-0.9,0.1
			c-0.3,0-0.7-0.1-1-0.2c-0.3-0.1-0.5-0.3-0.8-0.5c-0.2-0.2-0.4-0.4-0.5-0.7c-0.1-0.3-0.2-0.6-0.2-0.9c0-0.5,0.1-0.9,0.3-1.2
			c0.2-0.3,0.5-0.6,0.8-0.8c0.3-0.2,0.8-0.3,1.2-0.4s1-0.1,1.6-0.1c0.1,0,0.3,0,0.4,0c0.1,0,0.3,0,0.4,0c0-0.3,0-0.6,0-0.9
			c0-0.6-0.1-1-0.4-1.2c-0.2-0.2-0.7-0.4-1.3-0.4c-0.2,0-0.4,0-0.6,0s-0.4,0.1-0.6,0.1s-0.4,0.1-0.6,0.2s-0.4,0.2-0.5,0.2
			L458.5,1519.6z M460.8,1526c0.3,0,0.6,0,0.8-0.1c0.2-0.1,0.4-0.2,0.6-0.3c0.2-0.1,0.3-0.3,0.4-0.4c0.1-0.1,0.2-0.3,0.2-0.4v-1.3
			c-0.1,0-0.3,0-0.5,0c-0.2,0-0.3,0-0.5,0c-0.3,0-0.7,0-1,0.1c-0.3,0-0.6,0.1-0.8,0.2c-0.2,0.1-0.4,0.2-0.6,0.4
			c-0.1,0.2-0.2,0.4-0.2,0.7c0,0.4,0.1,0.7,0.4,0.9C460,1525.9,460.4,1526,460.8,1526z"/>
		<path class="st6" d="M470.4,1520.2c-0.3-0.1-0.6-0.2-0.9-0.2c-0.5,0-0.8,0.1-1.1,0.4s-0.4,0.6-0.5,1v5.6h-1.3v-8h0.9l0.2,1h0.1
			c0.2-0.4,0.4-0.6,0.7-0.8c0.3-0.2,0.6-0.3,1.1-0.3c0.3,0,0.7,0.1,1,0.2L470.4,1520.2z"/>
		<path class="st6" d="M478.2,1524.2c0,0.5,0,1,0,1.5c0,0.4,0.1,0.9,0.1,1.3h-0.9l-0.3-1.1h-0.1c-0.2,0.4-0.5,0.7-0.9,0.9
			s-0.9,0.4-1.4,0.4c-1.1,0-1.9-0.3-2.4-1c-0.5-0.7-0.8-1.7-0.8-3.2c0-1.4,0.3-2.4,1-3.1c0.6-0.7,1.5-1.1,2.7-1.1
			c0.4,0,0.7,0,0.9,0.1c0.2,0,0.5,0.1,0.7,0.2v-3.3h1.3V1524.2z M474.9,1526.1c0.5,0,1-0.1,1.3-0.4c0.3-0.3,0.5-0.7,0.7-1.3v-4
			c-0.2-0.1-0.4-0.3-0.7-0.3c-0.2-0.1-0.6-0.1-1-0.1c-0.7,0-1.3,0.2-1.7,0.7s-0.6,1.3-0.6,2.3c0,0.4,0,0.8,0.1,1.2s0.2,0.7,0.3,1
			s0.4,0.5,0.6,0.6C474.2,1526,474.6,1526.1,474.9,1526.1z"/>
	</g>
	<g class="st5">
		<path class="st6" d="M633.6,1446.8c0.2,0,0.4-0.1,0.7-0.1c0.2,0,0.5,0,0.8,0c0.3,0,0.5,0,0.8,0c0.3,0,0.5,0,0.7,0
			c0.9,0,1.7,0.1,2.3,0.4s1.2,0.7,1.6,1.2s0.7,1.1,1,1.8s0.3,1.5,0.3,2.3c0,0.8-0.1,1.5-0.3,2.2c-0.2,0.7-0.5,1.3-0.9,1.9
			c-0.4,0.5-1,1-1.7,1.3s-1.5,0.5-2.5,0.5c-0.2,0-0.4,0-0.7,0c-0.3,0-0.6,0-0.8,0c-0.3,0-0.6,0-0.8,0c-0.2,0-0.4,0-0.5,0V1446.8z
			 M636.7,1447.9c-0.1,0-0.3,0-0.5,0s-0.3,0-0.5,0s-0.3,0-0.4,0c-0.1,0-0.2,0-0.3,0v9c0.1,0,0.2,0,0.3,0c0.1,0,0.3,0,0.5,0
			c0.2,0,0.3,0,0.5,0c0.1,0,0.2,0,0.3,0c0.7,0,1.4-0.1,1.9-0.4s0.9-0.6,1.2-1c0.3-0.4,0.5-0.9,0.6-1.5c0.1-0.6,0.2-1.1,0.2-1.7
			c0-0.5-0.1-1-0.2-1.6s-0.3-1-0.6-1.4c-0.3-0.4-0.7-0.8-1.2-1C638,1448,637.4,1447.9,636.7,1447.9z"/>
		<path class="st6" d="M649.8,1457.4c-0.3,0.3-0.7,0.5-1.2,0.6s-1,0.2-1.5,0.2c-0.6,0-1.1-0.1-1.6-0.3c-0.4-0.2-0.8-0.5-1.1-0.8
			s-0.5-0.8-0.6-1.3c-0.1-0.5-0.2-1.1-0.2-1.7c0-1.4,0.3-2.4,0.9-3.1c0.6-0.7,1.5-1.1,2.6-1.1c0.4,0,0.7,0,1.1,0.1s0.7,0.2,1,0.5
			c0.3,0.2,0.5,0.5,0.7,1c0.2,0.4,0.3,1,0.3,1.6c0,0.4,0,0.7-0.1,1.2h-5.1c0,0.5,0,0.9,0.1,1.2s0.2,0.7,0.4,0.9
			c0.2,0.3,0.5,0.4,0.8,0.6c0.3,0.1,0.7,0.2,1.2,0.2c0.4,0,0.7-0.1,1.1-0.2c0.4-0.1,0.6-0.3,0.8-0.4L649.8,1457.4z M647.1,1450.9
			c-0.6,0-1.1,0.2-1.5,0.5c-0.4,0.3-0.6,0.9-0.7,1.7h4c0-0.8-0.2-1.4-0.5-1.7S647.6,1450.9,647.1,1450.9z"/>
		<path class="st6" d="M654.1,1454.7l0.4,1.5h0l0.4-1.6l1.8-4.7h1.4l-3.4,8.2h-0.5l-3.5-8.2h1.5L654.1,1454.7z"/>
		<path class="st6" d="M665.1,1457.4c-0.3,0.3-0.7,0.5-1.2,0.6s-1,0.2-1.5,0.2c-0.6,0-1.1-0.1-1.6-0.3c-0.4-0.2-0.8-0.5-1.1-0.8
			s-0.5-0.8-0.6-1.3c-0.1-0.5-0.2-1.1-0.2-1.7c0-1.4,0.3-2.4,0.9-3.1c0.6-0.7,1.5-1.1,2.6-1.1c0.4,0,0.7,0,1.1,0.1s0.7,0.2,1,0.5
			c0.3,0.2,0.5,0.5,0.7,1c0.2,0.4,0.3,1,0.3,1.6c0,0.4,0,0.7-0.1,1.2h-5.1c0,0.5,0,0.9,0.1,1.2s0.2,0.7,0.4,0.9
			c0.2,0.3,0.5,0.4,0.8,0.6c0.3,0.1,0.7,0.2,1.2,0.2c0.4,0,0.7-0.1,1.1-0.2c0.4-0.1,0.6-0.3,0.8-0.4L665.1,1457.4z M662.4,1450.9
			c-0.6,0-1.1,0.2-1.5,0.5c-0.4,0.3-0.6,0.9-0.7,1.7h4c0-0.8-0.2-1.4-0.5-1.7S662.9,1450.9,662.4,1450.9z"/>
		<path class="st6" d="M668.8,1456c0,0.4,0.1,0.6,0.2,0.8s0.3,0.2,0.5,0.2c0.1,0,0.3,0,0.4,0s0.3-0.1,0.5-0.1l0.1,1
			c-0.2,0.1-0.4,0.2-0.7,0.2c-0.3,0.1-0.6,0.1-0.8,0.1c-0.5,0-0.9-0.1-1.2-0.4c-0.3-0.3-0.5-0.7-0.5-1.4v-9.6h1.3V1456z"/>
		<path class="st6" d="M671.6,1454c0-1.4,0.3-2.4,0.9-3.1c0.6-0.7,1.5-1.1,2.6-1.1c0.6,0,1.1,0.1,1.6,0.3c0.4,0.2,0.8,0.5,1.1,0.8
			s0.5,0.8,0.6,1.3s0.2,1.1,0.2,1.7c0,1.4-0.3,2.4-0.9,3.1c-0.6,0.7-1.5,1.1-2.6,1.1c-0.6,0-1.1-0.1-1.6-0.3
			c-0.4-0.2-0.8-0.5-1.1-0.8s-0.5-0.8-0.6-1.3C671.7,1455.2,671.6,1454.6,671.6,1454z M673,1454c0,0.4,0,0.8,0.1,1.2s0.2,0.7,0.4,1
			c0.2,0.3,0.4,0.5,0.7,0.7c0.3,0.2,0.6,0.3,1,0.3c1.5,0,2.2-1,2.2-3.1c0-0.4,0-0.8-0.1-1.2c-0.1-0.4-0.2-0.7-0.4-1
			s-0.4-0.5-0.7-0.7c-0.3-0.2-0.6-0.2-1-0.2C673.7,1450.9,673,1451.9,673,1454z"/>
		<path class="st6" d="M680.7,1450h0.9l0.2,1h0.1c0.2-0.4,0.6-0.7,1-0.9c0.4-0.2,0.8-0.3,1.3-0.3c1.1,0,1.9,0.3,2.4,0.9
			c0.5,0.6,0.8,1.7,0.8,3.1c0,0.7-0.1,1.3-0.3,1.8c-0.2,0.5-0.4,1-0.7,1.4c-0.3,0.4-0.7,0.7-1.2,0.9c-0.5,0.2-1,0.3-1.5,0.3
			c-0.4,0-0.7,0-0.9-0.1s-0.5-0.1-0.7-0.2v3.3h-1.3V1450z M683.9,1450.9c-0.5,0-1,0.1-1.3,0.4c-0.3,0.3-0.5,0.7-0.7,1.3v4
			c0.2,0.1,0.4,0.3,0.7,0.3s0.6,0.1,1,0.1c0.7,0,1.3-0.3,1.8-0.8c0.4-0.5,0.6-1.4,0.6-2.4c0-0.4,0-0.8-0.1-1.2
			c-0.1-0.4-0.2-0.7-0.4-0.9c-0.2-0.2-0.4-0.4-0.6-0.6C684.6,1451,684.3,1450.9,683.9,1450.9z"/>
		<path class="st6" d="M689.3,1447.6c0-0.2,0.1-0.5,0.2-0.6c0.2-0.2,0.4-0.3,0.6-0.3c0.3,0,0.5,0.1,0.7,0.3c0.2,0.2,0.3,0.4,0.3,0.6
			c0,0.2-0.1,0.4-0.3,0.6s-0.4,0.2-0.7,0.2c-0.3,0-0.5-0.1-0.6-0.2S689.3,1447.8,689.3,1447.6z M689.6,1450h1.3v8h-1.3V1450z"/>
		<path class="st6" d="M698.7,1458v-4.6c0-0.8-0.1-1.5-0.4-1.9c-0.2-0.4-0.7-0.6-1.3-0.6c-0.6,0-1,0.2-1.4,0.5
			c-0.4,0.3-0.6,0.7-0.8,1.1v5.5h-1.3v-8h0.9l0.2,1h0.1c0.3-0.3,0.6-0.6,1-0.8c0.4-0.2,0.9-0.3,1.5-0.3c0.4,0,0.8,0.1,1.2,0.2
			c0.3,0.1,0.6,0.3,0.8,0.5s0.4,0.6,0.5,1c0.1,0.4,0.2,1,0.2,1.6v4.8H698.7z"/>
		<path class="st6" d="M708.5,1458.4c0,1-0.3,1.8-0.8,2.3c-0.5,0.5-1.4,0.7-2.4,0.7c-0.6,0-1.2,0-1.5-0.1c-0.4-0.1-0.7-0.2-1-0.3
			l0.3-1.1c0.2,0.1,0.5,0.2,0.8,0.3c0.3,0.1,0.7,0.1,1.2,0.1c0.4,0,0.8,0,1.1-0.1c0.3-0.1,0.5-0.2,0.7-0.4s0.3-0.4,0.4-0.7
			c0.1-0.3,0.1-0.6,0.1-1v-0.8h-0.1c-0.2,0.3-0.5,0.5-0.8,0.7c-0.3,0.2-0.8,0.2-1.3,0.2c-1.1,0-1.9-0.3-2.4-1
			c-0.5-0.7-0.8-1.7-0.8-3.1c0-1.4,0.3-2.4,1-3.1c0.7-0.7,1.6-1.1,2.9-1.1c0.6,0,1.1,0,1.6,0.1c0.4,0.1,0.8,0.2,1.2,0.3V1458.4z
			 M705.3,1457.1c0.5,0,1-0.1,1.3-0.4c0.3-0.3,0.5-0.7,0.7-1.3v-4.1c-0.4-0.2-1-0.3-1.6-0.3c-0.7,0-1.3,0.2-1.7,0.7
			c-0.4,0.5-0.6,1.3-0.6,2.3c0,0.4,0,0.9,0.1,1.2s0.2,0.7,0.4,1c0.2,0.3,0.4,0.5,0.6,0.6C704.6,1457,704.9,1457.1,705.3,1457.1z"/>
	</g>
	<g class="st5">
		<path class="st6" d="M642,1480h-6.6v-11.2h1.3v10h5.3V1480z"/>
		<path class="st6" d="M648.4,1479.4c-0.3,0.3-0.7,0.5-1.2,0.6c-0.5,0.1-1,0.2-1.5,0.2c-0.6,0-1.1-0.1-1.6-0.3
			c-0.4-0.2-0.8-0.5-1.1-0.8s-0.5-0.8-0.6-1.3c-0.1-0.5-0.2-1.1-0.2-1.7c0-1.4,0.3-2.4,0.9-3.1c0.6-0.7,1.5-1.1,2.6-1.1
			c0.4,0,0.7,0,1.1,0.1c0.4,0.1,0.7,0.2,1,0.5c0.3,0.2,0.5,0.5,0.7,1c0.2,0.4,0.3,1,0.3,1.6c0,0.4,0,0.7-0.1,1.2h-5.1
			c0,0.5,0,0.9,0.1,1.2s0.2,0.7,0.4,0.9c0.2,0.3,0.5,0.4,0.8,0.6c0.3,0.1,0.7,0.2,1.2,0.2c0.4,0,0.7-0.1,1.1-0.2
			c0.4-0.1,0.6-0.3,0.8-0.4L648.4,1479.4z M645.6,1472.9c-0.6,0-1.1,0.2-1.5,0.5c-0.4,0.3-0.6,0.9-0.7,1.7h4c0-0.8-0.2-1.4-0.5-1.7
			S646.2,1472.9,645.6,1472.9z"/>
		<path class="st6" d="M650.6,1472.6c0.4-0.2,0.9-0.4,1.4-0.5c0.5-0.1,1.1-0.2,1.7-0.2c0.6,0,1,0.1,1.3,0.2s0.6,0.3,0.8,0.6
			c0.2,0.2,0.3,0.5,0.4,0.8s0.1,0.6,0.1,0.9c0,0.6,0,1.3,0,1.9c0,0.6,0,1.2,0,1.7c0,0.4,0,0.8,0,1.1c0,0.4,0.1,0.7,0.2,1h-0.9
			l-0.3-1.1H655c-0.1,0.1-0.2,0.3-0.4,0.4c-0.1,0.1-0.3,0.3-0.5,0.4c-0.2,0.1-0.4,0.2-0.7,0.3c-0.3,0.1-0.6,0.1-0.9,0.1
			c-0.3,0-0.7-0.1-1-0.2c-0.3-0.1-0.5-0.3-0.8-0.5c-0.2-0.2-0.4-0.4-0.5-0.7s-0.2-0.6-0.2-0.9c0-0.5,0.1-0.9,0.3-1.2
			c0.2-0.3,0.5-0.6,0.8-0.8c0.3-0.2,0.8-0.3,1.2-0.4s1-0.1,1.6-0.1c0.1,0,0.3,0,0.4,0c0.1,0,0.3,0,0.4,0c0-0.3,0-0.6,0-0.9
			c0-0.6-0.1-1-0.4-1.2c-0.2-0.2-0.7-0.4-1.3-0.4c-0.2,0-0.4,0-0.6,0s-0.4,0.1-0.6,0.1s-0.4,0.1-0.6,0.2s-0.4,0.2-0.5,0.2
			L650.6,1472.6z M652.8,1479c0.3,0,0.6,0,0.8-0.1c0.2-0.1,0.4-0.2,0.6-0.3c0.2-0.1,0.3-0.3,0.4-0.4s0.2-0.3,0.2-0.4v-1.3
			c-0.1,0-0.3,0-0.5,0c-0.2,0-0.3,0-0.5,0c-0.3,0-0.7,0-1,0.1c-0.3,0-0.6,0.1-0.8,0.2c-0.2,0.1-0.4,0.2-0.6,0.4
			c-0.1,0.2-0.2,0.4-0.2,0.7c0,0.4,0.1,0.7,0.4,0.9C652.1,1478.9,652.4,1479,652.8,1479z"/>
		<path class="st6" d="M664.8,1477.2c0,0.5,0,1,0,1.5c0,0.4,0.1,0.9,0.1,1.3h-0.9l-0.3-1.1h-0.1c-0.2,0.4-0.5,0.7-0.9,0.9
			c-0.4,0.2-0.9,0.4-1.4,0.4c-1.1,0-1.9-0.3-2.4-1c-0.5-0.7-0.8-1.7-0.8-3.2c0-1.4,0.3-2.4,1-3.1c0.6-0.7,1.5-1.1,2.7-1.1
			c0.4,0,0.7,0,0.9,0.1c0.2,0,0.5,0.1,0.7,0.2v-3.3h1.3V1477.2z M661.5,1479.1c0.5,0,1-0.1,1.3-0.4c0.3-0.3,0.5-0.7,0.7-1.3v-4
			c-0.2-0.1-0.4-0.3-0.7-0.3c-0.2-0.1-0.6-0.1-1-0.1c-0.7,0-1.3,0.2-1.7,0.7s-0.6,1.3-0.6,2.3c0,0.4,0,0.8,0.1,1.2s0.2,0.7,0.3,1
			s0.4,0.5,0.6,0.6C660.8,1479,661.2,1479.1,661.5,1479.1z"/>
		<path class="st6" d="M673.1,1479.4c-0.3,0.3-0.7,0.5-1.2,0.6c-0.5,0.1-1,0.2-1.5,0.2c-0.6,0-1.1-0.1-1.6-0.3
			c-0.4-0.2-0.8-0.5-1.1-0.8s-0.5-0.8-0.6-1.3c-0.1-0.5-0.2-1.1-0.2-1.7c0-1.4,0.3-2.4,0.9-3.1c0.6-0.7,1.5-1.1,2.6-1.1
			c0.4,0,0.7,0,1.1,0.1c0.4,0.1,0.7,0.2,1,0.5c0.3,0.2,0.5,0.5,0.7,1c0.2,0.4,0.3,1,0.3,1.6c0,0.4,0,0.7-0.1,1.2h-5.1
			c0,0.5,0,0.9,0.1,1.2s0.2,0.7,0.4,0.9c0.2,0.3,0.5,0.4,0.8,0.6c0.3,0.1,0.7,0.2,1.2,0.2c0.4,0,0.7-0.1,1.1-0.2
			c0.4-0.1,0.6-0.3,0.8-0.4L673.1,1479.4z M670.3,1472.9c-0.6,0-1.1,0.2-1.5,0.5c-0.4,0.3-0.6,0.9-0.7,1.7h4c0-0.8-0.2-1.4-0.5-1.7
			S670.9,1472.9,670.3,1472.9z"/>
		<path class="st6" d="M679.1,1473.2c-0.3-0.1-0.6-0.2-0.9-0.2c-0.5,0-0.8,0.1-1.1,0.4s-0.4,0.6-0.5,1v5.6h-1.3v-8h0.9l0.2,1h0.1
			c0.2-0.4,0.4-0.6,0.7-0.8c0.3-0.2,0.6-0.3,1.1-0.3c0.3,0,0.7,0.1,1,0.2L679.1,1473.2z"/>
		<path class="st6" d="M684.3,1477.8c0-0.3-0.1-0.6-0.3-0.8s-0.4-0.3-0.7-0.5c-0.3-0.1-0.6-0.2-0.9-0.4c-0.3-0.1-0.6-0.3-0.9-0.4
			c-0.3-0.2-0.5-0.4-0.7-0.7c-0.2-0.3-0.3-0.7-0.3-1.1c0-0.8,0.2-1.3,0.7-1.7s1-0.5,1.8-0.5c0.6,0,1.1,0.1,1.4,0.2s0.7,0.2,1,0.4
			l-0.3,1.1c-0.2-0.1-0.5-0.2-0.9-0.3c-0.3-0.1-0.7-0.1-1.1-0.1c-0.5,0-0.8,0.1-1,0.2s-0.3,0.4-0.3,0.8c0,0.3,0.1,0.5,0.3,0.6
			c0.2,0.2,0.4,0.3,0.7,0.4c0.3,0.1,0.6,0.2,0.9,0.4s0.6,0.3,0.9,0.5c0.3,0.2,0.5,0.4,0.7,0.7c0.2,0.3,0.3,0.7,0.3,1.2
			c0,0.3-0.1,0.7-0.2,1c-0.1,0.3-0.3,0.6-0.5,0.8c-0.2,0.2-0.5,0.4-0.9,0.5c-0.3,0.1-0.8,0.2-1.2,0.2c-0.6,0-1.1-0.1-1.6-0.2
			c-0.4-0.1-0.8-0.3-1.1-0.4l0.4-1.1c0.2,0.1,0.6,0.3,1,0.4c0.4,0.1,0.8,0.2,1.2,0.2c0.5,0,0.8-0.1,1.1-0.3
			C684.2,1478.6,684.3,1478.3,684.3,1477.8z"/>
		<path class="st6" d="M692.7,1480v-4.6c0-0.4,0-0.8-0.1-1.1c0-0.3-0.1-0.6-0.3-0.8c-0.1-0.2-0.3-0.4-0.5-0.5
			c-0.2-0.1-0.5-0.2-0.9-0.2c-0.5,0-1,0.2-1.4,0.5s-0.7,0.7-0.8,1.3v5.3h-1.3v-11.2h1.3v4.1h0.1c0.3-0.3,0.6-0.6,1-0.8
			c0.4-0.2,0.9-0.3,1.4-0.3c0.4,0,0.8,0.1,1.2,0.2c0.3,0.1,0.6,0.3,0.8,0.5c0.2,0.3,0.4,0.6,0.5,1c0.1,0.4,0.2,1,0.2,1.6v4.8H692.7z
			"/>
		<path class="st6" d="M696.3,1469.6c0-0.2,0.1-0.5,0.2-0.6c0.2-0.2,0.4-0.3,0.6-0.3s0.5,0.1,0.7,0.3c0.2,0.2,0.3,0.4,0.3,0.6
			c0,0.2-0.1,0.4-0.3,0.6c-0.2,0.2-0.4,0.2-0.7,0.2s-0.5-0.1-0.6-0.2C696.4,1470,696.3,1469.8,696.3,1469.6z M696.6,1472h1.3v8h-1.3
			V1472z"/>
		<path class="st6" d="M700.6,1472h0.9l0.2,1h0.1c0.2-0.4,0.6-0.7,1-0.9c0.4-0.2,0.8-0.3,1.3-0.3c1.1,0,1.9,0.3,2.4,0.9
			c0.5,0.6,0.8,1.7,0.8,3.1c0,0.7-0.1,1.3-0.3,1.8c-0.2,0.5-0.4,1-0.7,1.4c-0.3,0.4-0.7,0.7-1.2,0.9c-0.5,0.2-1,0.3-1.5,0.3
			c-0.4,0-0.7,0-0.9-0.1c-0.2,0-0.5-0.1-0.7-0.2v3.3h-1.3V1472z M703.8,1472.9c-0.5,0-1,0.1-1.3,0.4c-0.3,0.3-0.5,0.7-0.7,1.3v4
			c0.2,0.1,0.4,0.3,0.7,0.3c0.2,0.1,0.6,0.1,1,0.1c0.7,0,1.3-0.3,1.8-0.8c0.4-0.5,0.6-1.4,0.6-2.4c0-0.4,0-0.8-0.1-1.2
			s-0.2-0.7-0.4-0.9c-0.2-0.2-0.4-0.4-0.6-0.6S704.2,1472.9,703.8,1472.9z"/>
	</g>
	<g class="st5">
		<path class="st6" d="M644.4,1494h0.9l0.2,1h0.1c0.2-0.4,0.6-0.7,1-0.9c0.4-0.2,0.8-0.3,1.3-0.3c1.1,0,1.9,0.3,2.4,0.9
			c0.5,0.6,0.8,1.7,0.8,3.1c0,0.7-0.1,1.3-0.3,1.8c-0.2,0.5-0.4,1-0.7,1.4c-0.3,0.4-0.7,0.7-1.2,0.9c-0.5,0.2-1,0.3-1.5,0.3
			c-0.4,0-0.7,0-0.9-0.1s-0.5-0.1-0.7-0.2v3.3h-1.3V1494z M647.7,1494.9c-0.5,0-1,0.1-1.3,0.4c-0.3,0.3-0.5,0.7-0.7,1.3v4
			c0.2,0.1,0.4,0.3,0.7,0.3s0.6,0.1,1,0.1c0.7,0,1.3-0.3,1.8-0.8c0.4-0.5,0.6-1.4,0.6-2.4c0-0.4,0-0.8-0.1-1.2
			c-0.1-0.4-0.2-0.7-0.4-0.9c-0.2-0.2-0.4-0.4-0.6-0.6C648.4,1495,648.1,1494.9,647.7,1494.9z"/>
		<path class="st6" d="M653.1,1491.6c0-0.2,0.1-0.5,0.2-0.6c0.2-0.2,0.4-0.3,0.6-0.3c0.3,0,0.5,0.1,0.7,0.3c0.2,0.2,0.3,0.4,0.3,0.6
			c0,0.2-0.1,0.4-0.3,0.6s-0.4,0.2-0.7,0.2c-0.3,0-0.5-0.1-0.6-0.2S653.1,1491.8,653.1,1491.6z M653.4,1494h1.3v8h-1.3V1494z"/>
		<path class="st6" d="M657.4,1494h0.9l0.2,1h0.1c0.2-0.4,0.6-0.7,1-0.9c0.4-0.2,0.8-0.3,1.3-0.3c1.1,0,1.9,0.3,2.4,0.9
			c0.5,0.6,0.8,1.7,0.8,3.1c0,0.7-0.1,1.3-0.3,1.8c-0.2,0.5-0.4,1-0.7,1.4c-0.3,0.4-0.7,0.7-1.2,0.9c-0.5,0.2-1,0.3-1.5,0.3
			c-0.4,0-0.7,0-0.9-0.1s-0.5-0.1-0.7-0.2v3.3h-1.3V1494z M660.6,1494.9c-0.5,0-1,0.1-1.3,0.4c-0.3,0.3-0.5,0.7-0.7,1.3v4
			c0.2,0.1,0.4,0.3,0.7,0.3s0.6,0.1,1,0.1c0.7,0,1.3-0.3,1.8-0.8c0.4-0.5,0.6-1.4,0.6-2.4c0-0.4,0-0.8-0.1-1.2
			c-0.1-0.4-0.2-0.7-0.4-0.9c-0.2-0.2-0.4-0.4-0.6-0.6C661.3,1495,661,1494.9,660.6,1494.9z"/>
		<path class="st6" d="M671.9,1501.4c-0.3,0.3-0.7,0.5-1.2,0.6s-1,0.2-1.5,0.2c-0.6,0-1.1-0.1-1.6-0.3c-0.4-0.2-0.8-0.5-1.1-0.8
			c-0.3-0.4-0.5-0.8-0.6-1.3c-0.1-0.5-0.2-1.1-0.2-1.7c0-1.4,0.3-2.4,0.9-3.1s1.5-1.1,2.6-1.1c0.4,0,0.7,0,1.1,0.1
			c0.4,0.1,0.7,0.2,1,0.5c0.3,0.2,0.5,0.5,0.7,1c0.2,0.4,0.3,1,0.3,1.6c0,0.4,0,0.7-0.1,1.2h-5.1c0,0.5,0,0.9,0.1,1.2
			c0.1,0.4,0.2,0.7,0.4,0.9c0.2,0.3,0.5,0.4,0.8,0.6s0.7,0.2,1.2,0.2c0.4,0,0.7-0.1,1.1-0.2c0.4-0.1,0.6-0.3,0.8-0.4L671.9,1501.4z
			 M669.1,1494.9c-0.6,0-1.1,0.2-1.5,0.5c-0.4,0.3-0.6,0.9-0.7,1.7h4c0-0.8-0.2-1.4-0.5-1.7S669.7,1494.9,669.1,1494.9z"/>
		<path class="st6" d="M675.6,1500c0,0.4,0.1,0.6,0.2,0.8s0.3,0.2,0.5,0.2c0.1,0,0.3,0,0.4,0c0.2,0,0.3-0.1,0.5-0.1l0.1,1
			c-0.2,0.1-0.4,0.2-0.7,0.2c-0.3,0.1-0.6,0.1-0.8,0.1c-0.5,0-0.9-0.1-1.2-0.4c-0.3-0.3-0.5-0.7-0.5-1.4v-9.6h1.3V1500z"/>
		<path class="st6" d="M678.8,1491.6c0-0.2,0.1-0.5,0.2-0.6c0.2-0.2,0.4-0.3,0.6-0.3s0.5,0.1,0.7,0.3c0.2,0.2,0.3,0.4,0.3,0.6
			c0,0.2-0.1,0.4-0.3,0.6c-0.2,0.2-0.4,0.2-0.7,0.2s-0.5-0.1-0.6-0.2C678.9,1492,678.8,1491.8,678.8,1491.6z M679.1,1494h1.3v8h-1.3
			V1494z"/>
		<path class="st6" d="M688.3,1502v-4.6c0-0.8-0.1-1.5-0.4-1.9c-0.2-0.4-0.7-0.6-1.3-0.6c-0.6,0-1,0.2-1.4,0.5
			c-0.4,0.3-0.6,0.7-0.8,1.1v5.5h-1.3v-8h0.9l0.2,1h0.1c0.3-0.3,0.6-0.6,1-0.8c0.4-0.2,0.9-0.3,1.5-0.3c0.4,0,0.8,0.1,1.2,0.2
			c0.3,0.1,0.6,0.3,0.8,0.5s0.4,0.6,0.5,1c0.1,0.4,0.2,1,0.2,1.6v4.8H688.3z"/>
		<path class="st6" d="M697.7,1501.4c-0.3,0.3-0.7,0.5-1.2,0.6s-1,0.2-1.5,0.2c-0.6,0-1.1-0.1-1.6-0.3c-0.4-0.2-0.8-0.5-1.1-0.8
			s-0.5-0.8-0.6-1.3c-0.1-0.5-0.2-1.1-0.2-1.7c0-1.4,0.3-2.4,0.9-3.1c0.6-0.7,1.5-1.1,2.6-1.1c0.4,0,0.7,0,1.1,0.1s0.7,0.2,1,0.5
			c0.3,0.2,0.5,0.5,0.7,1c0.2,0.4,0.3,1,0.3,1.6c0,0.4,0,0.7-0.1,1.2h-5.1c0,0.5,0,0.9,0.1,1.2s0.2,0.7,0.4,0.9
			c0.2,0.3,0.5,0.4,0.8,0.6c0.3,0.1,0.7,0.2,1.2,0.2c0.4,0,0.7-0.1,1.1-0.2c0.4-0.1,0.6-0.3,0.8-0.4L697.7,1501.4z M695,1494.9
			c-0.6,0-1.1,0.2-1.5,0.5c-0.4,0.3-0.6,0.9-0.7,1.7h4c0-0.8-0.2-1.4-0.5-1.7S695.5,1494.9,695,1494.9z"/>
	</g>
</g>
</svg>
