<?xml version="1.0" encoding="utf-8"?>
<!-- Generator: Adobe Illustrator 28.1.0, SVG Export Plug-In . SVG Version: 6.00 Build 0)  -->
<svg version="1.1" id="Layer_1" xmlns="http://www.w3.org/2000/svg" xmlns:xlink="http://www.w3.org/1999/xlink" x="0px" y="0px"
	 viewBox="0 0 611 344" style="enable-background:new 0 0 611 344;" xml:space="preserve">
<style type="text/css">
	.st0{enable-background:new    ;}
	.st1{fill:#3B3C3E;}
	.st2{clip-path:url(#SVGID_00000150076651019652704120000008723843488955153056_);}
	.st3{fill:#818386;}
	.st4{fill:#DADBDC;}
	.st5{fill:#009CE3;}
	.st6{fill:#FFFFFF;}
	.st7{fill:none;stroke:#3B3C3E;stroke-width:0.5;stroke-miterlimit:10;}
</style>
<g class="st0">
	<path class="st1" d="M92.5,4.9c0.4-0.1,0.8-0.2,1.3-0.2c0.5,0,0.9,0,1.4,0c0.5,0,1,0,1.5,0.1c0.5,0.1,1,0.3,1.4,0.5s0.8,0.6,1,1.1
		c0.3,0.4,0.4,1,0.4,1.7c0,0.7-0.1,1.3-0.4,1.7c-0.2,0.5-0.6,0.9-1,1.1c-0.4,0.3-0.9,0.5-1.4,0.6c-0.5,0.1-1.1,0.2-1.6,0.2
		c-0.1,0-0.1,0-0.3,0s-0.3,0-0.4,0c-0.1,0-0.3,0-0.4,0s-0.2,0-0.3,0V16h-1.3V4.9z M95.3,5.8c-0.3,0-0.5,0-0.8,0s-0.5,0-0.6,0.1v4.6
		c0.1,0,0.1,0,0.3,0c0.1,0,0.2,0,0.4,0c0.1,0,0.3,0,0.4,0c0.1,0,0.2,0,0.3,0c0.4,0,0.7,0,1.1-0.1c0.4-0.1,0.7-0.2,1-0.4
		c0.3-0.2,0.5-0.4,0.7-0.8C98,9,98.1,8.6,98.1,8.1c0-0.4-0.1-0.8-0.2-1.1c-0.2-0.3-0.4-0.5-0.7-0.7c-0.3-0.2-0.6-0.3-0.9-0.4
		C95.9,5.9,95.6,5.8,95.3,5.8z"/>
	<path class="st1" d="M105,10.4h3.8v4.9c-0.2,0.1-0.4,0.2-0.6,0.4c-0.2,0.1-0.5,0.2-0.8,0.3c-0.3,0.1-0.6,0.1-0.8,0.2
		c-0.3,0-0.6,0.1-0.9,0.1c-0.7,0-1.4-0.1-2-0.3c-0.6-0.2-1.1-0.6-1.6-1.1c-0.4-0.5-0.8-1.1-1-1.8c-0.2-0.7-0.4-1.6-0.4-2.6
		c0-1,0.1-1.9,0.4-2.7c0.3-0.7,0.7-1.3,1.2-1.8s1-0.8,1.6-1c0.6-0.2,1.2-0.3,1.8-0.3c0.6,0,1.2,0,1.6,0.1s0.8,0.2,1.1,0.3l-0.3,1.2
		c-0.5-0.3-1.2-0.4-2.2-0.4c-0.4,0-0.9,0.1-1.3,0.2c-0.4,0.2-0.8,0.4-1.2,0.8c-0.4,0.4-0.6,0.8-0.9,1.4c-0.2,0.6-0.3,1.3-0.3,2.2
		c0,0.8,0.1,1.5,0.3,2c0.2,0.6,0.4,1.1,0.8,1.4c0.3,0.4,0.7,0.7,1.2,0.8c0.5,0.2,1,0.3,1.5,0.3c0.7,0,1.3-0.1,1.7-0.4v-3.1l-2.6-0.3
		V10.4z"/>
	<path class="st1" d="M114.9,4.6l1,0.4L110,18.2l-1-0.4L114.9,4.6z"/>
	<path class="st1" d="M120.4,10.4h3.8v4.9c-0.2,0.1-0.4,0.2-0.6,0.4c-0.2,0.1-0.5,0.2-0.8,0.3c-0.3,0.1-0.6,0.1-0.8,0.2
		c-0.3,0-0.6,0.1-0.9,0.1c-0.7,0-1.4-0.1-2-0.3c-0.6-0.2-1.1-0.6-1.6-1.1c-0.4-0.5-0.8-1.1-1-1.8c-0.2-0.7-0.4-1.6-0.4-2.6
		c0-1,0.1-1.9,0.4-2.7c0.3-0.7,0.7-1.3,1.2-1.8s1-0.8,1.6-1c0.6-0.2,1.2-0.3,1.8-0.3c0.6,0,1.2,0,1.6,0.1s0.8,0.2,1.1,0.3l-0.3,1.2
		c-0.5-0.3-1.2-0.4-2.2-0.4c-0.4,0-0.9,0.1-1.3,0.2c-0.4,0.2-0.8,0.4-1.2,0.8c-0.4,0.4-0.6,0.8-0.9,1.4c-0.2,0.6-0.3,1.3-0.3,2.2
		c0,0.8,0.1,1.5,0.3,2c0.2,0.6,0.4,1.1,0.8,1.4c0.3,0.4,0.7,0.7,1.2,0.8c0.5,0.2,1,0.3,1.5,0.3c0.7,0,1.3-0.1,1.7-0.4v-3.1l-2.6-0.3
		V10.4z"/>
	<path class="st1" d="M130.1,9.2c-0.3-0.1-0.6-0.2-0.9-0.2c-0.5,0-0.8,0.1-1.1,0.4s-0.4,0.6-0.5,1V16h-1.3V8h0.9l0.2,1h0.1
		c0.2-0.4,0.4-0.6,0.7-0.8c0.3-0.2,0.6-0.3,1.1-0.3c0.3,0,0.7,0.1,1,0.2L130.1,9.2z"/>
	<path class="st1" d="M131.6,8.6c0.4-0.2,0.9-0.4,1.4-0.5s1.1-0.2,1.7-0.2c0.6,0,1,0.1,1.3,0.2s0.6,0.3,0.8,0.6
		c0.2,0.2,0.3,0.5,0.4,0.8s0.1,0.6,0.1,0.9c0,0.6,0,1.3,0,1.9c0,0.6,0,1.2,0,1.7c0,0.4,0,0.8,0,1.1c0,0.4,0.1,0.7,0.2,1h-0.9
		l-0.3-1.1H136c-0.1,0.1-0.2,0.3-0.4,0.4c-0.1,0.1-0.3,0.3-0.5,0.4c-0.2,0.1-0.4,0.2-0.7,0.3c-0.3,0.1-0.6,0.1-0.9,0.1
		s-0.7-0.1-1-0.2s-0.5-0.3-0.8-0.5c-0.2-0.2-0.4-0.4-0.5-0.7c-0.1-0.3-0.2-0.6-0.2-0.9c0-0.5,0.1-0.9,0.3-1.2
		c0.2-0.3,0.5-0.6,0.8-0.8c0.3-0.2,0.8-0.3,1.2-0.4s1-0.1,1.6-0.1c0.1,0,0.3,0,0.4,0s0.3,0,0.4,0c0-0.3,0-0.6,0-0.9
		c0-0.6-0.1-1-0.4-1.2C135.4,9.1,135,9,134.4,9c-0.2,0-0.4,0-0.6,0s-0.4,0.1-0.6,0.1s-0.4,0.1-0.6,0.2s-0.4,0.2-0.5,0.2L131.6,8.6z
		 M133.9,15c0.3,0,0.6,0,0.8-0.1c0.2-0.1,0.4-0.2,0.6-0.3c0.2-0.1,0.3-0.3,0.4-0.4s0.2-0.3,0.2-0.4v-1.3c-0.1,0-0.3,0-0.5,0
		c-0.2,0-0.3,0-0.5,0c-0.3,0-0.7,0-1,0.1c-0.3,0-0.6,0.1-0.8,0.2c-0.2,0.1-0.4,0.2-0.6,0.4c-0.1,0.2-0.2,0.4-0.2,0.7
		c0,0.4,0.1,0.7,0.4,0.9C133.1,14.9,133.5,15,133.9,15z"/>
	<path class="st1" d="M145.8,13.2c0,0.5,0,1,0,1.5c0,0.4,0.1,0.9,0.1,1.3h-0.9l-0.3-1.1h-0.1c-0.2,0.4-0.5,0.7-0.9,0.9
		s-0.9,0.4-1.4,0.4c-1.1,0-1.9-0.3-2.4-1c-0.5-0.7-0.8-1.7-0.8-3.2c0-1.4,0.3-2.4,1-3.1c0.6-0.7,1.5-1.1,2.7-1.1
		c0.4,0,0.7,0,0.9,0.1c0.2,0,0.5,0.1,0.7,0.2V4.8h1.3V13.2z M142.6,15.1c0.5,0,1-0.1,1.3-0.4c0.3-0.3,0.5-0.7,0.7-1.3v-4
		c-0.2-0.1-0.4-0.3-0.7-0.3c-0.2-0.1-0.6-0.1-1-0.1c-0.7,0-1.3,0.2-1.7,0.7s-0.6,1.3-0.6,2.3c0,0.4,0,0.8,0.1,1.2s0.2,0.7,0.3,1
		s0.4,0.5,0.6,0.6C141.9,15,142.2,15.1,142.6,15.1z"/>
	<path class="st1" d="M149.4,8v4.6c0,0.4,0,0.8,0.1,1.1s0.1,0.6,0.2,0.8c0.1,0.2,0.3,0.4,0.5,0.5s0.5,0.2,0.8,0.2
		c0.3,0,0.5,0,0.8-0.1c0.2-0.1,0.4-0.2,0.6-0.4c0.2-0.2,0.3-0.3,0.5-0.6c0.1-0.2,0.2-0.4,0.3-0.7V8h1.3v5.7c0,0.4,0,0.8,0,1.2
		c0,0.4,0.1,0.8,0.1,1.1h-0.9l-0.3-1.3h-0.1c-0.2,0.4-0.6,0.8-1,1s-0.9,0.4-1.6,0.4c-0.4,0-0.8-0.1-1.1-0.2
		c-0.3-0.1-0.6-0.3-0.8-0.5c-0.2-0.3-0.4-0.6-0.5-1c-0.1-0.4-0.2-1-0.2-1.6V8H149.4z"/>
	<path class="st1" d="M156.8,8.6c0.4-0.2,0.9-0.4,1.4-0.5s1.1-0.2,1.7-0.2c0.6,0,1,0.1,1.3,0.2s0.6,0.3,0.8,0.6
		c0.2,0.2,0.3,0.5,0.4,0.8s0.1,0.6,0.1,0.9c0,0.6,0,1.3,0,1.9c0,0.6,0,1.2,0,1.7c0,0.4,0,0.8,0,1.1c0,0.4,0.1,0.7,0.2,1h-0.9
		l-0.3-1.1h-0.1c-0.1,0.1-0.2,0.3-0.4,0.4c-0.1,0.1-0.3,0.3-0.5,0.4c-0.2,0.1-0.4,0.2-0.7,0.3c-0.3,0.1-0.6,0.1-0.9,0.1
		s-0.7-0.1-1-0.2s-0.5-0.3-0.8-0.5c-0.2-0.2-0.4-0.4-0.5-0.7c-0.1-0.3-0.2-0.6-0.2-0.9c0-0.5,0.1-0.9,0.3-1.2
		c0.2-0.3,0.5-0.6,0.8-0.8c0.3-0.2,0.8-0.3,1.2-0.4s1-0.1,1.6-0.1c0.1,0,0.3,0,0.4,0s0.3,0,0.4,0c0-0.3,0-0.6,0-0.9
		c0-0.6-0.1-1-0.4-1.2c-0.2-0.2-0.7-0.4-1.3-0.4c-0.2,0-0.4,0-0.6,0s-0.4,0.1-0.6,0.1s-0.4,0.1-0.6,0.2s-0.4,0.2-0.5,0.2L156.8,8.6z
		 M159.1,15c0.3,0,0.6,0,0.8-0.1c0.2-0.1,0.4-0.2,0.6-0.3c0.2-0.1,0.3-0.3,0.4-0.4s0.2-0.3,0.2-0.4v-1.3c-0.1,0-0.3,0-0.5,0
		c-0.2,0-0.3,0-0.5,0c-0.3,0-0.7,0-1,0.1c-0.3,0-0.6,0.1-0.8,0.2c-0.2,0.1-0.4,0.2-0.6,0.4c-0.1,0.2-0.2,0.4-0.2,0.7
		c0,0.4,0.1,0.7,0.4,0.9C158.3,14.9,158.6,15,159.1,15z"/>
	<path class="st1" d="M163.8,8h1.2V6.4l1.3-0.4v2h2.2v1.1h-2.2v4.4c0,0.6,0.1,0.9,0.2,1.2c0.1,0.2,0.4,0.3,0.7,0.3
		c0.3,0,0.5,0,0.7-0.1c0.2-0.1,0.4-0.1,0.6-0.2l0.3,1c-0.3,0.1-0.6,0.3-0.9,0.3c-0.3,0.1-0.7,0.1-1.1,0.1c-0.7,0-1.1-0.2-1.4-0.6
		c-0.3-0.4-0.4-1-0.4-1.8V9.1h-1.2V8z"/>
	<path class="st1" d="M175.9,15.4c-0.3,0.3-0.7,0.5-1.2,0.6s-1,0.2-1.5,0.2c-0.6,0-1.1-0.1-1.6-0.3c-0.4-0.2-0.8-0.5-1.1-0.8
		c-0.3-0.4-0.5-0.8-0.6-1.3c-0.1-0.5-0.2-1.1-0.2-1.7c0-1.4,0.3-2.4,0.9-3.1c0.6-0.7,1.5-1.1,2.6-1.1c0.4,0,0.7,0,1.1,0.1
		c0.4,0.1,0.7,0.2,1,0.5c0.3,0.2,0.5,0.5,0.7,1c0.2,0.4,0.3,1,0.3,1.6c0,0.4,0,0.7-0.1,1.2H171c0,0.5,0,0.9,0.1,1.2
		c0.1,0.4,0.2,0.7,0.4,0.9c0.2,0.3,0.5,0.4,0.8,0.6c0.3,0.1,0.7,0.2,1.2,0.2c0.4,0,0.7-0.1,1.1-0.2s0.6-0.3,0.8-0.4L175.9,15.4z
		 M173.2,8.9c-0.6,0-1.1,0.2-1.5,0.5c-0.4,0.3-0.6,0.9-0.7,1.7h4c0-0.8-0.2-1.4-0.5-1.7S173.8,8.9,173.2,8.9z"/>
</g>
<g class="st0">
	<path class="st1" d="M69.1,29.4c0,0.3,0,0.5-0.1,0.8c-0.1,0.3-0.2,0.5-0.4,0.8c-0.2,0.2-0.4,0.5-0.7,0.6S67.3,31.9,67,32v0.1
		c0.3,0.1,0.6,0.1,0.9,0.3c0.3,0.1,0.6,0.3,0.8,0.5c0.2,0.2,0.4,0.5,0.5,0.8c0.1,0.3,0.2,0.7,0.2,1.1c0,0.6-0.1,1.1-0.4,1.5
		c-0.2,0.4-0.6,0.8-0.9,1c-0.4,0.3-0.8,0.5-1.3,0.6c-0.5,0.1-1,0.2-1.5,0.2c-0.2,0-0.4,0-0.6,0c-0.2,0-0.5,0-0.8,0
		c-0.3,0-0.5,0-0.8-0.1s-0.5-0.1-0.7-0.1v-11c0.4-0.1,0.9-0.1,1.4-0.2c0.5,0,1.1-0.1,1.7-0.1c0.4,0,0.8,0,1.3,0.1
		c0.4,0.1,0.8,0.2,1.2,0.4c0.4,0.2,0.6,0.5,0.9,0.8C69,28.4,69.1,28.8,69.1,29.4z M64.5,31.7c0.2,0,0.4,0,0.7,0c0.3,0,0.5,0,0.6,0
		c0.3-0.1,0.5-0.2,0.7-0.3c0.2-0.1,0.4-0.3,0.6-0.4c0.2-0.2,0.3-0.4,0.4-0.6c0.1-0.2,0.2-0.5,0.2-0.7c0-0.4-0.1-0.6-0.2-0.9
		c-0.1-0.2-0.3-0.4-0.5-0.6c-0.2-0.1-0.5-0.2-0.8-0.3s-0.6-0.1-0.9-0.1c-0.4,0-0.7,0-1,0c-0.3,0-0.5,0-0.7,0.1v3.8H64.5z M65.4,37
		c0.3,0,0.7,0,1-0.1c0.3-0.1,0.6-0.2,0.8-0.4c0.2-0.2,0.4-0.4,0.6-0.6s0.2-0.6,0.2-0.9c0-0.4-0.1-0.8-0.3-1.1s-0.4-0.5-0.7-0.6
		c-0.3-0.1-0.6-0.3-1-0.3c-0.4-0.1-0.7-0.1-1.1-0.1h-1.4v4c0.1,0,0.2,0,0.3,0s0.3,0,0.4,0s0.3,0,0.5,0C65.1,37,65.2,37,65.4,37z"/>
	<path class="st1" d="M76.7,35.2c0-0.4-0.1-0.8-0.4-1.1c-0.3-0.3-0.6-0.5-1-0.8c-0.4-0.2-0.8-0.4-1.3-0.6c-0.5-0.2-0.9-0.4-1.3-0.7
		c-0.4-0.3-0.7-0.6-1-1c-0.3-0.4-0.4-0.9-0.4-1.5c0-0.9,0.3-1.6,0.9-2.1c0.6-0.5,1.5-0.8,2.6-0.8c0.7,0,1.2,0,1.8,0.1
		s0.9,0.2,1.2,0.4l-0.4,1.2c-0.2-0.1-0.6-0.2-1.1-0.3c-0.5-0.1-1-0.2-1.6-0.2c-0.7,0-1.2,0.2-1.6,0.5c-0.4,0.3-0.5,0.7-0.5,1.1
		c0,0.4,0.1,0.8,0.4,1s0.6,0.5,1,0.7s0.8,0.4,1.3,0.6c0.5,0.2,0.9,0.5,1.3,0.7c0.4,0.3,0.7,0.6,1,1c0.3,0.4,0.4,0.9,0.4,1.5
		c0,0.5-0.1,0.9-0.3,1.3s-0.4,0.7-0.8,1c-0.3,0.3-0.7,0.5-1.2,0.6s-1,0.2-1.6,0.2c-0.8,0-1.5-0.1-2-0.2c-0.5-0.1-0.9-0.3-1.2-0.4
		l0.4-1.2c0.2,0.1,0.6,0.3,1.1,0.4c0.5,0.1,1,0.2,1.6,0.2c0.4,0,0.7,0,1-0.1s0.6-0.2,0.8-0.3c0.2-0.2,0.4-0.3,0.5-0.6
		C76.7,35.7,76.7,35.5,76.7,35.2z"/>
	<path class="st1" d="M85.5,37.5c-0.3,0.2-0.7,0.4-1.1,0.5c-0.4,0.1-0.9,0.2-1.4,0.2c-0.6,0-1.1-0.1-1.6-0.3c-0.4-0.2-0.8-0.5-1-0.8
		c-0.3-0.4-0.5-0.8-0.6-1.3c-0.1-0.5-0.2-1.1-0.2-1.7c0-1.4,0.3-2.4,0.9-3.1c0.6-0.7,1.5-1.1,2.6-1.1c0.5,0,0.9,0,1.3,0.1
		s0.7,0.2,1,0.3L85,31.4c-0.2-0.1-0.5-0.2-0.8-0.3c-0.3-0.1-0.6-0.1-1-0.1c-1.5,0-2.3,1-2.3,3.1c0,0.4,0,0.8,0.1,1.2s0.2,0.7,0.4,1
		c0.2,0.3,0.4,0.5,0.7,0.7c0.3,0.2,0.7,0.3,1.1,0.3c0.4,0,0.7-0.1,1-0.2c0.3-0.1,0.6-0.3,0.7-0.4L85.5,37.5z"/>
	<path class="st1" d="M86.8,37.3c0-0.3,0.1-0.5,0.2-0.7s0.4-0.2,0.7-0.2c0.3,0,0.5,0.1,0.7,0.2c0.2,0.2,0.3,0.4,0.3,0.7
		c0,0.3-0.1,0.5-0.3,0.7c-0.2,0.2-0.4,0.3-0.7,0.3c-0.3,0-0.5-0.1-0.7-0.3C86.9,37.8,86.8,37.5,86.8,37.3z"/>
	<path class="st1" d="M96.1,41.5c-0.5-0.5-0.9-1.1-1.2-1.7c-0.3-0.6-0.6-1.2-0.8-1.9c-0.2-0.6-0.4-1.3-0.5-2
		c-0.1-0.7-0.1-1.3-0.1-1.9c0-0.6,0-1.2,0.1-1.9c0.1-0.7,0.2-1.3,0.5-2c0.2-0.7,0.5-1.3,0.8-1.9c0.3-0.6,0.8-1.2,1.3-1.8l0.8,0.6
		c-0.4,0.5-0.8,1.1-1.1,1.7c-0.3,0.6-0.5,1.2-0.7,1.8s-0.3,1.2-0.4,1.8c-0.1,0.6-0.1,1.2-0.1,1.7c0,0.5,0,1.1,0.1,1.7
		s0.2,1.2,0.4,1.8s0.4,1.2,0.7,1.8c0.3,0.6,0.6,1.1,1,1.6L96.1,41.5z"/>
	<path class="st1" d="M103.6,34.9h-4.1L98.4,38h-1.3l4.2-11.4h0.6l4.3,11.4h-1.4L103.6,34.9z M100,33.7h3.3l-1.2-3.4l-0.4-1.7h0
		l-0.4,1.7L100,33.7z"/>
	<path class="st1" d="M113.5,38.4c0,1-0.3,1.8-0.8,2.3c-0.5,0.5-1.4,0.7-2.4,0.7c-0.6,0-1.2,0-1.5-0.1c-0.4-0.1-0.7-0.2-1-0.3
		l0.3-1.1c0.2,0.1,0.5,0.2,0.8,0.3c0.3,0.1,0.7,0.1,1.2,0.1c0.4,0,0.8,0,1.1-0.1c0.3-0.1,0.5-0.2,0.7-0.4c0.2-0.2,0.3-0.4,0.4-0.7
		c0.1-0.3,0.1-0.6,0.1-1v-0.8h-0.1c-0.2,0.3-0.5,0.5-0.8,0.7c-0.3,0.2-0.8,0.2-1.3,0.2c-1.1,0-1.9-0.3-2.4-1s-0.8-1.7-0.8-3.1
		c0-1.4,0.3-2.4,1-3.1c0.7-0.7,1.6-1.1,2.9-1.1c0.6,0,1.1,0,1.6,0.1s0.8,0.2,1.2,0.3V38.4z M110.2,37.1c0.5,0,1-0.1,1.3-0.4
		c0.3-0.3,0.5-0.7,0.7-1.3v-4.1c-0.4-0.2-1-0.3-1.6-0.3c-0.7,0-1.3,0.2-1.7,0.7c-0.4,0.5-0.6,1.3-0.6,2.3c0,0.4,0,0.9,0.1,1.2
		c0.1,0.4,0.2,0.7,0.4,1s0.4,0.5,0.6,0.6S109.9,37.1,110.2,37.1z"/>
	<path class="st1" d="M119.7,31.2c-0.3-0.1-0.6-0.2-0.9-0.2c-0.5,0-0.8,0.1-1.1,0.4s-0.4,0.6-0.5,1V38h-1.3v-8h0.9l0.2,1h0.1
		c0.2-0.4,0.4-0.6,0.7-0.8c0.3-0.2,0.6-0.3,1.1-0.3c0.3,0,0.7,0.1,1,0.2L119.7,31.2z"/>
	<path class="st1" d="M121.4,27.6c0-0.2,0.1-0.5,0.2-0.6c0.2-0.2,0.4-0.3,0.6-0.3c0.3,0,0.5,0.1,0.7,0.3c0.2,0.2,0.3,0.4,0.3,0.6
		c0,0.2-0.1,0.4-0.3,0.6s-0.4,0.2-0.7,0.2c-0.3,0-0.5-0.1-0.6-0.2S121.4,27.8,121.4,27.6z M121.6,30h1.3v8h-1.3V30z"/>
	<path class="st1" d="M125.2,37.3c0-0.3,0.1-0.5,0.2-0.7s0.4-0.2,0.7-0.2c0.3,0,0.5,0.1,0.7,0.2c0.2,0.2,0.3,0.4,0.3,0.7
		c0,0.3-0.1,0.5-0.3,0.7c-0.2,0.2-0.4,0.3-0.7,0.3c-0.3,0-0.5-0.1-0.7-0.3C125.3,37.8,125.2,37.5,125.2,37.3z"/>
	<path class="st1" d="M133.1,26.6l1,0.4l-5.8,13.2l-1-0.4L133.1,26.6z"/>
	<path class="st1" d="M142,37.5c-0.3,0.2-0.7,0.4-1.2,0.5c-0.5,0.1-1,0.1-1.6,0.1c-0.7,0-1.3-0.1-1.9-0.3c-0.6-0.2-1.1-0.6-1.5-1
		c-0.4-0.5-0.8-1.1-1-1.8s-0.4-1.6-0.4-2.6c0-1,0.1-1.9,0.4-2.7c0.3-0.7,0.7-1.3,1.1-1.8s1-0.8,1.6-1c0.6-0.2,1.2-0.3,1.8-0.3
		c0.6,0,1.2,0,1.6,0.1s0.8,0.2,1,0.3l-0.3,1.2c-0.5-0.3-1.2-0.4-2.2-0.4c-0.4,0-0.9,0.1-1.3,0.2c-0.4,0.2-0.8,0.4-1.1,0.8
		c-0.3,0.4-0.6,0.8-0.8,1.4c-0.2,0.6-0.3,1.3-0.3,2.2c0,0.8,0.1,1.4,0.3,2c0.2,0.6,0.5,1.1,0.8,1.4c0.3,0.4,0.7,0.7,1.2,0.9
		c0.5,0.2,0.9,0.3,1.5,0.3c0.5,0,0.9,0,1.3-0.1c0.4-0.1,0.7-0.2,0.9-0.4L142,37.5z"/>
	<path class="st1" d="M149,38v-4.6c0-0.4,0-0.8-0.1-1.1c0-0.3-0.1-0.6-0.3-0.8s-0.3-0.4-0.5-0.5c-0.2-0.1-0.5-0.2-0.9-0.2
		c-0.5,0-1,0.2-1.4,0.5s-0.7,0.7-0.8,1.3V38h-1.3V26.8h1.3v4.1h0.1c0.3-0.3,0.6-0.6,1-0.8c0.4-0.2,0.9-0.3,1.4-0.3
		c0.4,0,0.8,0.1,1.2,0.2c0.3,0.1,0.6,0.3,0.8,0.5c0.2,0.3,0.4,0.6,0.5,1c0.1,0.4,0.2,1,0.2,1.6V38H149z"/>
	<path class="st1" d="M158.5,37.4c-0.3,0.3-0.7,0.5-1.2,0.6s-1,0.2-1.5,0.2c-0.6,0-1.1-0.1-1.6-0.3c-0.4-0.2-0.8-0.5-1.1-0.8
		c-0.3-0.4-0.5-0.8-0.6-1.3c-0.1-0.5-0.2-1.1-0.2-1.7c0-1.4,0.3-2.4,0.9-3.1s1.5-1.1,2.6-1.1c0.4,0,0.7,0,1.1,0.1
		c0.4,0.1,0.7,0.2,1,0.5c0.3,0.2,0.5,0.5,0.7,1c0.2,0.4,0.3,1,0.3,1.6c0,0.4,0,0.7-0.1,1.2h-5.1c0,0.5,0,0.9,0.1,1.2
		c0.1,0.4,0.2,0.7,0.4,0.9c0.2,0.3,0.5,0.4,0.8,0.6s0.7,0.2,1.2,0.2c0.4,0,0.7-0.1,1.1-0.2c0.4-0.1,0.6-0.3,0.8-0.4L158.5,37.4z
		 M155.7,30.9c-0.6,0-1.1,0.2-1.5,0.5c-0.4,0.3-0.6,0.9-0.7,1.7h4c0-0.8-0.2-1.4-0.5-1.7S156.3,30.9,155.7,30.9z"/>
	<path class="st1" d="M165.4,38v-4.5c0-0.4,0-0.8-0.1-1.1s-0.1-0.6-0.2-0.8c-0.1-0.2-0.3-0.4-0.5-0.5s-0.5-0.2-0.8-0.2
		c-0.5,0-0.9,0.1-1.2,0.4s-0.6,0.7-0.7,1.1V38h-1.3v-8h0.9l0.2,1h0.1c0.3-0.3,0.6-0.6,1-0.8c0.4-0.2,0.9-0.3,1.5-0.3
		c0.5,0,0.9,0.1,1.3,0.3c0.3,0.2,0.6,0.5,0.8,1c0.2-0.4,0.6-0.7,1-1s0.9-0.4,1.5-0.4c0.4,0,0.8,0.1,1.1,0.2s0.6,0.3,0.8,0.5
		c0.2,0.3,0.3,0.6,0.4,1s0.1,1,0.1,1.7V38h-1.3v-4.8c0-0.4,0-0.7-0.1-1c0-0.3-0.1-0.5-0.2-0.7s-0.3-0.3-0.5-0.4
		c-0.2-0.1-0.5-0.1-0.8-0.1c-0.5,0-0.9,0.1-1.2,0.4s-0.5,0.7-0.6,1.3V38H165.4z"/>
	<path class="st1" d="M173.4,26.6c0.5,0.5,0.9,1.1,1.2,1.7c0.3,0.6,0.6,1.2,0.8,1.9c0.2,0.6,0.4,1.3,0.5,2c0.1,0.7,0.1,1.3,0.1,1.9
		c0,0.6,0,1.2-0.1,1.9c-0.1,0.7-0.2,1.3-0.5,2c-0.2,0.7-0.5,1.3-0.8,1.9c-0.3,0.6-0.8,1.2-1.3,1.8l-0.8-0.6c0.4-0.5,0.8-1.1,1.1-1.7
		c0.3-0.6,0.5-1.2,0.7-1.8c0.2-0.6,0.3-1.2,0.4-1.8c0.1-0.6,0.1-1.2,0.1-1.7c0-0.5,0-1.1-0.1-1.7c-0.1-0.6-0.2-1.2-0.4-1.8
		c-0.2-0.6-0.4-1.2-0.7-1.8c-0.3-0.6-0.6-1.1-1-1.6L173.4,26.6z"/>
</g>
<g class="st0">
	<path class="st1" d="M139.5,57.8h2.8v-7.9l0.3-1.4l-1,1.2l-1.8,1.2l-1.1-1.5l4.6-3.7h1.5v12h2.7V60h-8V57.8z"/>
	<path class="st1" d="M150.1,56.6c0-0.5,0.1-0.9,0.2-1.2c0.1-0.4,0.3-0.7,0.5-1c0.2-0.3,0.5-0.6,0.8-0.8c0.3-0.2,0.6-0.5,1-0.7
		c-0.7-0.4-1.2-0.9-1.5-1.4c-0.4-0.5-0.6-1.2-0.6-2c0-0.5,0.1-1,0.3-1.5c0.2-0.5,0.5-0.8,0.8-1.2s0.8-0.6,1.3-0.8s1.1-0.3,1.8-0.3
		c0.6,0,1.1,0.1,1.6,0.2s0.9,0.4,1.3,0.7c0.4,0.3,0.6,0.7,0.8,1.1s0.3,0.9,0.3,1.4c0,0.8-0.2,1.5-0.5,2c-0.4,0.5-0.9,1-1.5,1.5
		c0.8,0.5,1.4,1,1.8,1.5c0.4,0.6,0.6,1.3,0.6,2.2c0,0.6-0.1,1.1-0.3,1.6c-0.2,0.5-0.5,0.9-0.9,1.2c-0.4,0.3-0.9,0.6-1.4,0.8
		s-1.2,0.3-1.8,0.3c-0.7,0-1.3-0.1-1.8-0.3c-0.5-0.2-1-0.4-1.4-0.8c-0.4-0.3-0.7-0.7-0.9-1.2C150.2,57.6,150.1,57.1,150.1,56.6z
		 M156.5,56.3c0-0.3-0.1-0.6-0.2-0.8c-0.1-0.3-0.3-0.5-0.6-0.7c-0.2-0.2-0.5-0.4-0.8-0.6c-0.3-0.2-0.6-0.3-0.9-0.5
		c-0.6,0.4-1.1,0.8-1.3,1.2c-0.2,0.4-0.4,0.8-0.4,1.2c0,0.5,0.2,1,0.5,1.4s0.9,0.6,1.5,0.6c0.6,0,1.1-0.1,1.4-0.4
		C156.3,57.3,156.5,56.9,156.5,56.3z M152.9,49.5c0,0.3,0.1,0.6,0.2,0.8c0.1,0.2,0.3,0.5,0.5,0.6c0.2,0.2,0.4,0.3,0.7,0.5
		c0.3,0.2,0.5,0.3,0.8,0.4c0.8-0.7,1.2-1.4,1.2-2.2c0-0.6-0.2-1-0.5-1.3c-0.3-0.3-0.7-0.4-1.2-0.4c-0.6,0-1,0.2-1.3,0.5
		C153,48.7,152.9,49,152.9,49.5z"/>
	<path class="st1" d="M161.2,49.2c0-0.6,0.1-1.1,0.3-1.5s0.4-0.8,0.7-1.1c0.3-0.3,0.7-0.5,1.1-0.6s0.9-0.2,1.4-0.2
		c0.5,0,1,0.1,1.4,0.2c0.4,0.1,0.8,0.3,1.1,0.6c0.3,0.3,0.6,0.6,0.7,1.1s0.3,1,0.3,1.6c0,0.6-0.1,1.2-0.3,1.6s-0.4,0.8-0.7,1
		c-0.3,0.3-0.7,0.5-1.1,0.6s-0.9,0.2-1.4,0.2c-0.5,0-1-0.1-1.4-0.2s-0.8-0.3-1.1-0.6s-0.5-0.6-0.7-1S161.2,49.8,161.2,49.2z
		 M173.7,45.7l1.5,1.3l-11.5,13.2l-1.5-1.4L173.7,45.7z M163.5,49.2c0,1.1,0.4,1.7,1.2,1.7c0.4,0,0.7-0.1,0.9-0.4
		c0.2-0.2,0.3-0.7,0.3-1.3c0-0.6-0.1-1.1-0.3-1.3c-0.2-0.3-0.5-0.4-0.9-0.4c-0.4,0-0.7,0.1-0.9,0.4
		C163.6,48.1,163.5,48.5,163.5,49.2z M169.3,56.6c0-0.6,0.1-1.1,0.3-1.5s0.4-0.8,0.7-1.1c0.3-0.3,0.7-0.5,1.1-0.6
		c0.4-0.1,0.9-0.2,1.4-0.2c0.5,0,1,0.1,1.4,0.2s0.8,0.3,1.1,0.6c0.3,0.3,0.6,0.6,0.7,1s0.3,1,0.3,1.6c0,0.6-0.1,1.2-0.3,1.6
		c-0.2,0.4-0.4,0.8-0.7,1c-0.3,0.3-0.7,0.5-1.1,0.6s-0.9,0.2-1.4,0.2c-0.5,0-1-0.1-1.4-0.2c-0.4-0.1-0.8-0.3-1.1-0.6
		c-0.3-0.3-0.5-0.6-0.7-1C169.4,57.7,169.3,57.2,169.3,56.6z M171.7,56.6c0,1.1,0.4,1.7,1.2,1.7c0.4,0,0.7-0.1,0.9-0.4
		c0.2-0.2,0.3-0.7,0.3-1.3c0-0.6-0.1-1.1-0.3-1.3c-0.2-0.3-0.5-0.4-0.9-0.4c-0.4,0-0.7,0.1-0.9,0.4
		C171.8,55.5,171.7,55.9,171.7,56.6z"/>
</g>
<g class="st0">
	<path class="st1" d="M509.4,4.9c0.4-0.1,0.8-0.2,1.3-0.2c0.5,0,0.9,0,1.4,0c0.5,0,1,0,1.5,0.1c0.5,0.1,1,0.3,1.4,0.5s0.8,0.6,1,1.1
		c0.3,0.4,0.4,1,0.4,1.7c0,0.7-0.1,1.3-0.4,1.7c-0.2,0.5-0.6,0.9-1,1.1c-0.4,0.3-0.9,0.5-1.4,0.6s-1.1,0.2-1.6,0.2
		c-0.1,0-0.1,0-0.3,0c-0.1,0-0.3,0-0.4,0c-0.1,0-0.3,0-0.4,0s-0.2,0-0.3,0V16h-1.3V4.9z M512.1,5.8c-0.3,0-0.5,0-0.8,0
		s-0.5,0-0.6,0.1v4.6c0.1,0,0.1,0,0.3,0c0.1,0,0.2,0,0.4,0c0.1,0,0.2,0,0.4,0s0.2,0,0.3,0c0.4,0,0.7,0,1.1-0.1
		c0.4-0.1,0.7-0.2,1-0.4c0.3-0.2,0.5-0.4,0.7-0.8c0.2-0.3,0.3-0.8,0.3-1.3c0-0.4-0.1-0.8-0.2-1.1c-0.2-0.3-0.4-0.5-0.7-0.7
		c-0.3-0.2-0.6-0.3-0.9-0.4C512.8,5.9,512.4,5.8,512.1,5.8z"/>
	<path class="st1" d="M521.4,9.2c-0.3-0.1-0.6-0.2-0.9-0.2c-0.5,0-0.8,0.1-1.1,0.4s-0.4,0.6-0.5,1V16h-1.3V8h0.9l0.2,1h0.1
		c0.2-0.4,0.4-0.6,0.7-0.8c0.3-0.2,0.6-0.3,1.1-0.3c0.3,0,0.7,0.1,1,0.2L521.4,9.2z"/>
	<path class="st1" d="M522.6,12c0-1.4,0.3-2.4,0.9-3.1c0.6-0.7,1.5-1.1,2.6-1.1c0.6,0,1.1,0.1,1.6,0.3c0.4,0.2,0.8,0.5,1.1,0.8
		c0.3,0.4,0.5,0.8,0.6,1.3s0.2,1.1,0.2,1.7c0,1.4-0.3,2.4-0.9,3.1c-0.6,0.7-1.5,1.1-2.6,1.1c-0.6,0-1.1-0.1-1.6-0.3
		c-0.4-0.2-0.8-0.5-1.1-0.8s-0.5-0.8-0.6-1.3C522.7,13.2,522.6,12.6,522.6,12z M523.9,12c0,0.4,0,0.8,0.1,1.2s0.2,0.7,0.4,1
		c0.2,0.3,0.4,0.5,0.7,0.7c0.3,0.2,0.6,0.3,1,0.3c1.5,0,2.2-1,2.2-3.1c0-0.4,0-0.8-0.1-1.2c-0.1-0.4-0.2-0.7-0.4-1s-0.4-0.5-0.7-0.7
		c-0.3-0.2-0.6-0.2-1-0.2C524.7,8.9,523.9,9.9,523.9,12z"/>
	<path class="st1" d="M530.6,8h1.2V7.6c0-0.5,0-0.9,0.1-1.3c0.1-0.4,0.2-0.7,0.4-0.9s0.4-0.4,0.7-0.5c0.3-0.1,0.6-0.2,1.1-0.2
		c0.3,0,0.6,0,0.9,0.1c0.3,0,0.5,0.1,0.8,0.2l-0.3,1.1c-0.2-0.1-0.5-0.2-0.7-0.2s-0.4,0-0.6,0c-0.3,0-0.5,0-0.6,0.1
		s-0.3,0.2-0.3,0.4c-0.1,0.2-0.1,0.4-0.1,0.6c0,0.2,0,0.5,0,0.8V8h2.1v1.1h-2.1V16h-1.3V9.1h-1.2V8z"/>
	<path class="st1" d="M542.2,15.4c-0.3,0.3-0.7,0.5-1.2,0.6c-0.5,0.1-1,0.2-1.5,0.2c-0.6,0-1.1-0.1-1.6-0.3
		c-0.4-0.2-0.8-0.5-1.1-0.8c-0.3-0.4-0.5-0.8-0.6-1.3c-0.1-0.5-0.2-1.1-0.2-1.7c0-1.4,0.3-2.4,0.9-3.1c0.6-0.7,1.5-1.1,2.6-1.1
		c0.4,0,0.7,0,1.1,0.1c0.4,0.1,0.7,0.2,1,0.5c0.3,0.2,0.5,0.5,0.7,1c0.2,0.4,0.3,1,0.3,1.6c0,0.4,0,0.7-0.1,1.2h-5.1
		c0,0.5,0,0.9,0.1,1.2c0.1,0.4,0.2,0.7,0.4,0.9c0.2,0.3,0.5,0.4,0.8,0.6s0.7,0.2,1.2,0.2c0.4,0,0.7-0.1,1.1-0.2
		c0.4-0.1,0.6-0.3,0.8-0.4L542.2,15.4z M539.5,8.9c-0.6,0-1.1,0.2-1.5,0.5c-0.4,0.3-0.6,0.9-0.7,1.7h4c0-0.8-0.2-1.4-0.5-1.7
		S540,8.9,539.5,8.9z"/>
	<path class="st1" d="M548,13.8c0-0.3-0.1-0.6-0.3-0.8s-0.4-0.3-0.7-0.5c-0.3-0.1-0.6-0.2-0.9-0.4c-0.3-0.1-0.6-0.3-0.9-0.4
		c-0.3-0.2-0.5-0.4-0.7-0.7c-0.2-0.3-0.3-0.7-0.3-1.1c0-0.8,0.2-1.3,0.7-1.7s1-0.5,1.8-0.5c0.6,0,1.1,0.1,1.4,0.2
		c0.4,0.1,0.7,0.2,1,0.4l-0.3,1.1c-0.2-0.1-0.5-0.2-0.9-0.3c-0.3-0.1-0.7-0.1-1.1-0.1c-0.5,0-0.8,0.1-1,0.2s-0.3,0.4-0.3,0.8
		c0,0.3,0.1,0.5,0.3,0.6c0.2,0.2,0.4,0.3,0.7,0.4c0.3,0.1,0.6,0.2,0.9,0.4s0.6,0.3,0.9,0.5c0.3,0.2,0.5,0.4,0.7,0.7
		c0.2,0.3,0.3,0.7,0.3,1.2c0,0.3-0.1,0.7-0.2,1c-0.1,0.3-0.3,0.6-0.5,0.8c-0.2,0.2-0.5,0.4-0.9,0.5c-0.3,0.1-0.8,0.2-1.2,0.2
		c-0.6,0-1.1-0.1-1.6-0.2c-0.4-0.1-0.8-0.3-1.1-0.4l0.4-1.1c0.2,0.1,0.6,0.3,1,0.4c0.4,0.1,0.8,0.2,1.2,0.2c0.5,0,0.8-0.1,1.1-0.3
		C547.9,14.6,548,14.3,548,13.8z"/>
	<path class="st1" d="M554.8,13.8c0-0.3-0.1-0.6-0.3-0.8s-0.4-0.3-0.7-0.5c-0.3-0.1-0.6-0.2-0.9-0.4c-0.3-0.1-0.6-0.3-0.9-0.4
		c-0.3-0.2-0.5-0.4-0.7-0.7c-0.2-0.3-0.3-0.7-0.3-1.1c0-0.8,0.2-1.3,0.7-1.7s1-0.5,1.8-0.5c0.6,0,1.1,0.1,1.4,0.2
		c0.4,0.1,0.7,0.2,1,0.4l-0.3,1.1c-0.2-0.1-0.5-0.2-0.9-0.3c-0.3-0.1-0.7-0.1-1.1-0.1c-0.5,0-0.8,0.1-1,0.2s-0.3,0.4-0.3,0.8
		c0,0.3,0.1,0.5,0.3,0.6c0.2,0.2,0.4,0.3,0.7,0.4c0.3,0.1,0.6,0.2,0.9,0.4s0.6,0.3,0.9,0.5c0.3,0.2,0.5,0.4,0.7,0.7
		c0.2,0.3,0.3,0.7,0.3,1.2c0,0.3-0.1,0.7-0.2,1c-0.1,0.3-0.3,0.6-0.5,0.8c-0.2,0.2-0.5,0.4-0.9,0.5c-0.3,0.1-0.8,0.2-1.2,0.2
		c-0.6,0-1.1-0.1-1.6-0.2c-0.4-0.1-0.8-0.3-1.1-0.4l0.4-1.1c0.2,0.1,0.6,0.3,1,0.4c0.4,0.1,0.8,0.2,1.2,0.2c0.5,0,0.8-0.1,1.1-0.3
		C554.6,14.6,554.8,14.3,554.8,13.8z"/>
	<path class="st1" d="M558,5.6c0-0.2,0.1-0.5,0.2-0.6c0.2-0.2,0.4-0.3,0.6-0.3s0.5,0.1,0.7,0.3c0.2,0.2,0.3,0.4,0.3,0.6
		c0,0.2-0.1,0.4-0.3,0.6c-0.2,0.2-0.4,0.2-0.7,0.2s-0.5-0.1-0.6-0.2C558,6,558,5.8,558,5.6z M558.2,8h1.3v8h-1.3V8z"/>
	<path class="st1" d="M561.8,12c0-1.4,0.3-2.4,0.9-3.1c0.6-0.7,1.5-1.1,2.6-1.1c0.6,0,1.1,0.1,1.6,0.3c0.4,0.2,0.8,0.5,1.1,0.8
		c0.3,0.4,0.5,0.8,0.6,1.3s0.2,1.1,0.2,1.7c0,1.4-0.3,2.4-0.9,3.1c-0.6,0.7-1.5,1.1-2.6,1.1c-0.6,0-1.1-0.1-1.6-0.3
		c-0.4-0.2-0.8-0.5-1.1-0.8s-0.5-0.8-0.6-1.3C561.9,13.2,561.8,12.6,561.8,12z M563.1,12c0,0.4,0,0.8,0.1,1.2s0.2,0.7,0.4,1
		c0.2,0.3,0.4,0.5,0.7,0.7c0.3,0.2,0.6,0.3,1,0.3c1.5,0,2.2-1,2.2-3.1c0-0.4,0-0.8-0.1-1.2c-0.1-0.4-0.2-0.7-0.4-1s-0.4-0.5-0.7-0.7
		c-0.3-0.2-0.6-0.2-1-0.2C563.9,8.9,563.1,9.9,563.1,12z"/>
	<path class="st1" d="M576,16v-4.6c0-0.8-0.1-1.5-0.4-1.9c-0.2-0.4-0.7-0.6-1.3-0.6c-0.6,0-1,0.2-1.4,0.5c-0.4,0.3-0.6,0.7-0.8,1.1
		V16h-1.3V8h0.9l0.2,1h0.1c0.3-0.3,0.6-0.6,1-0.8c0.4-0.2,0.9-0.3,1.5-0.3c0.4,0,0.8,0.1,1.2,0.2c0.3,0.1,0.6,0.3,0.8,0.5
		s0.4,0.6,0.5,1c0.1,0.4,0.2,1,0.2,1.6V16H576z"/>
	<path class="st1" d="M579.5,8.6c0.4-0.2,0.9-0.4,1.4-0.5c0.5-0.1,1.1-0.2,1.7-0.2c0.6,0,1,0.1,1.3,0.2s0.6,0.3,0.8,0.6
		c0.2,0.2,0.3,0.5,0.4,0.8s0.1,0.6,0.1,0.9c0,0.6,0,1.3,0,1.9s0,1.2,0,1.7c0,0.4,0,0.8,0,1.1c0,0.4,0.1,0.7,0.2,1h-0.9l-0.3-1.1
		h-0.1c-0.1,0.1-0.2,0.3-0.4,0.4c-0.1,0.1-0.3,0.3-0.5,0.4c-0.2,0.1-0.4,0.2-0.7,0.3c-0.3,0.1-0.6,0.1-0.9,0.1c-0.3,0-0.7-0.1-1-0.2
		c-0.3-0.1-0.5-0.3-0.8-0.5c-0.2-0.2-0.4-0.4-0.5-0.7c-0.1-0.3-0.2-0.6-0.2-0.9c0-0.5,0.1-0.9,0.3-1.2c0.2-0.3,0.5-0.6,0.8-0.8
		c0.3-0.2,0.8-0.3,1.2-0.4s1-0.1,1.6-0.1c0.1,0,0.3,0,0.4,0c0.1,0,0.3,0,0.4,0c0-0.3,0-0.6,0-0.9c0-0.6-0.1-1-0.4-1.2
		c-0.2-0.2-0.7-0.4-1.3-0.4c-0.2,0-0.4,0-0.6,0s-0.4,0.1-0.6,0.1s-0.4,0.1-0.6,0.2s-0.4,0.2-0.5,0.2L579.5,8.6z M581.7,15
		c0.3,0,0.6,0,0.8-0.1s0.4-0.2,0.6-0.3c0.2-0.1,0.3-0.3,0.4-0.4s0.2-0.3,0.2-0.4v-1.3c-0.1,0-0.3,0-0.5,0c-0.2,0-0.3,0-0.5,0
		c-0.3,0-0.7,0-1,0.1c-0.3,0-0.6,0.1-0.8,0.2c-0.2,0.1-0.4,0.2-0.6,0.4c-0.1,0.2-0.2,0.4-0.2,0.7c0,0.4,0.1,0.7,0.4,0.9
		C581,14.9,581.3,15,581.7,15z"/>
	<path class="st1" d="M588.9,14c0,0.4,0.1,0.6,0.2,0.8c0.1,0.2,0.3,0.2,0.5,0.2c0.1,0,0.3,0,0.4,0s0.3-0.1,0.5-0.1l0.1,1
		c-0.2,0.1-0.4,0.2-0.7,0.2c-0.3,0.1-0.6,0.1-0.8,0.1c-0.5,0-0.9-0.1-1.2-0.4c-0.3-0.3-0.5-0.7-0.5-1.4V4.8h1.3V14z"/>
	<path class="st1" d="M595.7,13.8c0-0.3-0.1-0.6-0.3-0.8s-0.4-0.3-0.7-0.5c-0.3-0.1-0.6-0.2-0.9-0.4c-0.3-0.1-0.6-0.3-0.9-0.4
		c-0.3-0.2-0.5-0.4-0.7-0.7c-0.2-0.3-0.3-0.7-0.3-1.1c0-0.8,0.2-1.3,0.7-1.7s1-0.5,1.8-0.5c0.6,0,1.1,0.1,1.4,0.2
		c0.4,0.1,0.7,0.2,1,0.4l-0.3,1.1c-0.2-0.1-0.5-0.2-0.9-0.3c-0.3-0.1-0.7-0.1-1.1-0.1c-0.5,0-0.8,0.1-1,0.2s-0.3,0.4-0.3,0.8
		c0,0.3,0.1,0.5,0.3,0.6c0.2,0.2,0.4,0.3,0.7,0.4c0.3,0.1,0.6,0.2,0.9,0.4s0.6,0.3,0.9,0.5c0.3,0.2,0.5,0.4,0.7,0.7
		c0.2,0.3,0.3,0.7,0.3,1.2c0,0.3-0.1,0.7-0.2,1c-0.1,0.3-0.3,0.6-0.5,0.8c-0.2,0.2-0.5,0.4-0.9,0.5c-0.3,0.1-0.8,0.2-1.2,0.2
		c-0.6,0-1.1-0.1-1.6-0.2c-0.4-0.1-0.8-0.3-1.1-0.4l0.4-1.1c0.2,0.1,0.6,0.3,1,0.4c0.4,0.1,0.8,0.2,1.2,0.2c0.5,0,0.8-0.1,1.1-0.3
		C595.6,14.6,595.7,14.3,595.7,13.8z"/>
</g>
<g class="st0">
	<path class="st1" d="M511.6,41.5c-0.5-0.5-0.9-1.1-1.2-1.7s-0.6-1.2-0.8-1.9c-0.2-0.6-0.4-1.3-0.5-2c-0.1-0.7-0.1-1.3-0.1-1.9
		c0-0.6,0-1.2,0.1-1.9c0.1-0.7,0.3-1.3,0.5-2c0.2-0.7,0.5-1.3,0.8-1.9c0.3-0.6,0.8-1.2,1.3-1.8l0.8,0.6c-0.4,0.5-0.8,1.1-1.1,1.7
		c-0.3,0.6-0.5,1.2-0.7,1.8s-0.3,1.2-0.4,1.8s-0.1,1.2-0.1,1.7c0,0.5,0,1.1,0.1,1.7s0.2,1.2,0.4,1.8s0.4,1.2,0.7,1.8
		c0.3,0.6,0.6,1.1,1,1.6L511.6,41.5z"/>
	<path class="st1" d="M521,37.5c-0.3,0.2-0.7,0.4-1.2,0.5s-1,0.1-1.6,0.1c-0.7,0-1.3-0.1-1.9-0.3c-0.6-0.2-1.1-0.6-1.5-1
		c-0.4-0.5-0.8-1.1-1-1.8s-0.4-1.6-0.4-2.6c0-1,0.1-1.9,0.4-2.7s0.7-1.3,1.1-1.8s1-0.8,1.6-1c0.6-0.2,1.2-0.3,1.8-0.3
		c0.6,0,1.2,0,1.6,0.1c0.4,0.1,0.8,0.2,1,0.3l-0.3,1.2c-0.5-0.3-1.2-0.4-2.2-0.4c-0.4,0-0.9,0.1-1.3,0.2s-0.8,0.4-1.1,0.8
		c-0.3,0.4-0.6,0.8-0.8,1.4s-0.3,1.3-0.3,2.2c0,0.8,0.1,1.4,0.3,2c0.2,0.6,0.5,1.1,0.8,1.4c0.3,0.4,0.7,0.7,1.2,0.9
		c0.5,0.2,0.9,0.3,1.5,0.3c0.5,0,0.9,0,1.3-0.1c0.4-0.1,0.7-0.2,0.9-0.4L521,37.5z"/>
	<path class="st1" d="M527.8,34.9h-4.1l-1.1,3.1h-1.3l4.2-11.4h0.6l4.3,11.4H529L527.8,34.9z M524.2,33.7h3.3l-1.2-3.4l-0.4-1.7h0
		l-0.4,1.7L524.2,33.7z"/>
	<path class="st1" d="M535.8,26.6l1,0.4l-5.8,13.2l-1-0.4L535.8,26.6z"/>
	<path class="st1" d="M537.9,26.8h1.3V38h-1.3V26.8z"/>
	<path class="st1" d="M549.4,37.5c-0.3,0.2-0.7,0.4-1.2,0.5c-0.5,0.1-1,0.1-1.6,0.1c-0.7,0-1.3-0.1-1.9-0.3c-0.6-0.2-1.1-0.6-1.5-1
		c-0.4-0.5-0.8-1.1-1-1.8c-0.3-0.7-0.4-1.6-0.4-2.6c0-1,0.1-1.9,0.4-2.7c0.3-0.7,0.7-1.3,1.1-1.8c0.5-0.5,1-0.8,1.6-1
		c0.6-0.2,1.2-0.3,1.8-0.3c0.6,0,1.2,0,1.6,0.1c0.4,0.1,0.8,0.2,1,0.3l-0.3,1.2c-0.5-0.3-1.2-0.4-2.2-0.4c-0.4,0-0.9,0.1-1.3,0.2
		c-0.4,0.2-0.8,0.4-1.1,0.8c-0.3,0.4-0.6,0.8-0.8,1.4c-0.2,0.6-0.3,1.3-0.3,2.2c0,0.8,0.1,1.4,0.3,2c0.2,0.6,0.5,1.1,0.8,1.4
		c0.3,0.4,0.7,0.7,1.2,0.9c0.5,0.2,0.9,0.3,1.5,0.3c0.5,0,0.9,0,1.3-0.1c0.4-0.1,0.7-0.2,0.9-0.4L549.4,37.5z"/>
	<path class="st1" d="M553.4,34.3l0.3,1.9h0l0.3-1.9l2.3-7.5h0.6l2.3,7.5l0.3,1.9h0l0.3-1.9l1.9-7.5h1.3l-3.1,11.4h-0.7l-2.3-7.5
		l-0.3-1.7h-0.1l-0.3,1.7l-2.3,7.5h-0.7L550,26.8h1.4L553.4,34.3z"/>
	<path class="st1" d="M569.4,34.9h-4.1l-1.1,3.1h-1.3l4.2-11.4h0.6l4.3,11.4h-1.4L569.4,34.9z M565.7,33.7h3.3l-1.2-3.4l-0.4-1.7h0
		l-0.4,1.7L565.7,33.7z"/>
	<path class="st1" d="M577.3,26.6l1,0.4l-5.8,13.2l-1-0.4L577.3,26.6z"/>
	<path class="st1" d="M586.2,37.5c-0.3,0.2-0.7,0.4-1.2,0.5c-0.5,0.1-1,0.1-1.6,0.1c-0.7,0-1.3-0.1-1.9-0.3c-0.6-0.2-1.1-0.6-1.5-1
		c-0.4-0.5-0.8-1.1-1-1.8c-0.3-0.7-0.4-1.6-0.4-2.6c0-1,0.1-1.9,0.4-2.7c0.3-0.7,0.7-1.3,1.1-1.8c0.5-0.5,1-0.8,1.6-1
		c0.6-0.2,1.2-0.3,1.8-0.3c0.6,0,1.2,0,1.6,0.1c0.4,0.1,0.8,0.2,1,0.3l-0.3,1.2c-0.5-0.3-1.2-0.4-2.2-0.4c-0.4,0-0.9,0.1-1.3,0.2
		c-0.4,0.2-0.8,0.4-1.1,0.8c-0.3,0.4-0.6,0.8-0.8,1.4c-0.2,0.6-0.3,1.3-0.3,2.2c0,0.8,0.1,1.4,0.3,2c0.2,0.6,0.5,1.1,0.8,1.4
		c0.3,0.4,0.7,0.7,1.2,0.9c0.5,0.2,0.9,0.3,1.5,0.3c0.5,0,0.9,0,1.3-0.1c0.4-0.1,0.7-0.2,0.9-0.4L586.2,37.5z"/>
	<path class="st1" d="M593.3,35.2c0-0.4-0.1-0.8-0.4-1.1c-0.3-0.3-0.6-0.5-1-0.8c-0.4-0.2-0.8-0.4-1.3-0.6c-0.5-0.2-0.9-0.4-1.3-0.7
		c-0.4-0.3-0.7-0.6-1-1c-0.3-0.4-0.4-0.9-0.4-1.5c0-0.9,0.3-1.6,0.9-2.1s1.5-0.8,2.6-0.8c0.7,0,1.2,0,1.8,0.1s0.9,0.2,1.2,0.4
		l-0.4,1.2c-0.2-0.1-0.6-0.2-1.1-0.3c-0.5-0.1-1-0.2-1.6-0.2c-0.7,0-1.2,0.2-1.6,0.5c-0.4,0.3-0.5,0.7-0.5,1.1c0,0.4,0.1,0.8,0.4,1
		c0.3,0.3,0.6,0.5,1,0.7c0.4,0.2,0.8,0.4,1.3,0.6c0.5,0.2,0.9,0.5,1.3,0.7c0.4,0.3,0.7,0.6,1,1c0.3,0.4,0.4,0.9,0.4,1.5
		c0,0.5-0.1,0.9-0.3,1.3c-0.2,0.4-0.4,0.7-0.8,1c-0.3,0.3-0.7,0.5-1.2,0.6c-0.5,0.1-1,0.2-1.6,0.2c-0.8,0-1.5-0.1-2-0.2
		c-0.5-0.1-0.9-0.3-1.2-0.4l0.4-1.2c0.2,0.1,0.6,0.3,1.1,0.4c0.5,0.1,1,0.2,1.6,0.2c0.4,0,0.7,0,1-0.1s0.6-0.2,0.8-0.3
		c0.2-0.2,0.4-0.3,0.5-0.6C593.2,35.7,593.3,35.5,593.3,35.2z"/>
	<path class="st1" d="M600.6,26.6l1,0.4l-5.8,13.2l-1-0.4L600.6,26.6z"/>
</g>
<g class="st0">
	<path class="st1" d="M516,60h-6.6V48.8h1.3v10h5.3V60z"/>
	<path class="st1" d="M517.1,52.6c0.4-0.2,0.9-0.4,1.4-0.5c0.5-0.1,1.1-0.2,1.7-0.2c0.6,0,1,0.1,1.3,0.2s0.6,0.3,0.8,0.6
		c0.2,0.2,0.3,0.5,0.4,0.8s0.1,0.6,0.1,0.9c0,0.6,0,1.3,0,1.9c0,0.6,0,1.2,0,1.7c0,0.4,0,0.8,0,1.1c0,0.4,0.1,0.7,0.2,1h-0.9
		l-0.3-1.1h-0.1c-0.1,0.1-0.2,0.3-0.4,0.4c-0.1,0.1-0.3,0.3-0.5,0.4c-0.2,0.1-0.4,0.2-0.7,0.3c-0.3,0.1-0.6,0.1-0.9,0.1
		c-0.3,0-0.7-0.1-1-0.2c-0.3-0.1-0.5-0.3-0.8-0.5c-0.2-0.2-0.4-0.4-0.5-0.7s-0.2-0.6-0.2-0.9c0-0.5,0.1-0.9,0.3-1.2
		c0.2-0.3,0.5-0.6,0.8-0.8c0.3-0.2,0.8-0.3,1.2-0.4s1-0.1,1.6-0.1c0.1,0,0.3,0,0.4,0c0.1,0,0.3,0,0.4,0c0-0.3,0-0.6,0-0.9
		c0-0.6-0.1-1-0.4-1.2c-0.2-0.2-0.7-0.4-1.3-0.4c-0.2,0-0.4,0-0.6,0s-0.4,0.1-0.6,0.1s-0.4,0.1-0.6,0.2s-0.4,0.2-0.5,0.2L517.1,52.6
		z M519.3,59c0.3,0,0.6,0,0.8-0.1c0.2-0.1,0.4-0.2,0.6-0.3c0.2-0.1,0.3-0.3,0.4-0.4s0.2-0.3,0.2-0.4v-1.3c-0.1,0-0.3,0-0.5,0
		c-0.2,0-0.3,0-0.5,0c-0.3,0-0.7,0-1,0.1c-0.3,0-0.6,0.1-0.8,0.2c-0.2,0.1-0.4,0.2-0.6,0.4c-0.1,0.2-0.2,0.4-0.2,0.7
		c0,0.4,0.1,0.7,0.4,0.9C518.6,58.9,518.9,59,519.3,59z"/>
	<path class="st1" d="M530.3,52l1.8,4.7l0.4,1.5h0l0.3-1.6l1.4-4.6h1.2l-2.7,8.2h-0.6l-2.1-5.3l-0.3-1.3h0l-0.3,1.3l-2,5.3h-0.6
		L524,52h1.4l1.6,4.7l0.3,1.6h0l0.4-1.6l1.7-4.6H530.3z"/>
	<path class="st1" d="M540.9,48.6l1,0.4l-5.8,13.2l-1-0.4L540.9,48.6z"/>
	<path class="st1" d="M551.3,52.5l0.2-1.7h-0.1l-0.6,1.5l-2.9,5.1h-0.4l-3.1-5.1l-0.6-1.5h-0.1l0.2,1.7V60h-1.2V48.8h1l3.5,5.7
		l0.5,1.2h0l0.5-1.3l3.3-5.7h1V60h-1.3V52.5z"/>
	<path class="st1" d="M562.1,51.4c0,0.3,0,0.5-0.1,0.8s-0.2,0.5-0.4,0.8s-0.4,0.5-0.7,0.6s-0.6,0.3-0.9,0.4v0.1
		c0.3,0.1,0.6,0.1,0.9,0.3c0.3,0.1,0.6,0.3,0.8,0.5c0.2,0.2,0.4,0.5,0.5,0.8c0.1,0.3,0.2,0.7,0.2,1.1c0,0.6-0.1,1.1-0.4,1.5
		c-0.2,0.4-0.6,0.8-0.9,1c-0.4,0.3-0.8,0.5-1.3,0.6c-0.5,0.1-1,0.2-1.5,0.2c-0.2,0-0.4,0-0.6,0c-0.2,0-0.5,0-0.8,0
		c-0.3,0-0.5,0-0.8-0.1s-0.5-0.1-0.7-0.1v-11c0.4-0.1,0.9-0.1,1.4-0.2c0.5,0,1.1-0.1,1.7-0.1c0.4,0,0.8,0,1.3,0.1s0.8,0.2,1.2,0.4
		s0.6,0.5,0.9,0.8S562.1,50.8,562.1,51.4z M557.5,53.7c0.2,0,0.4,0,0.7,0c0.3,0,0.5,0,0.6,0c0.3-0.1,0.5-0.2,0.7-0.3
		c0.2-0.1,0.4-0.3,0.6-0.4c0.2-0.2,0.3-0.4,0.4-0.6c0.1-0.2,0.2-0.5,0.2-0.7c0-0.4-0.1-0.6-0.2-0.9c-0.1-0.2-0.3-0.4-0.5-0.6
		c-0.2-0.1-0.5-0.2-0.8-0.3c-0.3-0.1-0.6-0.1-0.9-0.1c-0.4,0-0.7,0-1,0c-0.3,0-0.5,0-0.7,0.1v3.8H557.5z M558.4,59
		c0.3,0,0.7,0,1-0.1c0.3-0.1,0.6-0.2,0.8-0.4c0.2-0.2,0.4-0.4,0.6-0.6c0.1-0.3,0.2-0.6,0.2-0.9c0-0.4-0.1-0.8-0.3-1.1
		c-0.2-0.3-0.4-0.5-0.7-0.6c-0.3-0.1-0.6-0.3-1-0.3c-0.4-0.1-0.7-0.1-1.1-0.1h-1.4v4c0.1,0,0.2,0,0.3,0s0.3,0,0.4,0s0.3,0,0.5,0
		C558.1,59,558.2,59,558.4,59z"/>
	<path class="st1" d="M570,56.9h-4.1l-1.1,3.1h-1.3l4.2-11.4h0.6l4.3,11.4h-1.4L570,56.9z M566.3,55.7h3.3l-1.2-3.4l-0.4-1.7h0
		l-0.4,1.7L566.3,55.7z"/>
	<path class="st1" d="M577.9,48.6l1,0.4l-5.8,13.2l-1-0.4L577.9,48.6z"/>
	<path class="st1" d="M579.7,48.9c0.4-0.1,0.8-0.2,1.3-0.2c0.5,0,0.9,0,1.4,0c0.5,0,1,0,1.5,0.1c0.5,0.1,1,0.3,1.4,0.5
		s0.8,0.6,1,1.1c0.3,0.4,0.4,1,0.4,1.7c0,0.7-0.1,1.3-0.4,1.7c-0.2,0.5-0.6,0.9-1,1.1c-0.4,0.3-0.9,0.5-1.4,0.6
		c-0.5,0.1-1.1,0.2-1.6,0.2c-0.1,0-0.1,0-0.3,0c-0.1,0-0.2,0-0.4,0c-0.1,0-0.3,0-0.4,0s-0.2,0-0.3,0V60h-1.3V48.9z M582.4,49.8
		c-0.3,0-0.5,0-0.8,0s-0.5,0-0.6,0.1v4.6c0.1,0,0.1,0,0.3,0c0.1,0,0.2,0,0.4,0c0.1,0,0.3,0,0.4,0c0.1,0,0.2,0,0.3,0
		c0.4,0,0.7,0,1.1-0.1c0.4-0.1,0.7-0.2,1-0.4c0.3-0.2,0.5-0.4,0.7-0.8c0.2-0.3,0.3-0.8,0.3-1.3c0-0.4-0.1-0.8-0.2-1.1
		c-0.2-0.3-0.4-0.5-0.7-0.7c-0.3-0.2-0.6-0.3-0.9-0.4C583.1,49.9,582.8,49.8,582.4,49.8z"/>
	<path class="st1" d="M593.6,60v-4.6c0-0.4,0-0.8-0.1-1.1c0-0.3-0.1-0.6-0.3-0.8c-0.1-0.2-0.3-0.4-0.5-0.5s-0.5-0.2-0.9-0.2
		c-0.5,0-1,0.2-1.4,0.5c-0.4,0.3-0.7,0.7-0.8,1.3V60h-1.3V48.8h1.3v4.1h0.1c0.3-0.3,0.6-0.6,1-0.8c0.4-0.2,0.9-0.3,1.4-0.3
		c0.4,0,0.8,0.1,1.2,0.2s0.6,0.3,0.8,0.5s0.4,0.6,0.5,1c0.1,0.4,0.2,1,0.2,1.6V60H593.6z"/>
	<path class="st1" d="M597.4,48.8c0.2,0,0.4-0.1,0.7-0.1c0.3,0,0.5,0,0.8,0c0.3,0,0.5,0,0.8,0c0.3,0,0.5,0,0.7,0
		c0.9,0,1.7,0.1,2.3,0.4s1.2,0.7,1.6,1.2s0.7,1.1,1,1.8c0.2,0.7,0.3,1.5,0.3,2.3c0,0.8-0.1,1.5-0.3,2.2c-0.2,0.7-0.5,1.3-0.9,1.9
		c-0.4,0.5-1,1-1.7,1.3c-0.7,0.3-1.5,0.5-2.5,0.5c-0.2,0-0.4,0-0.7,0c-0.3,0-0.6,0-0.8,0c-0.3,0-0.6,0-0.8,0c-0.2,0-0.4,0-0.5,0
		V48.8z M600.4,49.9c-0.1,0-0.3,0-0.5,0c-0.2,0-0.3,0-0.5,0s-0.3,0-0.4,0c-0.1,0-0.2,0-0.3,0v9c0.1,0,0.2,0,0.3,0c0.1,0,0.3,0,0.5,0
		c0.2,0,0.3,0,0.5,0c0.1,0,0.2,0,0.3,0c0.7,0,1.4-0.1,1.9-0.4c0.5-0.3,0.9-0.6,1.2-1s0.5-0.9,0.6-1.5c0.1-0.6,0.2-1.1,0.2-1.7
		c0-0.5-0.1-1-0.2-1.6s-0.3-1-0.6-1.4c-0.3-0.4-0.7-0.8-1.2-1C601.8,50,601.2,49.9,600.4,49.9z"/>
	<path class="st1" d="M607.3,48.6c0.5,0.5,0.9,1.1,1.2,1.7c0.3,0.6,0.6,1.2,0.8,1.9c0.2,0.6,0.4,1.3,0.5,2c0.1,0.7,0.1,1.3,0.1,1.9
		c0,0.6,0,1.2-0.1,1.9c-0.1,0.7-0.3,1.3-0.5,2c-0.2,0.7-0.5,1.3-0.8,1.9c-0.3,0.6-0.8,1.2-1.3,1.8l-0.8-0.6c0.4-0.5,0.8-1.1,1.1-1.7
		c0.3-0.6,0.5-1.2,0.7-1.8c0.2-0.6,0.3-1.2,0.4-1.8c0.1-0.6,0.1-1.2,0.1-1.7c0-0.5,0-1.1-0.1-1.7c-0.1-0.6-0.2-1.2-0.4-1.8
		s-0.4-1.2-0.7-1.8c-0.3-0.6-0.6-1.1-1-1.6L607.3,48.6z"/>
</g>
<g class="st0">
	<path class="st1" d="M517.5,71.4c0,0.7-0.1,1.4-0.4,2.1s-0.6,1.4-0.9,2c-0.4,0.7-0.8,1.3-1.3,1.9c-0.5,0.6-0.9,1.2-1.3,1.7
		l-1.1,0.8v0.1l1.4-0.3h3.8V82h-8.4v-1.3c0.3-0.3,0.7-0.7,1.1-1.2c0.4-0.4,0.8-0.9,1.2-1.4s0.8-1,1.2-1.6c0.4-0.5,0.7-1.1,1-1.6
		s0.5-1.1,0.7-1.6c0.2-0.5,0.3-1,0.3-1.4c0-0.5-0.2-1-0.5-1.4c-0.3-0.4-0.8-0.5-1.5-0.5c-0.4,0-0.9,0.1-1.3,0.3s-0.8,0.4-1.1,0.7
		l-1-1.8c0.5-0.4,1.1-0.8,1.8-1c0.7-0.3,1.4-0.4,2.3-0.4c0.6,0,1.1,0.1,1.6,0.2c0.5,0.2,0.9,0.4,1.2,0.7s0.6,0.7,0.8,1.1
		S517.5,70.8,517.5,71.4z"/>
	<path class="st1" d="M521.4,82l4.6-10.8l0.9-1l-1.2,0.2h-5.1V68h9v0.8L524,82H521.4z"/>
	<path class="st1" d="M531.7,71.2c0-0.6,0.1-1.1,0.3-1.5c0.2-0.4,0.4-0.8,0.7-1.1c0.3-0.3,0.7-0.5,1.1-0.6c0.4-0.1,0.9-0.2,1.4-0.2
		c0.5,0,1,0.1,1.4,0.2c0.4,0.1,0.8,0.3,1.1,0.6c0.3,0.3,0.6,0.6,0.7,1.1s0.3,1,0.3,1.6c0,0.6-0.1,1.2-0.3,1.6s-0.4,0.8-0.7,1
		c-0.3,0.3-0.7,0.5-1.1,0.6s-0.9,0.2-1.4,0.2c-0.5,0-1-0.1-1.4-0.2c-0.4-0.1-0.8-0.3-1.1-0.6s-0.5-0.6-0.7-1
		C531.8,72.3,531.7,71.8,531.7,71.2z M544.2,67.7l1.5,1.3l-11.5,13.2l-1.5-1.4L544.2,67.7z M534,71.2c0,1.1,0.4,1.7,1.2,1.7
		c0.4,0,0.7-0.1,0.9-0.4c0.2-0.2,0.3-0.7,0.3-1.3c0-0.6-0.1-1.1-0.3-1.3c-0.2-0.3-0.5-0.4-0.9-0.4c-0.4,0-0.7,0.1-0.9,0.4
		C534.1,70.1,534,70.5,534,71.2z M539.8,78.6c0-0.6,0.1-1.1,0.3-1.5c0.2-0.4,0.4-0.8,0.7-1.1c0.3-0.3,0.7-0.5,1.1-0.6
		c0.4-0.1,0.9-0.2,1.4-0.2c0.5,0,1,0.1,1.4,0.2s0.8,0.3,1.1,0.6c0.3,0.3,0.6,0.6,0.7,1s0.3,1,0.3,1.6c0,0.6-0.1,1.2-0.3,1.6
		c-0.2,0.4-0.4,0.8-0.7,1c-0.3,0.3-0.7,0.5-1.1,0.6s-0.9,0.2-1.4,0.2c-0.5,0-1-0.1-1.4-0.2c-0.4-0.1-0.8-0.3-1.1-0.6
		c-0.3-0.3-0.5-0.6-0.7-1C539.9,79.7,539.8,79.2,539.8,78.6z M542.1,78.6c0,1.1,0.4,1.7,1.2,1.7c0.4,0,0.7-0.1,0.9-0.4
		c0.2-0.2,0.3-0.7,0.3-1.3c0-0.6-0.1-1.1-0.3-1.3c-0.2-0.3-0.5-0.4-0.9-0.4c-0.4,0-0.7,0.1-0.9,0.4
		C542.2,77.5,542.1,77.9,542.1,78.6z"/>
</g>
<g class="st0">
	<path class="st1" d="M15.9,288.4h3.8v4.9c-0.2,0.1-0.4,0.2-0.6,0.4c-0.2,0.1-0.5,0.2-0.8,0.3c-0.3,0.1-0.6,0.1-0.8,0.2
		c-0.3,0-0.6,0.1-0.9,0.1c-0.7,0-1.4-0.1-2-0.3c-0.6-0.2-1.1-0.6-1.6-1.1c-0.4-0.5-0.8-1.1-1-1.8c-0.2-0.7-0.4-1.6-0.4-2.6
		c0-1,0.1-1.9,0.4-2.7c0.3-0.7,0.7-1.3,1.2-1.8s1-0.8,1.6-1c0.6-0.2,1.2-0.3,1.8-0.3c0.6,0,1.2,0,1.6,0.1s0.8,0.2,1.1,0.3l-0.3,1.2
		c-0.5-0.3-1.2-0.4-2.2-0.4c-0.4,0-0.9,0.1-1.3,0.2c-0.4,0.2-0.8,0.4-1.2,0.8c-0.4,0.4-0.6,0.8-0.9,1.4c-0.2,0.6-0.3,1.3-0.3,2.2
		c0,0.8,0.1,1.5,0.3,2c0.2,0.6,0.4,1.1,0.8,1.4c0.3,0.4,0.7,0.7,1.2,0.8c0.5,0.2,1,0.3,1.5,0.3c0.7,0,1.3-0.1,1.7-0.4v-3.1l-2.6-0.3
		V288.4z"/>
	<path class="st1" d="M25.6,287.2c-0.3-0.1-0.6-0.2-0.9-0.2c-0.5,0-0.8,0.1-1.1,0.4s-0.4,0.6-0.5,1v5.6h-1.3v-8h0.9l0.2,1H23
		c0.2-0.4,0.4-0.6,0.7-0.8c0.3-0.2,0.6-0.3,1.1-0.3c0.3,0,0.7,0.1,1,0.2L25.6,287.2z"/>
	<path class="st1" d="M27.1,286.6c0.4-0.2,0.9-0.4,1.4-0.5s1.1-0.2,1.7-0.2c0.6,0,1,0.1,1.3,0.2s0.6,0.3,0.8,0.6
		c0.2,0.2,0.3,0.5,0.4,0.8s0.1,0.6,0.1,0.9c0,0.6,0,1.3,0,1.9c0,0.6,0,1.2,0,1.7c0,0.4,0,0.8,0,1.1c0,0.4,0.1,0.7,0.2,1H32l-0.3-1.1
		h-0.1c-0.1,0.1-0.2,0.3-0.4,0.4c-0.1,0.1-0.3,0.3-0.5,0.4c-0.2,0.1-0.4,0.2-0.7,0.3c-0.3,0.1-0.6,0.1-0.9,0.1s-0.7-0.1-1-0.2
		s-0.5-0.3-0.8-0.5c-0.2-0.2-0.4-0.4-0.5-0.7c-0.1-0.3-0.2-0.6-0.2-0.9c0-0.5,0.1-0.9,0.3-1.2c0.2-0.3,0.5-0.6,0.8-0.8
		c0.3-0.2,0.8-0.3,1.2-0.4s1-0.1,1.6-0.1c0.1,0,0.3,0,0.4,0s0.3,0,0.4,0c0-0.3,0-0.6,0-0.9c0-0.6-0.1-1-0.4-1.2
		c-0.2-0.2-0.7-0.4-1.3-0.4c-0.2,0-0.4,0-0.6,0s-0.4,0.1-0.6,0.1s-0.4,0.1-0.6,0.2s-0.4,0.2-0.5,0.2L27.1,286.6z M29.4,293
		c0.3,0,0.6,0,0.8-0.1c0.2-0.1,0.4-0.2,0.6-0.3c0.2-0.1,0.3-0.3,0.4-0.4s0.2-0.3,0.2-0.4v-1.3c-0.1,0-0.3,0-0.5,0
		c-0.2,0-0.3,0-0.5,0c-0.3,0-0.7,0-1,0.1c-0.3,0-0.6,0.1-0.8,0.2c-0.2,0.1-0.4,0.2-0.6,0.4c-0.1,0.2-0.2,0.4-0.2,0.7
		c0,0.4,0.1,0.7,0.4,0.9C28.7,292.9,29,293,29.4,293z"/>
	<path class="st1" d="M41.3,291.2c0,0.5,0,1,0,1.5c0,0.4,0.1,0.9,0.1,1.3h-0.9l-0.3-1.1h-0.1c-0.2,0.4-0.5,0.7-0.9,0.9
		s-0.9,0.4-1.4,0.4c-1.1,0-1.9-0.3-2.4-1c-0.5-0.7-0.8-1.7-0.8-3.2c0-1.4,0.3-2.4,1-3.1c0.6-0.7,1.5-1.1,2.7-1.1
		c0.4,0,0.7,0,0.9,0.1c0.2,0,0.5,0.1,0.7,0.2v-3.3h1.3V291.2z M38.1,293.1c0.5,0,1-0.1,1.3-0.4c0.3-0.3,0.5-0.7,0.7-1.3v-4
		c-0.2-0.1-0.4-0.3-0.7-0.3c-0.2-0.1-0.6-0.1-1-0.1c-0.7,0-1.3,0.2-1.7,0.7s-0.6,1.3-0.6,2.3c0,0.4,0,0.8,0.1,1.2s0.2,0.7,0.3,1
		s0.4,0.5,0.6,0.6C37.4,293,37.7,293.1,38.1,293.1z"/>
	<path class="st1" d="M45,286v4.6c0,0.4,0,0.8,0.1,1.1s0.1,0.6,0.2,0.8c0.1,0.2,0.3,0.4,0.5,0.5s0.5,0.2,0.8,0.2
		c0.3,0,0.5,0,0.8-0.1c0.2-0.1,0.4-0.2,0.6-0.4c0.2-0.2,0.3-0.3,0.5-0.6c0.1-0.2,0.2-0.4,0.3-0.7V286H50v5.7c0,0.4,0,0.8,0,1.2
		c0,0.4,0.1,0.8,0.1,1.1h-0.9l-0.3-1.3h-0.1c-0.2,0.4-0.6,0.8-1,1s-0.9,0.4-1.6,0.4c-0.4,0-0.8-0.1-1.1-0.2
		c-0.3-0.1-0.6-0.3-0.8-0.5c-0.2-0.3-0.4-0.6-0.5-1c-0.1-0.4-0.2-1-0.2-1.6V286H45z"/>
	<path class="st1" d="M52.3,286.6c0.4-0.2,0.9-0.4,1.4-0.5s1.1-0.2,1.7-0.2c0.6,0,1,0.1,1.3,0.2s0.6,0.3,0.8,0.6
		c0.2,0.2,0.3,0.5,0.4,0.8s0.1,0.6,0.1,0.9c0,0.6,0,1.3,0,1.9c0,0.6,0,1.2,0,1.7c0,0.4,0,0.8,0,1.1c0,0.4,0.1,0.7,0.2,1h-0.9
		l-0.3-1.1h-0.1c-0.1,0.1-0.2,0.3-0.4,0.4c-0.1,0.1-0.3,0.3-0.5,0.4c-0.2,0.1-0.4,0.2-0.7,0.3c-0.3,0.1-0.6,0.1-0.9,0.1
		s-0.7-0.1-1-0.2s-0.5-0.3-0.8-0.5c-0.2-0.2-0.4-0.4-0.5-0.7c-0.1-0.3-0.2-0.6-0.2-0.9c0-0.5,0.1-0.9,0.3-1.2
		c0.2-0.3,0.5-0.6,0.8-0.8c0.3-0.2,0.8-0.3,1.2-0.4s1-0.1,1.6-0.1c0.1,0,0.3,0,0.4,0s0.3,0,0.4,0c0-0.3,0-0.6,0-0.9
		c0-0.6-0.1-1-0.4-1.2c-0.2-0.2-0.7-0.4-1.3-0.4c-0.2,0-0.4,0-0.6,0s-0.4,0.1-0.6,0.1s-0.4,0.1-0.6,0.2s-0.4,0.2-0.5,0.2L52.3,286.6
		z M54.6,293c0.3,0,0.6,0,0.8-0.1c0.2-0.1,0.4-0.2,0.6-0.3c0.2-0.1,0.3-0.3,0.4-0.4s0.2-0.3,0.2-0.4v-1.3c-0.1,0-0.3,0-0.5,0
		c-0.2,0-0.3,0-0.5,0c-0.3,0-0.7,0-1,0.1c-0.3,0-0.6,0.1-0.8,0.2c-0.2,0.1-0.4,0.2-0.6,0.4c-0.1,0.2-0.2,0.4-0.2,0.7
		c0,0.4,0.1,0.7,0.4,0.9C53.8,292.9,54.2,293,54.6,293z"/>
	<path class="st1" d="M59.3,286h1.2v-1.6l1.3-0.4v2H64v1.1h-2.2v4.4c0,0.6,0.1,0.9,0.2,1.2c0.1,0.2,0.4,0.3,0.7,0.3
		c0.3,0,0.5,0,0.7-0.1c0.2-0.1,0.4-0.1,0.6-0.2l0.3,1c-0.3,0.1-0.6,0.3-0.9,0.3c-0.3,0.1-0.7,0.1-1.1,0.1c-0.7,0-1.1-0.2-1.4-0.6
		c-0.3-0.4-0.4-1-0.4-1.8v-4.7h-1.2V286z"/>
	<path class="st1" d="M71.5,293.4c-0.3,0.3-0.7,0.5-1.2,0.6s-1,0.2-1.5,0.2c-0.6,0-1.1-0.1-1.6-0.3c-0.4-0.2-0.8-0.5-1.1-0.8
		c-0.3-0.4-0.5-0.8-0.6-1.3c-0.1-0.5-0.2-1.1-0.2-1.7c0-1.4,0.3-2.4,0.9-3.1c0.6-0.7,1.5-1.1,2.6-1.1c0.4,0,0.7,0,1.1,0.1
		c0.4,0.1,0.7,0.2,1,0.5c0.3,0.2,0.5,0.5,0.7,1c0.2,0.4,0.3,1,0.3,1.6c0,0.4,0,0.7-0.1,1.2h-5.1c0,0.5,0,0.9,0.1,1.2
		c0.1,0.4,0.2,0.7,0.4,0.9c0.2,0.3,0.5,0.4,0.8,0.6c0.3,0.1,0.7,0.2,1.2,0.2c0.4,0,0.7-0.1,1.1-0.2s0.6-0.3,0.8-0.4L71.5,293.4z
		 M68.7,286.9c-0.6,0-1.1,0.2-1.5,0.5c-0.4,0.3-0.6,0.9-0.7,1.7h4c0-0.8-0.2-1.4-0.5-1.7S69.3,286.9,68.7,286.9z"/>
	<path class="st1" d="M78.1,282.8h6.1v1.2h-4.8v3.7h4.4v1.2h-4.4v4h4.8v1.2h-6.2V282.8z"/>
	<path class="st1" d="M91.7,294v-4.6c0-0.8-0.1-1.5-0.4-1.9c-0.2-0.4-0.7-0.6-1.3-0.6c-0.6,0-1,0.2-1.4,0.5
		c-0.4,0.3-0.6,0.7-0.8,1.1v5.5h-1.3v-8h0.9l0.2,1h0.1c0.3-0.3,0.6-0.6,1-0.8c0.4-0.2,0.9-0.3,1.5-0.3c0.4,0,0.8,0.1,1.2,0.2
		c0.3,0.1,0.6,0.3,0.8,0.5s0.4,0.6,0.5,1c0.1,0.4,0.2,1,0.2,1.6v4.8H91.7z"/>
	<path class="st1" d="M101.5,294.4c0,1-0.3,1.8-0.8,2.3c-0.5,0.5-1.4,0.7-2.4,0.7c-0.6,0-1.2,0-1.5-0.1c-0.4-0.1-0.7-0.2-1-0.3
		l0.3-1.1c0.2,0.1,0.5,0.2,0.8,0.3c0.3,0.1,0.7,0.1,1.2,0.1c0.4,0,0.8,0,1.1-0.1s0.5-0.2,0.7-0.4c0.2-0.2,0.3-0.4,0.4-0.7
		c0.1-0.3,0.1-0.6,0.1-1v-0.8h-0.1c-0.2,0.3-0.5,0.5-0.8,0.7s-0.8,0.2-1.3,0.2c-1.1,0-1.9-0.3-2.4-1c-0.5-0.7-0.8-1.7-0.8-3.1
		c0-1.4,0.3-2.4,1-3.1c0.7-0.7,1.6-1.1,2.9-1.1c0.6,0,1.1,0,1.6,0.1c0.4,0.1,0.8,0.2,1.2,0.3V294.4z M98.3,293.1
		c0.5,0,1-0.1,1.3-0.4c0.3-0.3,0.5-0.7,0.7-1.3v-4.1c-0.4-0.2-1-0.3-1.6-0.3c-0.7,0-1.3,0.2-1.7,0.7c-0.4,0.5-0.6,1.3-0.6,2.3
		c0,0.4,0,0.9,0.1,1.2c0.1,0.4,0.2,0.7,0.4,1c0.2,0.3,0.4,0.5,0.6,0.6C97.6,293,97.9,293.1,98.3,293.1z"/>
	<path class="st1" d="M103.9,283.6c0-0.2,0.1-0.5,0.2-0.6c0.2-0.2,0.4-0.3,0.6-0.3c0.3,0,0.5,0.1,0.7,0.3c0.2,0.2,0.3,0.4,0.3,0.6
		c0,0.2-0.1,0.4-0.3,0.6c-0.2,0.2-0.4,0.2-0.7,0.2c-0.3,0-0.5-0.1-0.6-0.2C104,284,103.9,283.8,103.9,283.6z M104.2,286h1.3v8h-1.3
		V286z"/>
	<path class="st1" d="M113.4,294v-4.6c0-0.8-0.1-1.5-0.4-1.9c-0.2-0.4-0.7-0.6-1.3-0.6c-0.6,0-1,0.2-1.4,0.5
		c-0.4,0.3-0.6,0.7-0.8,1.1v5.5h-1.3v-8h0.9l0.2,1h0.1c0.3-0.3,0.6-0.6,1-0.8c0.4-0.2,0.9-0.3,1.5-0.3c0.4,0,0.8,0.1,1.2,0.2
		c0.3,0.1,0.6,0.3,0.8,0.5s0.4,0.6,0.5,1c0.1,0.4,0.2,1,0.2,1.6v4.8H113.4z"/>
	<path class="st1" d="M122.8,293.4c-0.3,0.3-0.7,0.5-1.2,0.6s-1,0.2-1.5,0.2c-0.6,0-1.1-0.1-1.6-0.3c-0.4-0.2-0.8-0.5-1.1-0.8
		c-0.3-0.4-0.5-0.8-0.6-1.3c-0.1-0.5-0.2-1.1-0.2-1.7c0-1.4,0.3-2.4,0.9-3.1c0.6-0.7,1.5-1.1,2.6-1.1c0.4,0,0.7,0,1.1,0.1
		c0.4,0.1,0.7,0.2,1,0.5c0.3,0.2,0.5,0.5,0.7,1c0.2,0.4,0.3,1,0.3,1.6c0,0.4,0,0.7-0.1,1.2h-5.1c0,0.5,0,0.9,0.1,1.2
		c0.1,0.4,0.2,0.7,0.4,0.9c0.2,0.3,0.5,0.4,0.8,0.6c0.3,0.1,0.7,0.2,1.2,0.2c0.4,0,0.7-0.1,1.1-0.2s0.6-0.3,0.8-0.4L122.8,293.4z
		 M120.1,286.9c-0.6,0-1.1,0.2-1.5,0.5c-0.4,0.3-0.6,0.9-0.7,1.7h4c0-0.8-0.2-1.4-0.5-1.7S120.6,286.9,120.1,286.9z"/>
	<path class="st1" d="M130.8,293.4c-0.3,0.3-0.7,0.5-1.2,0.6s-1,0.2-1.5,0.2c-0.6,0-1.1-0.1-1.6-0.3c-0.4-0.2-0.8-0.5-1.1-0.8
		c-0.3-0.4-0.5-0.8-0.6-1.3c-0.1-0.5-0.2-1.1-0.2-1.7c0-1.4,0.3-2.4,0.9-3.1c0.6-0.7,1.5-1.1,2.6-1.1c0.4,0,0.7,0,1.1,0.1
		c0.4,0.1,0.7,0.2,1,0.5c0.3,0.2,0.5,0.5,0.7,1c0.2,0.4,0.3,1,0.3,1.6c0,0.4,0,0.7-0.1,1.2h-5.1c0,0.5,0,0.9,0.1,1.2
		c0.1,0.4,0.2,0.7,0.4,0.9c0.2,0.3,0.5,0.4,0.8,0.6c0.3,0.1,0.7,0.2,1.2,0.2c0.4,0,0.7-0.1,1.1-0.2s0.6-0.3,0.8-0.4L130.8,293.4z
		 M128,286.9c-0.6,0-1.1,0.2-1.5,0.5c-0.4,0.3-0.6,0.9-0.7,1.7h4c0-0.8-0.2-1.4-0.5-1.7S128.6,286.9,128,286.9z"/>
	<path class="st1" d="M136.8,287.2c-0.3-0.1-0.6-0.2-0.9-0.2c-0.5,0-0.8,0.1-1.1,0.4s-0.4,0.6-0.5,1v5.6h-1.3v-8h0.9l0.2,1h0.1
		c0.2-0.4,0.4-0.6,0.7-0.8c0.3-0.2,0.6-0.3,1.1-0.3c0.3,0,0.7,0.1,1,0.2L136.8,287.2z"/>
	<path class="st1" d="M142,291.8c0-0.3-0.1-0.6-0.3-0.8s-0.4-0.3-0.7-0.5c-0.3-0.1-0.6-0.2-0.9-0.4c-0.3-0.1-0.6-0.3-0.9-0.4
		s-0.5-0.4-0.7-0.7s-0.3-0.7-0.3-1.1c0-0.8,0.2-1.3,0.7-1.7s1-0.5,1.8-0.5c0.6,0,1.1,0.1,1.4,0.2c0.4,0.1,0.7,0.2,1,0.4l-0.3,1.1
		c-0.2-0.1-0.5-0.2-0.9-0.3c-0.3-0.1-0.7-0.1-1.1-0.1c-0.5,0-0.8,0.1-1,0.2s-0.3,0.4-0.3,0.8c0,0.3,0.1,0.5,0.3,0.6
		c0.2,0.2,0.4,0.3,0.7,0.4c0.3,0.1,0.6,0.2,0.9,0.4s0.6,0.3,0.9,0.5c0.3,0.2,0.5,0.4,0.7,0.7c0.2,0.3,0.3,0.7,0.3,1.2
		c0,0.3-0.1,0.7-0.2,1c-0.1,0.3-0.3,0.6-0.5,0.8c-0.2,0.2-0.5,0.4-0.9,0.5c-0.3,0.1-0.8,0.2-1.2,0.2c-0.6,0-1.1-0.1-1.6-0.2
		s-0.8-0.3-1.1-0.4l0.4-1.1c0.2,0.1,0.6,0.3,1,0.4c0.4,0.1,0.8,0.2,1.2,0.2c0.5,0,0.8-0.1,1.1-0.3C141.9,292.6,142,292.3,142,291.8z
		"/>
</g>
<g class="st0">
	<path class="st1" d="M4.5,319.5c-0.5-0.5-0.9-1.1-1.2-1.7s-0.6-1.2-0.8-1.9c-0.2-0.6-0.4-1.3-0.5-2s-0.1-1.3-0.1-1.9
		c0-0.6,0-1.2,0.1-1.9c0.1-0.7,0.3-1.3,0.5-2s0.5-1.3,0.8-1.9c0.3-0.6,0.8-1.2,1.3-1.8l0.8,0.6c-0.4,0.5-0.8,1.1-1.1,1.7
		c-0.3,0.6-0.5,1.2-0.7,1.8c-0.2,0.6-0.3,1.2-0.4,1.8c-0.1,0.6-0.1,1.2-0.1,1.7c0,0.5,0,1.1,0.1,1.7s0.2,1.2,0.4,1.8
		c0.2,0.6,0.4,1.2,0.7,1.8c0.3,0.6,0.6,1.1,1,1.6L4.5,319.5z"/>
	<path class="st1" d="M13.5,307.4c0,0.3,0,0.5-0.1,0.8s-0.2,0.5-0.4,0.8c-0.2,0.2-0.4,0.5-0.7,0.6s-0.6,0.3-0.9,0.4v0.1
		c0.3,0.1,0.6,0.1,0.9,0.3s0.6,0.3,0.8,0.5c0.2,0.2,0.4,0.5,0.5,0.8c0.1,0.3,0.2,0.7,0.2,1.1c0,0.6-0.1,1.1-0.4,1.5
		c-0.2,0.4-0.6,0.8-0.9,1c-0.4,0.3-0.8,0.5-1.3,0.6c-0.5,0.1-1,0.2-1.5,0.2c-0.2,0-0.4,0-0.6,0c-0.2,0-0.5,0-0.8,0
		c-0.3,0-0.5,0-0.8-0.1S7,316,6.8,315.9v-11c0.4-0.1,0.9-0.1,1.4-0.2c0.5,0,1.1-0.1,1.7-0.1c0.4,0,0.8,0,1.3,0.1
		c0.4,0.1,0.8,0.2,1.2,0.4s0.6,0.5,0.9,0.8C13.4,306.4,13.5,306.8,13.5,307.4z M8.9,309.7c0.2,0,0.4,0,0.7,0c0.3,0,0.5,0,0.6,0
		c0.3-0.1,0.5-0.2,0.7-0.3c0.2-0.1,0.4-0.3,0.6-0.4c0.2-0.2,0.3-0.4,0.4-0.6c0.1-0.2,0.2-0.5,0.2-0.7c0-0.4-0.1-0.6-0.2-0.9
		s-0.3-0.4-0.5-0.6c-0.2-0.1-0.5-0.2-0.8-0.3c-0.3-0.1-0.6-0.1-0.9-0.1c-0.4,0-0.7,0-1,0c-0.3,0-0.5,0-0.7,0.1v3.8H8.9z M9.8,315
		c0.3,0,0.7,0,1-0.1c0.3-0.1,0.6-0.2,0.8-0.4c0.2-0.2,0.4-0.4,0.6-0.6c0.1-0.3,0.2-0.6,0.2-0.9c0-0.4-0.1-0.8-0.3-1.1
		c-0.2-0.3-0.4-0.5-0.7-0.6s-0.6-0.3-1-0.3c-0.4-0.1-0.7-0.1-1.1-0.1H8.1v4c0.1,0,0.2,0,0.3,0s0.3,0,0.4,0s0.3,0,0.5,0
		C9.5,315,9.7,315,9.8,315z"/>
	<path class="st1" d="M16.1,304.8h6.1v1.2h-4.8v3.7h4.4v1.2h-4.4v4h4.8v1.2h-6.2V304.8z"/>
	<path class="st1" d="M28.6,304.6l1,0.4l-5.8,13.2l-1-0.4L28.6,304.6z"/>
	<path class="st1" d="M37.1,307.4c0,0.3,0,0.5-0.1,0.8s-0.2,0.5-0.4,0.8c-0.2,0.2-0.4,0.5-0.7,0.6s-0.6,0.3-0.9,0.4v0.1
		c0.3,0.1,0.6,0.1,0.9,0.3s0.6,0.3,0.8,0.5c0.2,0.2,0.4,0.5,0.5,0.8c0.1,0.3,0.2,0.7,0.2,1.1c0,0.6-0.1,1.1-0.4,1.5
		c-0.2,0.4-0.6,0.8-0.9,1c-0.4,0.3-0.8,0.5-1.3,0.6c-0.5,0.1-1,0.2-1.5,0.2c-0.2,0-0.4,0-0.6,0c-0.2,0-0.5,0-0.8,0
		c-0.3,0-0.5,0-0.8-0.1s-0.5-0.1-0.7-0.1v-11c0.4-0.1,0.9-0.1,1.4-0.2c0.5,0,1.1-0.1,1.7-0.1c0.4,0,0.8,0,1.3,0.1
		c0.4,0.1,0.8,0.2,1.2,0.4s0.6,0.5,0.9,0.8C37,306.4,37.1,306.8,37.1,307.4z M32.5,309.7c0.2,0,0.4,0,0.7,0c0.3,0,0.5,0,0.6,0
		c0.3-0.1,0.5-0.2,0.7-0.3c0.2-0.1,0.4-0.3,0.6-0.4c0.2-0.2,0.3-0.4,0.4-0.6c0.1-0.2,0.2-0.5,0.2-0.7c0-0.4-0.1-0.6-0.2-0.9
		s-0.3-0.4-0.5-0.6c-0.2-0.1-0.5-0.2-0.8-0.3c-0.3-0.1-0.6-0.1-0.9-0.1c-0.4,0-0.7,0-1,0c-0.3,0-0.5,0-0.7,0.1v3.8H32.5z M33.4,315
		c0.3,0,0.7,0,1-0.1c0.3-0.1,0.6-0.2,0.8-0.4c0.2-0.2,0.4-0.4,0.6-0.6c0.1-0.3,0.2-0.6,0.2-0.9c0-0.4-0.1-0.8-0.3-1.1
		c-0.2-0.3-0.4-0.5-0.7-0.6s-0.6-0.3-1-0.3c-0.4-0.1-0.7-0.1-1.1-0.1h-1.4v4c0.1,0,0.2,0,0.3,0s0.3,0,0.4,0s0.3,0,0.5,0
		C33.1,315,33.2,315,33.4,315z"/>
	<path class="st1" d="M50.7,306h-3.5v10h-1.3v-10h-3.5v-1.2h8.3V306z"/>
	<path class="st1" d="M56,315.4c-0.3,0.3-0.7,0.5-1.2,0.6s-1,0.2-1.5,0.2c-0.6,0-1.1-0.1-1.6-0.3c-0.4-0.2-0.8-0.5-1.1-0.8
		c-0.3-0.4-0.5-0.8-0.6-1.3c-0.1-0.5-0.2-1.1-0.2-1.7c0-1.4,0.3-2.4,0.9-3.1c0.6-0.7,1.5-1.1,2.6-1.1c0.4,0,0.7,0,1.1,0.1
		c0.4,0.1,0.7,0.2,1,0.5c0.3,0.2,0.5,0.5,0.7,1c0.2,0.4,0.3,1,0.3,1.6c0,0.4,0,0.7-0.1,1.2H51c0,0.5,0,0.9,0.1,1.2
		c0.1,0.4,0.2,0.7,0.4,0.9c0.2,0.3,0.5,0.4,0.8,0.6c0.3,0.1,0.7,0.2,1.2,0.2c0.4,0,0.7-0.1,1.1-0.2s0.6-0.3,0.8-0.4L56,315.4z
		 M53.2,308.9c-0.6,0-1.1,0.2-1.5,0.5c-0.4,0.3-0.6,0.9-0.7,1.7h4c0-0.8-0.2-1.4-0.5-1.7S53.8,308.9,53.2,308.9z"/>
	<path class="st1" d="M63.6,315.5c-0.3,0.2-0.7,0.4-1.1,0.5c-0.4,0.1-0.9,0.2-1.4,0.2c-0.6,0-1.1-0.1-1.6-0.3
		c-0.4-0.2-0.8-0.5-1-0.8s-0.5-0.8-0.6-1.3c-0.1-0.5-0.2-1.1-0.2-1.7c0-1.4,0.3-2.4,0.9-3.1c0.6-0.7,1.5-1.1,2.6-1.1
		c0.5,0,0.9,0,1.3,0.1s0.7,0.2,1,0.3l-0.4,1.1c-0.2-0.1-0.5-0.2-0.8-0.3c-0.3-0.1-0.6-0.1-1-0.1c-1.5,0-2.3,1-2.3,3.1
		c0,0.4,0,0.8,0.1,1.2s0.2,0.7,0.4,1c0.2,0.3,0.4,0.5,0.7,0.7c0.3,0.2,0.7,0.3,1.1,0.3c0.4,0,0.7-0.1,1-0.2c0.3-0.1,0.6-0.3,0.7-0.4
		L63.6,315.5z"/>
	<path class="st1" d="M70.5,316v-4.6c0-0.4,0-0.8-0.1-1.1c0-0.3-0.1-0.6-0.3-0.8c-0.1-0.2-0.3-0.4-0.5-0.5c-0.2-0.1-0.5-0.2-0.9-0.2
		c-0.5,0-1,0.2-1.4,0.5s-0.7,0.7-0.8,1.3v5.3h-1.3v-11.2h1.3v4.1h0.1c0.3-0.3,0.6-0.6,1-0.8c0.4-0.2,0.9-0.3,1.4-0.3
		c0.4,0,0.8,0.1,1.2,0.2s0.6,0.3,0.8,0.5c0.2,0.3,0.4,0.6,0.5,1c0.1,0.4,0.2,1,0.2,1.6v4.8H70.5z"/>
	<path class="st1" d="M73.6,315.3c0-0.3,0.1-0.5,0.2-0.7c0.2-0.2,0.4-0.2,0.7-0.2c0.3,0,0.5,0.1,0.7,0.2c0.2,0.2,0.3,0.4,0.3,0.7
		c0,0.3-0.1,0.5-0.3,0.7c-0.2,0.2-0.4,0.3-0.7,0.3c-0.3,0-0.5-0.1-0.7-0.3C73.7,315.8,73.6,315.5,73.6,315.3z"/>
	<path class="st1" d="M81.5,304.6l1,0.4l-5.8,13.2l-1-0.4L81.5,304.6z"/>
	<path class="st1" d="M83.3,304.8c0.2,0,0.4-0.1,0.7-0.1c0.3,0,0.5,0,0.8,0c0.3,0,0.5,0,0.8,0c0.3,0,0.5,0,0.7,0
		c0.9,0,1.7,0.1,2.3,0.4c0.7,0.3,1.2,0.7,1.6,1.2c0.4,0.5,0.7,1.1,1,1.8s0.3,1.5,0.3,2.3c0,0.8-0.1,1.5-0.3,2.2
		c-0.2,0.7-0.5,1.3-0.9,1.9c-0.4,0.5-1,1-1.7,1.3s-1.5,0.5-2.5,0.5c-0.2,0-0.4,0-0.7,0c-0.3,0-0.6,0-0.8,0c-0.3,0-0.6,0-0.8,0
		c-0.2,0-0.4,0-0.5,0V304.8z M86.3,305.9c-0.1,0-0.3,0-0.5,0c-0.2,0-0.3,0-0.5,0s-0.3,0-0.4,0s-0.2,0-0.3,0v9c0.1,0,0.2,0,0.3,0
		c0.1,0,0.3,0,0.5,0c0.2,0,0.3,0,0.5,0c0.1,0,0.3,0,0.3,0c0.7,0,1.4-0.1,1.9-0.4c0.5-0.3,0.9-0.6,1.2-1c0.3-0.4,0.5-0.9,0.6-1.5
		c0.1-0.6,0.2-1.1,0.2-1.7c0-0.5-0.1-1-0.2-1.6s-0.3-1-0.6-1.4c-0.3-0.4-0.7-0.8-1.2-1C87.7,306,87.1,305.9,86.3,305.9z"/>
	<path class="st1" d="M93.6,305.6c0-0.2,0.1-0.5,0.2-0.6c0.2-0.2,0.4-0.3,0.6-0.3c0.3,0,0.5,0.1,0.7,0.3c0.2,0.2,0.3,0.4,0.3,0.6
		c0,0.2-0.1,0.4-0.3,0.6c-0.2,0.2-0.4,0.2-0.7,0.2c-0.3,0-0.5-0.1-0.6-0.2C93.7,306,93.6,305.8,93.6,305.6z M93.9,308h1.3v8h-1.3
		V308z"/>
	<path class="st1" d="M97.9,308h0.9l0.2,1h0.1c0.2-0.4,0.6-0.7,1-0.9c0.4-0.2,0.8-0.3,1.3-0.3c1.1,0,1.9,0.3,2.4,0.9
		c0.5,0.6,0.8,1.7,0.8,3.1c0,0.7-0.1,1.3-0.3,1.8c-0.2,0.5-0.4,1-0.7,1.4c-0.3,0.4-0.7,0.7-1.2,0.9c-0.5,0.2-1,0.3-1.5,0.3
		c-0.4,0-0.7,0-0.9-0.1s-0.5-0.1-0.7-0.2v3.3h-1.3V308z M101.2,308.9c-0.5,0-1,0.1-1.3,0.4c-0.3,0.3-0.5,0.7-0.7,1.3v4
		c0.2,0.1,0.4,0.3,0.7,0.3c0.2,0.1,0.6,0.1,1,0.1c0.7,0,1.3-0.3,1.8-0.8c0.4-0.5,0.6-1.4,0.6-2.4c0-0.4,0-0.8-0.1-1.2
		c-0.1-0.4-0.2-0.7-0.4-0.9c-0.2-0.2-0.4-0.4-0.6-0.6C101.9,309,101.5,308.9,101.2,308.9z"/>
	<path class="st1" d="M108,314c0,0.4,0.1,0.6,0.2,0.8s0.3,0.2,0.5,0.2c0.1,0,0.3,0,0.4,0c0.2,0,0.3-0.1,0.5-0.1l0.1,1
		c-0.2,0.1-0.4,0.2-0.7,0.2c-0.3,0.1-0.6,0.1-0.8,0.1c-0.5,0-0.9-0.1-1.2-0.4c-0.3-0.3-0.5-0.7-0.5-1.4v-9.6h1.3V314z"/>
	<path class="st1" d="M110.8,312c0-1.4,0.3-2.4,0.9-3.1c0.6-0.7,1.5-1.1,2.6-1.1c0.6,0,1.1,0.1,1.6,0.3c0.4,0.2,0.8,0.5,1.1,0.8
		s0.5,0.8,0.6,1.3s0.2,1.1,0.2,1.7c0,1.4-0.3,2.4-0.9,3.1c-0.6,0.7-1.5,1.1-2.6,1.1c-0.6,0-1.1-0.1-1.6-0.3
		c-0.4-0.2-0.8-0.5-1.1-0.8c-0.3-0.4-0.5-0.8-0.6-1.3C110.9,313.2,110.8,312.6,110.8,312z M112.1,312c0,0.4,0,0.8,0.1,1.2
		s0.2,0.7,0.4,1c0.2,0.3,0.4,0.5,0.7,0.7c0.3,0.2,0.6,0.3,1,0.3c1.5,0,2.2-1,2.2-3.1c0-0.4,0-0.8-0.1-1.2c-0.1-0.4-0.2-0.7-0.4-1
		c-0.2-0.3-0.4-0.5-0.7-0.7c-0.3-0.2-0.6-0.2-1-0.2C112.9,308.9,112.1,309.9,112.1,312z"/>
	<path class="st1" d="M124.5,316v-4.5c0-0.4,0-0.8-0.1-1.1c0-0.3-0.1-0.6-0.2-0.8c-0.1-0.2-0.3-0.4-0.5-0.5s-0.5-0.2-0.8-0.2
		c-0.5,0-0.9,0.1-1.2,0.4s-0.6,0.7-0.7,1.1v5.5h-1.3v-8h0.9l0.2,1h0.1c0.3-0.3,0.6-0.6,1-0.8c0.4-0.2,0.9-0.3,1.5-0.3
		c0.5,0,0.9,0.1,1.3,0.3c0.3,0.2,0.6,0.5,0.8,1c0.2-0.4,0.6-0.7,1-1c0.4-0.2,0.9-0.4,1.5-0.4c0.4,0,0.8,0.1,1.1,0.2
		c0.3,0.1,0.6,0.3,0.8,0.5s0.3,0.6,0.4,1c0.1,0.4,0.1,1,0.1,1.7v4.8h-1.3v-4.8c0-0.4,0-0.7-0.1-1c0-0.3-0.1-0.5-0.2-0.7
		c-0.1-0.2-0.3-0.3-0.5-0.4c-0.2-0.1-0.5-0.1-0.8-0.1c-0.5,0-0.9,0.1-1.2,0.4s-0.5,0.7-0.6,1.3v5.3H124.5z"/>
	<path class="st1" d="M132.7,308.6c0.4-0.2,0.9-0.4,1.4-0.5s1.1-0.2,1.7-0.2c0.6,0,1,0.1,1.3,0.2s0.6,0.3,0.8,0.6
		c0.2,0.2,0.3,0.5,0.4,0.8s0.1,0.6,0.1,0.9c0,0.6,0,1.3,0,1.9c0,0.6,0,1.2,0,1.7c0,0.4,0,0.8,0,1.1c0,0.4,0.1,0.7,0.2,1h-0.9
		l-0.3-1.1h-0.1c-0.1,0.1-0.2,0.3-0.4,0.4c-0.1,0.1-0.3,0.3-0.5,0.4c-0.2,0.1-0.4,0.2-0.7,0.3c-0.3,0.1-0.6,0.1-0.9,0.1
		s-0.7-0.1-1-0.2s-0.5-0.3-0.8-0.5c-0.2-0.2-0.4-0.4-0.5-0.7c-0.1-0.3-0.2-0.6-0.2-0.9c0-0.5,0.1-0.9,0.3-1.2
		c0.2-0.3,0.5-0.6,0.8-0.8c0.3-0.2,0.8-0.3,1.2-0.4s1-0.1,1.6-0.1c0.1,0,0.3,0,0.4,0s0.3,0,0.4,0c0-0.3,0-0.6,0-0.9
		c0-0.6-0.1-1-0.4-1.2c-0.2-0.2-0.7-0.4-1.3-0.4c-0.2,0-0.4,0-0.6,0s-0.4,0.1-0.6,0.1s-0.4,0.1-0.6,0.2s-0.4,0.2-0.5,0.2
		L132.7,308.6z M135,315c0.3,0,0.6,0,0.8-0.1c0.2-0.1,0.4-0.2,0.6-0.3c0.2-0.1,0.3-0.3,0.4-0.4s0.2-0.3,0.2-0.4v-1.3
		c-0.1,0-0.3,0-0.5,0c-0.2,0-0.3,0-0.5,0c-0.3,0-0.7,0-1,0.1c-0.3,0-0.6,0.1-0.8,0.2c-0.2,0.1-0.4,0.2-0.6,0.4
		c-0.1,0.2-0.2,0.4-0.2,0.7c0,0.4,0.1,0.7,0.4,0.9C134.2,314.9,134.5,315,135,315z"/>
	<path class="st1" d="M140.4,304.6c0.5,0.5,0.9,1.1,1.2,1.7c0.3,0.6,0.6,1.2,0.8,1.9c0.2,0.6,0.4,1.3,0.5,2c0.1,0.7,0.1,1.3,0.1,1.9
		c0,0.6,0,1.2-0.1,1.9s-0.3,1.3-0.5,2s-0.5,1.3-0.8,1.9c-0.3,0.6-0.8,1.2-1.3,1.8l-0.8-0.6c0.4-0.5,0.8-1.1,1.1-1.7
		c0.3-0.6,0.5-1.2,0.7-1.8c0.2-0.6,0.3-1.2,0.4-1.8c0.1-0.6,0.1-1.2,0.1-1.7c0-0.5,0-1.1-0.1-1.7c-0.1-0.6-0.2-1.2-0.4-1.8
		c-0.2-0.6-0.4-1.2-0.7-1.8c-0.3-0.6-0.6-1.1-1-1.6L140.4,304.6z"/>
</g>
<g class="st0">
	<path class="st1" d="M108.9,336c0.9,0,1.6-0.2,2-0.6s0.7-1,0.7-1.8c0-0.8-0.3-1.4-0.8-1.8s-1.3-0.6-2.3-0.6l-1.6,0.1V324h6.9v2.4
		h-4.6v2.7l0.8-0.1c0.7,0,1.2,0.1,1.8,0.4c0.5,0.2,1,0.5,1.4,0.9c0.4,0.4,0.7,0.8,0.9,1.4c0.2,0.5,0.3,1.1,0.3,1.8
		c0,0.8-0.1,1.5-0.4,2.1s-0.6,1.1-1.1,1.5c-0.5,0.4-1,0.7-1.7,0.9c-0.6,0.2-1.3,0.3-2.1,0.3c-0.6,0-1.2,0-1.7-0.2
		c-0.5-0.1-1-0.2-1.4-0.4l0.7-2.2c0.3,0.1,0.6,0.2,1,0.3S108.4,336,108.9,336z"/>
	<path class="st1" d="M120.3,336c0.9,0,1.6-0.2,2-0.6s0.7-1,0.7-1.8c0-0.8-0.3-1.4-0.8-1.8s-1.3-0.6-2.3-0.6l-1.6,0.1V324h6.9v2.4
		h-4.6v2.7l0.8-0.1c0.7,0,1.2,0.1,1.8,0.4c0.5,0.2,1,0.5,1.4,0.9c0.4,0.4,0.7,0.8,0.9,1.4c0.2,0.5,0.3,1.1,0.3,1.8
		c0,0.8-0.1,1.5-0.4,2.1s-0.6,1.1-1.1,1.5c-0.5,0.4-1,0.7-1.7,0.9c-0.6,0.2-1.3,0.3-2.1,0.3c-0.6,0-1.2,0-1.7-0.2
		c-0.5-0.1-1-0.2-1.4-0.4l0.7-2.2c0.3,0.1,0.6,0.2,1,0.3S119.7,336,120.3,336z"/>
	<path class="st1" d="M128.2,327.2c0-0.6,0.1-1.1,0.3-1.5s0.4-0.8,0.7-1.1c0.3-0.3,0.7-0.5,1.1-0.6s0.9-0.2,1.4-0.2
		c0.5,0,1,0.1,1.4,0.2c0.4,0.1,0.8,0.3,1.1,0.6c0.3,0.3,0.6,0.6,0.7,1.1s0.3,1,0.3,1.6c0,0.6-0.1,1.2-0.3,1.6s-0.4,0.8-0.7,1
		c-0.3,0.3-0.7,0.5-1.1,0.6s-0.9,0.2-1.4,0.2c-0.5,0-1-0.1-1.4-0.2s-0.8-0.3-1.1-0.6s-0.5-0.6-0.7-1S128.2,327.8,128.2,327.2z
		 M140.7,323.7l1.5,1.3l-11.5,13.2l-1.5-1.4L140.7,323.7z M130.5,327.2c0,1.1,0.4,1.7,1.2,1.7c0.4,0,0.7-0.1,0.9-0.4
		c0.2-0.2,0.3-0.7,0.3-1.3c0-0.6-0.1-1.1-0.3-1.3c-0.2-0.3-0.5-0.4-0.9-0.4c-0.4,0-0.7,0.1-0.9,0.4
		C130.6,326.1,130.5,326.5,130.5,327.2z M136.3,334.6c0-0.6,0.1-1.1,0.3-1.5s0.4-0.8,0.7-1.1c0.3-0.3,0.7-0.5,1.1-0.6
		c0.4-0.1,0.9-0.2,1.4-0.2c0.5,0,1,0.1,1.4,0.2s0.8,0.3,1.1,0.6c0.3,0.3,0.6,0.6,0.7,1s0.3,1,0.3,1.6c0,0.6-0.1,1.2-0.3,1.6
		c-0.2,0.4-0.4,0.8-0.7,1c-0.3,0.3-0.7,0.5-1.1,0.6s-0.9,0.2-1.4,0.2c-0.5,0-1-0.1-1.4-0.2c-0.4-0.1-0.8-0.3-1.1-0.6
		c-0.3-0.3-0.5-0.6-0.7-1C136.4,335.7,136.3,335.2,136.3,334.6z M138.7,334.6c0,1.1,0.4,1.7,1.2,1.7c0.4,0,0.7-0.1,0.9-0.4
		c0.2-0.2,0.3-0.7,0.3-1.3c0-0.6-0.1-1.1-0.3-1.3c-0.2-0.3-0.5-0.4-0.9-0.4c-0.4,0-0.7,0.1-0.9,0.4
		C138.8,333.5,138.7,333.9,138.7,334.6z"/>
</g>
<g id="Group_25315" transform="translate(231 1415.829)">
	<g>
		<defs>
			<rect id="SVGID_1_" x="-138" y="-1405" width="402.9" height="299.2"/>
		</defs>
		<clipPath id="SVGID_00000134241785204300350570000000252794793039323839_">
			<use xlink:href="#SVGID_1_"  style="overflow:visible;"/>
		</clipPath>
		
			<g id="Group_25314" transform="translate(0 0)" style="clip-path:url(#SVGID_00000134241785204300350570000000252794793039323839_);">
			<path id="Path_4992" class="st3" d="M94.8-1234.3l-116.5-54.3c21.6-46.3,65.4-74.2,116.5-74.2L94.8-1234.3z"/>
			<path id="Path_4993" class="st4" d="M94.8-1234.3l127.6,15.7c-8.7,70.5-72.8,120.6-143.3,111.9S-41.4-1179.5-32.8-1250
				c1.5-13.4,5.3-26.5,11.1-38.7L94.8-1234.3z"/>
			<path id="Path_4994" class="st5" d="M94.8-1234.3v-128.6c71,0,128.6,57.6,128.6,128.5c0,0,0,0,0,0c0,5.2-0.3,10.5-1,15.7
				L94.8-1234.3z"/>
			<path id="Path_4995" class="st6" d="M94.8-1165.5c38,0,68.8-30.8,68.8-68.8s-30.8-68.8-68.8-68.8c-38,0-68.8,30.8-68.8,68.8
				c0,0,0,0,0,0C26-1196.3,56.8-1165.5,94.8-1165.5"/>
			<path id="Path_4996" class="st7" d="M264.9-1395.8h-80.4c-11.5,0-20.8,9.3-20.8,20.8v23.9"/>
			<path id="Path_4997" class="st1" d="M163.6-1348.1c1.6,0,3-1.3,3-3s-1.3-3-3-3c-1.6,0-3,1.3-3,3c0,0,0,0,0,0
				C160.6-1349.5,162-1348.1,163.6-1348.1C163.6-1348.1,163.6-1348.1,163.6-1348.1"/>
			<path id="Path_4998" class="st7" d="M-41.9-1404.3h63.5c11.5,0,20.8,9.3,20.8,20.8v23.9"/>
			<path id="Path_4999" class="st1" d="M42.5-1356.6c-1.6,0-3-1.3-3-3c0-1.6,1.3-3,3-3c1.6,0,3,1.3,3,3
				C45.5-1357.9,44.2-1356.6,42.5-1356.6C42.5-1356.6,42.5-1356.6,42.5-1356.6"/>
			<path id="Path_5000" class="st7" d="M-33.8-1199h-80.4c-11.5,0-20.8,9.3-20.8,20.8v23.9"/>
			<path id="Path_5001" class="st1" d="M-135-1151.3c1.6,0,3-1.3,3-3s-1.3-3-3-3s-3,1.3-3,3c0,0,0,0,0,0
				C-138-1152.6-136.7-1151.3-135-1151.3C-135-1151.3-135-1151.3-135-1151.3"/>
		</g>
	</g>
</g>
</svg>
