<svg id="Group_25320" data-name="Group 25320" xmlns="http://www.w3.org/2000/svg" xmlns:xlink="http://www.w3.org/1999/xlink" width="76" height="65.664" viewBox="0 0 76 65.664">
  <defs>
    <clipPath id="clip-path">
      <rect id="Rectangle_10385" data-name="Rectangle 10385" width="76" height="65.664" fill="none"/>
    </clipPath>
  </defs>
  <g id="Group_25319" data-name="Group 25319" transform="translate(0 0)" clip-path="url(#clip-path)">
    <path id="Path_5002" data-name="Path 5002" d="M17.357,6.044a.948.948,0,0,0-.515,1.714l9.639,7.194a2.386,2.386,0,0,0,.916,2.467l6.643,4.957a2.385,2.385,0,0,0,2.848,0l3.514-2.62V31.21a8.361,8.361,0,0,1,3.082-2.288,8.222,8.222,0,0,1,5.381-.415l3.5-5.468V21.32l1.272,1.541-3.821,5.953a8.478,8.478,0,0,1,3.756,2.793,2.565,2.565,0,0,0,.428-.5l4.585-7.135a2.381,2.381,0,0,0-.167-2.8L52.487,14a2.384,2.384,0,0,0-1.834-.861H42.116a2.375,2.375,0,0,0-1.429.472L35.469,17.5l-5.222-3.894a2.418,2.418,0,0,0-1.561-.491,2.383,2.383,0,0,0-1.065.314l-9.639-7.2a.969.969,0,0,0-.625-.191" transform="translate(17.038 6.259)" fill="#818386"/>
    <path id="Path_5003" data-name="Path 5003" d="M28.911,11.2A5.479,5.479,0,1,0,31.773,4a5.485,5.485,0,0,0-2.862,7.2" transform="translate(29.48 3.677)" fill="#818386"/>
    <path id="Path_5004" data-name="Path 5004" d="M6.993,25.388A6.929,6.929,0,0,0,.9,29.419a10.014,10.014,0,0,0-.759,5.727,6.663,6.663,0,0,0,1,2.791A4.055,4.055,0,0,0,3.14,39.368H21.166a4.045,4.045,0,0,0,2-1.431,6.6,6.6,0,0,0,1-2.791,10.082,10.082,0,0,0-.757-5.727,6.926,6.926,0,0,0-6.1-4.031Z" transform="translate(0 26.297)" fill="#bccf3b"/>
    <path id="Path_5005" data-name="Path 5005" d="M3.259,27.1a6.64,6.64,0,1,0,3.467-8.727A6.651,6.651,0,0,0,3.259,27.1" transform="translate(2.81 18.462)" fill="#bccf3b"/>
    <path id="Path_5006" data-name="Path 5006" d="M24.81,17.824a6.715,6.715,0,0,0-2.579.546,6.634,6.634,0,1,0,2.579-.546m-5.12,15.4a6.932,6.932,0,0,0-6.1,4.031,10.051,10.051,0,0,0-.757,5.727,6.657,6.657,0,0,0,1,2.791,4.018,4.018,0,0,0,2,1.431H33.863a4.045,4.045,0,0,0,2-1.431,6.6,6.6,0,0,0,1-2.791,10.037,10.037,0,0,0-.759-5.727,6.922,6.922,0,0,0-6.091-4.031Z" transform="translate(13.151 18.462)" fill="#bccf3b"/>
    <path id="Path_5007" data-name="Path 5007" d="M32.386,25.388a6.929,6.929,0,0,0-6.1,4.031,10.014,10.014,0,0,0-.759,5.727,6.6,6.6,0,0,0,1,2.791,4.027,4.027,0,0,0,2,1.431H46.559a4.045,4.045,0,0,0,2-1.431,6.6,6.6,0,0,0,1-2.791,10.033,10.033,0,0,0-.759-5.727,6.922,6.922,0,0,0-6.091-4.031Z" transform="translate(26.301 26.297)" fill="#bccf3b"/>
    <path id="Path_5008" data-name="Path 5008" d="M28.65,27.1a6.64,6.64,0,1,0,3.467-8.727A6.651,6.651,0,0,0,28.65,27.1" transform="translate(29.111 18.462)" fill="#bccf3b"/>
    <path id="Path_5009" data-name="Path 5009" d="M7.823,0A1.179,1.179,0,0,0,6.646,1.183v31.95a1.181,1.181,0,0,0,1.177,1.181H48.746V31.95H9.005V2.37H53.223V6.05h2.366V1.181A1.183,1.183,0,0,0,54.406,0Z" transform="translate(6.884 0)" fill="#818386"/>
  </g>
</svg>
